<?xml version="1.0" encoding="UTF-8" standalone="no"?>
<!-- Created with Inkscape (http://www.inkscape.org/) -->

<svg
   width="32"
   height="32"
   viewBox="0 0 32 32"
   version="1.1"
   id="svg5"
   inkscape:version="1.2.1 (9c6d41e410, 2022-07-14, custom)"
   sodipodi:docname="application-vnd.ms-excel.svg"
   xmlns:inkscape="http://www.inkscape.org/namespaces/inkscape"
   xmlns:sodipodi="http://sodipodi.sourceforge.net/DTD/sodipodi-0.dtd"
   xmlns="http://www.w3.org/2000/svg"
   xmlns:svg="http://www.w3.org/2000/svg">
  <sodipodi:namedview
     id="namedview7"
     pagecolor="#ffffff"
     bordercolor="#000000"
     borderopacity="0.25"
     inkscape:showpageshadow="2"
     inkscape:pageopacity="0.0"
     inkscape:pagecheckerboard="0"
     inkscape:deskcolor="#d1d1d1"
     inkscape:document-units="px"
     showgrid="false"
     inkscape:zoom="25.84375"
     inkscape:cx="16"
     inkscape:cy="16"
     inkscape:window-width="1920"
     inkscape:window-height="1029"
     inkscape:window-x="0"
     inkscape:window-y="0"
     inkscape:window-maximized="1"
     inkscape:current-layer="svg5" />
  <defs
     id="defs2" />
  <path
     id="rect846"
     style="fill:#7d7d7b;stroke-width:0.999999;stroke-linecap:round;stroke-linejoin:round"
     d="M 5,1 H 20.5 L 27,7.5 V 31 H 5 Z"
     sodipodi:nodetypes="cccccc" />
  <path
     id="rect1454"
     style="fill:#fafafa;stroke-width:0.999999;stroke-linecap:round;stroke-linejoin:round"
     d="M 6,1.9999987 V 29.999998 H 26 V 9 H 20 C 19.314274,9 19.000001,8.5097479 19.000001,8 V 1.9999987 Z m 14,0 V 8 h 6 z"
     sodipodi:nodetypes="ccccsscccccc" />
  <path
     id="rect1708"
     style="fill:#c0c5cb;fill-opacity:1;stroke-width:3;stroke-linecap:round;stroke-linejoin:round"
     d="m 15,13 v 1 h 4 v -1 z m 6,0 v 1 h 4 v -1 z m -6,2 v 1 h 4 v -1 z m 6,0 v 1 h 4 v -1 z m -6,2 v 1 h 4 v -1 z m 6,0 v 1 h 4 v -1 z m -6,2 v 1 h 4 v -1 z m 6,0 v 1 h 4 v -1 z m -6,2 v 1 h 4 v -1 z m 6,0 v 1 h 4 v -1 z"
     sodipodi:nodetypes="cccccccccccccccccccccccccccccccccccccccccccccccccc" />
  <path
     id="rect2355"
     style="fill:#0c7c42;fill-opacity:1;stroke-width:10.0698;stroke-linecap:round;stroke-linejoin:round"
     d="m 2,11 h 11 c 0.554,0 1,0.446 1,1 v 11.000001 c 0,0.554 -0.446,1 -1,1 H 2 c -0.554,0 -1,-0.446 -1,-1 V 12 c 0,-0.554 0.446,-1 1,-1 z" />
  <path
     id="rect12096"
     style="fill:#ffffff;fill-opacity:1;stroke-width:0.814099;stroke-linecap:round;stroke-linejoin:round"
     d="M 4.6409826,13.5 6.7901815,17.375447 4.4999998,21.5 H 5.8350986 L 6.8553708,19.513515 C 7.0507723,19.10104 7.2568057,18.699733 7.473898,18.211276 h 0.043468 c 0.2496718,0.488457 0.4562759,0.889764 0.662513,1.302239 L 9.2324798,21.5 H 10.632772 L 8.3425846,17.429508 10.480656,13.5 H 9.1566836 L 8.2228039,15.377832 C 8.0274023,15.746888 7.875692,16.105222 7.6694696,16.59368 H 7.6260051 C 7.3763522,16.105222 7.2028682,15.746889 7.0074855,15.377832 L 6.0412756,13.5 Z" />
</svg>
