<?xml version="1.0" encoding="UTF-8" standalone="no"?>
<!-- Created with Inkscape (http://www.inkscape.org/) -->

<svg
   width="32"
   height="32"
   viewBox="0 0 32 32.000002"
   version="1.1"
   id="svg5"
   inkscape:version="1.3.2 (091e20ef0f, 2023-11-25, custom)"
   sodipodi:docname="folder-onedrive.svg"
   xmlns:inkscape="http://www.inkscape.org/namespaces/inkscape"
   xmlns:sodipodi="http://sodipodi.sourceforge.net/DTD/sodipodi-0.dtd"
   xmlns:xlink="http://www.w3.org/1999/xlink"
   xmlns="http://www.w3.org/2000/svg"
   xmlns:svg="http://www.w3.org/2000/svg">
  <sodipodi:namedview
     id="namedview7"
     pagecolor="#ffffff"
     bordercolor="#000000"
     borderopacity="0.25"
     inkscape:showpageshadow="2"
     inkscape:pageopacity="0.0"
     inkscape:pagecheckerboard="0"
     inkscape:deskcolor="#d1d1d1"
     inkscape:document-units="px"
     showgrid="false"
     inkscape:zoom="25.625"
     inkscape:cx="15.980488"
     inkscape:cy="16"
     inkscape:window-width="1920"
     inkscape:window-height="1017"
     inkscape:window-x="0"
     inkscape:window-y="0"
     inkscape:window-maximized="1"
     inkscape:current-layer="svg5" />
  <defs
     id="defs2">
    <linearGradient
       inkscape:collect="always"
       id="linearGradient1713">
      <stop
         style="stop-color:#be8b08;stop-opacity:1;"
         offset="0"
         id="stop1709" />
      <stop
         style="stop-color:#fdd164;stop-opacity:1;"
         offset="1"
         id="stop1711" />
    </linearGradient>
    <linearGradient
       inkscape:collect="always"
       id="linearGradient1654">
      <stop
         style="stop-color:#fce798;stop-opacity:1;"
         offset="0"
         id="stop1650" />
      <stop
         style="stop-color:#ffc937;stop-opacity:1;"
         offset="1"
         id="stop1652" />
    </linearGradient>
    <linearGradient
       inkscape:collect="always"
       xlink:href="#linearGradient1654"
       id="linearGradient1499"
       x1="16"
       y1="6.0001335"
       x2="26"
       y2="57.456135"
       gradientUnits="userSpaceOnUse"
       gradientTransform="matrix(0.5,0.18198512,0,0.5,0,-2.7819459)" />
    <linearGradient
       inkscape:collect="always"
       xlink:href="#linearGradient1713"
       id="linearGradient1707"
       x1="12"
       y1="32"
       x2="44"
       y2="32"
       gradientUnits="userSpaceOnUse"
       gradientTransform="scale(0.5)" />
  </defs>
  <path
     id="rect238"
     style="fill:url(#linearGradient1707);fill-opacity:1;stroke-width:0.5"
     d="M 7.25,3.0002896 24,3 c 1.108,-1.92e-5 2,0.892 2,2 v 22 c 0,1.108 -0.892,2 -2,2 H 8 L 6,26 V 5 C 6,3.892 7.25,3.0002896 7.25,3.0002896 Z"
     sodipodi:nodetypes="cssssccsc" />
  <ellipse
     style="fill:#056ab6;fill-opacity:1;stroke-width:0.887412;stroke-linecap:round;stroke-linejoin:round"
     id="path396"
     cx="23"
     cy="26.5"
     rx="4.375"
     ry="4.5" />
  <path
     d="m 19.500001,23.8 c -1.282555,0.0016 -2.461537,0.724611 -3.072754,1.884375 l -0.0052,0.0017 C 16.153371,26.195739 16,26.779491 16,27.4 c 8.59e-4,1.860757 1.38055,3.415021 3.182129,3.58418 V 31 H 19.5 26.9375 c 1.143257,0 2.127968,-0.651754 2.654053,-1.606641 l -4.839843,-2.967189 -3.527344,-2.162109 -0.01026,0.0019 C 20.69108,23.961805 20.100771,23.801384 19.500001,23.8 Z"
     style="fill:#1581d9;stroke-width:0.887412"
     id="path958" />
  <path
     d="m 26.9375,24.699998 c -0.433316,0.02208 -0.80981,0.104142 -1.163818,0.237305 v 0.0017 c -1.13434,0.48656 -2.31369,0.992874 -3.337647,1.43262 l -6.066894,2.605078 c 0.522741,1.094777 1.559821,1.889756 2.812988,2.007422 V 31 H 26.9375 C 28.628871,31 30,29.589697 30,27.85 30,26.110303 28.628871,24.7 26.9375,24.7 Z"
     style="fill:#138fe6;stroke-width:0.887412"
     id="path991" />
  <path
     d="m 23.745118,25.80918 c -0.437405,0.18778 -0.907405,0.389996 -1.309083,0.5625 l -6.066894,2.605078 c 5.63e-4,0.0011 0.0011,0.0024 0.0018,0.0035 0.183827,0.383947 0.433914,0.727592 0.731445,1.02129 0.03859,0.03765 0.07767,0.07491 0.11792,0.110742 0.08527,0.07684 0.172529,0.151595 0.264893,0.219726 0.09208,0.06706 0.188624,0.12669 0.287109,0.184571 0.03659,0.02177 0.07022,0.04812 0.107666,0.06855 0.05996,0.03273 0.124226,0.05698 0.186279,0.08613 0.120098,0.05573 0.242052,0.107617 0.369141,0.149413 0.05592,0.01858 0.11199,0.03703 0.16919,0.05273 0.187134,0.05089 0.378955,0.09209 0.577636,0.110742 v 0.01583 h 7.75533 c 0.185037,0 0.364044,-0.02215 0.540039,-0.05449 0.05292,-0.0099 0.105324,-0.02249 0.157227,-0.03516 0.135813,-0.03268 0.268296,-0.07598 0.396484,-0.126562 0.0734,-0.02946 0.144843,-0.06162 0.215332,-0.09668 0.101899,-0.04984 0.200334,-0.104542 0.295654,-0.165234 0.08047,-0.05206 0.158917,-0.107628 0.234131,-0.166993 0.0414,-0.03222 0.07991,-0.06767 0.119629,-0.101952 0.277039,-0.242443 0.514715,-0.531328 0.695557,-0.85957 l -4.839844,-2.967185 z"
     style="fill:#38afec;stroke-width:0.887412"
     id="path1024" />
  <path
     id="rect348"
     style="fill:url(#linearGradient1499);fill-opacity:1;stroke-width:0.5"
     d="M 7.219727,3.0029297 C 6.501415,3.0442981 6,3.5713454 6,4.4023437 V 26 c 0,1.805264 1.043501,2.758467 2,3.129883 l 5,1.547851 c 1.107998,0.403278 2,-0.164463 2,-1.272461 v -8 c 0.597918,-0.72457 2,-1.317412 2,-2.271484 v -11 C 17,7.025791 16.107998,5.8085515 15,5.4052735 L 8,3.1298828 C 7.723001,3.0290632 7.459164,2.9891402 7.219727,3.0029297 Z"
     sodipodi:nodetypes="sssccscssccs" />
</svg>
