<?xml version="1.0" encoding="UTF-8" standalone="no"?>
<!-- Created with Inkscape (http://www.inkscape.org/) -->

<svg
   width="32"
   height="32"
   viewBox="0 0 32 32.000002"
   version="1.1"
   id="svg5"
   inkscape:version="1.3.2 (091e20ef0f, 2023-11-25, custom)"
   sodipodi:docname="folder-download-open.svg"
   xmlns:inkscape="http://www.inkscape.org/namespaces/inkscape"
   xmlns:sodipodi="http://sodipodi.sourceforge.net/DTD/sodipodi-0.dtd"
   xmlns:xlink="http://www.w3.org/1999/xlink"
   xmlns="http://www.w3.org/2000/svg"
   xmlns:svg="http://www.w3.org/2000/svg">
  <sodipodi:namedview
     id="namedview7"
     pagecolor="#ffffff"
     bordercolor="#000000"
     borderopacity="0.25"
     inkscape:showpageshadow="2"
     inkscape:pageopacity="0.0"
     inkscape:pagecheckerboard="0"
     inkscape:deskcolor="#d1d1d1"
     inkscape:document-units="px"
     showgrid="false"
     inkscape:zoom="25.3125"
     inkscape:cx="16.019753"
     inkscape:cy="16"
     inkscape:window-width="1920"
     inkscape:window-height="1017"
     inkscape:window-x="0"
     inkscape:window-y="0"
     inkscape:window-maximized="1"
     inkscape:current-layer="svg5" />
  <defs
     id="defs2">
    <linearGradient
       inkscape:collect="always"
       id="linearGradient1713">
      <stop
         style="stop-color:#be8b08;stop-opacity:1;"
         offset="0"
         id="stop1709" />
      <stop
         style="stop-color:#fdd164;stop-opacity:1;"
         offset="1"
         id="stop1711" />
    </linearGradient>
    <linearGradient
       inkscape:collect="always"
       id="linearGradient1654">
      <stop
         style="stop-color:#fce798;stop-opacity:1;"
         offset="0"
         id="stop1650" />
      <stop
         style="stop-color:#ffc937;stop-opacity:1;"
         offset="1"
         id="stop1652" />
    </linearGradient>
    <linearGradient
       inkscape:collect="always"
       xlink:href="#linearGradient1654"
       id="linearGradient1499"
       x1="16"
       y1="6.0001335"
       x2="22"
       y2="58.912014"
       gradientUnits="userSpaceOnUse"
       gradientTransform="matrix(0.5,0.18198512,0,0.5,0,-2.7819459)" />
    <linearGradient
       inkscape:collect="always"
       xlink:href="#linearGradient1713"
       id="linearGradient1707"
       x1="12"
       y1="32"
       x2="44"
       y2="32"
       gradientUnits="userSpaceOnUse"
       gradientTransform="scale(0.5)" />
    <linearGradient
       inkscape:collect="always"
       xlink:href="#linearGradient8250"
       id="linearGradient1721"
       x1="2"
       y1="1.2283465e-07"
       x2="14"
       y2="16"
       gradientUnits="userSpaceOnUse"
       gradientTransform="translate(16,14)" />
    <linearGradient
       inkscape:collect="always"
       id="linearGradient8250">
      <stop
         style="stop-color:#3d9ff9;stop-opacity:1;"
         offset="0"
         id="stop8246" />
      <stop
         style="stop-color:#1467c3;stop-opacity:1;"
         offset="1"
         id="stop8248" />
    </linearGradient>
  </defs>
  <path
     id="rect238"
     style="fill:url(#linearGradient1707);fill-opacity:1;stroke-width:0.5"
     d="M 7.25,3.0002896 24,3 c 1.108,-1.92e-5 2,0.892 2,2 v 22 c 0,1.108 -0.892,2 -2,2 H 8 L 6,26 V 5 C 6,3.892 7.25,3.0002896 7.25,3.0002896 Z"
     sodipodi:nodetypes="cssssccsc" />
  <path
     id="rect860"
     style="fill:url(#linearGradient1721);fill-opacity:1;stroke-width:3;stroke-linecap:round;stroke-linejoin:round"
     d="m 24,14 c -0.554,0 -1,0.446 -1,1 v 8.585937 l -2.535156,-2.537109 c -0.391738,-0.391737 -1.022326,-0.391737 -1.414063,0 -0.391737,0.391737 -0.391737,1.024279 0,1.416016 l 4.208985,4.208984 c 0.02149,0.02365 0.04275,0.04491 0.06641,0.06641 0.001,9.44e-4 0.0029,10e-4 0.0039,0.002 0.01083,0.0098 0.02194,0.02001 0.0332,0.0293 0.0018,0.0015 0.0041,0.0024 0.0059,0.0039 0.02639,0.02145 0.0535,0.04184 0.08203,0.06055 0.0098,0.0064 0.01927,0.01345 0.0293,0.01953 0.0038,0.0023 0.0079,0.0036 0.01172,0.0059 0.01015,0.006 0.02087,0.01195 0.03125,0.01758 0.0039,0.0021 0.0078,0.0038 0.01172,0.0059 0.01046,0.0055 0.02057,0.01245 0.03125,0.01758 0.0043,0.0021 0.0093,0.0038 0.01367,0.0059 0.01007,0.0046 0.01905,0.0094 0.0293,0.01367 0.0051,0.0022 0.01051,0.0038 0.01563,0.0059 0.01006,0.004 0.02103,0.008 0.03125,0.01172 0.0045,0.0017 0.0091,0.0023 0.01367,0.0039 0.01083,0.0038 0.02025,0.0083 0.03125,0.01172 0.005,0.0016 0.0106,0.0024 0.01563,0.0039 0.01077,0.0032 0.02228,0.007 0.0332,0.0098 0.01624,0.0042 0.03244,0.0083 0.04883,0.01172 0.0163,0.0033 0.03224,0.0053 0.04883,0.0078 0.0033,5.15e-4 0.0065,0.0015 0.0098,0.002 0.04753,0.0066 0.09464,0.0095 0.142569,0.0095 0.04793,0 0.097,-0.0029 0.144531,-0.0098 0.01858,-0.0027 0.03646,-0.0061 0.05469,-0.0098 6.28e-4,-1.28e-4 0.0013,1.28e-4 0.002,0 0.0163,-0.0033 0.03283,-0.0076 0.04883,-0.01172 0.03694,-0.0095 0.07349,-0.02132 0.109375,-0.03516 0.01014,-0.0039 0.02127,-0.0075 0.03125,-0.01172 0.0013,-5.66e-4 0.0026,-0.0014 0.0039,-0.002 0.01161,-0.005 0.02183,-0.01025 0.0332,-0.01563 0.04548,-0.02156 0.09029,-0.04539 0.132813,-0.07422 0.01089,-0.0073 0.02068,-0.01568 0.03125,-0.02344 0.01339,-0.0098 0.02619,-0.02079 0.03906,-0.03125 0.02623,-0.02142 0.05169,-0.04388 0.07617,-0.06836 0.0113,-0.0113 0.02246,-0.02138 0.0332,-0.0332 l 4.210936,-4.208856 c 0.391737,-0.391737 0.391737,-1.024279 0,-1.416016 -0.391738,-0.391737 -1.024279,-0.391737 -1.416016,0 l -2.535156,2.537109 v -8.585937 c 0,-0.554 -0.446,-1 -1,-1 z m -5,14 c -0.554,0 -1,0.446 -1,1 0,0.554 0.446,1 1,1 h 10 c 0.554,0 1,-0.446 1,-1 0,-0.554 -0.446,-1 -1,-1 z" />
  <path
     id="rect348"
     style="fill:url(#linearGradient1499);fill-opacity:1;stroke-width:0.5"
     d="M 7.219727,3.0029297 C 6.501415,3.0442981 6,3.5713454 6,4.4023437 V 26 c 0,1.805264 1.043501,2.758467 2,3.129883 l 3,1.547851 c 1.107998,0.403278 2,-0.164463 2,-1.272461 v -8 c 0.597918,-0.72457 2,-1.317412 2,-2.271484 v -11 C 15,7.025791 14.107998,5.8085515 13,5.4052735 L 8,3.1298828 C 7.723001,3.0290632 7.459164,2.9891402 7.219727,3.0029297 Z"
     sodipodi:nodetypes="sssccscssccs" />
</svg>
