<?xml version="1.0" encoding="UTF-8" standalone="no"?>
<!-- Created with Inkscape (http://www.inkscape.org/) -->

<svg
   width="32"
   height="32"
   viewBox="0 0 32 32.000002"
   version="1.1"
   id="svg5"
   inkscape:version="1.2 (1:1.2.1+202207142221+cd75a1ee6d)"
   sodipodi:docname="folder-documents.svg"
   xmlns:inkscape="http://www.inkscape.org/namespaces/inkscape"
   xmlns:sodipodi="http://sodipodi.sourceforge.net/DTD/sodipodi-0.dtd"
   xmlns:xlink="http://www.w3.org/1999/xlink"
   xmlns="http://www.w3.org/2000/svg"
   xmlns:svg="http://www.w3.org/2000/svg">
  <sodipodi:namedview
     id="namedview7"
     pagecolor="#ffffff"
     bordercolor="#000000"
     borderopacity="0.25"
     inkscape:showpageshadow="2"
     inkscape:pageopacity="0.0"
     inkscape:pagecheckerboard="0"
     inkscape:deskcolor="#d1d1d1"
     inkscape:document-units="px"
     showgrid="false"
     inkscape:zoom="25.3125"
     inkscape:cx="15.980247"
     inkscape:cy="16"
     inkscape:window-width="1920"
     inkscape:window-height="1012"
     inkscape:window-x="0"
     inkscape:window-y="0"
     inkscape:window-maximized="1"
     inkscape:current-layer="svg5" />
  <defs
     id="defs2">
    <linearGradient
       inkscape:collect="always"
       id="linearGradient1713">
      <stop
         style="stop-color:#be8b08;stop-opacity:1;"
         offset="0"
         id="stop1709" />
      <stop
         style="stop-color:#fdd164;stop-opacity:1;"
         offset="1"
         id="stop1711" />
    </linearGradient>
    <linearGradient
       inkscape:collect="always"
       id="linearGradient1654">
      <stop
         style="stop-color:#fce798;stop-opacity:1;"
         offset="0"
         id="stop1650" />
      <stop
         style="stop-color:#ffc937;stop-opacity:1;"
         offset="1"
         id="stop1652" />
    </linearGradient>
    <linearGradient
       inkscape:collect="always"
       xlink:href="#linearGradient1654"
       id="linearGradient1499"
       x1="16"
       y1="6.0001335"
       x2="26"
       y2="57.456135"
       gradientUnits="userSpaceOnUse"
       gradientTransform="matrix(0.5,0.18198512,0,0.5,0,-2.7819459)" />
    <linearGradient
       inkscape:collect="always"
       xlink:href="#linearGradient1713"
       id="linearGradient1707"
       x1="12"
       y1="32"
       x2="44"
       y2="32"
       gradientUnits="userSpaceOnUse"
       gradientTransform="scale(0.5)" />
    <linearGradient
       inkscape:collect="always"
       xlink:href="#linearGradient1758"
       id="linearGradient1760"
       x1="38"
       y1="32"
       x2="58"
       y2="60"
       gradientUnits="userSpaceOnUse"
       gradientTransform="scale(0.5)" />
    <linearGradient
       inkscape:collect="always"
       id="linearGradient1758">
      <stop
         style="stop-color:#f5f5f5;stop-opacity:1;"
         offset="0"
         id="stop1754" />
      <stop
         style="stop-color:#e0e0e0;stop-opacity:1;"
         offset="1"
         id="stop1756" />
    </linearGradient>
    <linearGradient
       inkscape:collect="always"
       xlink:href="#linearGradient1866"
       id="linearGradient1868"
       x1="50"
       y1="40"
       x2="54"
       y2="36"
       gradientUnits="userSpaceOnUse"
       gradientTransform="scale(0.5)" />
    <linearGradient
       inkscape:collect="always"
       id="linearGradient1866">
      <stop
         style="stop-color:#a4a4a4;stop-opacity:1;"
         offset="0"
         id="stop1862" />
      <stop
         style="stop-color:#b9b9b9;stop-opacity:1;"
         offset="1"
         id="stop1864" />
    </linearGradient>
  </defs>
  <path
     id="rect238"
     style="fill:url(#linearGradient1707);fill-opacity:1;stroke-width:0.5"
     d="M 7.25,3.0002896 24,3 c 1.108,-1.92e-5 2,0.892 2,2 v 22 c 0,1.108 -0.892,2 -2,2 H 8 L 6,26 V 5 C 6,3.892 7.25,3.0002896 7.25,3.0002896 Z"
     sodipodi:nodetypes="cssssccsc" />
  <path
     id="rect547"
     style="fill:url(#linearGradient1760);stroke-width:0.445941"
     d="m 20,16 h 5 l 1,3 3,1 v 9 c 0,0.554 -0.446,1 -1,1 h -8 c -0.554,0 -1,-0.446 -1,-1 V 17 c 0,-0.554 0.446,-1 1,-1 z"
     sodipodi:nodetypes="scccssssss" />
  <path
     id="rect9178"
     style="opacity:0.2;fill:#000000;fill-opacity:1;stroke:none;stroke-width:0.499999;stroke-linecap:round;stroke-linejoin:round;stroke-miterlimit:4;stroke-dasharray:none;stroke-opacity:1"
     d="m 20.5,21 c -0.277,0 -0.5,0.222999 -0.5,0.5 0,0.277 0.223,0.5 0.5,0.5 h 3 C 23.777,22 24,21.777 24,21.5 24,21.222999 23.777,21 23.5,21 Z m 5,0 C 25.223,21 25,21.222999 25,21.5 v 2 c 0,0.277 0.223,0.5 0.5,0.5 h 2 c 0.277,0 0.5,-0.223 0.5,-0.5 v -2 C 28,21.222999 27.777,21 27.5,21 Z m -5,2 c -0.277,0 -0.5,0.223 -0.5,0.5 0,0.277 0.223,0.5 0.5,0.5 h 3 C 23.777,24 24,23.777 24,23.5 24,23.223 23.777,23 23.5,23 Z m 0,2 c -0.277,0 -0.5,0.222999 -0.5,0.5 0,0.277 0.223,0.5 0.5,0.5 h 7 C 27.777,26 28,25.777 28,25.5 28,25.222999 27.777,25 27.5,25 Z m 0,2 c -0.277,0 -0.5,0.223 -0.5,0.5 0,0.277 0.223,0.5 0.5,0.5 h 7 C 27.777,28 28,27.777 28,27.5 28,27.223 27.777,27 27.5,27 Z" />
  <path
     id="rect1762"
     style="fill:url(#linearGradient1868);fill-opacity:1;stroke-width:0.5"
     d="m 29,20 h -3 c -0.554,0 -1,-0.446 -1,-1 v -3 z"
     sodipodi:nodetypes="csscc" />
  <path
     id="rect348"
     style="fill:url(#linearGradient1499);fill-opacity:1;stroke-width:0.5"
     d="M 7.219727,3.0029297 C 6.501415,3.0442981 6,3.5713454 6,4.4023437 V 26 c 0,1.805264 1.043501,2.758467 2,3.129883 l 5,1.547851 c 1.107998,0.403278 2,-0.164463 2,-1.272461 v -8 c 0.597918,-0.72457 2,-1.317412 2,-2.271484 v -11 C 17,7.025791 16.107998,5.8085515 15,5.4052735 L 8,3.1298828 C 7.723001,3.0290632 7.459164,2.9891402 7.219727,3.0029297 Z"
     sodipodi:nodetypes="sssccscssccs" />
</svg>
