<?xml version="1.0" encoding="UTF-8" standalone="no"?>
<!-- Created with Inkscape (http://www.inkscape.org/) -->

<svg
   width="32"
   height="32"
   viewBox="0 0 32 32.000002"
   version="1.1"
   id="svg5"
   inkscape:version="1.3.2 (091e20ef0f, 2023-11-25, custom)"
   sodipodi:docname="folder-temp.svg"
   xmlns:inkscape="http://www.inkscape.org/namespaces/inkscape"
   xmlns:sodipodi="http://sodipodi.sourceforge.net/DTD/sodipodi-0.dtd"
   xmlns:xlink="http://www.w3.org/1999/xlink"
   xmlns="http://www.w3.org/2000/svg"
   xmlns:svg="http://www.w3.org/2000/svg">
  <sodipodi:namedview
     id="namedview7"
     pagecolor="#ffffff"
     bordercolor="#000000"
     borderopacity="0.25"
     inkscape:showpageshadow="2"
     inkscape:pageopacity="0.0"
     inkscape:pagecheckerboard="0"
     inkscape:deskcolor="#d1d1d1"
     inkscape:document-units="px"
     showgrid="false"
     inkscape:zoom="25.625"
     inkscape:cx="15.980488"
     inkscape:cy="16"
     inkscape:window-width="1920"
     inkscape:window-height="1017"
     inkscape:window-x="0"
     inkscape:window-y="0"
     inkscape:window-maximized="1"
     inkscape:current-layer="svg5" />
  <defs
     id="defs2">
    <linearGradient
       inkscape:collect="always"
       id="linearGradient1713">
      <stop
         style="stop-color:#be8b08;stop-opacity:1;"
         offset="0"
         id="stop1709" />
      <stop
         style="stop-color:#fdd164;stop-opacity:1;"
         offset="1"
         id="stop1711" />
    </linearGradient>
    <linearGradient
       inkscape:collect="always"
       id="linearGradient1654">
      <stop
         style="stop-color:#fce798;stop-opacity:1;"
         offset="0"
         id="stop1650" />
      <stop
         style="stop-color:#ffc937;stop-opacity:1;"
         offset="1"
         id="stop1652" />
    </linearGradient>
    <linearGradient
       inkscape:collect="always"
       xlink:href="#linearGradient1654"
       id="linearGradient1499"
       x1="16"
       y1="6.0001335"
       x2="26"
       y2="57.456135"
       gradientUnits="userSpaceOnUse"
       gradientTransform="matrix(0.5,0.18198512,0,0.5,0,-2.7819459)" />
    <linearGradient
       inkscape:collect="always"
       xlink:href="#linearGradient1713"
       id="linearGradient1707"
       x1="12"
       y1="32"
       x2="44"
       y2="32"
       gradientUnits="userSpaceOnUse"
       gradientTransform="scale(0.5)" />
    <linearGradient
       inkscape:collect="always"
       xlink:href="#linearGradient3161"
       id="linearGradient3163"
       x1="8.4666662"
       y1="15.345833"
       x2="8.4666662"
       y2="1.5874995"
       gradientUnits="userSpaceOnUse"
       gradientTransform="matrix(0.94488195,0,0,0.94488195,16.499991,16.499967)" />
    <linearGradient
       inkscape:collect="always"
       id="linearGradient3161">
      <stop
         style="stop-color:#c7ccd1;stop-opacity:1;"
         offset="0"
         id="stop3157" />
      <stop
         style="stop-color:#fdfdfd;stop-opacity:1"
         offset="1"
         id="stop3159" />
    </linearGradient>
  </defs>
  <path
     id="rect238"
     style="fill:url(#linearGradient1707);fill-opacity:1;stroke-width:0.5"
     d="M 7.25,3.0002896 24,3 c 1.108,-1.92e-5 2,0.892 2,2 v 22 c 0,1.108 -0.892,2 -2,2 H 8 L 6,26 V 5 C 6,3.892 7.25,3.0002896 7.25,3.0002896 Z"
     sodipodi:nodetypes="cssssccsc" />
  <circle
     style="fill:url(#linearGradient3163);fill-opacity:1;stroke-width:0.25"
     id="path2899"
     cx="24.5"
     cy="24.5"
     r="6.5" />
  <path
     id="rect1636"
     style="fill:#444444;fill-opacity:1;stroke-width:0.500001;stroke-linejoin:round"
     d="M 24.474609,20 C 24.209696,20.01334 24,20.231656 24,20.5 v 3.974609 c -4.31e-4,0.0085 0,0.01674 0,0.02539 0,0.277 0.223,0.5 0.5,0.5 H 24.525391 28.5 c 0.277,1e-6 0.5,-0.223 0.5,-0.5 C 29,24.223 28.777,24 28.5,24 H 25 V 20.5 C 25,20.223 24.777,20 24.5,20 c -0.0087,0 -0.01685,-4.3e-4 -0.02539,0 z" />
  <path
     id="path2120"
     style="opacity:0.2;fill:#000000;stroke-width:1.44444"
     d="M 24.5,18 C 20.910153,18 18,20.910153 18,24.5 18,28.089847 20.910153,31 24.5,31 28.089847,31 31,28.089847 31,24.5 31,20.910153 28.089847,18 24.5,18 Z m 0,1 C 27.537563,19 30,21.462436 30,24.5 30,27.537563 27.537563,30 24.5,30 21.462437,30 19,27.537563 19,24.5 19,21.462436 21.462437,19 24.5,19 Z" />
  <path
     id="rect348"
     style="fill:url(#linearGradient1499);fill-opacity:1;stroke-width:0.5"
     d="M 7.219727,3.0029297 C 6.501415,3.0442981 6,3.5713454 6,4.4023437 V 26 c 0,1.805264 1.043501,2.758467 2,3.129883 l 5,1.547851 c 1.107998,0.403278 2,-0.164463 2,-1.272461 v -8 c 0.597918,-0.72457 2,-1.317412 2,-2.271484 v -11 C 17,7.025791 16.107998,5.8085515 15,5.4052735 L 8,3.1298828 C 7.723001,3.0290632 7.459164,2.9891402 7.219727,3.0029297 Z"
     sodipodi:nodetypes="sssccscssccs" />
</svg>
