<?xml version="1.0" encoding="UTF-8" standalone="no"?>
<!-- Created with Inkscape (http://www.inkscape.org/) -->

<svg
   width="32"
   height="32"
   viewBox="0 0 32 32.000002"
   version="1.1"
   id="svg580"
   inkscape:version="1.2.1 (9c6d41e410, 2022-07-14, custom)"
   sodipodi:docname="network-workgroup.svg"
   xmlns:inkscape="http://www.inkscape.org/namespaces/inkscape"
   xmlns:sodipodi="http://sodipodi.sourceforge.net/DTD/sodipodi-0.dtd"
   xmlns:xlink="http://www.w3.org/1999/xlink"
   xmlns="http://www.w3.org/2000/svg"
   xmlns:svg="http://www.w3.org/2000/svg">
  <sodipodi:namedview
     id="namedview582"
     pagecolor="#ffffff"
     bordercolor="#000000"
     borderopacity="0.25"
     inkscape:showpageshadow="2"
     inkscape:pageopacity="0.0"
     inkscape:pagecheckerboard="0"
     inkscape:deskcolor="#d1d1d1"
     inkscape:document-units="px"
     showgrid="false"
     inkscape:zoom="26.65625"
     inkscape:cx="14.987104"
     inkscape:cy="16.037515"
     inkscape:window-width="1920"
     inkscape:window-height="1029"
     inkscape:window-x="0"
     inkscape:window-y="0"
     inkscape:window-maximized="1"
     inkscape:current-layer="svg580" />
  <defs
     id="defs577">
    <linearGradient
       inkscape:collect="always"
       xlink:href="#linearGradient2986"
       id="linearGradient2988"
       x1="0.092813492"
       y1="10.202362"
       x2="0.092813492"
       y2="13.470933"
       gradientUnits="userSpaceOnUse"
       gradientTransform="matrix(1.1825939,0,0,1.2237766,18.89024,10.514589)" />
    <linearGradient
       inkscape:collect="always"
       id="linearGradient2986">
      <stop
         style="stop-color:#818990;stop-opacity:1;"
         offset="0"
         id="stop2982" />
      <stop
         style="stop-color:#9fa8b0;stop-opacity:1"
         offset="1"
         id="stop2984" />
    </linearGradient>
    <linearGradient
       id="linearGradient883"
       x1="4"
       x2="59.861"
       y1="31.360001"
       y2="31.360001"
       gradientTransform="matrix(0.2678443,0,0,0.2678443,-0.0711561,0.92859901)"
       gradientUnits="userSpaceOnUse">
      <stop
         stop-color="#b0d6df"
         offset="0"
         id="stop9" />
      <stop
         stop-color="#e1f8fc"
         offset=".21709"
         id="stop11" />
      <stop
         stop-color="#96c3ce"
         offset="1"
         id="stop13" />
    </linearGradient>
    <radialGradient
       id="radialGradient875"
       cx="20.107"
       cy="28.705"
       r="28"
       gradientTransform="matrix(0.29601868,0.16716144,-0.1317072,0.23323254,3.4075196,-1.6739213)"
       gradientUnits="userSpaceOnUse">
      <stop
         stop-color="#5ab5e2"
         offset="0"
         id="stop2" />
      <stop
         stop-color="#4189ac"
         offset=".45901"
         id="stop4" />
      <stop
         stop-color="#295e76"
         offset="1"
         id="stop6" />
    </radialGradient>
    <linearGradient
       inkscape:collect="always"
       xlink:href="#linearGradient1116"
       id="linearGradient1908"
       x1="4"
       y1="32"
       x2="60"
       y2="32"
       gradientUnits="userSpaceOnUse"
       gradientTransform="matrix(0.5,0,0,0.50000002,1,-0.4999995)" />
    <linearGradient
       inkscape:collect="always"
       id="linearGradient1116">
      <stop
         style="stop-color:#555a5f;stop-opacity:1;"
         offset="0"
         id="stop1112" />
      <stop
         style="stop-color:#4b4f53;stop-opacity:1"
         offset="1"
         id="stop1114" />
    </linearGradient>
    <linearGradient
       inkscape:collect="always"
       xlink:href="#linearGradient3238"
       id="linearGradient3240"
       x1="17.902164"
       y1="29.999403"
       x2="60"
       y2="51"
       gradientUnits="userSpaceOnUse"
       gradientTransform="matrix(0.48148148,0,0,0.4722222,1.5925926,0.3888897)" />
    <linearGradient
       inkscape:collect="always"
       id="linearGradient3238">
      <stop
         style="stop-color:#0082e5;stop-opacity:1;"
         offset="0"
         id="stop3234" />
      <stop
         style="stop-color:#42b7ff;stop-opacity:1;"
         offset="1"
         id="stop3236" />
    </linearGradient>
  </defs>
  <path
     id="rect958"
     style="fill:#bcc5cf;stroke-width:2.50001;stroke-linecap:round;stroke-linejoin:round"
     d="m 11.5,26.500001 h 10.999999 l 1.499997,1.5 H 9.9999997 Z"
     sodipodi:nodetypes="ccccc" />
  <rect
     style="fill:url(#linearGradient2988);fill-opacity:1;stroke-width:1.59148;stroke-linecap:round;stroke-linejoin:round"
     id="rect2848"
     width="4"
     height="4"
     x="15"
     y="23.000002" />
  <path
     id="rect1418"
     style="fill:#b8c2cc;stroke-width:2.50001;stroke-linecap:round;stroke-linejoin:round"
     d="M 4.0000001,5 H 30 l 1,1 v 7.5 H 3.0000001 L 3,6 Z"
     sodipodi:nodetypes="ccccccc" />
  <rect
     style="fill:url(#linearGradient1908);fill-opacity:1;stroke-width:0.5;stroke-linecap:round"
     id="rect1537"
     width="28"
     height="19"
     x="3"
     y="6" />
  <rect
     style="fill:url(#linearGradient3240);fill-opacity:1;stroke-width:0.476829;stroke-linecap:round"
     id="rect1910"
     width="26"
     height="17"
     x="4"
     y="7" />
  <path
     d="M 4,7.0000005 H 19 L 9,24 H 4 Z"
     style="color:#000000;opacity:0.15;fill:#ffffff;stroke-width:0.374587"
     id="path3898"
     sodipodi:nodetypes="ccccc" />
  <rect
     style="fill:#44484c;fill-opacity:1;stroke-width:2.50001;stroke-linecap:round;stroke-linejoin:round"
     id="rect1839"
     width="14"
     height="1"
     x="9.999999"
     y="28.000006" />
  <rect
     x="1.0003203"
     y="2"
     width="14.99968"
     height="14.99968"
     rx="7.4998398"
     ry="7.4998398"
     fill="url(#radialGradient875)"
     id="rect30"
     style="fill:url(#radialGradient875);stroke-width:0.267846" />
  <path
     d="M 8.5389104,2.3749923 C 7.9604976,2.4160173 7.3946595,2.5221916 6.8428466,2.7010601 6.6459801,2.7087745 6.2181346,2.9623055 6.5633275,3.0813016 6.7239748,3.2529188 7.1074903,3.3075348 7.0609165,3.5879663 7.1228697,3.8344606 6.4879787,3.8232759 6.6992992,4.0465306 6.8491369,4.2437207 6.9989681,4.440923 7.1488149,4.6381191 7.425484,4.5492527 7.516782,4.2659018 7.6702786,4.0478062 8.0975445,3.8593427 8.7022567,3.8024169 8.9846257,3.4397448 9.0731065,3.1832009 9.1615867,2.9266795 9.2500696,2.6701366 9.0130148,2.571758 8.7759548,2.4733708 8.5389104,2.3749666 Z M 6.4823039,2.4408958 C 6.2172844,2.4123101 6.0477635,2.575177 5.8499424,2.6819545 5.6064426,2.7117723 5.3313287,2.8024066 5.1778819,2.9982488 5.451026,3.1222034 5.6230476,2.9901058 5.8588171,2.8964845 6.077725,2.7843338 6.8222719,2.7375423 6.4823039,2.4408701 Z M 4.7721406,3.2275044 C 4.6358893,3.4354805 4.8678438,3.7364951 4.5561652,3.8456411 4.4023169,4.0404016 4.2678712,4.3600807 4.6524074,4.244083 4.7464766,3.9554898 5.038699,3.5506719 5.371267,3.7196938 c 0.3349677,0.09 0.6449861,0.6528857 0.9184801,0.2070425 C 6.2896367,3.8107792 5.8643315,3.7429501 5.8738308,3.4592705 5.6845763,3.3780776 5.2800188,3.5256241 5.2941435,3.2305591 5.0207245,3.1091555 4.941976,3.7140994 4.8450781,3.3759766 4.8207631,3.3264873 4.7964502,3.2770088 4.7721331,3.2275023 Z m 7.4220924,0.2622022 c -0.323618,0.064715 -0.643263,0.1386343 -0.898657,0.3610673 0.07413,0.2963946 -0.308242,0.3462682 -0.478315,0.5107889 -0.123394,0.069631 0.0023,0.6075132 0.110355,0.5240147 0.229882,-0.303293 0.348793,-0.04167 0.562488,0.1081013 0.192339,0.1786433 0.314469,-0.3317427 0.212306,-0.4756152 -0.05994,-0.231876 0.231678,-0.4034145 0.336619,-0.5933115 0.320842,-0.2058055 0.04973,0.2625691 0.03947,0.4260917 -0.161954,0.4832383 0.71836,0.014578 0.138086,0.3756919 C 12.060932,4.8819754 12.00394,5.112252 11.764767,5.2271239 11.635626,5.3847505 11.142755,5.310868 11.209128,5.0649822 11.029146,4.7828864 11.073572,5.4044998 11.012425,5.4015235 10.714132,5.3126367 10.625358,5.6455906 10.438287,5.8048894 10.295126,5.9693596 9.7897268,5.8673119 10.167043,6.1220843 10.442237,6.4396275 10.112197,6.3809036 9.8845493,6.4654752 9.5628314,6.5208723 9.6166054,6.8010691 9.6249304,7.0540629 c 0.00493,0.1394244 0.3137175,0.3462686 0.4700896,0.2490278 0.312343,-0.03345 0.233532,-0.4167659 0.46429,-0.5336625 0.191736,-0.1641257 0.326294,-0.3154939 0.614188,-0.319418 0.132916,0.1268507 0.401566,0.317543 0.510512,0.4212407 -0.300667,0.327592 0.138099,0.3008936 0.18007,0.00241 0.148309,-0.1643485 -0.488515,-0.5510899 -0.06856,-0.3811671 0.27797,0.091701 0.214048,0.3756675 0.337719,0.5673627 0.219834,0.371618 0.243377,0.094313 0.263843,-0.1931609 0.365243,-0.1147425 0.464241,0.6360139 0.956531,0.4599418 0.368941,0.096945 0.194105,0.3355168 -0.03885,0.4895635 C 13.102012,7.971377 12.784773,7.865015 12.551279,7.7807684 12.320282,7.66218 12.041888,7.7301713 11.92029,7.966034 11.650348,7.7330647 11.45925,7.3629713 11.067085,7.3424722 10.695767,7.3232347 10.3209,7.4219636 9.9625579,7.5229179 9.5655164,7.9888833 9.1359506,8.4426981 8.9509545,9.0382608 c -0.192031,0.2359864 0.2192931,0.3773661 -0.093366,0.5921371 -0.2176731,0.2032362 0.074135,0.4542641 0.1191868,0.6821601 0.2342519,0.277793 0.5933872,1.191549 0.955154,0.838107 0.2035907,-0.321667 0.3385927,0.210705 0.5779887,-0.123389 0.201499,-0.183927 0.364692,0.184799 0.647261,0.05365 0.251271,0.12525 0.27312,0.370767 0.140348,0.605712 -0.08527,0.238539 0.369392,0.336617 0.240033,0.615088 -0.06098,0.272318 0.05848,0.503488 0.193754,0.731059 -0.300694,0.313869 -0.264445,0.778807 -0.189383,1.1721 0.147122,0.539188 0.357817,1.079927 0.336768,1.647664 0.26347,0.0691 0.457816,-0.105385 0.675685,-0.197008 0.415841,0.05882 0.642062,-0.384892 0.900283,-0.639384 -0.193986,-0.26077 0.159356,-0.373293 0.305416,-0.541991 -0.218474,-0.18897 -0.36324,-0.37244 -0.025,-0.519813 0.156027,-0.158477 0.448317,-0.248062 0.499564,-0.469116 -0.134361,-0.400391 -0.05784,-0.825807 -0.07761,-1.239772 0.165657,-0.33387 0.341543,-0.660635 0.616688,-0.918432 0.10973,-0.362041 0.373467,-0.693885 0.347892,-1.0825 -0.641336,0.191865 -0.44769,-0.0815 -0.09227,-0.3413929 0.246647,-0.1808909 0.597337,-0.3496195 0.672335,-0.6580365 0.05382,-0.3043908 -0.184059,-0.7770054 -0.391021,-0.3297895 -0.100531,-0.142522 -0.45469,-0.2746934 -0.44979,-0.4984157 -0.07585,-0.4511641 0.122003,-0.1801822 0.297894,0.032882 0.409116,-0.3032689 0.94303,0.8370081 0.770359,0.023368 C 15.695218,6.7122847 14.802353,5.0487202 13.464907,3.8799959 13.342606,4.0102276 13.138514,4.4957822 12.990418,4.2155127 12.780754,3.9930942 12.6162,3.7922961 13.043281,3.8748692 13.461823,3.7612809 13.044889,3.6952337 12.825487,3.6693348 12.605459,3.6436419 12.401421,3.5630598 12.1942,3.4896188 Z M 4.002157,3.5006351 C 3.7252629,3.6072744 4.1400463,4.0139247 3.6436146,3.8837032 3.0993514,4.1303253 2.7367842,4.7288344 2.3584921,5.1948988 1.4760859,6.4419241 0.99634607,7.9658395 1.000021,9.4933087 1.144808,9.792151 1.5014102,9.8934251 1.7682046,10.058397 c 0.2711442,0.09275 0.6126119,0.07874 0.7475592,0.378292 0.1509286,0.158051 0.3534426,0.36999 0.5690629,0.387142 0.3313427,-0.106178 0.3780668,0.194254 0.2109028,0.41649 -0.018102,0.24343 -0.2890436,0.439765 -0.2588445,0.653862 0.060366,0.23989 -0.3017934,0.504113 -0.057823,0.723583 0.2566695,0.458866 0.5313636,0.904481 0.8784813,1.300797 0.215903,0.189152 0.1902998,0.449591 0.1656566,0.709737 -0.085677,0.274944 0.1741891,0.43399 0.3136685,0.633412 -0.3398926,0.623191 0.5807376,0.747739 0.9660544,1.020234 C 5.4966403,16.104802 5.5120384,15.81808 5.8334118,15.810082 6.0282933,15.673553 6.069899,15.365341 6.2037537,15.16042 6.1994737,14.942756 6.0600773,14.739354 6.2863707,14.502285 6.456881,14.358367 6.808735,14.454345 6.8722085,14.15389 7.1038283,13.915309 6.9164155,13.584654 6.9164155,13.295185 7.096335,13.048729 7.4067306,12.859545 7.3722815,12.519001 7.4112599,12.011087 6.4968001,12.033911 6.1745819,11.725968 5.7785144,11.714634 5.8586128,11.174905 5.5502943,11.103206 5.244201,11.118591 5.1329031,10.878776 5.0244056,10.635292 4.855815,10.520306 4.538516,10.753982 4.3620947,10.609886 4.1622746,10.504616 3.9830278,10.111942 3.7581076,10.357335 3.462089,10.571968 3.17097,10.790001 2.8901511,10.430652 2.7080332,10.266545 2.9368519,9.8006887 2.6789982,9.8300378 2.128535,10.029151 2.8534584,9.0304817 2.3381554,9.1629767 2.2161097,9.3542748 1.9820131,9.6494426 1.7543928,9.4230717 1.5258076,9.315517 1.6385672,8.965807 1.6487598,8.7563609 1.6586384,8.5113831 1.9686779,8.389244 2.1468493,8.2774961 2.4924169,8.4320454 2.4214933,7.9714779 2.7103121,8.1254378 2.990481,8.0657678 3.1169785,8.5152037 3.230726,8.5319545 3.2975745,8.3105422 3.176892,7.9869413 3.3823735,7.8410684 3.6224635,7.6389782 3.9393366,7.4952515 3.9985854,7.1557077 4.0035033,6.7929906 4.4436511,7.0986702 4.5529236,6.8516636 4.6536625,6.5686441 4.9474903,6.5863206 5.1956848,6.5329216 5.3314423,6.4069623 5.6726499,6.0189823 5.2511248,6.1327305 5.0975923,6.1119769 4.479516,6.1942423 4.8992071,6.0463551 5.105943,5.8898625 5.3565223,5.9115475 5.5885921,5.8808118 5.7713601,5.7260807 6.0908564,5.6742431 6.104906,5.3925239 5.9532142,5.186214 5.6318912,5.225482 5.7682889,4.9295815 5.7551103,4.5425146 5.4141962,4.7910078 5.3021982,4.7615679 5.4840892,4.5084482 5.0656835,4.3490765 4.9252565,4.345527 4.829814,4.5840624 4.5614892,4.7898658 4.6561874,5.0644113 4.3764183,5.1098468 4.2453459,5.3123435 4.1612727,5.5644509 4.0773936,5.593668 4.1046669,5.0700097 3.7836309,5.1182595 3.556868,5.1127926 3.2765415,4.774417 3.5152866,4.6411704 3.8426045,4.4340733 4.249571,4.271978 4.4565414,3.941185 4.5755642,3.6449159 4.3560634,3.4630698 4.0637748,3.5051438 l -0.040754,-0.00278 z M 9.5092889,3.8417543 C 9.3286417,3.9822921 8.963951,3.8852265 8.8869528,4.0207217 8.8545581,4.294016 9.2789189,4.2897397 9.44839,4.1388658 9.7253842,4.0364543 9.713035,4.0551422 9.5092792,3.8417463 Z M 5.4963753,3.9818264 C 5.1124583,4.094787 5.4261957,4.3462424 5.6768146,4.3428935 5.9758332,4.3187788 5.6976271,3.9839766 5.4963753,3.9818264 Z m 4.5781517,0.7543842 c -0.02745,0.2445571 0.207458,0.3972654 0.110434,0.6636857 -0.152778,0.3356179 0.06363,0.4363917 0.324717,0.2301023 0.348694,-0.2133454 -0.261293,-0.6807097 -0.342567,-0.8937799 h -0.09259 z M 9.9595397,5.1295015 C 9.646196,5.0524797 9.7453268,5.7082652 9.960611,5.4824938 10.192469,5.4420184 9.9698254,5.2633615 9.9595397,5.1295015 Z M 5.9606253,5.7205636 c 0.046002,0.248703 0.062543,0.64297 0.2446173,0.2194718 C 6.2049925,5.8577294 6.0253562,5.7933424 5.9606253,5.7205711 Z M 13.527214,8.277509 c 0.368292,0.3211189 0.517489,0.7861848 0.725083,1.2128758 0.308895,0.1621821 0.126041,0.4102157 0.169068,0.6186352 0.43009,0.376543 -0.435541,0.175991 -0.330493,-0.2348179 -0.07018,-0.4771377 -0.376643,-0.7956326 -0.626938,-1.1406995 -0.01968,-0.1826529 -0.215618,-0.3909911 0.06329,-0.4559893 z"
     fill="url(#linearGradient883)"
     id="path32"
     style="fill:url(#linearGradient883);stroke-width:0.267846" />
</svg>
