<?xml version="1.0" encoding="UTF-8" standalone="no"?>
<!-- Created with Inkscape (http://www.inkscape.org/) -->

<svg
   width="22"
   height="22"
   viewBox="0 0 22 22"
   version="1.1"
   id="svg2112"
   inkscape:version="1.2.1 (9c6d41e410, 2022-07-14, custom)"
   sodipodi:docname="applets-screenshooter.svg"
   xmlns:inkscape="http://www.inkscape.org/namespaces/inkscape"
   xmlns:sodipodi="http://sodipodi.sourceforge.net/DTD/sodipodi-0.dtd"
   xmlns:xlink="http://www.w3.org/1999/xlink"
   xmlns="http://www.w3.org/2000/svg"
   xmlns:svg="http://www.w3.org/2000/svg">
  <sodipodi:namedview
     id="namedview2114"
     pagecolor="#ffffff"
     bordercolor="#000000"
     borderopacity="0.25"
     inkscape:showpageshadow="2"
     inkscape:pageopacity="0.0"
     inkscape:pagecheckerboard="0"
     inkscape:deskcolor="#d1d1d1"
     inkscape:document-units="px"
     showgrid="false"
     inkscape:zoom="36.818182"
     inkscape:cx="10.98642"
     inkscape:cy="11"
     inkscape:window-width="1920"
     inkscape:window-height="1012"
     inkscape:window-x="0"
     inkscape:window-y="0"
     inkscape:window-maximized="1"
     inkscape:current-layer="svg2112" />
  <defs
     id="defs2109">
    <linearGradient
       inkscape:collect="always"
       xlink:href="#linearGradient7072"
       id="linearGradient6150"
       x1="11"
       y1="2.9999037"
       x2="11"
       y2="15"
       gradientUnits="userSpaceOnUse"
       gradientTransform="matrix(-1,0,0,1,22.000639,-9.9316561e-8)" />
    <linearGradient
       inkscape:collect="always"
       xlink:href="#linearGradient4525"
       id="linearGradient6148"
       x1="5"
       y1="12"
       x2="17"
       y2="12"
       gradientUnits="userSpaceOnUse"
       gradientTransform="matrix(-0.70710678,0.70710678,0.70710678,0.70710678,11.829066,-6.2132038)" />
    <linearGradient
       inkscape:collect="always"
       xlink:href="#linearGradient9982"
       id="linearGradient7609"
       x1="15"
       y1="10.499983"
       x2="21"
       y2="10.499983"
       gradientUnits="userSpaceOnUse"
       gradientTransform="matrix(-0.70710678,0.70710678,0.70710678,0.70710678,10.41485,-4.7989881)" />
    <linearGradient
       inkscape:collect="always"
       id="linearGradient7072">
      <stop
         style="stop-color:#cecece;stop-opacity:1;"
         offset="0"
         id="stop7068" />
      <stop
         style="stop-color:#b3b3b3;stop-opacity:1;"
         offset="1"
         id="stop7070" />
    </linearGradient>
    <linearGradient
       inkscape:collect="always"
       id="linearGradient4525">
      <stop
         style="stop-color:#a2a2a2;stop-opacity:1;"
         offset="0"
         id="stop4521" />
      <stop
         style="stop-color:#b3b3b3;stop-opacity:1;"
         offset="1"
         id="stop4523" />
    </linearGradient>
    <linearGradient
       inkscape:collect="always"
       id="linearGradient9982">
      <stop
         style="stop-color:#0e69b4;stop-opacity:1;"
         offset="0"
         id="stop9978" />
      <stop
         style="stop-color:#1299e4;stop-opacity:1;"
         offset="1"
         id="stop9980" />
    </linearGradient>
    <linearGradient
       inkscape:collect="always"
       xlink:href="#linearGradient1452"
       id="linearGradient3863"
       x1="11"
       y1="16"
       x2="11"
       y2="22.000002"
       gradientUnits="userSpaceOnUse"
       gradientTransform="translate(-1.9995693,-1)" />
    <linearGradient
       inkscape:collect="always"
       id="linearGradient1452">
      <stop
         style="stop-color:#29c3fa;stop-opacity:1;"
         offset="0"
         id="stop1448" />
      <stop
         style="stop-color:#037cd5;stop-opacity:1;"
         offset="1"
         id="stop1450" />
    </linearGradient>
    <linearGradient
       inkscape:collect="always"
       xlink:href="#linearGradient937"
       id="linearGradient939"
       x1="17.278158"
       y1="9.3674898"
       x2="54.623375"
       y2="46.807529"
       gradientUnits="userSpaceOnUse"
       gradientTransform="matrix(0.35040567,0,0,0.35040567,0.27840815,-0.40162253)" />
    <linearGradient
       inkscape:collect="always"
       id="linearGradient937">
      <stop
         style="stop-color:#e13c0a;stop-opacity:1;"
         offset="0"
         id="stop933" />
      <stop
         style="stop-color:#b4350e;stop-opacity:1;"
         offset="1"
         id="stop935" />
    </linearGradient>
    <linearGradient
       inkscape:collect="always"
       xlink:href="#linearGradient4525"
       id="linearGradient6123"
       x1="-43.497589"
       y1="23.272188"
       x2="-43.497589"
       y2="-12.72781"
       gradientUnits="userSpaceOnUse"
       gradientTransform="matrix(0.39999998,0,0,0.39999998,15.556846,20.062138)" />
  </defs>
  <path
     id="rect1169"
     style="fill:url(#linearGradient6148);fill-opacity:1;stroke-width:1.51186;stroke-linejoin:round"
     d="m 16.071706,5.1005047 c 0.781049,0.7810493 0.781049,2.0473789 0,2.8284275 L 9.000639,15 7.5864247,13.585786 14.657493,6.5147183 Z"
     sodipodi:nodetypes="cscccc" />
  <path
     d="M 9.453752,4.2504896 C 7.7765393,4.7272184 4.8347954,5.9498191 4.2838476,3.879315 4.0505423,2.7976165 4.8989357,1.9492756 6.001851,1.5037498 12.175646,-0.30033954 18.794569,2.8541018 19.32128,9.160468 20.465769,18.364211 11.216918,16.543699 8.0377092,13.65705 4.4532375,10.221042 4.9198216,7.1880479 5.0259055,6.59419 5.0683126,6.2548274 5.8530822,6.021522 6.0439804,6.8487117 5.6454834,11.327547 10.941987,15.335427 14.506725,14.144931 19.283416,12.61817 15.914423,2.7212385 9.453499,4.2506487 Z"
     style="fill:url(#linearGradient939);fill-opacity:1;stroke-width:1.18243"
     id="path421" />
  <rect
     style="fill:url(#linearGradient6123);fill-opacity:1;stroke-width:0.4;stroke-linecap:round;stroke-linejoin:round"
     id="rect5628"
     width="2.4000001"
     height="2"
     x="-4.2421889"
     y="14.971014"
     transform="rotate(-45)" />
  <path
     id="path7431"
     style="fill:url(#linearGradient7609);fill-opacity:1;stroke-width:1.66667;stroke-linejoin:round"
     d="m 3.0358044,13.893767 c 0.9794213,-0.931027 2.5289023,-0.915481 3.489958,0.04557 0.1186935,0.118822 0.2251032,0.249314 0.3176465,0.38946 L 7.5864247,13.585786 9.000639,15 6.57134,17.429299 c -0.014986,0.01538 -0.030196,0.03059 -0.045573,0.04557 -0.9763108,0.97631 -2.5592233,0.97631 -3.5355342,-1e-6 -0.9763108,-0.976311 -0.9763101,-2.559222 7e-7,-3.535533 0.015259,-0.01526 0.030029,-0.0308 0.045573,-0.04557 z m 0.661533,0.752679 a 1.5,1.5 0 0 0 0,2.121321 1.5,1.5 0 0 0 2.1213206,0 1.5,1.5 0 0 0 -3e-7,-2.121321 1.5,1.5 0 0 0 -2.1213203,0 z" />
  <path
     id="rect1065"
     style="fill:url(#linearGradient6150);fill-opacity:1;stroke-width:1.63299;stroke-linejoin:round"
     d="M 11.000639,2.9999999 V 5 15 h -2 V 5 c 0,-1.1045695 0.89543,-2 2,-2.0000001 z"
     sodipodi:nodetypes="ccccsc" />
  <path
     id="path6714"
     style="fill:url(#linearGradient3863);fill-opacity:1;stroke-width:1.66667;stroke-linejoin:round"
     d="m 11.000639,15 v 1.050781 c 0.16454,-0.03368 0.332051,-0.05069 0.5,-0.05078 1.380712,0 2.5,1.119288 2.5,2.5 0,1.380712 -1.119288,2.5 -2.5,2.5 -1.380712,0 -2.5,-1.119288 -2.5,-2.5 -2.77e-4,-0.02147 -2.77e-4,-0.04297 0,-0.06445 v -3.435545 z m 0.5,2 a 1.5,1.5 0 0 0 -1.5,1.5 1.5,1.5 0 0 0 1.5,1.5 1.5,1.5 0 0 0 1.5,-1.5 1.5,1.5 0 0 0 -1.5,-1.5 z" />
  <path
     id="rect1507"
     style="fill:#f9f9f9;fill-opacity:1;stroke-linecap:round;stroke-linejoin:round"
     d="m 11.000431,3 c -0.365058,0 -0.705405,0.1006452 -1,0.2714844 V 10 h 1 V 5 Z" />
</svg>
