<?xml version="1.0" encoding="UTF-8" standalone="no"?>
<!-- Created with Inkscape (http://www.inkscape.org/) -->

<svg
   width="22"
   height="22"
   viewBox="0 0 22 22"
   version="1.1"
   id="svg2535"
   inkscape:version="1.3.2 (091e20ef0f, 2023-11-25, custom)"
   sodipodi:docname="preferences-desktop-locale.svg"
   xmlns:inkscape="http://www.inkscape.org/namespaces/inkscape"
   xmlns:sodipodi="http://sodipodi.sourceforge.net/DTD/sodipodi-0.dtd"
   xmlns:xlink="http://www.w3.org/1999/xlink"
   xmlns="http://www.w3.org/2000/svg"
   xmlns:svg="http://www.w3.org/2000/svg">
  <sodipodi:namedview
     id="namedview2537"
     pagecolor="#ffffff"
     bordercolor="#000000"
     borderopacity="0.25"
     inkscape:showpageshadow="2"
     inkscape:pageopacity="0.0"
     inkscape:pagecheckerboard="0"
     inkscape:deskcolor="#d1d1d1"
     inkscape:document-units="px"
     showgrid="false"
     inkscape:zoom="37.272727"
     inkscape:cx="10.986585"
     inkscape:cy="11"
     inkscape:window-width="1920"
     inkscape:window-height="1017"
     inkscape:window-x="0"
     inkscape:window-y="0"
     inkscape:window-maximized="1"
     inkscape:current-layer="svg2535" />
  <defs
     id="defs2532">
    <radialGradient
       id="radialGradient875"
       cx="20.107"
       cy="28.705"
       r="28"
       gradientTransform="matrix(0.27628409,0.15601732,-0.1229267,0.2176837,3.2470177,-2.4289937)"
       gradientUnits="userSpaceOnUse">
      <stop
         stop-color="#5ab5e2"
         offset="0"
         id="stop2" />
      <stop
         stop-color="#4189ac"
         offset=".45901"
         id="stop4" />
      <stop
         stop-color="#295e76"
         offset="1"
         id="stop6" />
    </radialGradient>
    <linearGradient
       id="linearGradient883"
       x1="4"
       x2="59.861"
       y1="31.360001"
       y2="31.360001"
       gradientTransform="matrix(0.249988,0,0,0.249988,2.5451666e-4,2.5393333e-5)"
       gradientUnits="userSpaceOnUse">
      <stop
         stop-color="#b0d6df"
         offset="0"
         id="stop9" />
      <stop
         stop-color="#e1f8fc"
         offset=".21709"
         id="stop11" />
      <stop
         stop-color="#96c3ce"
         offset="1"
         id="stop13" />
    </linearGradient>
    <linearGradient
       inkscape:collect="always"
       xlink:href="#linearGradient3605"
       id="linearGradient1697"
       x1="12.500001"
       y1="4.0001912"
       x2="16"
       y2="13"
       gradientUnits="userSpaceOnUse"
       gradientTransform="translate(3.9999997,3)" />
    <linearGradient
       inkscape:collect="always"
       id="linearGradient3605">
      <stop
         style="stop-color:#0d6eaa;stop-opacity:1;"
         offset="0"
         id="stop3601" />
      <stop
         style="stop-color:#185086;stop-opacity:1"
         offset="1"
         id="stop3603" />
    </linearGradient>
    <linearGradient
       inkscape:collect="always"
       xlink:href="#linearGradient1014"
       id="linearGradient1705"
       x1="7.2109375"
       y1="7.4824219"
       x2="10.197266"
       y2="15.986328"
       gradientUnits="userSpaceOnUse"
       gradientTransform="translate(3.4732487,4.9831758)" />
    <linearGradient
       inkscape:collect="always"
       id="linearGradient1014">
      <stop
         style="stop-color:#33bff0;stop-opacity:1"
         offset="0"
         id="stop1010" />
      <stop
         style="stop-color:#1c9fe3;stop-opacity:1"
         offset="1"
         id="stop1012" />
    </linearGradient>
  </defs>
  <rect
     x="1.0002984"
     y="1"
     width="13.999701"
     height="13.999701"
     rx="6.9998507"
     ry="6.9998507"
     fill="url(#radialGradient875)"
     id="rect30"
     style="fill:url(#radialGradient875);stroke-width:0.249989" />
  <path
     d="M 8.0363159,1.3499931 C 7.4964642,1.3882784 6.9683485,1.48738 6.4533227,1.6543225 6.269581,1.6614936 5.8702587,1.8981527 6.1924391,2.0092145 6.342378,2.1693912 6.7003255,2.2203654 6.6568562,2.4821015 6.7146786,2.712163 6.122114,2.7017244 6.3193463,2.9100953 6.4591933,3.0941397 6.5990378,3.2781945 6.7388931,3.4622443 6.9971185,3.3793026 7.0823294,3.1148415 7.225593,2.9112858 7.6243744,2.7353858 8.1887728,2.6822555 8.4523165,2.3437612 8.5348986,2.1043202 8.6174808,1.8649009 8.7000652,1.6254601 8.4788131,1.5336369 8.2575579,1.4418137 8.0363167,1.3499685 Z M 6.1168165,1.4115052 C 5.8694641,1.384822 5.7112455,1.5368332 5.5266127,1.6364929 5.2993468,1.664328 5.0425728,1.7489154 4.899356,1.9317007 5.1542898,2.0473932 5.3148436,1.9241337 5.5348957,1.8367211 5.739209,1.7320479 6.4341199,1.6883758 6.1168165,1.4114806 Z M 4.520664,2.1456729 c -0.1271656,0.19411 0.089324,0.4750582 -0.2015764,0.5769279 -0.1435923,0.181776 -0.2690764,0.4801434 0.089826,0.371879 0.087799,-0.2693537 0.3605383,-0.6471839 0.6709352,-0.4894299 0.3126367,0.084 0.6019871,0.6093599 0.8572483,0.1932396 C 5.9369942,2.6900629 5.5400427,2.6267546 5.5489089,2.361988 5.3722709,2.2862081 4.9946842,2.4239153 5.0078673,2.1485248 4.7526778,2.0352135 4.6791775,2.5998287 4.5887397,2.2842477 4.5660457,2.2380622 4.5433517,2.1918768 4.5206546,2.1456701 Z m 6.927285,0.2447218 c -0.302043,0.060398 -0.600377,0.1293917 -0.838745,0.3369956 0.06919,0.276635 -0.287694,0.3231838 -0.446427,0.4767364 -0.115169,0.064989 0.0021,0.5670121 0.102999,0.4890804 0.214555,-0.2830748 0.32554,-0.038891 0.524989,0.1008941 0.179517,0.166733 0.293504,-0.3096265 0.198152,-0.4439074 -0.05595,-0.2164184 0.21623,-0.3765202 0.314176,-0.5537574 0.299454,-0.1920861 0.04642,0.2450657 0.03683,0.3976858 -0.151155,0.4510222 0.67047,0.01361 0.128883,0.3506455 -0.145268,0.1450768 -0.198461,0.3600018 -0.42169,0.4672155 C 10.926585,4.1591 10.466572,4.0901451 10.528521,3.8606509 10.360536,3.5973627 10.401999,4.1775342 10.344926,4.1747562 10.06652,4.0917969 9.9836645,4.4025513 9.8090651,4.5512312 9.6754467,4.7047358 9.2037409,4.6094914 9.5559039,4.8472795 9.812751,5.1436532 9.5047183,5.0888437 9.2922419,5.1677779 8.9919714,5.219483 9.0421614,5.4809984 9.0499314,5.7171267 9.0545203,5.8472554 9.342736,6.0403102 9.4886813,5.9495517 9.7802017,5.9183325 9.7066434,5.5605702 9.9220194,5.4514665 10.100972,5.2982823 10.226559,5.1570053 10.49526,5.1533431 c 0.124056,0.1183938 0.374796,0.2963735 0.476479,0.3931577 -0.280623,0.3057526 0.128891,0.2808348 0.168065,0.00227 0.138422,-0.153393 -0.455947,-0.5143504 -0.06399,-0.3557558 0.259438,0.085587 0.199778,0.3506232 0.315205,0.5295383 0.20518,0.3468434 0.22715,0.088024 0.246253,-0.1802847 0.340888,-0.1070908 0.433286,0.5936144 0.892756,0.4292807 0.344347,0.090482 0.181167,0.3131487 -0.03625,0.4569259 -0.198566,0.1448338 -0.494655,0.045562 -0.712584,-0.03307 C 11.565598,6.2847177 11.305764,6.3481769 11.192273,6.5683149 10.940326,6.3508776 10.761969,6.0054573 10.395947,5.9863253 10.049384,5.9683719 9.6995081,6.0605175 9.3650559,6.154741 8.9944836,6.5896419 8.5935555,7.0132021 8.4208928,7.5690612 8.2416632,7.7893162 8.6255673,7.9212693 8.3337528,8.1217221 8.1305918,8.3114081 8.4029438,8.545702 8.4449913,8.758404 8.663627,9.017677 8.9988197,9.8705173 9.3364685,9.5406384 9.5264866,9.2404154 9.652489,9.7372964 9.8759243,9.4254752 c 0.1880657,-0.1716657 0.3403787,0.17248 0.6041107,0.050081 0.234518,0.1169 0.25491,0.3460497 0.130991,0.5653328 -0.07958,0.222636 0.344764,0.314177 0.224028,0.574081 -0.05692,0.254164 0.05458,0.469922 0.180838,0.682322 -0.280647,0.292943 -0.246814,0.726886 -0.176757,1.093959 0.137313,0.503243 0.333962,1.007933 0.314316,1.53782 0.245904,0.0645 0.427295,-0.09836 0.63064,-0.183873 0.388121,0.0549 0.599261,-0.359233 0.840265,-0.596759 -0.181052,-0.243384 0.148734,-0.348406 0.285056,-0.505857 -0.203909,-0.176372 -0.339024,-0.347611 -0.02333,-0.485159 0.145626,-0.147912 0.418429,-0.231525 0.46626,-0.437842 -0.125404,-0.373699 -0.05399,-0.770753 -0.07243,-1.157121 0.154613,-0.31161 0.318773,-0.6165917 0.575575,-0.8572019 0.102414,-0.3379048 0.348569,-0.647626 0.3247,-1.0103341 C 13.581604,8.873998 13.76234,8.618865 14.094057,8.376291 14.324264,8.2074597 14.651575,8.0499799 14.721573,7.7621236 14.771818,7.4780223 14.549788,7.0369153 14.356624,7.4543172 14.262793,7.3212955 13.932246,7.1979358 13.93682,6.989129 13.86603,6.5680425 14.050689,6.8209585 14.214853,7.019819 14.596695,6.7367677 15.095015,7.8010262 14.933854,7.041631 14.715537,5.3981542 13.882198,3.8454942 12.633915,2.7546848 12.519768,2.8762348 12.329281,3.3294185 12.191058,3.0678339 11.995371,2.8602441 11.841788,2.6728316 12.240397,2.7499 12.631035,2.6438827 12.241875,2.5822412 12.037122,2.5580678 11.831762,2.534098 11.641327,2.4588737 11.447921,2.3903324 Z M 3.802013,2.4005952 C 3.5435781,2.500134 3.9307101,2.8796694 3.4673732,2.7581291 2.9593944,2.9883103 2.6209983,3.5469181 2.2679258,3.9819116 1.4443469,5.1458018 0.99658971,6.5681232 1.0000195,7.9937606 1.135155,8.2726787 1.4679828,8.3672028 1.7169908,8.5211771 c 0.2530689,0.086569 0.5717712,0.073492 0.697722,0.3530722 0.1408672,0.1475134 0.3298797,0.345324 0.5311251,0.3613322 0.3092529,-0.099098 0.3528623,0.1813016 0.1968437,0.388724 -0.016903,0.2271982 -0.269773,0.4104475 -0.2415878,0.6102705 0.056341,0.223897 -0.2816726,0.470506 -0.053968,0.675345 0.2395565,0.428274 0.4959392,0.844182 0.8199156,1.214077 0.2015088,0.176543 0.1776155,0.419618 0.1546128,0.662421 -0.079967,0.256615 0.1625764,0.405057 0.2927581,0.591184 -0.3172343,0.581639 0.5420206,0.697883 0.9016496,0.952212 0.1808024,-0.165336 0.1951737,-0.432941 0.4951229,-0.440407 0.1818898,-0.127427 0.2207203,-0.415091 0.3456525,-0.60635 -0.004,-0.203153 -0.1340984,-0.392995 0.07711,-0.61426 0.1591423,-0.134323 0.4875395,-0.04475 0.5467819,-0.325168 0.2161771,-0.222676 0.041261,-0.531289 0.041261,-0.801458 0.167923,-0.230025 0.4576266,-0.406598 0.4254733,-0.724439 C 6.9838402,10.34368 6.1303465,10.364983 5.8296098,10.077569 5.4599477,10.066986 5.5347061,9.563243 5.2469422,9.4963253 4.961255,9.5106916 4.8573772,9.2868565 4.7561127,9.0596047 4.5987615,8.9522845 4.3026156,9.170382 4.1379557,9.0358887 3.9514571,8.9376398 3.78416,8.5711447 3.5742344,8.8001784 3.2979504,9.0005029 3.0262396,9.2040006 2.7641419,8.8686065 2.5941656,8.7154411 2.8077293,8.2806431 2.567066,8.3080349 2.0533003,8.4938748 2.7298964,7.5617828 2.2489462,7.6854448 2.1350369,7.8639907 1.9165468,8.1394796 1.7041011,7.9282009 1.4907543,7.8278162 1.5959964,7.5014202 1.6055102,7.3059375 1.6147436,7.0772908 1.9041005,6.9632951 2.0703937,6.858997 2.3929237,7.0032414 2.3267273,6.5733802 2.5962924,6.7170753 2.8577825,6.661384 2.9758475,7.0808566 3.082012,7.0964907 3.1444048,6.8898401 3.0317681,6.5878117 3.22355,6.4516635 3.4476329,6.2630458 3.7433823,6.1289016 3.7986811,5.8119937 3.8032847,5.4734577 4.2140759,5.7587601 4.3160636,5.5282192 4.410088,5.2640679 4.6843254,5.2805663 4.9159741,5.2307272 5.0426804,5.1131642 5.3611411,4.7510503 4.9677181,4.8572152 4.8244207,4.8378488 4.2475498,4.9146261 4.6392614,4.776599 4.8322154,4.6305394 5.0660893,4.6507789 5.2826879,4.6220918 5.45327,4.4776748 5.751467,4.4292931 5.7645801,4.1663554 5.6229997,3.9737995 5.3230993,4.0104496 5.4504036,3.7342758 5.4381013,3.3730136 5.1199172,3.6049397 5.015386,3.5774617 5.1851506,3.341217 4.7946393,3.1924698 4.6635737,3.1891572 4.574494,3.4117902 4.3240576,3.6038734 4.4124414,3.8601159 4.1513245,3.9025234 4.0289896,4.0915194 3.9505214,4.3268193 3.8722334,4.3540888 3.8976901,3.8653411 3.5980557,3.9103742 3.3864101,3.9052681 3.1247725,3.5894545 3.3476008,3.465091 3.6530973,3.2718011 4.0329326,3.1205114 4.2261052,2.8117712 4.3371942,2.5352536 4.1323268,2.36553 3.8595227,2.4047994 L 3.8214871,2.402155 Z M 8.9420031,2.7189733 C 8.7733972,2.8501427 8.4330206,2.7595461 8.3611555,2.8860091 8.3309233,3.141084 8.7269911,3.1370948 8.8851646,2.9962776 9.1436902,2.9006925 9.1321666,2.9181363 8.9419891,2.7189674 Z M 5.1966164,2.8497073 C 4.838294,2.9551371 5.1311154,3.1898286 5.3650249,3.1867029 5.6441078,3.1641853 5.3844559,2.8517141 5.1966164,2.8497073 Z M 9.4695589,3.5537991 C 9.4439233,3.7820499 9.6631835,3.92458 9.5726307,4.1732388 9.4300415,4.4864822 9.6320219,4.5805378 9.8757012,4.3879995 10.201147,4.1888717 9.6318266,3.7526653 9.55597,3.5537995 H 9.4695511 Z M 9.3622387,3.9208637 C 9.0697834,3.8489752 9.1623055,4.4610432 9.3632499,4.250323 9.579651,4.2125456 9.3718365,4.045801 9.3622387,3.9208637 Z M 5.6299164,4.4725213 C 5.6728529,4.7046376 5.6882918,5.0726196 5.8582259,4.6773549 5.8579928,4.6005364 5.6903317,4.5404415 5.6299164,4.4725213 Z M 12.692066,6.859004 c 0.343739,0.2997105 0.482989,0.7337725 0.676745,1.1320172 0.288302,0.1513711 0.117638,0.3828681 0.157797,0.5773927 0.401416,0.3514513 -0.406506,0.1642698 -0.308461,-0.2191521 -0.0655,-0.4453284 -0.351533,-0.7425896 -0.585142,-1.0646526 -0.01837,-0.1704759 -0.201243,-0.364925 0.05906,-0.4255902 z"
     fill="url(#linearGradient883)"
     id="path32"
     style="fill:url(#linearGradient883);stroke-width:0.249989" />
  <path
     id="rect294"
     style="fill:url(#linearGradient1697);fill-opacity:1;stroke-width:2.64575;stroke-linecap:round;stroke-linejoin:round"
     d="M 16.474609,7.0001913 C 16.209696,7.0135333 16,7.2318481 16,7.5001913 v 0.5 h -3.474305 c -0.0085,-4.304e-4 -0.01673,0 -0.02539,0 -0.276999,0 -0.5,0.2230006 -0.5,0.5 v 1 c 0,0.2769994 0.223001,0.4999997 0.5,0.4999997 0.277,0 0.5,-0.2230003 0.5,-0.4999997 v -0.5 H 20 v 0.5 c 0,0.2769994 0.223001,0.4999997 0.5,0.4999997 0.276998,0 0.5,-0.2230003 0.5,-0.4999997 v -1 c 0,-0.268356 -0.209679,-0.4866768 -0.47461,-0.5 -0.0085,-4.304e-4 -0.01673,0 -0.02539,0 H 17 v -0.5 c 0,-0.2769994 -0.223001,-0.5 -0.5,-0.5 -0.0087,0 -0.01685,-4.304e-4 -0.02539,0 z m -1.974304,2.9999997 c -0.276142,0 -0.5,0.223859 -0.5,0.5 0,0.276142 0.223858,0.5 0.5,0.5 h 2.749609 l -1.050695,1.999904 h -2.673524 -0.02539 c -0.276142,0 -0.5,0.223858 -0.5,0.5 0,0.276142 0.223858,0.499999 0.5,0.499999 h 2.499696 v 1.999809 h -0.47461 c -0.0085,-2.15e-4 -0.01693,-2.15e-4 -0.02539,0 -0.276142,0 -0.5,0.223858 -0.5,0.5 0,0.276142 0.223858,0.5 0.5,0.5 h 0.5 c 0.553997,0 1,-0.446003 1,-1 v -1.999809 h 2.5 C 19.776143,14.000094 20,13.776237 20,13.500095 c 0,-0.276142 -0.223857,-0.5 -0.499999,-0.5 h -2.13672 l 1.212805,-2.454982 c 0.135818,-0.252029 0.08845,-0.544922 -0.326172,-0.544922 h -3.724219 c -0.0085,-2.146e-4 -0.01693,-2.146e-4 -0.02539,0 z"
     sodipodi:nodetypes="ssccsssssccsssssscsssscsscccsssccccsssscsssccscc" />
  <path
     id="rect855"
     style="fill:url(#linearGradient1705);fill-opacity:1;stroke-linecap:round;stroke-linejoin:round"
     d="m 10.684187,12.465596 c -0.19464,0.0097 -0.372306,0.132904 -0.443361,0.328125 l -2.7363276,7.517578 c -0.09474,0.260294 0.03853,0.545886 0.298828,0.640625 0.260295,0.09474 0.545886,-0.03853 0.640625,-0.298828 l 0.970703,-2.669922 h 2.6367196 l 0.978516,2.6875 c 0.09474,0.260295 0.38033,0.393567 0.640625,0.298828 0.260293,-0.09474 0.393567,-0.38033 0.298828,-0.640625 l -2.736328,-7.517578 c -0.05801,-0.159378 -0.188282,-0.271546 -0.339844,-0.3125 -0.0031,-8.49e-4 -0.0066,-0.0012 -0.0098,-0.0019 l -0.002,-0.002 c -0.06507,-0.02369 -0.132385,-0.03254 -0.197264,-0.0293 z m 0.04883,1.896484 0.955078,2.621094 H 9.7798894 Z" />
</svg>
