<?xml version="1.0" encoding="UTF-8" standalone="no"?>
<!-- Created with Inkscape (http://www.inkscape.org/) -->

<svg
   width="22"
   height="22"
   viewBox="0 0 22 22"
   version="1.1"
   id="svg2535"
   inkscape:version="1.3.2 (091e20ef0f, 2023-11-25, custom)"
   sodipodi:docname="preferences-online-accounts.svg"
   xmlns:inkscape="http://www.inkscape.org/namespaces/inkscape"
   xmlns:sodipodi="http://sodipodi.sourceforge.net/DTD/sodipodi-0.dtd"
   xmlns:xlink="http://www.w3.org/1999/xlink"
   xmlns="http://www.w3.org/2000/svg"
   xmlns:svg="http://www.w3.org/2000/svg">
  <sodipodi:namedview
     id="namedview2537"
     pagecolor="#ffffff"
     bordercolor="#000000"
     borderopacity="0.25"
     inkscape:showpageshadow="2"
     inkscape:pageopacity="0.0"
     inkscape:pagecheckerboard="0"
     inkscape:deskcolor="#d1d1d1"
     inkscape:document-units="px"
     showgrid="false"
     inkscape:zoom="37.272727"
     inkscape:cx="10.986585"
     inkscape:cy="11"
     inkscape:window-width="1920"
     inkscape:window-height="1017"
     inkscape:window-x="0"
     inkscape:window-y="0"
     inkscape:window-maximized="1"
     inkscape:current-layer="svg2535" />
  <defs
     id="defs2532">
    <radialGradient
       id="radialGradient875"
       cx="20.107"
       cy="28.705"
       r="28"
       gradientTransform="matrix(0.35522241,0.2005937,-0.15804861,0.27987904,5.8890228,-3.4087062)"
       gradientUnits="userSpaceOnUse">
      <stop
         stop-color="#5ab5e2"
         offset="0"
         id="stop2" />
      <stop
         stop-color="#4189ac"
         offset=".45901"
         id="stop4" />
      <stop
         stop-color="#295e76"
         offset="1"
         id="stop6" />
    </radialGradient>
    <linearGradient
       id="linearGradient883"
       x1="4"
       x2="59.861"
       y1="31.360001"
       y2="31.360001"
       gradientTransform="matrix(0.32141314,0,0,0.32141314,1.7146129,-0.28568165)"
       gradientUnits="userSpaceOnUse">
      <stop
         stop-color="#b0d6df"
         offset="0"
         id="stop9" />
      <stop
         stop-color="#e1f8fc"
         offset=".21709"
         id="stop11" />
      <stop
         stop-color="#96c3ce"
         offset="1"
         id="stop13" />
    </linearGradient>
    <linearGradient
       inkscape:collect="always"
       xlink:href="#linearGradient2131"
       id="linearGradient3853"
       x1="9.9999533"
       y1="12.999999"
       x2="9.9999533"
       y2="19"
       gradientUnits="userSpaceOnUse"
       gradientTransform="translate(-3.9998126,2.0000004)" />
    <linearGradient
       inkscape:collect="always"
       xlink:href="#linearGradient2131"
       id="linearGradient2320"
       x1="8.562398"
       y1="1.3003726"
       x2="8.5805483"
       y2="8.2474289"
       gradientUnits="userSpaceOnUse"
       gradientTransform="matrix(0.87219869,0,0,0.87219869,-1.3845454,6.846154)" />
    <linearGradient
       inkscape:collect="always"
       id="linearGradient2131">
      <stop
         style="stop-color:#2ac9ba;stop-opacity:1;"
         offset="0"
         id="stop2127" />
      <stop
         style="stop-color:#2e988c;stop-opacity:1"
         offset="1"
         id="stop2129" />
    </linearGradient>
  </defs>
  <rect
     x="3.0003836"
     y="1"
     width="17.999617"
     height="17.999617"
     rx="8.9998083"
     ry="8.9998083"
     fill="url(#radialGradient875)"
     id="rect30"
     style="fill:url(#radialGradient875);stroke-width:0.321415" />
  <path
     d="M 12.046692,1.4499911 C 11.352597,1.4992151 10.673591,1.6266315 10.011415,1.8412718 9.7751757,1.8504918 9.2617613,2.1547678 9.6759933,2.2975615 9.8687719,2.503503 10.32899,2.5690412 10.273101,2.9055591 10.347444,3.2013525 9.5855753,3.1879314 9.8391597,3.4558368 10.018963,3.6924654 10.198763,3.9291073 10.378577,4.1657427 10.710581,4.0591034 10.820138,3.719082 11.004334,3.4573675 11.517053,3.2312104 12.242708,3.1628999 12.58155,2.727693 12.687727,2.4198403 12.793904,2.1120154 12.900084,1.804163 12.615617,1.6861046 12.331146,1.5680462 12.046693,1.4499595 Z M 9.5787642,1.5290781 C 9.2607397,1.4947711 9.0573157,1.6902141 8.8199307,1.818348 8.5277317,1.854136 8.1975937,1.9628912 8.0134578,2.1979009 8.3412298,2.3466484 8.5476562,2.1881719 8.8305803,2.0757843 9.0932688,1.9412044 9.9867257,1.8850546 9.5787642,1.5290465 Z M 7.5265681,2.473008 C 7.3630695,2.7225781 7.6414128,3.0837971 7.2673984,3.2147725 7.0827798,3.4484845 6.9214431,3.8320997 7.3828894,3.6929027 7.4957737,3.3465907 7.8464386,2.8608091 8.2455204,3.0636356 c 0.4019615,0.108 0.7739834,0.7834628 1.1021764,0.248451 C 9.3475641,3.172938 8.8371979,3.0915417 8.8485973,2.7511275 8.6214912,2.6536962 8.1360226,2.8307483 8.1529723,2.4766748 7.8248715,2.3309888 7.7303712,3.0569227 7.614094,2.6511756 7.584916,2.5917943 7.555738,2.532413 7.526556,2.4730045 Z m 8.9065099,0.3146423 c -0.388341,0.077655 -0.771914,0.1663608 -1.078387,0.4332801 0.08896,0.3556736 -0.369892,0.4155221 -0.573977,0.6129468 -0.148075,0.083558 0.0027,0.7290156 0.132427,0.6288177 0.275856,-0.3639533 0.418551,-0.050003 0.674985,0.129721 0.230808,0.214371 0.377363,-0.3980912 0.254767,-0.5707381 -0.07193,-0.2782522 0.27801,-0.4840974 0.403941,-0.7119738 0.385012,-0.2469679 0.05968,0.3150845 0.04736,0.5113103 -0.194343,0.5798857 0.862032,0.017499 0.165706,0.45083 -0.18678,0.1865272 -0.255171,0.4628594 -0.542179,0.6007056 -0.154968,0.1891502 -0.746414,0.1004939 -0.666765,-0.1945701 -0.215981,-0.3385134 -0.162671,0.4074214 -0.236051,0.4038497 -0.357951,-0.106662 -0.464479,0.2928794 -0.688964,0.4840392 -0.171795,0.1973631 -0.778274,0.074906 -0.325493,0.3806336 0.330232,0.3810519 -0.06581,0.3105826 -0.338994,0.4120694 -0.386062,0.066478 -0.321532,0.402712 -0.311542,0.7063056 0.0059,0.1673083 0.376463,0.4155216 0.564107,0.2988321 0.374812,-0.040139 0.280237,-0.5001191 0.557149,-0.6403952 0.230082,-0.1969512 0.391551,-0.378593 0.737024,-0.3833015 0.1595,0.1522205 0.48188,0.3810516 0.612616,0.5054884 -0.360801,0.3931105 0.165717,0.3610733 0.216083,0.00292 0.177971,-0.1972196 -0.586217,-0.6613077 -0.08227,-0.4574003 0.333563,0.1100409 0.256857,0.4508012 0.405263,0.680835 0.263803,0.4459415 0.292051,0.1131741 0.316611,-0.2317947 0.438285,-0.1376882 0.557083,0.7632185 1.14783,0.5519324 0.442731,0.1163338 0.232929,0.4026198 -0.04661,0.5874761 -0.255299,0.1862135 -0.635985,0.058579 -0.916179,-0.04252 C 16.58434,7.7946371 16.250268,7.8762276 16.104351,8.1592621 15.780419,7.8796999 15.551103,7.4355881 15.080504,7.4109898 14.634923,7.3879068 14.185082,7.5063798 13.755072,7.6275242 13.278622,8.1866826 12.763143,8.73126 12.541148,9.445936 12.31071,9.729121 12.804301,9.898775 12.429111,10.1565 c -0.261207,0.243882 0.08896,0.545117 0.143021,0.818591 0.281103,0.333351 0.712065,1.42986 1.146185,1.00573 0.244309,-0.386001 0.406312,0.252846 0.693586,-0.148067 0.241799,-0.220713 0.43763,0.22176 0.776714,0.06439 0.301523,0.1503 0.327741,0.444921 0.168416,0.726856 -0.102316,0.286246 0.443269,0.403942 0.288037,0.738105 -0.07318,0.326782 0.07017,0.604185 0.232506,0.877271 -0.360832,0.376641 -0.317333,0.934568 -0.22726,1.406519 0.176546,0.647026 0.429381,1.295913 0.404121,1.977197 0.316162,0.08293 0.549379,-0.126467 0.810823,-0.236409 0.499013,0.07058 0.770478,-0.46187 1.080341,-0.767261 -0.232781,-0.312922 0.191229,-0.447951 0.366501,-0.650388 -0.262169,-0.226764 -0.435889,-0.446928 -0.03,-0.623776 0.187233,-0.190172 0.53798,-0.297675 0.599477,-0.562939 -0.161234,-0.48047 -0.06941,-0.990968 -0.09312,-1.487727 0.198788,-0.400642 0.409851,-0.792761 0.740025,-1.102117 0.131675,-0.434449 0.44816,-0.832662 0.417471,-1.299001 -0.769607,0.230238 -0.537232,-0.09779 -0.110734,-0.409671 0.295976,-0.217069 0.716804,-0.419543 0.806802,-0.789644 0.0646,-0.365273 -0.220867,-0.9324106 -0.46922,-0.395751 -0.12064,-0.171028 -0.545629,-0.3296333 -0.539748,-0.5980992 -0.09101,-0.5413969 0.146403,-0.2162192 0.357471,0.039458 0.490939,-0.3639232 1.131636,1.0044092 0.924429,0.028044 C 20.634262,6.6547698 19.562826,4.6584926 17.957891,3.2560233 17.81113,3.4123019 17.566219,3.9949667 17.388503,3.6586436 17.136906,3.3917424 16.939442,3.1507835 17.451939,3.2498714 17.954188,3.1135635 17.453839,3.0343102 17.190586,3.00323 16.926552,2.9724117 16.681706,2.8756948 16.433042,2.7875702 Z M 6.6025882,2.8007653 C 6.2703148,2.9287438 6.7680559,3.4167179 6.172337,3.2604518 5.5192214,3.556399 5.0841407,4.274609 4.6301903,4.8338864 3.5713032,6.3303167 2.9956153,8.1590157 3.0000251,9.991978 c 0.1737456,0.358609 0.6016671,0.48014 0.9218202,0.678107 0.3253743,0.111303 0.7351344,0.09449 0.8970712,0.45395 0.181115,0.18966 0.424131,0.443988 0.6828752,0.46457 0.3976108,-0.127412 0.4536801,0.233102 0.2530847,0.499788 -0.021732,0.292112 -0.346851,0.527718 -0.3106129,0.784634 0.072438,0.287867 -0.3621505,0.604936 -0.069388,0.8683 0.3080012,0.550638 0.6376361,1.085377 1.0541771,1.560956 0.2590828,0.226984 0.2283628,0.539509 0.198788,0.851684 -0.1028145,0.329934 0.2090268,0.520788 0.3764032,0.760094 -0.4078727,0.747822 0.6968836,0.897279 1.1592638,1.224273 0.2324602,-0.212575 0.2509376,-0.556638 0.6365866,-0.566238 0.2338583,-0.163834 0.2837832,-0.533688 0.4444104,-0.779593 -0.00514,-0.261196 -0.1724122,-0.505279 0.099142,-0.789763 0.2046116,-0.172701 0.6268366,-0.05753 0.7030054,-0.418073 0.277942,-0.286297 0.05305,-0.683085 0.05305,-1.030446 0.215901,-0.295746 0.588377,-0.522769 0.547037,-0.931421 C 10.693509,13.013303 9.5961599,13.040693 9.2094984,12.67116 8.7342186,12.657554 8.8303365,12.009884 8.4603544,11.923847 8.0930422,11.942318 7.959485,11.65453 7.8292879,11.362349 7.6269792,11.224366 7.2462201,11.504777 7.0345145,11.331857 6.7947306,11.205537 6.5796343,10.734329 6.30973,11.028801 5.9545077,11.286361 5.6051652,11.548001 5.2681825,11.11678 5.0496415,10.919853 5.3242235,10.360827 5.0147992,10.396045 4.3542433,10.634982 5.2241525,9.436578 4.605788,9.595572 4.4593332,9.825131 4.1784173,10.179331 3.9052729,9.907687 3.6309699,9.778621 3.7662811,9.358969 3.7785132,9.107634 3.7903847,8.8136597 4.1624149,8.6670938 4.3762205,8.5329962 4.7909019,8.7184534 4.7057923,8.1657746 5.052376,8.3505255 5.3885775,8.2789224 5.5403754,8.8182443 5.6768726,8.8383453 5.757092,8.5726517 5.6122733,8.1843295 5.8588501,8.0092818 6.1469567,7.7667733 6.5272059,7.5943022 6.5983044,7.1868491 6.6042232,6.7515885 7.1323834,7.118406 7.2635104,6.8219962 7.3843989,6.4823731 7.7369899,6.5035853 8.0348239,6.4395065 8.1977321,6.2883541 8.6071815,5.822779 8.1013519,5.9592767 7.9171124,5.9343771 7.1754213,6.0330908 7.6790505,5.8556273 7.9271342,5.6678365 8.2278292,5.6938586 8.5063131,5.6569753 8.725633,5.4712962 9.1090291,5.4090912 9.1258888,5.0710284 8.9438569,4.8234565 8.5582706,4.8705781 8.7219476,4.5154975 8.7061303,4.0510175 8.2970365,4.3492082 8.1626392,4.3138794 8.380908,4.0101362 7.878822,3.8188898 7.7103091,3.8146307 7.5957781,4.1008732 7.2737884,4.3478373 7.3874248,4.6772919 7.051703,4.7318158 6.8944153,4.9748107 6.7935276,5.2773392 6.6928716,5.3124 6.7256016,4.68401 6.3403574,4.7419098 6.0682416,4.7353447 5.7318504,4.3292987 6.0183439,4.1694028 6.4111252,3.9208872 6.8994848,3.7263719 7.1478496,3.3294202 7.2906784,2.9738975 7.0272774,2.7556815 6.6765293,2.8061707 l -0.048903,-0.0034 z m 6.6085588,0.4093433 c -0.216779,0.1686463 -0.654406,0.052165 -0.746804,0.2147603 -0.03887,0.3279534 0.47036,0.3228245 0.673726,0.1417738 0.33239,-0.1228951 0.317574,-0.1004674 0.07306,-0.3565417 z M 8.3956497,3.3781951 C 7.9349495,3.5137478 8.3114342,3.8154939 8.612175,3.8114752 8.9709958,3.782524 8.6371577,3.3807753 8.3956497,3.3781951 Z m 5.4937833,0.905261 c -0.03296,0.2934652 0.248946,0.4767182 0.132521,0.7964224 -0.183329,0.4027415 0.07636,0.5236702 0.389662,0.2761209 0.41843,-0.2560214 -0.313553,-0.8168583 -0.411083,-1.0725429 h -0.11111 z M 13.75145,4.7553962 c -0.376014,-0.092428 -0.257057,0.6945166 0.0013,0.4235906 0.27823,-0.048571 0.01104,-0.2629569 -0.0013,-0.4235906 z M 8.9527498,5.4646703 c 0.055204,0.2984353 0.075054,0.771555 0.2935407,0.2633575 C 9.2459908,5.6292612 9.0304266,5.5519963 8.9527498,5.4646703 Z m 9.0799072,3.068335 c 0.44195,0.3853421 0.620986,0.9434217 0.8701,1.4554507 0.370674,0.19462 0.151249,0.492259 0.202882,0.742362 0.516107,0.451866 -0.522651,0.211204 -0.396593,-0.281767 C 18.624826,9.876486 18.257075,9.494293 17.956721,9.080212 17.933101,8.8610286 17.69798,8.6110226 18.032661,8.5330245 Z"
     fill="url(#linearGradient883)"
     id="path32"
     style="fill:url(#linearGradient883);stroke-width:0.321415" />
  <circle
     style="fill:url(#linearGradient2320);fill-opacity:1;stroke-width:1.01076;stroke-linecap:round;stroke-linejoin:round"
     id="path846"
     cx="6.0000701"
     cy="11"
     r="3" />
  <path
     id="rect1284"
     style="fill:url(#linearGradient3853);fill-opacity:1;stroke-width:0.559019;stroke-linejoin:round"
     d="m 3.5000701,15 c -1.6619966,0 -2.5,0.838004 -2.5,2.5 V 18 c -0.014373,1.571284 2.1839356,3.007922 5,3 2.8160644,0.0079 5.0143699,-1.428716 4.9999999,-3 v -0.5 c 0,-1.661997 -0.838004,-2.5 -2.4999999,-2.5 z"
     sodipodi:nodetypes="cscccscc" />
</svg>
