<?xml version="1.0" encoding="UTF-8" standalone="no"?>
<!-- Created with Inkscape (http://www.inkscape.org/) -->

<svg
   width="22"
   height="22"
   viewBox="0 0 22 22"
   version="1.1"
   id="svg2535"
   inkscape:version="1.3.2 (091e20ef0f, 2023-11-25, custom)"
   sodipodi:docname="preferences-security-firewall.svg"
   xmlns:inkscape="http://www.inkscape.org/namespaces/inkscape"
   xmlns:sodipodi="http://sodipodi.sourceforge.net/DTD/sodipodi-0.dtd"
   xmlns:xlink="http://www.w3.org/1999/xlink"
   xmlns="http://www.w3.org/2000/svg"
   xmlns:svg="http://www.w3.org/2000/svg">
  <sodipodi:namedview
     id="namedview2537"
     pagecolor="#ffffff"
     bordercolor="#000000"
     borderopacity="0.25"
     inkscape:showpageshadow="2"
     inkscape:pageopacity="0.0"
     inkscape:pagecheckerboard="0"
     inkscape:deskcolor="#d1d1d1"
     inkscape:document-units="px"
     showgrid="false"
     inkscape:zoom="37.272727"
     inkscape:cx="10.986585"
     inkscape:cy="11"
     inkscape:window-width="1920"
     inkscape:window-height="1017"
     inkscape:window-x="0"
     inkscape:window-y="0"
     inkscape:window-maximized="1"
     inkscape:current-layer="svg2535" />
  <defs
     id="defs2532">
    <radialGradient
       id="radialGradient875"
       cx="20.107"
       cy="28.705"
       r="28"
       gradientTransform="matrix(0.27628409,0.15601732,-0.12292669,0.21768369,3.2470178,-2.4289936)"
       gradientUnits="userSpaceOnUse">
      <stop
         stop-color="#5ab5e2"
         offset="0"
         id="stop2" />
      <stop
         stop-color="#4189ac"
         offset=".45901"
         id="stop4" />
      <stop
         stop-color="#295e76"
         offset="1"
         id="stop6" />
    </radialGradient>
    <linearGradient
       id="linearGradient883"
       x1="4"
       x2="59.861"
       y1="31.360001"
       y2="31.360001"
       gradientTransform="matrix(0.24998799,0,0,0.24998799,2.5445844e-4,2.54e-5)"
       gradientUnits="userSpaceOnUse">
      <stop
         stop-color="#b0d6df"
         offset="0"
         id="stop9" />
      <stop
         stop-color="#e1f8fc"
         offset=".21709"
         id="stop11" />
      <stop
         stop-color="#96c3ce"
         offset="1"
         id="stop13" />
    </linearGradient>
    <linearGradient
       inkscape:collect="always"
       xlink:href="#linearGradient937"
       id="linearGradient939"
       x1="60"
       y1="62.623653"
       x2="20"
       y2="28"
       gradientUnits="userSpaceOnUse"
       gradientTransform="matrix(0.45,0,0,0.40434784,-4.9999999,-3.3217394)" />
    <linearGradient
       inkscape:collect="always"
       id="linearGradient937">
      <stop
         style="stop-color:#8d4735;stop-opacity:1;"
         offset="0"
         id="stop933" />
      <stop
         style="stop-color:#b35b45;stop-opacity:1;"
         offset="1"
         id="stop935" />
    </linearGradient>
  </defs>
  <rect
     x="1.0002984"
     y="1"
     width="13.999701"
     height="13.999701"
     rx="6.9998507"
     ry="6.9998507"
     fill="url(#radialGradient875)"
     id="rect30"
     style="fill:url(#radialGradient875);stroke-width:0.249989" />
  <path
     d="M 8.0363158,1.3499931 C 7.4964642,1.3882784 6.9683485,1.48738 6.4533228,1.6543225 6.2695811,1.6614936 5.8702588,1.8981527 6.1924392,2.0092145 6.3423781,2.1693912 6.7003252,2.2203654 6.6568559,2.4821015 6.7146785,2.712163 6.1221141,2.7017244 6.3193464,2.9100953 6.4591936,3.0941397 6.5990377,3.2781945 6.7388934,3.4622443 6.9971187,3.3793026 7.0823298,3.1148415 7.2255929,2.9112858 7.6243744,2.7353858 8.1887727,2.6822554 8.4523165,2.3437612 8.5348986,2.1043202 8.6174807,1.8649009 8.7000651,1.6254601 8.478813,1.5336369 8.2575578,1.4418137 8.0363166,1.3499685 Z M 6.1168166,1.4115052 C 5.8694642,1.384822 5.7112455,1.5368332 5.5266128,1.6364929 5.2993469,1.664328 5.0425729,1.7489154 4.8993561,1.9317007 5.1542899,2.0473932 5.3148437,1.9241337 5.5348958,1.8367211 5.7392091,1.7320479 6.43412,1.6883758 6.1168166,1.4114806 Z M 4.5206641,2.1456729 C 4.3934985,2.3397829 4.6099878,2.620731 4.3190877,2.7226008 4.1754954,2.9043768 4.0500113,3.2027442 4.408914,3.0944798 4.4967129,2.8251261 4.7694523,2.4472959 5.0798492,2.6050499 5.3924859,2.6890499 5.6818363,3.2144098 5.9370975,2.7982895 5.9369943,2.6900629 5.5400428,2.6267546 5.548909,2.361988 5.3722709,2.2862081 4.9946843,2.4239153 5.0078674,2.1485248 4.7526779,2.0352135 4.6791776,2.5998287 4.5887398,2.2842477 4.5660458,2.2380622 4.5433518,2.1918768 4.5206547,2.1456701 Z m 6.9272849,0.2447218 c -0.302043,0.060398 -0.600377,0.1293917 -0.838745,0.3369956 0.06919,0.276635 -0.287694,0.3231838 -0.446427,0.4767364 -0.115169,0.06499 0.0021,0.5670121 0.102999,0.4890804 0.214555,-0.2830748 0.32554,-0.038891 0.524989,0.1008941 0.179517,0.166733 0.293504,-0.3096265 0.198152,-0.4439074 -0.05595,-0.2164184 0.21623,-0.3765202 0.314176,-0.5537574 0.299454,-0.1920861 0.04642,0.2450657 0.03684,0.3976858 -0.151156,0.4510222 0.670469,0.01361 0.128882,0.3506455 C 11.323542,3.6898445 11.270349,3.9047695 11.04712,4.0119832 10.92659,4.1591 10.466576,4.0901452 10.528525,3.8606509 10.36054,3.5973627 10.402003,4.1775342 10.34493,4.1747562 10.066524,4.0917972 9.9836689,4.4025513 9.8090689,4.5512311 c -0.133618,0.1535047 -0.605324,0.05826 -0.253161,0.2960484 0.256847,0.2963737 -0.05119,0.2415642 -0.263662,0.3204984 -0.3002706,0.051705 -0.250081,0.3132205 -0.242311,0.5493488 0.0046,0.1301287 0.292805,0.3231835 0.43875,0.232425 0.291521,-0.031219 0.217962,-0.3889815 0.433338,-0.4980852 0.1789531,-0.1531842 0.3045401,-0.2944612 0.5732411,-0.2981234 0.124056,0.1183938 0.374796,0.2963735 0.476479,0.3931577 -0.280623,0.3057526 0.128891,0.2808348 0.168065,0.00227 0.138422,-0.153393 -0.455947,-0.5143504 -0.06399,-0.3557558 0.259438,0.085587 0.199778,0.3506232 0.315205,0.5295383 0.20518,0.3468434 0.227151,0.088024 0.246253,-0.1802847 0.340888,-0.1070909 0.433287,0.5936143 0.892756,0.4292807 0.344347,0.090482 0.181167,0.3131487 -0.03625,0.4569259 -0.19857,0.1448338 -0.494659,0.045562 -0.712587,-0.03307 C 11.565598,6.2847176 11.305764,6.3481769 11.192273,6.5683149 10.940326,6.3508776 10.761969,6.0054573 10.395947,5.9863253 10.049384,5.9683719 9.6995079,6.0605175 9.3650559,6.154741 8.9944836,6.5896419 8.5935555,7.0132021 8.4208927,7.5690612 c -0.1792296,0.220255 0.2046745,0.3522081 -0.08714,0.5526609 -0.203161,0.189686 0.069191,0.4239799 0.1112386,0.6366819 0.2186356,0.259273 0.5538283,1.112113 0.8914776,0.782234 0.190018,-0.300223 0.31602,0.196658 0.539455,-0.115163 0.1880661,-0.171665 0.3403791,0.17248 0.6041111,0.05008 0.234518,0.1169 0.25491,0.34605 0.130991,0.565333 -0.07958,0.222635 0.344764,0.314177 0.224028,0.574081 -0.05692,0.254164 0.05458,0.469922 0.180838,0.682322 -0.280647,0.292943 -0.246814,0.726886 -0.176757,1.093959 0.137313,0.503243 0.333963,1.007933 0.314316,1.53782 0.245904,0.0645 0.427295,-0.09836 0.63064,-0.183873 0.388121,0.0549 0.599261,-0.359233 0.840265,-0.596759 -0.181052,-0.243384 0.148734,-0.348406 0.285056,-0.505857 -0.203909,-0.176372 -0.339024,-0.347611 -0.02333,-0.485159 0.145626,-0.147912 0.418429,-0.231525 0.46626,-0.437842 -0.125404,-0.373699 -0.05399,-0.770753 -0.07243,-1.157121 0.154613,-0.31161 0.318773,-0.616592 0.575575,-0.857202 0.102414,-0.337905 0.348569,-0.647626 0.3247,-1.0103339 -0.598583,0.179074 -0.417847,-0.076059 -0.08613,-0.318633 C 14.324264,8.2074596 14.651575,8.0499799 14.721573,7.7621235 14.771818,7.4780223 14.549788,7.0369153 14.356624,7.4543172 14.262793,7.3212954 13.932246,7.1979358 13.93682,6.989129 13.86603,6.5680425 14.050689,6.8209585 14.214853,7.019818 14.596695,6.7367666 15.095015,7.8010252 14.933854,7.04163 14.715537,5.3981537 13.882198,3.8454937 12.633915,2.7546843 c -0.114147,0.12155 -0.304634,0.5747337 -0.442857,0.3131491 -0.195687,-0.2075898 -0.34927,-0.3950023 0.04934,-0.317934 0.390638,-0.1060172 0.0015,-0.1676587 -0.203275,-0.1918322 -0.205359,-0.02397 -0.395795,-0.099194 -0.589201,-0.1677353 z M 3.8020131,2.4005952 C 3.5435782,2.500134 3.9307102,2.8796694 3.4673733,2.7581291 2.9593945,2.9883103 2.6209984,3.5469181 2.2679259,3.9819116 1.444347,5.1458018 0.99658976,6.5681232 1.0000196,7.9937605 1.1351551,8.2726786 1.4679829,8.3672028 1.7169909,8.5211771 1.9700598,8.6077461 2.2887621,8.5946691 2.4147129,8.8742493 2.5555801,9.021763 2.7445926,9.219573 2.945838,9.235582 c 0.3092529,-0.0991 0.3528623,0.181301 0.1968437,0.388724 -0.016903,0.227198 -0.269773,0.410447 -0.2415878,0.61027 0.056341,0.223897 -0.2816726,0.470506 -0.053968,0.675345 0.2395565,0.428274 0.4959392,0.844182 0.8199156,1.214077 0.2015088,0.176543 0.1776155,0.419618 0.1546128,0.662421 -0.079967,0.256615 0.1625764,0.405057 0.2927581,0.591184 -0.3172343,0.581639 0.5420205,0.697883 0.9016496,0.952212 0.1808024,-0.165336 0.1951737,-0.432941 0.4951229,-0.440407 0.1818898,-0.127427 0.2207202,-0.415091 0.3456525,-0.60635 -0.004,-0.203153 -0.1340984,-0.392995 0.077111,-0.61426 C 6.0930907,12.534475 6.4214879,12.624048 6.48073,12.34363 6.6969077,12.120954 6.52199,11.812341 6.52199,11.542172 6.6899115,11.312147 6.9796152,11.135574 6.9474624,10.817733 6.9838403,10.34368 6.1303466,10.364983 5.8296099,10.077569 5.4599478,10.066986 5.5347062,9.563243 5.2469423,9.496325 4.9612551,9.510692 4.8573772,9.286857 4.7561128,9.059605 4.5987616,8.9522845 4.3026157,9.170382 4.1379558,9.035889 3.9514572,8.9376397 3.7841601,8.5711446 3.5742345,8.8001784 3.2979505,9.000503 3.0262397,9.204001 2.764142,8.8686065 2.5941657,8.7154411 2.8077294,8.2806431 2.5670661,8.3080349 2.0533004,8.4938748 2.7298964,7.5617828 2.2489463,7.6854448 2.135037,7.8639907 1.9165469,8.1394795 1.7041012,7.9282009 1.4907544,7.8278162 1.5959965,7.5014202 1.6055103,7.3059374 1.6147437,7.0772908 1.9041006,6.9632951 2.0703938,6.8589969 2.3929238,7.0032414 2.3267274,6.5733801 2.5962925,6.7170753 2.8577826,6.661384 2.9758476,7.0808566 3.0820121,7.0964907 3.1444049,6.8898401 3.0317682,6.5878117 3.2235501,6.4516635 3.447633,6.2630458 3.7433824,6.1289016 3.7986812,5.8119937 3.8032848,5.4734576 4.214076,5.7587601 4.3160637,5.5282192 4.4100881,5.2640679 4.6843255,5.2805663 4.9159742,5.2307272 5.0426805,5.1131642 5.3611412,4.7510503 4.9677182,4.8572151 4.8244208,4.8378488 4.2475499,4.9146261 4.6392615,4.7765989 4.8322155,4.6305394 5.0660894,4.6507788 5.282688,4.6220918 5.4532701,4.4776748 5.7514671,4.4292931 5.7645802,4.1663554 5.6229998,3.9737994 5.3230994,4.0104496 5.4504037,3.7342758 5.4381014,3.3730136 5.1199173,3.6049397 5.0153861,3.5774617 5.1851507,3.341217 4.7946394,3.1924698 4.6635738,3.1891572 4.5744941,3.4117902 4.3240577,3.6038734 4.4124415,3.8601159 4.1513246,3.9025233 4.0289897,4.0915194 3.9505215,4.3268193 3.8722335,4.3540888 3.8976902,3.8653411 3.5980558,3.9103742 3.3864102,3.905268 3.1247726,3.5894545 3.3476009,3.465091 3.6530974,3.2718011 4.0329327,3.1205114 4.2261053,2.8117712 4.3371943,2.5352536 4.1323269,2.36553 3.8595228,2.4047994 L 3.8214872,2.402155 Z M 8.942003,2.7189733 C 8.7733971,2.8501427 8.4330206,2.7595461 8.3611555,2.8860091 8.3309232,3.141084 8.726991,3.1370948 8.8851646,2.9962776 9.1436899,2.9006925 9.1321669,2.9181363 8.941989,2.7189674 Z M 5.1966164,2.8497073 C 4.8382941,2.9551371 5.1311155,3.1898285 5.365025,3.1867029 5.6441079,3.1641853 5.384456,2.8517141 5.1966164,2.8497073 Z m 4.2729425,0.7040918 c -0.02564,0.2282507 0.193625,0.3707809 0.103072,0.6194397 -0.142589,0.3132434 0.05939,0.407299 0.30307,0.2147607 0.3254461,-0.1991278 -0.243874,-0.6353342 -0.319731,-0.8342 h -0.08642 z m -0.10732,0.3670646 c -0.292456,-0.071889 -0.199933,0.5401795 0.001,0.3294593 0.216401,-0.037777 0.0086,-0.204522 -0.001,-0.3294593 z M 5.6299165,4.4725213 C 5.672853,4.7046376 5.6882918,5.0726196 5.8582259,4.6773549 5.8579928,4.6005364 5.6903318,4.5404415 5.6299165,4.4725213 Z M 12.692066,6.859004 c 0.343739,0.2997105 0.482989,0.7337724 0.676745,1.1320172 0.288302,0.1513711 0.117638,0.3828681 0.157797,0.5773927 0.401416,0.3514513 -0.406506,0.1642697 -0.308461,-0.2191521 -0.0655,-0.4453284 -0.351533,-0.7425896 -0.585142,-1.0646526 -0.01837,-0.170476 -0.201243,-0.3649251 0.05906,-0.4255902 z"
     fill="url(#linearGradient883)"
     id="path32"
     style="fill:url(#linearGradient883);stroke-width:0.249989" />
  <rect
     style="fill:url(#linearGradient939);fill-opacity:1;stroke-width:0.426564;stroke-linecap:round;stroke-linejoin:round"
     id="rect377"
     width="18"
     height="14"
     x="4"
     y="8" />
  <path
     id="rect993"
     style="opacity:0.5;fill:#ffffff;fill-opacity:1;stroke-width:0.707107;stroke-linecap:round;stroke-linejoin:round"
     d="m 7.0000002,8 v 4 h -3 v 1 H 9 v 4 H 4.0000002 v 0.999999 h 3 v 4 h 1 v -4 h 5.0000008 v 4 h 1 v -4 h 5 v 4 h 1 v -4 h 2 V 17 h -5 v -4 h 5 v -1 h -2 V 8 h -1 v 4 h -5 V 8 h -1 v 4 H 8.0000002 V 8 Z M 10,13 h 6.000001 v 4 H 10 Z" />
</svg>
