<?xml version="1.0" encoding="UTF-8" standalone="no"?>
<!-- Created with Inkscape (http://www.inkscape.org/) -->

<svg
   width="22"
   height="22"
   viewBox="0 0 22 22"
   version="1.1"
   id="svg931"
   inkscape:version="1.3.2 (091e20ef0f, 2023-11-25, custom)"
   sodipodi:docname="waydroid.svg"
   xmlns:inkscape="http://www.inkscape.org/namespaces/inkscape"
   xmlns:sodipodi="http://sodipodi.sourceforge.net/DTD/sodipodi-0.dtd"
   xmlns:xlink="http://www.w3.org/1999/xlink"
   xmlns="http://www.w3.org/2000/svg"
   xmlns:svg="http://www.w3.org/2000/svg">
  <sodipodi:namedview
     id="namedview933"
     pagecolor="#ffffff"
     bordercolor="#666666"
     borderopacity="1.0"
     inkscape:pageshadow="2"
     inkscape:pageopacity="0.0"
     inkscape:pagecheckerboard="0"
     inkscape:document-units="px"
     showgrid="false"
     units="px"
     inkscape:zoom="37.272727"
     inkscape:cx="10.986585"
     inkscape:cy="11"
     inkscape:window-width="1920"
     inkscape:window-height="1017"
     inkscape:window-x="0"
     inkscape:window-y="0"
     inkscape:window-maximized="1"
     inkscape:current-layer="svg931"
     inkscape:showpageshadow="2"
     inkscape:deskcolor="#d1d1d1" />
  <defs
     id="defs928">
    <linearGradient
       inkscape:collect="always"
       id="linearGradient1729">
      <stop
         style="stop-color:#84cd5a;stop-opacity:1;"
         offset="0"
         id="stop1725" />
      <stop
         style="stop-color:#56b512;stop-opacity:1;"
         offset="1"
         id="stop1727" />
    </linearGradient>
    <linearGradient
       inkscape:collect="always"
       xlink:href="#linearGradient1729"
       id="linearGradient4727"
       x1="72.154198"
       y1="110.2231"
       x2="96.828377"
       y2="134.37447"
       gradientUnits="userSpaceOnUse"
       gradientTransform="matrix(0.57315519,0,0,0.58556233,-37.426621,-59.613562)" />
    <linearGradient
       inkscape:collect="always"
       xlink:href="#linearGradient1729"
       id="linearGradient1723"
       x1="3.0502527"
       y1="3.7502527"
       x2="12.949748"
       y2="13.649748"
       gradientUnits="userSpaceOnUse"
       gradientTransform="matrix(1.4285714,0,0,1.4285714,-0.42857143,-0.4285714)" />
    <linearGradient
       inkscape:collect="always"
       id="linearGradient1498">
      <stop
         style="stop-color:#f09300;stop-opacity:1;"
         offset="0"
         id="stop1494" />
      <stop
         style="stop-color:#ffc420;stop-opacity:1;"
         offset="1"
         id="stop1496" />
    </linearGradient>
    <linearGradient
       inkscape:collect="always"
       xlink:href="#linearGradient1498"
       id="linearGradient2065"
       x1="12.949748"
       y1="13.949748"
       x2="3.0502527"
       y2="4.0502529"
       gradientUnits="userSpaceOnUse"
       gradientTransform="matrix(1.4285714,0,0,1.4285714,-0.42857143,-0.8571431)" />
  </defs>
  <path
     d="M 3.6316909,1.0105296 C 3.3549296,0.9710952 3.0738491,1.043373 2.8504409,1.2114224 2.3851557,1.559735 2.2902273,2.2192373 2.6383873,2.6846367 L 5.7968694,6.8950161 C 6.1460371,7.3593871 6.8054131,7.4530486 7.2700837,7.1042796 7.7353689,6.755967 7.8302973,6.0964647 7.4821373,5.6310653 L 4.3236551,1.4206859 C 4.156394,1.1977531 3.9075486,1.050252 3.6316909,1.0105296 Z M 19.156244,1.2114224 C 18.691574,0.8626535 18.032197,0.9563149 17.68303,1.4206859 l -3.158481,4.2103794 c -0.34816,0.4653991 -0.253232,1.1249014 0.212052,1.4732143 0.46467,0.348769 1.124048,0.2551075 1.473215,-0.2092635 L 19.365509,2.6846367 C 19.714277,2.2199659 19.620616,1.5605899 19.156244,1.2114224 Z"
     style="color:#000000;fill:url(#linearGradient1723);fill-opacity:1;stroke-width:1.42857;stroke-linecap:round;stroke-linejoin:round;-inkscape-stroke:none"
     id="path696" />
  <circle
     style="fill:url(#linearGradient4727);fill-opacity:1;stroke-width:0.61312;stroke-linecap:round;stroke-linejoin:round"
     id="path858"
     cx="11"
     cy="12"
     r="10" />
  <path
     d="M 20.836554,10.212376 C 17.133106,11.013941 13.073365,11.473683 11,11.473683 c -2.16358,0 -6.2577189,-0.411847 -9.8344983,-1.188322 -0.1043836,0.565722 -0.1597561,1.139396 -0.1655016,1.714638 2e-7,5.522848 4.4771525,10 9.9999999,10 5.522847,0 10,-4.477152 10,-10 -7.81e-4,-0.599569 -0.05549,-1.197853 -0.163446,-1.787623 z"
     style="fill:url(#linearGradient2065);fill-opacity:1;stroke-width:1.42857"
     id="path1330" />
  <path
     id="path2216"
     style="fill:#f9f9f9;stroke-width:1;stroke-linecap:round;stroke-linejoin:round"
     d="M 7,6 C 6.4477153,6 6,6.4477153 6,7 6,7.5522847 6.4477153,8 7,8 7.5522847,8 8,7.5522847 8,7 8,6.4477153 7.5522847,6 7,6 Z m 8,0 c -0.552285,0 -1,0.4477153 -1,1 0,0.5522847 0.447715,1 1,1 0.552285,0 1,-0.4477153 1,-1 0,-0.5522847 -0.447715,-1 -1,-1 z"
     sodipodi:nodetypes="ssssssssss" />
  <path
     d="m 19.477591,10.4889 c -1.123364,0.214461 -2.245697,0.392106 -3.319286,0.53968 l -0.974506,3.740748 -2.790913,-3.349095 c -0.519007,0.03215 -1.000367,0.05345 -1.392886,0.05345 -0.396397,0 -0.874742,-0.01891 -1.385691,-0.04626 L 6.8172279,14.706622 5.8807563,11.078949 C 4.757869,10.936349 3.5893657,10.758736 2.4360603,10.541326 l 2.7611018,8.259095 c 0.3915269,0.79698 0.8965616,0.649874 1.437089,0.203536 l 4.4089239,-4.699268 4.262951,4.564606 c 0.513233,0.69572 1.22729,0.748926 1.585115,-0.500617 z"
     style="fill:#ffffff;stroke-width:1.05263"
     id="path2605" />
</svg>
