<?xml version="1.0" encoding="UTF-8" standalone="no"?>
<!-- Created with Inkscape (http://www.inkscape.org/) -->

<svg
   width="32"
   height="32"
   viewBox="0 0 32 32"
   version="1.1"
   id="svg2535"
   inkscape:version="1.2.1 (9c6d41e410, 2022-07-14, custom)"
   sodipodi:docname="applets-screenshooter.svg"
   xmlns:inkscape="http://www.inkscape.org/namespaces/inkscape"
   xmlns:sodipodi="http://sodipodi.sourceforge.net/DTD/sodipodi-0.dtd"
   xmlns:xlink="http://www.w3.org/1999/xlink"
   xmlns="http://www.w3.org/2000/svg"
   xmlns:svg="http://www.w3.org/2000/svg">
  <sodipodi:namedview
     id="namedview2537"
     pagecolor="#ffffff"
     bordercolor="#000000"
     borderopacity="0.25"
     inkscape:showpageshadow="2"
     inkscape:pageopacity="0.0"
     inkscape:pagecheckerboard="0"
     inkscape:deskcolor="#d1d1d1"
     inkscape:document-units="px"
     showgrid="false"
     inkscape:zoom="25.3125"
     inkscape:cx="15.980247"
     inkscape:cy="16"
     inkscape:window-width="1920"
     inkscape:window-height="1012"
     inkscape:window-x="0"
     inkscape:window-y="0"
     inkscape:window-maximized="1"
     inkscape:current-layer="svg2535"
     showguides="false" />
  <defs
     id="defs2532">
    <linearGradient
       inkscape:collect="always"
       id="linearGradient937">
      <stop
         style="stop-color:#e13c0a;stop-opacity:1;"
         offset="0"
         id="stop933" />
      <stop
         style="stop-color:#b4350e;stop-opacity:1;"
         offset="1"
         id="stop935" />
    </linearGradient>
    <linearGradient
       inkscape:collect="always"
       id="linearGradient9982">
      <stop
         style="stop-color:#0e69b4;stop-opacity:1;"
         offset="0"
         id="stop9978" />
      <stop
         style="stop-color:#1299e4;stop-opacity:1;"
         offset="1"
         id="stop9980" />
    </linearGradient>
    <linearGradient
       inkscape:collect="always"
       id="linearGradient7072">
      <stop
         style="stop-color:#cecece;stop-opacity:1;"
         offset="0"
         id="stop7068" />
      <stop
         style="stop-color:#b3b3b3;stop-opacity:1;"
         offset="1"
         id="stop7070" />
    </linearGradient>
    <linearGradient
       inkscape:collect="always"
       id="linearGradient4525">
      <stop
         style="stop-color:#a2a2a2;stop-opacity:1;"
         offset="0"
         id="stop4521" />
      <stop
         style="stop-color:#b3b3b3;stop-opacity:1;"
         offset="1"
         id="stop4523" />
    </linearGradient>
    <linearGradient
       inkscape:collect="always"
       xlink:href="#linearGradient1452"
       id="linearGradient1700"
       x1="40"
       y1="45.999996"
       x2="40.000156"
       y2="62"
       gradientUnits="userSpaceOnUse"
       gradientTransform="matrix(-0.5,0,0,0.5,33.000158,-0.99999696)" />
    <linearGradient
       inkscape:collect="always"
       id="linearGradient1452">
      <stop
         style="stop-color:#29c3fa;stop-opacity:1;"
         offset="0"
         id="stop1448" />
      <stop
         style="stop-color:#037cd5;stop-opacity:1;"
         offset="1"
         id="stop1450" />
    </linearGradient>
    <linearGradient
       inkscape:collect="always"
       xlink:href="#linearGradient7072"
       id="linearGradient1710"
       x1="9.7895832"
       y1="2.3812497"
       x2="9.7895842"
       y2="12.170834"
       gradientUnits="userSpaceOnUse"
       gradientTransform="matrix(3.7795274,0,0,1.8897637,-20.999922,-0.49999952)" />
    <linearGradient
       inkscape:collect="always"
       xlink:href="#linearGradient9982"
       id="linearGradient1748"
       gradientUnits="userSpaceOnUse"
       x1="46.000004"
       y1="34"
       x2="62.000004"
       y2="33"
       gradientTransform="matrix(-0.35355344,0.35355344,0.35355344,0.35355344,15.121401,-8.4055923)" />
    <linearGradient
       inkscape:collect="always"
       xlink:href="#linearGradient4525"
       id="linearGradient1612"
       x1="2.3812504"
       y1="9.7895842"
       x2="11.90625"
       y2="9.7895842"
       gradientUnits="userSpaceOnUse"
       gradientTransform="matrix(-1.3362648,1.3362648,1.3362648,1.3362648,14.767845,-8.0520378)" />
    <linearGradient
       inkscape:collect="always"
       xlink:href="#linearGradient937"
       id="linearGradient939"
       x1="17.278158"
       y1="9.3674898"
       x2="54.623375"
       y2="46.807529"
       gradientUnits="userSpaceOnUse"
       gradientTransform="scale(0.5)" />
    <linearGradient
       inkscape:collect="always"
       xlink:href="#linearGradient4525"
       id="linearGradient6123"
       x1="-43.497589"
       y1="23.272188"
       x2="-43.497589"
       y2="-12.72781"
       gradientUnits="userSpaceOnUse"
       gradientTransform="scale(0.49999998)" />
  </defs>
  <path
     id="rect1603"
     style="fill:url(#linearGradient1612);fill-opacity:1;stroke-width:0.707106"
     d="M 10.87876,19.87868 13.00008,22 23.606682,11.3934 c 1.175216,-1.175212 1.175216,-3.0674294 0,-4.2426411 z"
     sodipodi:nodetypes="ccscc" />
  <path
     d="M 13.09246,6.638181 C 10.699216,7.3184339 6.5015896,9.0629845 5.7154325,6.1085456 5.382525,4.5650506 6.5931125,3.3545384 8.1668819,2.7188094 16.976379,0.14452256 26.421038,4.6456506 27.172611,13.644316 28.805701,26.777299 15.608352,24.179579 11.071884,20.060568 5.9571379,15.157668 6.622915,10.829835 6.774288,9.9824485 6.8347995,9.4982061 7.9546011,9.1652986 8.226997,10.34563 7.6583746,16.73656 15.216049,22.455475 20.302637,20.756733 27.118581,18.578171 22.311306,4.4560656 13.0921,6.638408 Z"
     style="fill:url(#linearGradient939);fill-opacity:1;stroke-width:1.68723"
     id="path421" />
  <path
     id="rect1718"
     style="fill:url(#linearGradient1748);fill-opacity:1;stroke-width:0.5"
     d="m 7.3671875,19.207031 c -0.8884146,-0.006 -1.7788412,0.324316 -2.4648437,0.992188 -0.01112,0.01088 -0.02224,0.02207 -0.033203,0.0332 -1.366834,1.366834 -1.3668338,3.582388 0,4.949219 1.3668341,1.36683 3.5823849,1.36683 4.9492188,0 L 13,22 10.878906,19.878906 10.146484,20.611328 C 10.046351,20.47728 9.9366153,20.350822 9.8183594,20.232422 9.1414233,19.555375 8.2556021,19.213017 7.3671875,19.207031 Z m -0.023437,2 c 0.00756,-5.6e-5 0.013884,-5.6e-5 0.021484,0 0.8195482,0.01241 1.4786106,0.680365 1.4785156,1.5 0,0.828432 -0.6715688,1.5 -1.5,1.5 -0.8284252,0 -1.499999,-0.671568 -1.5,-1.5 1e-6,-0.828431 0.6715738,-1.5 1.5000004,-1.5 z" />
  <rect
     style="fill:url(#linearGradient6123);fill-opacity:1;stroke-width:0.5;stroke-linecap:round;stroke-linejoin:round"
     id="rect5628"
     width="3"
     height="2.5"
     x="-24.748795"
     y="-6.363905"
     transform="rotate(-135)" />
  <path
     id="path1601"
     style="fill:url(#linearGradient1700);fill-opacity:1;stroke-width:0.5"
     d="m 13,22 v 4.453125 c -1.04e-4,0.01568 -1.04e-4,0.03124 0,0.04687 0,1.93299 1.567005,3.5 3.5,3.5 1.93299,0 3.5,-1.567007 3.5,-3.5 0,-1.93299 -1.567005,-3.5 -3.5,-3.5 -0.167312,1.6e-4 -0.334416,0.01116 -0.5,0.03516 V 22 Z m 3.5,3 c 0.0076,-5.6e-5 0.01584,-5.6e-5 0.02344,0 0.819548,0.01241 1.476657,0.680365 1.476562,1.5 0,0.828432 -0.671569,1.5 -1.5,1.5 -0.828425,0 -1.499999,-0.671568 -1.5,-1.5 10e-7,-0.828431 0.671574,-1.5 1.5,-1.5 z" />
  <path
     id="rect1702"
     style="fill:url(#linearGradient1710);fill-opacity:1;stroke-width:0.707106"
     d="M 16.000078,4 V 22.000002 H 13.00008 V 7 c 0,-1.662 1.338,-3 2.999998,-3 z"
     sodipodi:nodetypes="cccsc" />
  <circle
     style="fill:#fffffe;fill-opacity:1;stroke-width:0.249999"
     id="path1713"
     cx="14.5"
     cy="18.5"
     r="0.5" />
  <path
     id="rect1109"
     style="opacity:1;fill:#f9f9f9;stroke-width:0.5;stroke-linecap:round;stroke-linejoin:round"
     d="m 16.000078,4 c -0.547752,0 -1.058932,0.147984 -1.5,0.402344 V 15 h 1.5 z" />
</svg>
