<?xml version="1.0" encoding="UTF-8" standalone="no"?>
<!-- Created with Inkscape (http://www.inkscape.org/) -->

<svg
   width="32"
   height="32"
   viewBox="0 0 32 32"
   version="1.1"
   id="svg2535"
   inkscape:version="1.3.2 (091e20ef0f, 2023-11-25, custom)"
   sodipodi:docname="preferences-security-firewall.svg"
   xmlns:inkscape="http://www.inkscape.org/namespaces/inkscape"
   xmlns:sodipodi="http://sodipodi.sourceforge.net/DTD/sodipodi-0.dtd"
   xmlns:xlink="http://www.w3.org/1999/xlink"
   xmlns="http://www.w3.org/2000/svg"
   xmlns:svg="http://www.w3.org/2000/svg">
  <sodipodi:namedview
     id="namedview2537"
     pagecolor="#ffffff"
     bordercolor="#000000"
     borderopacity="0.25"
     inkscape:showpageshadow="2"
     inkscape:pageopacity="0.0"
     inkscape:pagecheckerboard="0"
     inkscape:deskcolor="#d1d1d1"
     inkscape:document-units="px"
     showgrid="false"
     inkscape:zoom="25.625"
     inkscape:cx="15.980488"
     inkscape:cy="16"
     inkscape:window-width="1920"
     inkscape:window-height="1017"
     inkscape:window-x="0"
     inkscape:window-y="0"
     inkscape:window-maximized="1"
     inkscape:current-layer="svg2535" />
  <defs
     id="defs2532">
    <radialGradient
       id="radialGradient875"
       cx="20.107"
       cy="28.705"
       r="28"
       gradientTransform="matrix(0.39469997,0.22288664,-0.17561331,0.31098333,5.2096675,-2.8986668)"
       gradientUnits="userSpaceOnUse">
      <stop
         stop-color="#5ab5e2"
         offset="0"
         id="stop2" />
      <stop
         stop-color="#4189ac"
         offset=".45901"
         id="stop4" />
      <stop
         stop-color="#295e76"
         offset="1"
         id="stop6" />
    </radialGradient>
    <linearGradient
       id="linearGradient883"
       x1="4"
       x2="59.861"
       y1="31.360001"
       y2="31.360001"
       gradientTransform="matrix(0.35713332,0,0,0.35713332,0.57176161,0.54754291)"
       gradientUnits="userSpaceOnUse">
      <stop
         stop-color="#b0d6df"
         offset="0"
         id="stop9" />
      <stop
         stop-color="#e1f8fc"
         offset=".21709"
         id="stop11" />
      <stop
         stop-color="#96c3ce"
         offset="1"
         id="stop13" />
    </linearGradient>
    <radialGradient
       id="radialGradient875-3"
       cx="20.107"
       cy="28.705"
       r="28"
       gradientTransform="matrix(0.51311877,0.28975761,-0.22830122,0.40428527,6.1726397,-4.3683762)"
       gradientUnits="userSpaceOnUse">
      <stop
         stop-color="#5ab5e2"
         offset="0"
         id="stop2-6" />
      <stop
         stop-color="#4189ac"
         offset=".45901"
         id="stop4-7" />
      <stop
         stop-color="#295e76"
         offset="1"
         id="stop6-5" />
    </radialGradient>
    <linearGradient
       inkscape:collect="always"
       xlink:href="#linearGradient937"
       id="linearGradient939"
       x1="60"
       y1="56.903225"
       x2="20"
       y2="28"
       gradientUnits="userSpaceOnUse"
       gradientTransform="matrix(0.5,0,0,0.484375,0,2.4375)" />
    <linearGradient
       inkscape:collect="always"
       id="linearGradient937">
      <stop
         style="stop-color:#8d4735;stop-opacity:1;"
         offset="0"
         id="stop933" />
      <stop
         style="stop-color:#b35b45;stop-opacity:1;"
         offset="1"
         id="stop935" />
    </linearGradient>
  </defs>
  <rect
     x="2"
     y="2"
     width="20"
     height="20"
     rx="9.999999"
     ry="9.999999"
     fill="url(#radialGradient875)"
     id="rect30"
     style="fill:url(#radialGradient875);stroke-width:0.357136" />
  <path
     id="path32"
     style="fill:url(#linearGradient883);stroke-width:0.357136"
     d="M 12.052411,2.4762539 C 11.281179,2.5309481 10.527099,2.671947 9.7913321,2.9104411 9.5288393,2.9206861 8.9569736,3.2595819 9.4172407,3.4182449 c 0.2142029,0.2288285 0.7261503,0.3006513 0.6640503,0.6745677 0.0826,0.328666 -0.7640281,0.3137892 -0.4822631,0.6114679 0.1997857,0.2629259 0.3996507,0.525815 0.5994491,0.7887484 0.368902,-0.1184905 0.490934,-0.4949438 0.695601,-0.7857437 0.5697,-0.2512907 1.375274,-0.3277111 1.751773,-0.8112841 C 12.763829,3.5539356 12.882432,3.211942 13.000412,2.8698769 12.684332,2.7386982 12.368477,2.607464 12.052411,2.4762539 Z M 9.18287,2.560387 C 8.8992707,2.5783627 8.6970307,2.7603236 8.466235,2.8849006 8.1415629,2.9246656 7.7754171,3.0459416 7.5708179,3.3070689 7.9350164,3.4723473 8.1638871,3.2967325 8.4782543,3.1718549 8.7701371,3.0223186 9.7638714,2.9589644 9.3105714,2.5633918 9.2664,2.5586275 9.2233836,2.5578204 9.18287,2.5603846 Z M 7.6008654,3.5970279 C 7.3347716,3.6368094 7.2406659,4.2048499 7.1276163,3.8103656 7.0951956,3.744385 7.0623868,3.6795649 7.0299617,3.613554 6.8482929,3.8908598 7.1570851,4.291326 6.7415051,4.4368572 6.5363692,4.6965424 6.3579811,5.1233656 6.8707096,4.9686991 6.9961391,4.5839001 7.3857936,4.0432236 7.8292271,4.2685909 8.2758593,4.3885934 8.6889993,5.139498 9.053665,4.5450285 9.0535179,4.3904157 8.4866214,4.2997872 8.4992879,3.9215416 8.2469429,3.8132824 7.7067294,4.0099818 7.7255629,3.6165588 7.6799923,3.5963242 7.6388788,3.5913448 7.6008654,3.5970279 Z m 9.3252606,0.3650778 c -0.4315,0.086285 -0.858365,0.1856804 -1.198898,0.4822634 0.09885,0.395201 -0.410243,0.461212 -0.637008,0.6805773 -0.164532,0.092844 0.0031,0.809939 0.147233,0.6986057 0.306513,-0.4044007 0.464755,-0.05547 0.749687,0.1442283 0.256459,0.2381949 0.418667,-0.4421697 0.282446,-0.6340035 -0.07992,-0.3091753 0.309286,-0.5385521 0.449212,-0.7917533 0.4278,-0.2744143 0.06626,0.3498658 0.05259,0.567899 -0.215941,0.6443304 0.958505,0.020306 0.184792,0.5017943 C 16.748636,5.8189735 16.672624,6.1256072 16.35372,6.2787727 16.181529,6.4889439 15.524547,6.3902858 15.613048,6.0624303 15.373064,5.6862966 15.431667,6.51561 15.350131,6.5116414 14.9524,6.3931255 14.833351,6.8370886 14.583919,7.0494926 c -0.190888,0.2192968 -0.863671,0.082464 -0.360571,0.4221683 0.366931,0.4233998 -0.07355,0.3454598 -0.377097,0.4582255 -0.428967,0.073868 -0.356647,0.44841 -0.345547,0.7857436 0.0066,0.1859029 0.417993,0.4616821 0.626492,0.332025 0.416465,-0.0446 0.311293,-0.5562607 0.618979,-0.7121271 0.255652,-0.2188393 0.434929,-0.4214429 0.818796,-0.426675 0.177226,0.1691378 0.535313,0.4236235 0.680578,0.5618892 -0.400898,0.4367993 0.184417,0.400975 0.24038,0.003 0.19775,-0.2191378 -0.651598,-0.7343728 -0.09164,-0.5078035 0.370633,0.12227 0.285815,0.5016 0.450713,0.7571978 0.293122,0.4955007 0.324267,0.1248972 0.351557,-0.2584085 0.486994,-0.1529908 0.61912,0.84924 1.275519,0.6144728 0.491934,0.1292629 0.258023,0.4466322 -0.05259,0.6520314 -0.283671,0.2069079 -0.705777,0.065757 -1.01711,-0.046571 -0.308002,-0.1581271 -0.679198,-0.068093 -0.841331,0.24639 -0.359932,-0.3106307 -0.614403,-0.8034821 -1.137301,-0.830815 -0.4951,-0.025643 -0.996034,0.1057729 -1.473833,0.2403807 -0.529399,0.6213 -1.10247,1.2265972 -1.349136,2.0206982 -0.256047,0.314655 0.293692,0.502382 -0.123194,0.788748 -0.290236,0.270986 0.09768,0.606575 0.157749,0.910441 0.312343,0.370397 0.791653,1.587532 1.274017,1.116267 0.271461,-0.428899 0.451519,0.28171 0.77072,-0.163759 0.268671,-0.245241 0.487099,0.245472 0.863868,0.07061 0.335031,0.167004 0.363325,0.495013 0.186294,0.80828 -0.113686,0.318058 0.492491,0.448999 0.320006,0.820298 -0.08131,0.363099 0.07803,0.671608 0.25841,0.975044 -0.400933,0.418498 -0.352482,1.038073 -0.2524,1.562473 0.196166,0.718933 0.477278,1.43948 0.449211,2.196477 0.351297,0.09215 0.610927,-0.140756 0.901427,-0.262917 0.554471,0.07842 0.856101,-0.512518 1.2004,-0.851847 -0.25865,-0.3477 0.212395,-0.497709 0.407145,-0.722645 -0.291304,-0.251965 -0.485555,-0.496094 -0.03456,-0.692596 0.20804,-0.211307 0.598725,-0.331747 0.667055,-0.626492 -0.179152,-0.533865 -0.07732,-1.10065 -0.103663,-1.652615 0.22088,-0.445168 0.454933,-0.880702 0.821801,-1.224438 0.146309,-0.482732 0.498335,-0.925621 0.464235,-1.443786 -0.855136,0.255825 -0.597093,-0.108678 -0.123196,-0.45522 0.32887,-0.241193 0.79692,-0.466157 0.89692,-0.877389 0.07178,-0.405867 -0.245372,-1.036497 -0.521324,-0.440197 -0.134048,-0.190035 -0.605983,-0.36575 -0.59945,-0.664051 -0.101123,-0.6015639 0.162103,-0.240517 0.396628,0.04357 0.452446,-0.335389 1.017809,0.649033 1.066689,0.377097 C 21.68006,8.3806664 20.446733,6.1047128 18.614799,4.4909428 18.451218,4.6720857 18.183799,5.2996 17.988307,4.9296372 17.708749,4.6330744 17.487964,4.3658191 18.057416,4.4759191 18.615481,4.3244627 18.059966,4.2370204 17.767458,4.2024862 17.47408,4.168243 17.202426,4.0600239 16.926126,3.9621057 Z M 6.2261894,3.9756271 c -0.044991,-0.00204 -0.092507,4.993e-4 -0.1412235,0.00751 l -0.054086,-0.00451 -0.015024,-0.0015 c -0.041737,0.031124 -0.081968,0.064389 -0.123195,0.09615 -0.1075047,0.2030549 0.1875245,0.5604006 -0.3680827,0.4146564 -0.04466,0.020237 -0.106797,0.033752 -0.1832901,0.042066 -2.0444224,1.8223068 -3.3306486,4.4737197 -3.3397864,7.4382735 0.193645,0.396989 0.667954,0.533075 1.0231194,0.752692 0.3615344,0.123672 0.8161433,0.105391 0.9960767,0.504799 0.2012431,0.210737 0.4712015,0.492447 0.7587009,0.515315 0.4417987,-0.141571 0.503833,0.259557 0.2809447,0.55588 -0.024147,0.324576 -0.3843099,0.585912 -0.3440446,0.87138 0.080488,0.319857 -0.403422,0.671894 -0.078124,0.964527 0.3422305,0.611832 0.7090221,1.206814 1.1718549,1.735246 0.2878756,0.25221 0.2537111,0.599629 0.2208496,0.946498 -0.1142407,0.366601 0.2316835,0.578436 0.417661,0.844336 -0.070962,0.130108 -0.1358348,0.318774 -0.1983139,0.528838 0.4869894,0.341872 1.0044389,0.642172 1.5504539,0.893915 0.2731165,-0.394944 0.5147243,-0.687863 0.64452,-0.691094 0.2598479,-0.182043 0.3143015,-0.593639 0.49278,-0.866872 C 8.9322671,19.233514 8.747425,18.962449 9.0491571,18.646349 9.2765079,18.454455 9.7457614,18.582727 9.830395,18.182114 10.139226,17.864 9.8889879,17.423266 9.8889879,17.037302 10.128883,16.708689 10.541883,16.45623 10.495949,16.002164 10.54792,15.324931 9.3285536,15.35509 8.8989207,14.944489 8.3708279,14.929375 8.4777021,14.209273 8.0666036,14.113674 7.6584696,14.134198 7.5111608,13.814839 7.3664944,13.490187 7.1417024,13.33687 6.7183293,13.64777 6.4830961,13.455633 6.2166641,13.315274 5.9777213,12.791901 5.6778215,13.1191 5.2831221,13.405284 4.8954233,13.695899 4.5209904,13.216754 4.2781621,12.997943 4.5823551,12.376856 4.2385433,12.415987 3.5045774,12.681478 4.4719108,11.349916 3.7848251,11.526579 3.6220942,11.78165 3.3100933,12.175461 3.0065934,11.873629 2.701806,11.730219 2.8517782,11.263487 2.8653698,10.984221 2.8785612,10.657575 3.2918543,10.49471 3.5294209,10.34571 3.9901874,10.551778 3.8955091,9.937605 4.2806099,10.142889 4.6541747,10.063329 4.823042,10.662913 4.9747086,10.685248 5.0638431,10.390026 4.9020479,9.9587907 5.1760271,9.76429 5.4961521,9.49483 5.9188281,9.3035786 5.997828,8.8508443 6.0044066,8.3672114 6.5912984,8.7745579 6.736998,8.4452014 6.8713213,8.0678343 7.2639224,8.0912293 7.5948559,8.0200286 7.7758686,7.8520786 8.2305164,7.3350175 7.6684724,7.4866846 7.4637576,7.4590179 6.6401311,7.5681872 7.1997304,7.3710016 7.4753846,7.1623409 7.8082507,7.1911342 8.1176836,7.150152 8.3613764,6.9438376 8.7885414,6.8752553 8.807275,6.4996223 8.6050136,6.2245368 8.1761971,6.2766869 8.3580643,5.8821449 8.3404886,5.3660456 7.8854129,5.6975455 7.7360793,5.6582906 7.978605,5.3207912 7.4215256,5.1086454 7.2342851,5.103913 7.1070259,5.4219667 6.7489515,5.6963621 6.8752168,6.0624303 6.5021849,6.1230135 6.3277726,6.3933365 6.2156729,6.7294861 6.1038306,6.7684434 6.1389317,6.07021 5.7108739,6.1345444 5.4085168,6.1272497 5.0349753,5.6752019 5.3533078,5.4975361 5.7897404,5.2214021 6.3333294,5.0056258 6.6092959,4.5645594 6.7481601,4.2189053 6.5411266,3.9898549 6.2261894,3.9756271 Z m 7.1197696,0.456723 c -0.24087,0.1873885 -0.726646,0.056711 -0.829313,0.2373757 -0.04318,0.3644002 0.522218,0.3589213 0.748185,0.1577496 0.369329,-0.1365528 0.352815,-0.1105927 0.08113,-0.3951253 z M 7.9959907,4.618645 C 7.4840913,4.7692622 7.9022086,5.1038713 8.2363714,5.0994059 8.6350693,5.0672373 8.2643393,4.621512 7.9959907,4.618645 Z m 6.1041623,1.0050909 c -0.03662,0.3260791 0.276596,0.531169 0.147233,0.886403 -0.203704,0.4474997 0.08456,0.5815455 0.432685,0.3064852 0.464931,-0.284474 -0.348355,-0.9087885 -0.456723,-1.1928882 z m -0.225357,0.516818 c -0.328685,0.01034 -0.195527,0.7614789 0.07362,0.4792587 0.30915,-0.053969 0.01223,-0.2917589 -0.0015,-0.4702445 -0.02611,-0.00642 -0.0502,-0.0097 -0.07211,-0.00901 z M 8.61497,6.9368144 C 8.6763057,7.2684158 8.6982186,7.7944536 8.9409871,7.229778 8.9406543,7.1200351 8.7012793,7.0338451 8.61497,6.9368144 Z M 18.703439,10.34571 c 0.491066,0.428167 0.68923,1.049129 0.96603,1.618061 0.411868,0.21625 0.167985,0.546908 0.225356,0.824806 0.573464,0.502083 -0.580265,0.23376 -0.440197,-0.313997 -0.09358,-0.636196 -0.501589,-1.060308 -0.835322,-1.520406 -0.02624,-0.243543 -0.287742,-0.521798 0.08413,-0.608464 z" />
  <rect
     style="fill:url(#linearGradient939);fill-opacity:1;stroke-width:0.492126;stroke-linecap:round;stroke-linejoin:round"
     id="rect377"
     width="20"
     height="14"
     x="10"
     y="16" />
  <path
     id="rect993"
     style="opacity:0.5;fill:#ffffff;fill-opacity:1;stroke-width:0.707107;stroke-linecap:round;stroke-linejoin:round"
     d="m 16,16 v 4 h -6 v 1 h 2 v 4 h -2 v 1 h 6 v 4 h 1 v -4 h 6 v 4 h 1 v -4 h 6 v -1 h -3 v -4 h 3 v -1 h -6 v -4 h -1 v 4 h -6 v -4 z m -3,5 h 6 v 4 h -6 z m 7,0 h 6 v 4 h -6 z" />
</svg>
