<?xml version="1.0" encoding="UTF-8" standalone="no"?>
<!-- Created with Inkscape (http://www.inkscape.org/) -->

<svg
   width="32"
   height="32"
   viewBox="0 0 32 32"
   version="1.1"
   id="svg2535"
   inkscape:version="1.3.2 (091e20ef0f, 2023-11-25, custom)"
   sodipodi:docname="preferences-desktop-locale.svg"
   xmlns:inkscape="http://www.inkscape.org/namespaces/inkscape"
   xmlns:sodipodi="http://sodipodi.sourceforge.net/DTD/sodipodi-0.dtd"
   xmlns:xlink="http://www.w3.org/1999/xlink"
   xmlns="http://www.w3.org/2000/svg"
   xmlns:svg="http://www.w3.org/2000/svg">
  <sodipodi:namedview
     id="namedview2537"
     pagecolor="#ffffff"
     bordercolor="#000000"
     borderopacity="0.25"
     inkscape:showpageshadow="2"
     inkscape:pageopacity="0.0"
     inkscape:pagecheckerboard="0"
     inkscape:deskcolor="#d1d1d1"
     inkscape:document-units="px"
     showgrid="false"
     inkscape:zoom="25.625"
     inkscape:cx="15.980488"
     inkscape:cy="16"
     inkscape:window-width="1920"
     inkscape:window-height="1017"
     inkscape:window-x="0"
     inkscape:window-y="0"
     inkscape:window-maximized="1"
     inkscape:current-layer="svg2535" />
  <defs
     id="defs2532">
    <radialGradient
       id="radialGradient875"
       cx="20.107"
       cy="28.705"
       r="28"
       gradientTransform="matrix(0.39469997,0.22288664,-0.1756133,0.31098333,5.2096676,-2.8986668)"
       gradientUnits="userSpaceOnUse">
      <stop
         stop-color="#5ab5e2"
         offset="0"
         id="stop2" />
      <stop
         stop-color="#4189ac"
         offset=".45901"
         id="stop4" />
      <stop
         stop-color="#295e76"
         offset="1"
         id="stop6" />
    </radialGradient>
    <linearGradient
       id="linearGradient883"
       x1="4"
       x2="59.861"
       y1="31.360001"
       y2="31.360001"
       gradientTransform="matrix(0.35713332,0,0,0.35713332,0.57176163,0.54754291)"
       gradientUnits="userSpaceOnUse">
      <stop
         stop-color="#b0d6df"
         offset="0"
         id="stop9" />
      <stop
         stop-color="#e1f8fc"
         offset=".21709"
         id="stop11" />
      <stop
         stop-color="#96c3ce"
         offset="1"
         id="stop13" />
    </linearGradient>
    <radialGradient
       id="radialGradient875-3"
       cx="20.107"
       cy="28.705"
       r="28"
       gradientTransform="matrix(0.51311877,0.28975761,-0.22830122,0.40428527,6.1726397,-4.3683762)"
       gradientUnits="userSpaceOnUse">
      <stop
         stop-color="#5ab5e2"
         offset="0"
         id="stop2-6" />
      <stop
         stop-color="#4189ac"
         offset=".45901"
         id="stop4-7" />
      <stop
         stop-color="#295e76"
         offset="1"
         id="stop6-5" />
    </radialGradient>
    <linearGradient
       inkscape:collect="always"
       xlink:href="#linearGradient3605"
       id="linearGradient1697"
       x1="12.474396"
       y1="5.0000038"
       x2="15.9998"
       y2="13.500037"
       gradientUnits="userSpaceOnUse"
       gradientTransform="matrix(1.9999921,0,0,1.9999921,-1.9994732,-0.9999683)" />
    <linearGradient
       inkscape:collect="always"
       id="linearGradient3605">
      <stop
         style="stop-color:#0d6eaa;stop-opacity:1;"
         offset="0"
         id="stop3601" />
      <stop
         style="stop-color:#185086;stop-opacity:1"
         offset="1"
         id="stop3603" />
    </linearGradient>
    <linearGradient
       inkscape:collect="always"
       xlink:href="#linearGradient1014"
       id="linearGradient1705"
       x1="7.2109375"
       y1="7.4824219"
       x2="10.197266"
       y2="14.636419"
       gradientUnits="userSpaceOnUse"
       gradientTransform="matrix(1.9999921,0,0,1.9999921,-1.9994732,0.9664768)" />
    <linearGradient
       inkscape:collect="always"
       id="linearGradient1014">
      <stop
         style="stop-color:#33bff0;stop-opacity:1"
         offset="0"
         id="stop1010" />
      <stop
         style="stop-color:#1c9fe3;stop-opacity:1"
         offset="1"
         id="stop1012" />
    </linearGradient>
  </defs>
  <rect
     x="2"
     y="2"
     width="20"
     height="20"
     rx="9.999999"
     ry="9.999999"
     fill="url(#radialGradient875)"
     id="rect30"
     style="fill:url(#radialGradient875);stroke-width:0.357136" />
  <path
     id="path32"
     style="fill:url(#linearGradient883);stroke-width:0.357136"
     d="M 12.052411,2.4762539 C 11.281179,2.5309479 10.527099,2.671947 9.7913319,2.9104411 9.5288393,2.9206863 8.9569733,3.2595819 9.4172407,3.4182449 9.6314437,3.6470733 10.143391,3.7188962 10.081291,4.0928127 10.163896,4.4214786 9.317263,4.4066018 9.5990281,4.7042805 9.7988133,4.9672064 9.9986785,5.2300955 10.198477,5.493029 10.567379,5.3745384 10.689411,4.998085 10.894078,4.7072852 11.463778,4.4559945 12.269352,4.3795741 12.645851,3.8960011 12.763829,3.5539356 12.882432,3.211942 13.000412,2.869877 12.684332,2.7386982 12.368477,2.607464 12.052411,2.4762539 Z M 9.1828704,2.560387 C 8.8992704,2.578363 8.6970304,2.7603236 8.4662348,2.8849007 8.141563,2.9246659 7.775417,3.0459416 7.5708178,3.307069 7.9350163,3.4723473 8.1638874,3.2967327 8.4782541,3.1718549 8.770137,3.0223186 9.7638711,2.9589644 9.3105711,2.5633918 c -0.04417,-0.00476 -0.087187,-0.00557 -0.1277015,-0.00301 z M 7.6008659,3.5970279 C 7.3347711,3.6368094 7.2406659,4.2048499 7.1276164,3.8103656 7.0951957,3.744385 7.0623871,3.6795649 7.0299614,3.613554 6.848293,3.8908598 7.157085,4.291326 6.7415051,4.4368572 6.5363692,4.6965424 6.3579811,5.1233656 6.8707096,4.968699 6.9961391,4.5839001 7.3857933,4.0432236 7.8292274,4.268591 8.2758593,4.3885933 8.6889993,5.139498 9.0536652,4.5450285 9.0535178,4.3904157 8.4866215,4.2997872 8.4992881,3.9215416 8.246943,3.8132824 7.7067296,4.0099818 7.725563,3.6165588 7.6799911,3.5963245 7.6388785,3.5913445 7.6008659,3.5970279 Z m 9.3252611,0.3650778 c -0.4315,0.086285 -0.858366,0.1856804 -1.198899,0.4822634 0.09885,0.395201 -0.410243,0.461212 -0.637008,0.6805773 -0.164532,0.092844 0.003,0.809939 0.147233,0.6986057 0.306514,-0.4044007 0.464755,-0.05547 0.749687,0.1442283 0.256459,0.2381949 0.418667,-0.4421697 0.282447,-0.6340034 -0.07992,-0.3091754 0.309285,-0.5385522 0.449211,-0.7917534 0.4278,-0.2744143 0.06627,0.3498658 0.05259,0.5678991 -0.215941,0.6443303 0.958505,0.020306 0.184793,0.5017942 -0.207541,0.2072566 -0.283552,0.5138903 -0.602457,0.6670558 -0.17219,0.2101712 -0.829172,0.1115131 -0.740672,-0.2163424 -0.239984,-0.3761336 -0.18138,0.4531797 -0.262917,0.449211 -0.397731,-0.1185158 -0.51678,0.3254473 -0.766212,0.5378514 -0.190888,0.2192967 -0.863671,0.082464 -0.360571,0.4221682 0.366932,0.4233998 -0.07355,0.3454598 -0.377097,0.4582258 -0.428966,0.073867 -0.356647,0.4484096 -0.345546,0.7857437 0.0066,0.1859022 0.417992,0.4616815 0.626491,0.3320244 0.416466,-0.0446 0.311293,-0.5562607 0.618979,-0.7121267 0.255653,-0.2188392 0.43493,-0.4214431 0.818796,-0.4266752 0.177226,0.1691375 0.535314,0.4236234 0.680578,0.5618893 -0.400898,0.4367993 0.184417,0.4009748 0.240381,0.00296 0.19775,-0.2191378 -0.651599,-0.734373 -0.09164,-0.5078037 0.370632,0.1222704 0.285814,0.5016 0.450712,0.7571978 0.293122,0.4955007 0.324268,0.124897 0.351557,-0.2584082 0.486994,-0.1529911 0.61912,0.84924 1.275519,0.6144726 0.491935,0.129263 0.258024,0.4466319 -0.05259,0.6520311 C 18.135815,9.938103 17.71371,9.7969504 17.402376,9.6846244 17.094374,9.526497 16.723178,9.6165356 16.561045,9.9310141 16.201113,9.6203837 15.946642,9.1275326 15.423744,9.1001993 14.928644,9.0745548 14.42771,9.2059726 13.949911,9.34058 c -0.529399,0.6213 -1.10247,1.226597 -1.349135,2.020699 -0.256048,0.314655 0.293691,0.502382 -0.123195,0.788748 -0.290235,0.270986 0.09768,0.606574 0.157749,0.910441 0.312343,0.370397 0.791653,1.587532 1.274017,1.116267 0.271461,-0.428899 0.45152,0.281709 0.77072,-0.163759 0.268671,-0.245242 0.4871,0.245472 0.863868,0.07061 0.335032,0.167004 0.363326,0.495012 0.186295,0.80828 -0.113686,0.318057 0.49249,0.448999 0.320006,0.820298 -0.08131,0.363099 0.07803,0.671608 0.258409,0.975044 -0.400933,0.418498 -0.352482,1.038072 -0.252399,1.562472 0.196165,0.718933 0.477277,1.43948 0.44921,2.196477 0.351297,0.09215 0.610928,-0.140755 0.901428,-0.262916 0.55447,0.07842 0.8561,-0.512518 1.2004,-0.851848 -0.258651,-0.3477 0.212395,-0.497708 0.407144,-0.722644 -0.291304,-0.251965 -0.485555,-0.496094 -0.03455,-0.692597 0.20804,-0.211306 0.598724,-0.331746 0.667055,-0.626491 -0.179152,-0.533866 -0.07732,-1.100651 -0.103664,-1.652615 0.22088,-0.445169 0.454934,-0.880702 0.821801,-1.224438 0.146309,-0.482732 0.498336,-0.925621 0.464235,-1.443786 -0.855136,0.255825 -0.597092,-0.108679 -0.123196,-0.45522 0.32887,-0.241193 0.79692,-0.466157 0.89692,-0.87739 0.07178,-0.405866 -0.245371,-1.036496 -0.521324,-0.440197 -0.134047,-0.190034 -0.605983,-0.365749 -0.599449,-0.66405 -0.101124,-0.6015646 0.162102,-0.240517 0.396628,0.04357 0.452445,-0.335389 1.017809,0.649033 1.066688,0.377097 C 21.68006,8.3806667 20.446733,6.1047128 18.614799,4.4909428 18.451218,4.6720857 18.183799,5.2996 17.988307,4.9296372 17.70875,4.6330744 17.487964,4.365819 18.057416,4.475919 18.615481,4.3244627 18.059967,4.2370204 17.767458,4.2024862 17.47408,4.168243 17.202426,4.0600239 16.926127,3.9621057 Z M 6.2261894,3.9756271 c -0.044991,-0.00204 -0.092507,4.993e-4 -0.1412235,0.00751 l -0.054086,-0.0045 -0.015024,-0.0015 C 5.9741189,4.0082531 5.9338879,4.0415191 5.8926612,4.0732791 5.7851566,4.276334 6.0801857,4.6336797 5.5245785,4.4879355 5.4799185,4.5081725 5.4177815,4.5216885 5.3412884,4.5300025 3.296866,6.3523092 2.0106398,9.0037222 2.001502,11.968276 c 0.193645,0.396989 0.667954,0.533075 1.0231194,0.752692 0.3615344,0.123672 0.8161432,0.105391 0.9960767,0.504799 0.2012431,0.210737 0.4712015,0.492447 0.7587008,0.515315 0.4417988,-0.141571 0.5038331,0.259557 0.2809448,0.55588 -0.024147,0.324576 -0.3843099,0.585912 -0.3440446,0.87138 0.080488,0.319857 -0.403422,0.671894 -0.078124,0.964526 0.3422305,0.611833 0.7090221,1.206815 1.1718549,1.735247 0.2878756,0.25221 0.2537111,0.59963 0.2208496,0.946498 -0.1142407,0.366601 0.2316835,0.578435 0.417661,0.844336 -0.070962,0.130108 -0.1358347,0.318774 -0.1983139,0.528838 0.4869895,0.341872 1.0044392,0.642172 1.550454,0.893915 0.2731163,-0.394944 0.5147244,-0.687863 0.64452,-0.691094 0.2598481,-0.182043 0.3143015,-0.593639 0.49278,-0.866872 -0.0057,-0.290224 -0.1905563,-0.561289 0.1111755,-0.877389 C 9.2765073,18.454453 9.7457607,18.582727 9.830394,18.182111 10.139226,17.864 9.8889874,17.423267 9.8889874,17.037302 10.128882,16.708689 10.541882,16.45623 10.495948,16.002164 10.547919,15.32493 9.3285526,15.35509 8.89892,14.94449 8.3708274,14.929371 8.4777015,14.209273 8.066603,14.113674 7.6584696,14.134193 7.51116,13.814839 7.3664933,13.490187 7.1417021,13.33687 6.7183293,13.64777 6.4830961,13.455633 6.2166641,13.315273 5.9777213,12.791901 5.6778215,13.1191 5.2831221,13.405284 4.8954233,13.695899 4.5209904,13.216754 4.2781621,12.997943 4.582355,12.376856 4.2385433,12.415987 3.5045774,12.681478 4.4719108,11.349916 3.7848251,11.526579 3.6220942,11.78165 3.3100933,12.175461 3.0065933,11.87363 2.701806,11.730219 2.8517782,11.263487 2.8653698,10.984221 2.8785609,10.657575 3.2918543,10.49471 3.5294209,10.34571 3.9901874,10.551778 3.8955091,9.9376052 4.2806099,10.14289 4.6541747,10.063329 4.823042,10.662913 4.9747086,10.685248 5.063843,10.390026 4.9020479,9.9587904 5.1760271,9.7642896 5.4961521,9.4948296 5.9188281,9.3035785 5.997828,8.8508444 6.0044058,8.3672111 6.5912984,8.7745578 6.736998,8.4452015 6.8713213,8.0678341 7.2639222,8.0912296 7.5948556,8.0200289 7.7758689,7.8520786 8.2305163,7.3350175 7.6684719,7.4866847 7.4637578,7.4590182 6.6401311,7.5681872 7.1997304,7.3710016 7.4753852,7.1623409 7.8082504,7.1911342 8.1176837,7.150152 8.3613763,6.9438376 8.7885415,6.8752553 8.8072748,6.4996223 8.6050133,6.2245368 8.176197,6.276687 8.3580644,5.882145 8.3404889,5.3660456 7.8854126,5.6975455 7.7360793,5.6582906 7.9786052,5.3207912 7.4215259,5.1086454 7.2342852,5.103913 7.1070257,5.4219667 6.7489515,5.6963621 6.8752168,6.0624303 6.502185,6.1230135 6.3277726,6.3933365 6.2156729,6.7294861 6.1038306,6.7684433 6.1389317,6.07021 5.7108739,6.1345444 5.4085168,6.1272497 5.0349753,5.6752019 5.3533078,5.4975361 5.7897404,5.2214021 6.3333294,5.0056258 6.6092959,4.5645593 6.7481601,4.2189053 6.5411267,3.989855 6.2261894,3.9756271 Z m 7.1197696,0.456723 c -0.24087,0.1873886 -0.726646,0.056711 -0.829312,0.2373757 -0.04319,0.3644002 0.522217,0.3589212 0.748183,0.1577496 0.36933,-0.1365527 0.352817,-0.1105927 0.08113,-0.3951253 z M 7.9959904,4.618645 C 7.4840911,4.7692622 7.9022089,5.1038713 8.2363711,5.0994059 8.6350696,5.067237 8.2643415,4.621512 7.9959904,4.618645 Z m 6.1041626,1.0050909 c -0.03662,0.3260791 0.276597,0.531169 0.147233,0.886403 -0.203704,0.4474997 0.08456,0.5815455 0.432684,0.3064852 0.464932,-0.284474 -0.348354,-0.9087885 -0.456722,-1.1928882 z m -0.225357,0.516818 c -0.328686,0.01034 -0.195526,0.7614789 0.07362,0.4792587 0.30915,-0.05397 0.01223,-0.2917589 -0.0015,-0.4702445 -0.02611,-0.00642 -0.0502,-0.0097 -0.07211,-0.00901 z M 8.6149704,6.9368144 C 8.6763037,7.2684158 8.6982185,7.7944536 8.9409874,7.229778 8.9406541,7.1200351 8.7012793,7.033845 8.6149704,6.9368144 Z M 18.703439,10.34571 c 0.491066,0.428167 0.68923,1.049129 0.96603,1.618061 0.411868,0.21625 0.167984,0.546908 0.225356,0.824806 0.573464,0.502083 -0.580265,0.23376 -0.440197,-0.313997 -0.09358,-0.636196 -0.501589,-1.060308 -0.835321,-1.520407 -0.02624,-0.243542 -0.287743,-0.521797 0.08413,-0.608463 z" />
  <path
     id="rect294"
     style="fill:url(#linearGradient1697);fill-opacity:1;stroke-width:5.29148;stroke-linecap:round;stroke-linejoin:round"
     d="M 22.949219,9 C 22.418723,9 22,9.463316 22,10 v 1 h -4.94922 c -0.0171,-8.61e-4 -0.03347,0 -0.05078,0 -0.553996,0 -1,0.446004 -1,1 v 2 c 0,0.553995 0.446004,1 1,1 0.553995,0 1,-0.446005 1,-1 v -1 h 10 v 1 c 0,0.553995 0.446005,1 1,1 0.553995,0 1,-0.446005 1,-1 V 12 C 30,11.463291 29.58064,11.026646 29.05078,11 29.03378,10.999139 29.01732,11 29,11 H 24 V 10 C 24,9.446004 23.553995,9 23,9 H 22.94922 Z M 20,15 c -0.552281,0 -1,0.447719 -1,1 0,0.55228 0.447719,1 1,1 h 3.5 l -1.101562,2 H 18.050781 18 c -0.552281,0 -1,0.44772 -1,1 0,0.552281 0.447719,1 1,1 h 4 v 2 c 0,0.552282 -0.447719,1 -1,1 -0.552285,0 -1,0.447715 -1,1 0,0.552285 0.447715,1 1,1 1.656848,0 3,-1.343152 3,-3 v -2 h 4 c 0.552281,0 1,-0.447719 1,-1 0,-0.55228 -0.447719,-1 -1,-1 h -3.273438 l 1.425782,-2.910156 C 26.423977,15.585789 26.329248,15 25.5,15 h -5.449219 c -0.017,-4.3e-4 -0.03385,0 -0.05078,0 z"
     sodipodi:nodetypes="ssccsssssccsssssscssssssscccssscssssscsssccscss" />
  <path
     id="rect855"
     style="fill:url(#linearGradient1705);fill-opacity:1;stroke-width:1.99999;stroke-linecap:round;stroke-linejoin:round"
     d="m 12.422345,15.931261 c -0.389278,0.01944 -0.744607,0.265808 -0.886716,0.656248 l -5.4726342,12.33529 c -0.1894773,0.520587 0.077068,1.091768 0.5976538,1.281245 0.5205867,0.189479 1.0917669,-0.07706 1.2812449,-0.597654 L 9.883292,25 h 5.273417 l 1.957024,4.641546 c 0.189479,0.520588 0.760657,0.787131 1.281245,0.597654 0.520584,-0.189479 0.787131,-0.760657 0.597654,-1.281245 l -5.472635,-12.33529 c -0.116017,-0.318755 -0.376562,-0.543091 -0.679685,-0.624998 -0.0063,-0.0017 -0.0132,-0.0023 -0.01954,-0.0039 l -0.0039,-0.0039 c -0.130145,-0.04738 -0.264768,-0.06508 -0.394527,-0.05861 z M 12.520005,18.5 14.430153,23 h -3.816395 z"
     sodipodi:nodetypes="cccsccccsccscccccccc" />
</svg>
