<?xml version="1.0" encoding="UTF-8" standalone="no"?>
<!-- Created with Inkscape (http://www.inkscape.org/) -->

<svg
   width="32"
   height="32"
   viewBox="0 0 32 32"
   version="1.1"
   id="svg2535"
   inkscape:version="1.3.2 (091e20ef0f, 2023-11-25, custom)"
   sodipodi:docname="preferences-online-accounts.svg"
   xmlns:inkscape="http://www.inkscape.org/namespaces/inkscape"
   xmlns:sodipodi="http://sodipodi.sourceforge.net/DTD/sodipodi-0.dtd"
   xmlns:xlink="http://www.w3.org/1999/xlink"
   xmlns="http://www.w3.org/2000/svg"
   xmlns:svg="http://www.w3.org/2000/svg">
  <sodipodi:namedview
     id="namedview2537"
     pagecolor="#ffffff"
     bordercolor="#000000"
     borderopacity="0.25"
     inkscape:showpageshadow="2"
     inkscape:pageopacity="0.0"
     inkscape:pagecheckerboard="0"
     inkscape:deskcolor="#d1d1d1"
     inkscape:document-units="px"
     showgrid="false"
     inkscape:zoom="26.0625"
     inkscape:cx="15.980815"
     inkscape:cy="16"
     inkscape:window-width="1920"
     inkscape:window-height="1017"
     inkscape:window-x="0"
     inkscape:window-y="0"
     inkscape:window-maximized="1"
     inkscape:current-layer="svg2535" />
  <defs
     id="defs2532">
    <radialGradient
       id="radialGradient875"
       cx="20.107"
       cy="28.705"
       r="28"
       gradientTransform="matrix(0.53284496,0.30089697,-0.23707796,0.4198275,7.3330512,-4.6132002)"
       gradientUnits="userSpaceOnUse">
      <stop
         stop-color="#5ab5e2"
         offset="0"
         id="stop2" />
      <stop
         stop-color="#4189ac"
         offset=".45901"
         id="stop4" />
      <stop
         stop-color="#295e76"
         offset="1"
         id="stop6" />
    </radialGradient>
    <linearGradient
       id="linearGradient883"
       x1="4"
       x2="59.861"
       y1="31.360001"
       y2="31.360001"
       gradientTransform="matrix(0.48212998,0,0,0.48212998,1.0718782,0.03918292)"
       gradientUnits="userSpaceOnUse">
      <stop
         stop-color="#b0d6df"
         offset="0"
         id="stop9" />
      <stop
         stop-color="#e1f8fc"
         offset=".21709"
         id="stop11" />
      <stop
         stop-color="#96c3ce"
         offset="1"
         id="stop13" />
    </linearGradient>
    <radialGradient
       id="radialGradient875-3"
       cx="20.107"
       cy="28.705"
       r="28"
       gradientTransform="matrix(0.51311877,0.28975761,-0.22830122,0.40428527,6.1726397,-4.3683762)"
       gradientUnits="userSpaceOnUse">
      <stop
         stop-color="#5ab5e2"
         offset="0"
         id="stop2-6" />
      <stop
         stop-color="#4189ac"
         offset=".45901"
         id="stop4-7" />
      <stop
         stop-color="#295e76"
         offset="1"
         id="stop6-5" />
    </radialGradient>
    <linearGradient
       inkscape:collect="always"
       xlink:href="#linearGradient2131"
       id="linearGradient3853"
       x1="12.001918"
       y1="13.000003"
       x2="12.001917"
       y2="20.000031"
       gradientUnits="userSpaceOnUse"
       gradientTransform="matrix(0.99999606,0,0,0.99999606,-3.0018699,10.000046)" />
    <linearGradient
       inkscape:collect="always"
       xlink:href="#linearGradient2131"
       id="linearGradient2320"
       x1="8.562398"
       y1="1.3003726"
       x2="8.5805483"
       y2="8.2474289"
       gradientUnits="userSpaceOnUse"
       gradientTransform="matrix(1.1629316,0,0,1.1629316,-0.846154,11.461538)" />
    <linearGradient
       inkscape:collect="always"
       id="linearGradient2131">
      <stop
         style="stop-color:#2ac9ba;stop-opacity:1;"
         offset="0"
         id="stop2127" />
      <stop
         style="stop-color:#2e988c;stop-opacity:1"
         offset="1"
         id="stop2129" />
    </linearGradient>
  </defs>
  <rect
     x="3"
     y="2"
     width="27"
     height="27"
     rx="13.499999"
     ry="13.499999"
     fill="url(#radialGradient875)"
     id="rect30"
     style="fill:url(#radialGradient875);stroke-width:0.482133" />
  <path
     id="path32"
     style="fill:url(#linearGradient883);stroke-width:0.482133"
     d="m 16.570755,2.6429427 c -1.041164,0.073837 -2.059172,0.2641858 -3.052457,0.5861528 -0.354365,0.013831 -1.126384,0.4713401 -0.505023,0.6855351 0.289174,0.3089184 0.980303,0.4058793 0.896468,0.9106665 0.111517,0.443699 -1.031438,0.4236153 -0.651055,0.8254816 0.26971,0.35495 0.539528,0.7098502 0.809256,1.0648104 C 14.565961,6.5556269 14.730705,6.0474148 15.007005,5.654835 15.7761,5.3155926 16.863625,5.2124251 17.371899,4.5596015 17.531169,4.0978131 17.691283,3.6361217 17.850556,3.1743339 17.423848,2.9972426 16.997444,2.8200764 16.570755,2.6429427 Z m -3.87388,0.1135798 c -0.38286,0.024267 -0.655884,0.2699143 -0.967458,0.4380934 -0.438307,0.053683 -0.932604,0.2174053 -1.208813,0.5699272 0.491668,0.2231257 0.800644,-0.013954 1.225039,-0.182539 0.394042,-0.201874 1.735583,-0.2874022 1.123628,-0.8214252 -0.05963,-0.00643 -0.117703,-0.00752 -0.172397,-0.00406 z M 10.561169,4.1559877 C 10.201941,4.2096927 10.074899,4.9765474 9.9222822,4.4439935 9.8785142,4.3549197 9.8342226,4.2674126 9.7904479,4.1782979 9.5451955,4.5526607 9.9620648,5.0932901 9.4010319,5.2897572 9.1240984,5.6403323 8.8832745,6.2165435 9.575458,6.0077437 9.7447878,5.4882651 10.270821,4.7583518 10.869457,5.0625978 11.47241,5.224601 12.030149,6.2383223 12.522448,5.4357885 12.522249,5.2270612 11.756939,5.1047127 11.774039,4.5940811 11.433373,4.4479312 10.704085,4.7134754 10.72951,4.1823544 10.667988,4.1550381 10.612486,4.1483151 10.561169,4.1559877 Z m 12.589102,0.492855 c -0.582525,0.1164849 -1.158793,0.2506686 -1.618513,0.6510556 0.133443,0.5335213 -0.553828,0.6226362 -0.859961,0.9187793 -0.222118,0.1253395 0.0041,1.0934177 0.198764,0.9431178 0.413794,-0.545941 0.62742,-0.074884 1.012078,0.1947082 0.346219,0.321563 0.565201,-0.5969291 0.381303,-0.8559047 -0.107897,-0.4173868 0.417535,-0.7270454 0.606435,-1.068867 0.57753,-0.3704594 0.08946,0.4723188 0.07099,0.7666637 -0.29152,0.8698459 1.293982,0.027413 0.24947,0.6774222 -0.28018,0.2797964 -0.382795,0.6937519 -0.813316,0.9005254 -0.232457,0.283731 -1.119383,0.1505426 -0.999907,-0.2920623 -0.323979,-0.5077804 -0.244864,0.6117926 -0.354938,0.6064349 -0.536937,-0.1599964 -0.697653,0.4393538 -1.034387,0.7260993 -0.257698,0.2960506 -1.165955,0.1113264 -0.48677,0.5699271 0.495357,0.5715898 -0.09929,0.4663708 -0.509081,0.6186048 -0.579105,0.09972 -0.481474,0.605353 -0.466488,1.060754 0.0089,0.250968 0.56429,0.62327 0.845763,0.448233 0.562229,-0.06021 0.420246,-0.750952 0.835622,-0.961371 0.345131,-0.295433 0.587155,-0.5689482 1.105375,-0.5760116 0.239255,0.2283356 0.722673,0.5718916 0.91878,0.7585506 -0.541213,0.589679 0.248963,0.541316 0.324514,0.004 0.266962,-0.295836 -0.879659,-0.9914035 -0.123721,-0.685535 0.500354,0.165065 0.385849,0.67716 0.608462,1.022217 0.395714,0.668926 0.437761,0.168611 0.474601,-0.348851 0.657443,-0.206538 0.835812,1.146474 1.721951,0.829538 0.664112,0.174505 0.348332,0.602953 -0.07099,0.880242 -0.382957,0.279326 -0.952799,0.08877 -1.373099,-0.06287 -0.415803,-0.213472 -0.916918,-0.09192 -1.135797,0.332626 -0.485909,-0.419351 -0.829444,-1.0847 -1.535356,-1.1216 -0.668385,-0.03462 -1.344647,0.142794 -1.989675,0.324514 -0.714689,0.838755 -1.488334,1.655906 -1.821333,2.727943 -0.345664,0.424785 0.396484,0.678216 -0.166312,1.06481 -0.391818,0.365832 0.131867,0.818876 0.212961,1.229096 0.421662,0.500036 1.068731,2.143168 1.719923,1.50696 0.366472,-0.579014 0.609551,0.380308 1.040472,-0.221075 0.362705,-0.331076 0.657584,0.331388 1.166221,0.09533 0.452293,0.225455 0.49049,0.668266 0.251498,1.091178 -0.153476,0.429377 0.664862,0.606148 0.432008,1.107402 -0.109772,0.490183 0.105344,0.90667 0.348853,1.316309 -0.54126,0.564973 -0.475851,1.401398 -0.340739,2.109338 0.264823,0.970559 0.644324,1.943298 0.606434,2.965244 0.474251,0.124399 0.824752,-0.19002 1.216927,-0.354937 0.748535,0.105873 1.155736,-0.6919 1.62054,-1.149995 -0.349179,-0.469395 0.286733,-0.671906 0.549645,-0.975569 -0.39326,-0.340153 -0.6555,-0.669728 -0.04665,-0.935006 0.280854,-0.285263 0.808278,-0.447858 0.900525,-0.845763 -0.241856,-0.720719 -0.10438,-1.485879 -0.139946,-2.231031 0.298188,-0.600977 0.61416,-1.188947 1.109431,-1.652991 0.197517,-0.651688 0.672753,-1.249588 0.626717,-1.949111 -1.154433,0.345364 -0.806074,-0.146716 -0.166314,-0.614547 0.443974,-0.32561 1.075842,-0.629312 1.210842,-1.184476 0.0969,-0.547919 -0.331252,-1.39927 -0.703788,-0.594266 -0.180964,-0.256546 -0.818077,-0.493761 -0.809256,-0.896468 -0.136517,-0.812112 0.218838,-0.324698 0.535447,0.05882 0.610802,-0.452775 1.374043,0.876194 1.44003,0.50908 C 29.568081,10.6139 27.903089,7.5413623 25.429978,5.3627728 25.209144,5.6073157 24.848129,6.45446 24.584215,5.9550102 24.206812,5.5546504 23.908751,5.1938557 24.677512,5.3424907 25.4309,5.1380247 24.680955,5.0199776 24.286068,4.9733564 23.890008,4.927128 23.523275,4.7810323 23.150271,4.6488427 Z M 8.7053557,4.6670966 C 8.6446183,4.6643484 8.5804706,4.6677707 8.514704,4.677238 L 8.441688,4.671158 8.421406,4.669138 C 8.3650613,4.711145 8.3107499,4.7560537 8.2550931,4.7989303 8.1099619,5.0730544 8.5082512,5.5554711 7.7581815,5.3587164 c -0.060291,0.02732 -0.144176,0.045566 -0.2474416,0.05679 -2.7599702,2.460114 -4.4963756,6.0395216 -4.5087117,10.0416686 0.2614208,0.535936 0.9017379,0.719651 1.3812112,1.016134 0.4880715,0.166958 1.1017934,0.142279 1.3447036,0.681479 0.2716781,0.284495 0.636122,0.664803 1.0242461,0.695676 0.5964284,-0.191122 0.6801746,0.350401 0.3792754,0.750438 -0.032599,0.438177 -0.5188183,0.79098 -0.4644602,1.176363 0.1086593,0.431807 -0.5446197,0.907056 -0.1054669,1.30211 0.4620112,0.825974 0.9571799,1.6292 1.5820042,2.342583 0.388632,0.340484 0.34251,0.8095 0.2981469,1.277772 -0.1542249,0.494911 0.3127727,0.780888 0.5638424,1.139854 -0.095799,0.175646 -0.1833769,0.430345 -0.2677238,0.713931 0.6574358,0.461527 1.3559929,0.866933 2.0931129,1.206786 0.368707,-0.533175 0.694878,-0.928616 0.870102,-0.932977 0.350795,-0.245758 0.424307,-0.801413 0.665253,-1.170278 -0.0077,-0.391802 -0.257251,-0.75774 0.150087,-1.184475 0.306924,-0.259057 0.940416,-0.08589 1.054671,-0.626718 0.416922,-0.429453 0.0791,-1.024443 0.0791,-1.545495 0.323858,-0.443628 0.881408,-0.784448 0.819397,-1.397437 0.07016,-0.914265 -1.575984,-0.873549 -2.155988,-1.42786 -0.712925,-0.02041 -0.568645,-0.992543 -1.123628,-1.121601 -0.55098,0.0277 -0.749848,-0.403427 -0.945148,-0.841707 C 9.9412979,17.304775 9.3697445,17.72449 9.0521798,17.465104 8.6924966,17.275619 8.3699237,16.569067 7.965059,17.010785 7.4322148,17.397133 6.9088214,17.789464 6.4033371,17.142618 6.0755189,16.847223 6.4861793,16.008755 6.0220334,16.061583 5.0311795,16.419995 6.3370796,14.622386 5.4095139,14.860882 5.1898272,15.205227 4.7686259,15.736872 4.358901,15.3294 3.9474381,15.135796 4.1499006,14.505708 4.1682492,14.128699 c 0.017808,-0.440973 0.5757541,-0.660841 0.896469,-0.861991 0.6220348,0.278192 0.4942191,-0.550941 1.0141052,-0.273807 0.5043125,-0.107407 0.7322833,0.702031 0.9370332,0.732184 0.1203315,-0.39855 -0.098092,-0.980718 0.27178,-1.243294 0.4321688,-0.363771 1.0027813,-0.62196 1.1094312,-1.233151 0.00888,-0.652905 0.8011851,-0.102987 0.9978795,-0.547618 C 9.5762837,10.191576 10.106295,10.22316 10.553055,10.127039 10.797423,9.9003061 11.411197,9.2022736 10.652437,9.4070243 10.376073,9.3696746 9.264177,9.5170527 10.019636,9.2508521 10.39177,8.9691602 10.841138,9.0080312 11.258873,8.9527052 11.587858,8.6741807 12.164531,8.5815946 12.189821,8.0744901 11.916768,7.7031247 11.337866,7.7735274 11.583387,7.2408957 11.55966,6.5441615 10.945307,6.9916864 10.743707,6.9386923 11.071117,6.4830681 10.31906,6.1966713 10.066285,6.1902825 9.8944847,6.6196551 9.4110845,6.9900889 9.5815427,7.4842809 9.0779497,7.5660682 8.842493,7.9310043 8.6911584,8.3848063 8.5401713,8.4373985 8.5875578,7.4947835 8.0096797,7.581635 7.6014977,7.5717871 7.0972166,6.9615225 7.5269655,6.7216738 8.1161496,6.3488928 8.8499947,6.0575948 9.2225494,5.4621551 9.4100162,4.9955221 9.130521,4.6863042 8.7053557,4.6670966 Z m 9.6116893,0.616576 c -0.325175,0.2529746 -0.980973,0.07656 -1.119572,0.3204572 -0.0583,0.4919403 0.704993,0.4845437 1.010048,0.212962 0.498595,-0.1843462 0.476302,-0.1493001 0.109524,-0.5334192 z M 11.094587,5.5351707 C 10.403523,5.738504 10.967982,6.1902262 11.419101,6.184198 11.957344,6.14077 11.456861,5.5390412 11.094587,5.5351707 Z m 8.240619,1.3568727 c -0.04944,0.4402068 0.373406,0.7170782 0.198765,1.1966441 -0.275,0.6041246 0.114162,0.7850865 0.584124,0.413755 C 20.745753,8.1184026 19.647817,7.2755781 19.50152,6.8920434 Z m -0.304231,0.6977044 c -0.443726,0.013959 -0.263961,1.0279965 0.09938,0.6469992 0.417353,-0.072859 0.01651,-0.3938745 -0.002,-0.63483 -0.03525,-0.00867 -0.06777,-0.0131 -0.09735,-0.012169 z M 11.93021,8.6646994 c 0.0828,0.4476619 0.112385,1.1578129 0.440123,0.3955009 -4.5e-4,-0.1481529 -0.323606,-0.2645095 -0.440123,-0.3955009 z m 13.619433,4.6020096 c 0.662939,0.578025 0.93046,1.416323 1.30414,2.184382 0.556022,0.291937 0.226779,0.738325 0.304231,1.113488 0.774176,0.677812 -0.783358,0.315576 -0.594266,-0.423896 -0.126333,-0.858864 -0.677145,-1.431416 -1.127684,-2.052549 -0.03543,-0.328782 -0.388453,-0.704427 0.113579,-0.821425 z" />
  <circle
     style="fill:url(#linearGradient2320);fill-opacity:1;stroke-width:1.34768;stroke-linecap:round;stroke-linejoin:round"
     id="path846"
     cx="9"
     cy="17"
     r="4" />
  <path
     id="rect1284"
     style="fill:url(#linearGradient3853);fill-opacity:1;stroke-width:0.559016;stroke-linejoin:round"
     d="m 4,22.999998 c -1.0713308,0 -2,0.762572 -2,2 v 1 c 0,1.744114 3,4 7,4 4,0 7,-2.255886 7,-4 v -1 c 0,-1.237428 -0.928669,-2 -1.999999,-2 z"
     sodipodi:nodetypes="cssssscc" />
</svg>
