<?xml version="1.0" encoding="UTF-8" standalone="no"?>
<!-- Created with Inkscape (http://www.inkscape.org/) -->

<svg
   width="22"
   height="22"
   viewBox="0 0 22 22.000001"
   version="1.1"
   id="svg5"
   inkscape:version="1.2 (1:1.2.1+202207142221+cd75a1ee6d)"
   sodipodi:docname="text-richtext.svg"
   xmlns:inkscape="http://www.inkscape.org/namespaces/inkscape"
   xmlns:sodipodi="http://sodipodi.sourceforge.net/DTD/sodipodi-0.dtd"
   xmlns="http://www.w3.org/2000/svg"
   xmlns:svg="http://www.w3.org/2000/svg">
  <sodipodi:namedview
     id="namedview7"
     pagecolor="#ffffff"
     bordercolor="#000000"
     borderopacity="0.25"
     inkscape:showpageshadow="2"
     inkscape:pageopacity="0.0"
     inkscape:pagecheckerboard="0"
     inkscape:deskcolor="#d1d1d1"
     inkscape:document-units="px"
     showgrid="false"
     inkscape:zoom="36.818182"
     inkscape:cx="10.98642"
     inkscape:cy="11"
     inkscape:window-width="1920"
     inkscape:window-height="1012"
     inkscape:window-x="0"
     inkscape:window-y="0"
     inkscape:window-maximized="1"
     inkscape:current-layer="svg5" />
  <defs
     id="defs2" />
  <path
     id="rect234"
     style="fill:#7d7d7b"
     d="M 3,1 H 14.5 L 19,5.5 V 21 H 3 Z"
     sodipodi:nodetypes="cccccc" />
  <path
     id="rect1746"
     style="fill:#fafafa"
     d="m 4,2 h 9 v 5 h 5 V 20 H 4 Z"
     sodipodi:nodetypes="ccccccc" />
  <path
     id="rect3166"
     style="fill:#999999;fill-opacity:1;stroke-width:1.76383;stroke-linecap:round;stroke-linejoin:round"
     d="M 7.988281,9 5.7988282,15.585938 5,15.689453 V 16 H 7.132812 V 15.689453 L 6.25,15.585938 6.8320312,13.736328 h 2.2734374 l 0.601562,1.84961 -0.9589835,0.103515 V 16 H 11.79297 V 15.689453 L 11.060548,15.615233 8.8144531,8.999999 Z M 13,9 v 1 h 4 V 9 Z m -5.041016,1.15625 1.0527346,3.259766 H 6.9355469 Z M 13,12 v 1 h 4 v -1 z m 0,3 v 1 h 4 v -1 z m -7.9999999,3 v 1 H 15 v -1 z"
     sodipodi:nodetypes="ccccccccccccccccccccccccccccccccccccccccc" />
  <path
     id="rect1800"
     style="fill:#fafafa"
     d="m 14,2 3.999999,4 H 14 Z"
     sodipodi:nodetypes="cccc" />
</svg>
