<?xml version="1.0" encoding="UTF-8" standalone="no"?>
<!-- Created with Inkscape (http://www.inkscape.org/) -->

<svg
   width="16"
   height="16"
   viewBox="0 0 16 16"
   version="1.1"
   id="svg423"
   inkscape:version="1.3.2 (091e20ef0f, 2023-11-25, custom)"
   sodipodi:docname="audio-volume-high.svg"
   xmlns:inkscape="http://www.inkscape.org/namespaces/inkscape"
   xmlns:sodipodi="http://sodipodi.sourceforge.net/DTD/sodipodi-0.dtd"
   xmlns="http://www.w3.org/2000/svg"
   xmlns:svg="http://www.w3.org/2000/svg">
  <sodipodi:namedview
     id="namedview425"
     pagecolor="#ffffff"
     bordercolor="#000000"
     borderopacity="0.25"
     inkscape:showpageshadow="2"
     inkscape:pageopacity="0.0"
     inkscape:pagecheckerboard="0"
     inkscape:deskcolor="#d1d1d1"
     inkscape:document-units="px"
     showgrid="false"
     inkscape:zoom="51.25"
     inkscape:cx="7.9902439"
     inkscape:cy="8"
     inkscape:window-width="1920"
     inkscape:window-height="1017"
     inkscape:window-x="0"
     inkscape:window-y="0"
     inkscape:window-maximized="1"
     inkscape:current-layer="svg423" />
  <defs
     id="defs420">
    <style
       id="current-color-scheme"
       type="text/css">
   .ColorScheme-Text { color:#363636; } .ColorScheme-Highlight { color:#4285f4; } .ColorScheme-NeutralText { color:#ff9800; } .ColorScheme-PositiveText { color:#4caf50; } .ColorScheme-NegativeText { color:#f44336; }
   </style>
  </defs>
  <path
     id="path1"
     style="fill:currentColor;stroke:none;-inkscape-stroke:none"
     class="ColorScheme-Text"
     d="M 5.2929688 1.9960938 L 2.2910156 4.9980469 L 0 4.9980469 L 0 11.001953 L 2.2910156 11.001953 L 5.2929688 14.003906 L 6.0039062 14.003906 L 6.0039062 1.9960938 L 5.2929688 1.9960938 z M 5.0019531 3.7089844 L 5.0019531 12.291016 L 2.7128906 10 L 1 10 L 1 6 L 2.7128906 6 L 5.0019531 3.7089844 z " />
  <path
     id="path2"
     style="fill:currentColor;stroke:none;-inkscape-stroke:none"
     d="M 13.076172,0.92578125 12.373047,1.6289062 c 0.422059,0.4220996 0.796068,0.8819204 1.119141,1.3769532 0.328286,0.4897995 0.604058,1.0049422 0.828124,1.546875 0.224067,0.5419127 0.393173,1.1058337 0.507813,1.6894531 0.11985,0.5784261 0.179687,1.1637731 0.179687,1.7578125 0,0.5940461 -0.05983,1.1820056 -0.179687,1.765625 -0.11464,0.578432 -0.283746,1.139741 -0.507813,1.681641 -0.224066,0.541899 -0.499838,1.059655 -0.828124,1.554687 -0.323053,0.489853 -0.697062,0.947061 -1.119141,1.369141 l 0.703125,0.703125 c 0.468986,-0.468993 0.884594,-0.978251 1.24414,-1.525391 0.36476,-0.547146 0.671756,-1.119497 0.921876,-1.71875 0.250119,-0.604459 0.43744,-1.226248 0.5625,-1.8671874 C 15.934957,9.3167383 16,8.6617793 16,8 16,7.3382074 15.93496,6.6878144 15.804688,6.046875 15.679628,5.4007289 15.492307,4.7769871 15.242188,4.1777344 14.992068,3.573275 14.685072,2.9983113 14.320312,2.4511719 13.96076,1.9040191 13.545151,1.3947608 13.076172,0.92578125 Z M 10.958984,3.0449219 10.248047,3.7558594 c 0.562766,0.5627994 0.994642,1.2105799 1.296875,1.9453125 0.30744,0.7347325 0.460937,1.5015622 0.460937,2.2988281 0,0.7972659 -0.153497,1.5640959 -0.460937,2.298828 -0.302227,0.734759 -0.734103,1.38254 -1.296875,1.945313 l 0.710937,0.710937 c 0.328287,-0.328273 0.617068,-0.682107 0.867188,-1.0625 0.255333,-0.385586 0.468665,-0.788858 0.640625,-1.210937 C 12.643964,10.259574 12.776644,9.8231326 12.865234,9.375 12.959024,8.9216338 13.005859,8.4637662 13.005859,8 c 0,-0.4585862 -0.04683,-0.9138413 -0.140625,-1.3671875 C 12.776654,6.179493 12.64397,5.740439 12.466797,5.3183594 12.294837,4.8962865 12.081505,4.4956273 11.826172,4.1152344 11.576052,3.7296548 11.287271,3.3732082 10.958984,3.0449219 Z m -2.1269528,2.125 -0.703125,0.703125 C 8.4102927,6.1544333 8.6262306,6.4815896 8.7773438,6.8515625 8.9284569,7.2163221 9.0039062,7.5987604 9.0039062,8 9.0039063,8.4012263 8.9284569,8.7862771 8.7773438,9.15625 8.6262306,9.5210096 8.4102927,9.8436133 8.1289062,10.125 l 0.703125,0.705078 C 9.2072109,10.454899 9.4979454,10.02107 9.7011719,9.53125 9.9043984,9.0414235 10.005859,8.5315062 10.005859,8 10.005859,7.4684872 9.9043984,6.9585695 9.7011719,6.46875 9.4979454,5.9789305 9.2072109,5.5451015 8.8320312,5.1699219 Z"
     class="ColorScheme-Text"
     sodipodi:nodetypes="cccccscsccccccscccccccsccccccscccccccscccsssc" />
  <path
     d="M 13.076172,0.92578125 12.373047,1.6289062 c 0.422059,0.4220996 0.796068,0.8819204 1.119141,1.3769532 0.328286,0.4897995 0.604058,1.0049422 0.828124,1.546875 0.224067,0.5419127 0.393173,1.1058337 0.507813,1.6894531 0.11985,0.5784261 0.179687,1.1637731 0.179687,1.7578125 0,0.5940461 -0.05983,1.1820056 -0.179687,1.765625 -0.11464,0.578432 -0.283746,1.139741 -0.507813,1.681641 -0.224066,0.541899 -0.499838,1.059655 -0.828124,1.554687 -0.323053,0.489853 -0.697062,0.947061 -1.119141,1.369141 l 0.703125,0.703125 c 0.468986,-0.468993 0.884594,-0.978251 1.24414,-1.525391 0.36476,-0.547146 0.671756,-1.119497 0.921876,-1.71875 0.250119,-0.604459 0.43744,-1.226248 0.5625,-1.8671874 C 15.934957,9.3167383 16,8.6617793 16,8 16,7.3382074 15.93496,6.6878144 15.804688,6.046875 15.679628,5.4007289 15.492307,4.7769871 15.242188,4.1777344 14.992068,3.573275 14.685072,2.9983113 14.320312,2.4511719 13.96076,1.9040191 13.545151,1.3947608 13.076172,0.92578125 Z M 10.958984,3.0449219 10.248047,3.7558594 c 0.562766,0.5627994 0.994642,1.2105799 1.296875,1.9453125 0.30744,0.7347325 0.460937,1.5015622 0.460937,2.2988281 0,0.7972659 -0.153497,1.5640959 -0.460937,2.298828 -0.302227,0.734759 -0.734103,1.38254 -1.296875,1.945313 l 0.710937,0.710937 c 0.328287,-0.328273 0.617068,-0.682107 0.867188,-1.0625 0.255333,-0.385586 0.468665,-0.788858 0.640625,-1.210937 C 12.643964,10.259574 12.776644,9.8231326 12.865234,9.375 12.959024,8.9216338 13.005859,8.4637662 13.005859,8 c 0,-0.4585862 -0.04683,-0.9138413 -0.140625,-1.3671875 C 12.776654,6.179493 12.64397,5.740439 12.466797,5.3183594 12.294837,4.8962865 12.081505,4.4956273 11.826172,4.1152344 11.576052,3.7296548 11.287271,3.3732082 10.958984,3.0449219 Z"
     style="fill:currentColor;stroke:none;-inkscape-stroke:none"
     class="ColorScheme-Text"
     id="path1-3" />
</svg>
