<?xml version="1.0" encoding="UTF-8" standalone="no"?>
<!-- Created with Inkscape (http://www.inkscape.org/) -->

<svg
   width="16"
   height="16"
   viewBox="0 0 16 16"
   version="1.1"
   id="svg423"
   inkscape:version="1.3.2 (091e20ef0f, 2023-11-25, custom)"
   sodipodi:docname="klipper-symbolic.svg"
   xmlns:inkscape="http://www.inkscape.org/namespaces/inkscape"
   xmlns:sodipodi="http://sodipodi.sourceforge.net/DTD/sodipodi-0.dtd"
   xmlns="http://www.w3.org/2000/svg"
   xmlns:svg="http://www.w3.org/2000/svg">
  <sodipodi:namedview
     id="namedview425"
     pagecolor="#ffffff"
     bordercolor="#000000"
     borderopacity="0.25"
     inkscape:showpageshadow="2"
     inkscape:pageopacity="0.0"
     inkscape:pagecheckerboard="0"
     inkscape:deskcolor="#d1d1d1"
     inkscape:document-units="px"
     showgrid="false"
     inkscape:zoom="51.25"
     inkscape:cx="7.9902439"
     inkscape:cy="8"
     inkscape:window-width="1920"
     inkscape:window-height="1017"
     inkscape:window-x="0"
     inkscape:window-y="0"
     inkscape:window-maximized="1"
     inkscape:current-layer="svg423" />
  <defs
     id="defs2">
    <style
       id="current-color-scheme"
       type="text/css">
        .ColorScheme-Text { color:#363636; } .ColorScheme-Highlight { color:#4285f4; } .ColorScheme-NeutralText { color:#ff9800; } .ColorScheme-PositiveText { color:#4caf50; } .ColorScheme-NegativeText { color:#f44336; }
     </style>
  </defs>
  <path
     id="path1"
     style="fill:currentColor"
     class="ColorScheme-Text"
     d="M 8,0 C 6.8954022,0 6,0.8954322 6,2 H 3 C 2.4460018,2 2,2.4460018 2,3 v 11 c 0,0.553997 0.4460018,1 1,1 h 10 c 0.553997,0 1,-0.446003 1,-1 V 3 C 14,2.4460018 13.553997,2 13,2 H 10 C 10,1.8620002 9.99475,1.7237498 9.96875,1.59375 9.7726004,0.66339186 8.950898,-0.0018 8,0 Z M 7.9882812,1 C 7.9921874,0.99997711 7.9960936,0.99997711 8,1 8.4139992,1 8.7542504,1.2660008 8.90625,1.625 8.9631408,1.7421598 8.995066,1.8698602 9,2 8.999939,2.8881282 7.9283738,3.3351963 7.296875,2.7109375 6.6653062,2.0866787 7.100213,1.0104 7.9882812,1 Z M 3,3 h 3 v 1 c 0,0 -1,2e-6 -1,1 h 6 C 11,4.2500014 10.43725,4.047 10.15625,4 H 10 V 3 h 3 V 14 H 3 Z"
     sodipodi:nodetypes="ccssssssssccccccccccccccccccccc" />
</svg>
