<?xml version="1.0" encoding="UTF-8" standalone="no"?>
<!-- Created with Inkscape (http://www.inkscape.org/) -->

<svg
   width="16"
   height="16"
   viewBox="0 0 16 16"
   version="1.1"
   id="svg5"
   inkscape:version="1.2.1 (9c6d41e410, 2022-07-14, custom)"
   sodipodi:docname="network-wireless-signal-good.svg"
   xmlns:inkscape="http://www.inkscape.org/namespaces/inkscape"
   xmlns:sodipodi="http://sodipodi.sourceforge.net/DTD/sodipodi-0.dtd"
   xmlns="http://www.w3.org/2000/svg"
   xmlns:svg="http://www.w3.org/2000/svg">
  <sodipodi:namedview
     id="namedview7"
     pagecolor="#ffffff"
     bordercolor="#000000"
     borderopacity="0.25"
     inkscape:showpageshadow="2"
     inkscape:pageopacity="0.0"
     inkscape:pagecheckerboard="0"
     inkscape:deskcolor="#d1d1d1"
     inkscape:document-units="px"
     showgrid="false"
     inkscape:zoom="51.6875"
     inkscape:cx="7.4873035"
     inkscape:cy="8.019347"
     inkscape:window-width="1920"
     inkscape:window-height="1029"
     inkscape:window-x="0"
     inkscape:window-y="0"
     inkscape:window-maximized="1"
     inkscape:current-layer="svg5" />
  <defs
     id="defs2">
    <style
       id="current-color-scheme"
       type="text/css">
         .ColorScheme-Text { color:#363636; }
    </style>
  </defs>
  <path
     id="path234"
     style="fill:currentColor;fill-opacity:1;stroke-linecap:round;-inkscape-stroke:none"
     d="M 14.5,5 C 9.2592276,5 5,9.2592276 5,14.5 5,14.776142 5.2238576,15 5.5,15 5.7761424,15 6,14.776142 6,14.5 6,9.7996667 9.7996667,6 14.5,6 14.776142,6 15,5.7761424 15,5.5 15,5.2238576 14.776142,5 14.5,5 Z m 0,4 C 11.468362,9 9,11.468362 9,14.5 9,14.776142 9.2238576,15 9.5,15 9.7761424,15 10,14.776142 10,14.5 10,12.008801 12.008801,10 14.5,10 14.776142,10 15,9.7761424 15,9.5 15,9.2238576 14.776142,9 14.5,9 Z M 14,13 c -0.552285,0 -1,0.447715 -1,1 0,0.552285 0.447715,1 1,1 0.552285,0 1,-0.447715 1,-1 0,-0.552285 -0.447715,-1 -1,-1 z"
     sodipodi:nodetypes="sssssssssssssssssss"
     class="ColorScheme-Text" />
  <path
     d="M 14.5,1 C 7.0500932,1 1.0000002,7.050093 1.0000002,14.5 c 0,0.276142 0.2238576,0.5 0.5,0.5 0.2761424,0 0.5,-0.223858 0.5,-0.5 C 2.0000002,7.5905321 7.5905323,2 14.5,2 14.776142,2 15,1.7761424 15,1.5 15,1.2238576 14.776142,1 14.5,1 Z"
     style="fill:currentColor;fill-opacity:1;stroke-linecap:round;-inkscape-stroke:none;opacity:0.2"
     id="path1811"
     class="ColorScheme-Text" />
</svg>
