<?xml version="1.0" encoding="UTF-8" standalone="no"?>
<!-- Created with Inkscape (http://www.inkscape.org/) -->

<svg
   width="16"
   height="16"
   viewBox="0 0 16 16"
   version="1.1"
   id="svg5"
   inkscape:version="1.3.2 (091e20ef0f, 2023-11-25, custom)"
   sodipodi:docname="redshift-status-on.svg"
   xmlns:inkscape="http://www.inkscape.org/namespaces/inkscape"
   xmlns:sodipodi="http://sodipodi.sourceforge.net/DTD/sodipodi-0.dtd"
   xmlns="http://www.w3.org/2000/svg"
   xmlns:svg="http://www.w3.org/2000/svg">
  <sodipodi:namedview
     id="namedview7"
     pagecolor="#ffffff"
     bordercolor="#000000"
     borderopacity="0.25"
     inkscape:showpageshadow="2"
     inkscape:pageopacity="0.0"
     inkscape:pagecheckerboard="0"
     inkscape:deskcolor="#d1d1d1"
     inkscape:document-units="px"
     showgrid="false"
     inkscape:zoom="51.25"
     inkscape:cx="7.9902439"
     inkscape:cy="8"
     inkscape:window-width="1920"
     inkscape:window-height="1017"
     inkscape:window-x="0"
     inkscape:window-y="0"
     inkscape:window-maximized="1"
     inkscape:current-layer="svg5" />
  <defs
     id="defs2">
    <style
       id="current-color-scheme"
       type="text/css">
         .ColorScheme-Text { color:#363636; }
     </style>
  </defs>
  <path
     id="path234"
     style="fill:currentColor;stroke-width:1.2;stroke-linecap:round;stroke-linejoin:round"
     class="ColorScheme-Text"
     d="M 8 0 C 4.6863146 0 2 2.6863146 2 6 C 2.00408 9.3536362 5 10.347548 5 13 L 5 16 L 11 16 L 11 13 C 11 10.347548 13.9959 9.3536362 14 6 C 14 2.6863146 11.313687 0 8 0 z M 8 1 C 10.761406 1 13 3.2385928 13 6 C 12.9966 8.7947005 9.9993871 10.394107 10 12 L 6 12 C 6.0006129 10.394107 3.0034 8.7947001 3 6 C 3 3.2385928 5.238593 1 8 1 z M 6 13 L 10 13 L 10 15 L 6 15 L 6 13 z " />
</svg>
