<?xml version="1.0" encoding="UTF-8" standalone="no"?>
<!-- Created with Inkscape (http://www.inkscape.org/) -->

<svg
   width="16"
   height="16"
   viewBox="0 0 16 16.000001"
   version="1.1"
   id="svg5"
   inkscape:version="1.3.2 (091e20ef0f, 2023-11-25, custom)"
   sodipodi:docname="preferences-system-power-symbolic.svg"
   xmlns:inkscape="http://www.inkscape.org/namespaces/inkscape"
   xmlns:sodipodi="http://sodipodi.sourceforge.net/DTD/sodipodi-0.dtd"
   xmlns="http://www.w3.org/2000/svg"
   xmlns:svg="http://www.w3.org/2000/svg">
  <sodipodi:namedview
     id="namedview7"
     pagecolor="#ffffff"
     bordercolor="#000000"
     borderopacity="0.25"
     inkscape:showpageshadow="2"
     inkscape:pageopacity="0.0"
     inkscape:pagecheckerboard="0"
     inkscape:deskcolor="#d1d1d1"
     inkscape:document-units="px"
     showgrid="false"
     inkscape:zoom="50.3125"
     inkscape:cx="6.310559"
     inkscape:cy="8.0099379"
     inkscape:window-width="1920"
     inkscape:window-height="1017"
     inkscape:window-x="0"
     inkscape:window-y="0"
     inkscape:window-maximized="1"
     inkscape:current-layer="svg5" />
  <defs
     id="defs2" />
  <path
     d="M 8,0 C 3.576,0 0,3.576 0,8 c 0,4.424 3.576,8 8,8 4.424,0 8,-3.576 8,-8 C 16,3.576 12.424,0 8,0 Z m 0,1 c 3.87,0 7,3.13 7,7 0,3.87 -3.13,7 -7,7 C 4.13,15 1,11.87 1,8 1,4.13 4.13,1 8,1 Z M 9,3 5.5,9 h 2 L 7,13 10.5,7 h -2 z"
     style="overflow:visible;fill:#363636;marker:none"
     id="path1" />
</svg>
