<?xml version="1.0" encoding="UTF-8" standalone="no"?>
<!-- Created with Inkscape (http://www.inkscape.org/) -->

<svg
   width="24"
   height="24"
   viewBox="0 0 24 24.000001"
   version="1.1"
   id="svg5"
   inkscape:version="1.3.2 (091e20ef0f, 2023-11-25, custom)"
   sodipodi:docname="folder-text.svg"
   xmlns:inkscape="http://www.inkscape.org/namespaces/inkscape"
   xmlns:sodipodi="http://sodipodi.sourceforge.net/DTD/sodipodi-0.dtd"
   xmlns:xlink="http://www.w3.org/1999/xlink"
   xmlns="http://www.w3.org/2000/svg"
   xmlns:svg="http://www.w3.org/2000/svg">
  <sodipodi:namedview
     id="namedview7"
     pagecolor="#ffffff"
     bordercolor="#000000"
     borderopacity="0.25"
     inkscape:showpageshadow="2"
     inkscape:pageopacity="0.0"
     inkscape:pagecheckerboard="0"
     inkscape:deskcolor="#d1d1d1"
     inkscape:document-units="px"
     showgrid="false"
     inkscape:zoom="35.541667"
     inkscape:cx="12.028136"
     inkscape:cy="12.014068"
     inkscape:window-width="1920"
     inkscape:window-height="1017"
     inkscape:window-x="0"
     inkscape:window-y="0"
     inkscape:window-maximized="1"
     inkscape:current-layer="svg5" />
  <defs
     id="defs2">
    <linearGradient
       inkscape:collect="always"
       xlink:href="#linearGradient1758"
       id="linearGradient1760"
       x1="39"
       y1="36"
       x2="55"
       y2="58"
       gradientUnits="userSpaceOnUse"
       gradientTransform="translate(-35,-35)" />
    <linearGradient
       inkscape:collect="always"
       id="linearGradient1758">
      <stop
         style="stop-color:#f5f5f5;stop-opacity:1;"
         offset="0"
         id="stop1754" />
      <stop
         style="stop-color:#e0e0e0;stop-opacity:1;"
         offset="1"
         id="stop1756" />
    </linearGradient>
    <linearGradient
       inkscape:collect="always"
       xlink:href="#linearGradient1866"
       id="linearGradient1868"
       x1="52"
       y1="38"
       x2="55"
       y2="35"
       gradientUnits="userSpaceOnUse"
       gradientTransform="translate(-38,-31)" />
    <linearGradient
       inkscape:collect="always"
       id="linearGradient1866">
      <stop
         style="stop-color:#a4a4a4;stop-opacity:1;"
         offset="0"
         id="stop1862" />
      <stop
         style="stop-color:#b9b9b9;stop-opacity:1;"
         offset="1"
         id="stop1864" />
    </linearGradient>
  </defs>
  <path
     id="rect547"
     style="fill:url(#linearGradient1760);stroke-width:0.891882"
     d="m 6,1 h 8 l 3,5 3,1 v 14 c 0,1.108 -0.892,2 -2,2 H 6 C 4.892,23 4,22.108 4,21 V 3 C 4,1.892 4.892,1 6,1 Z"
     sodipodi:nodetypes="scccssssss" />
  <path
     id="rect9178"
     style="opacity:0.2;fill:#000000;fill-opacity:1;stroke:none;stroke-width:0.999999;stroke-linecap:round;stroke-linejoin:round;stroke-miterlimit:4;stroke-dasharray:none;stroke-opacity:1"
     d="M 6 10 L 6 11 L 18 11 L 18 10 L 6 10 z M 6 13 L 6 14 L 18 14 L 18 13 L 6 13 z M 6 16 L 6 17 L 18 17 L 18 16 L 6 16 z M 6 19 L 6 20 L 12 20 L 12 19 L 6 19 z " />
  <path
     id="rect1762"
     style="fill:url(#linearGradient1868);fill-opacity:1"
     d="M 20,7 H 16 C 14.892,7 14,6.108 14,5 V 1 Z"
     sodipodi:nodetypes="csscc" />
</svg>
