<?xml version="1.0" encoding="UTF-8" standalone="no"?>
<!-- Created with Inkscape (http://www.inkscape.org/) -->

<svg
   width="22"
   height="22"
   viewBox="0 0 22 22.000001"
   version="1.1"
   id="svg5"
   inkscape:version="1.2.1 (9c6d41e410, 2022-07-14, custom)"
   sodipodi:docname="folder-videos.svg"
   xmlns:inkscape="http://www.inkscape.org/namespaces/inkscape"
   xmlns:sodipodi="http://sodipodi.sourceforge.net/DTD/sodipodi-0.dtd"
   xmlns:xlink="http://www.w3.org/1999/xlink"
   xmlns="http://www.w3.org/2000/svg"
   xmlns:svg="http://www.w3.org/2000/svg">
  <sodipodi:namedview
     id="namedview7"
     pagecolor="#ffffff"
     bordercolor="#000000"
     borderopacity="0.25"
     inkscape:showpageshadow="2"
     inkscape:pageopacity="0.0"
     inkscape:pagecheckerboard="0"
     inkscape:deskcolor="#d1d1d1"
     inkscape:document-units="px"
     showgrid="false"
     inkscape:zoom="38.772727"
     inkscape:cx="11"
     inkscape:cy="11"
     inkscape:window-width="1920"
     inkscape:window-height="1029"
     inkscape:window-x="0"
     inkscape:window-y="0"
     inkscape:window-maximized="1"
     inkscape:current-layer="svg5" />
  <defs
     id="defs2">
    <linearGradient
       inkscape:collect="always"
       id="linearGradient27684">
      <stop
         style="stop-color:#4a4a4a;stop-opacity:1;"
         offset="0"
         id="stop27680" />
      <stop
         style="stop-color:#232323;stop-opacity:0.74901962"
         offset="1"
         id="stop27682" />
    </linearGradient>
    <linearGradient
       inkscape:collect="always"
       id="linearGradient12418">
      <stop
         style="stop-color:#52e4ff;stop-opacity:1;"
         offset="0"
         id="stop12414" />
      <stop
         style="stop-color:#d29eff;stop-opacity:1"
         offset="1"
         id="stop12416" />
    </linearGradient>
    <linearGradient
       inkscape:collect="always"
       xlink:href="#linearGradient27684"
       id="linearGradient1177"
       x1="27.999998"
       y1="24"
       x2="45"
       y2="44"
       gradientUnits="userSpaceOnUse"
       gradientTransform="translate(-25,-23)" />
    <linearGradient
       inkscape:collect="always"
       xlink:href="#linearGradient12418"
       id="linearGradient1262"
       x1="31"
       y1="26"
       x2="41"
       y2="44"
       gradientUnits="userSpaceOnUse"
       gradientTransform="translate(-25,-24)" />
  </defs>
  <rect
     style="fill:url(#linearGradient1177);fill-opacity:1"
     id="rect615"
     width="18"
     height="20"
     x="2"
     y="1"
     ry="1" />
  <path
     id="rect1226"
     style="fill:url(#linearGradient1262);fill-opacity:1"
     d="M 7.5,2 C 6.669001,2 6,2.669001 6,3.5 v 5 C 6,9.330999 6.669001,10 7.5,10 h 7 C 15.330999,10 16,9.330999 16,8.5 v -5 C 16,2.669001 15.330999,2 14.5,2 Z m 0,10 C 6.669001,12 6,12.669001 6,13.5 v 5 C 6,19.330999 6.669001,20 7.5,20 h 7 c 0.830999,0 1.5,-0.669001 1.5,-1.5 v -5 C 16,12.669001 15.330999,12 14.5,12 Z" />
  <path
     id="rect1264"
     style="fill:#ffffff"
     d="M 3.5,2 C 3.223,2 3,2.223 3,2.5 v 1 C 3,3.777 3.223,4 3.5,4 h 1 C 4.777,4 5,3.777 5,3.5 v -1 C 5,2.223 4.777,2 4.5,2 Z m 14,0 C 17.223,2 17,2.223 17,2.5 v 1 C 17,3.777 17.223,4 17.5,4 h 1 C 18.777,4 19,3.777 19,3.5 v -1 C 19,2.223 18.777,2 18.5,2 Z M 3.5,6 C 3.223,6 3,6.223 3,6.5 v 1 C 3,7.777 3.223,8 3.5,8 h 1 C 4.777,8 5,7.777 5,7.5 v -1 C 5,6.223 4.777,6 4.5,6 Z m 14,0 C 17.223,6 17,6.223 17,6.5 v 1 C 17,7.777 17.223,8 17.5,8 h 1 C 18.777,8 19,7.777 19,7.5 v -1 C 19,6.223 18.777,6 18.5,6 Z m -14,4 C 3.223,10 3,10.223 3,10.5 v 1 C 3,11.777 3.223,12 3.5,12 h 1 C 4.777,12 5,11.777 5,11.5 v -1 C 5,10.223 4.777,10 4.5,10 Z m 14,0 C 17.223,10 17,10.223 17,10.5 v 1 c 0,0.277 0.223,0.5 0.5,0.5 h 1 c 0.277,0 0.5,-0.223 0.5,-0.5 v -1 C 19,10.223 18.777,10 18.5,10 Z m -14,4 C 3.223,14 3,14.223 3,14.5 v 1 C 3,15.777 3.223,16 3.5,16 h 1 C 4.777,16 5,15.777 5,15.5 v -1 C 5,14.223 4.777,14 4.5,14 Z m 14,0 C 17.223,14 17,14.223 17,14.5 v 1 c 0,0.277 0.223,0.5 0.5,0.5 h 1 c 0.277,0 0.5,-0.223 0.5,-0.5 v -1 C 19,14.223 18.777,14 18.5,14 Z m -14,4 C 3.223,18 3,18.223 3,18.5 v 1 C 3,19.777 3.223,20 3.5,20 h 1 C 4.777,20 5,19.777 5,19.5 v -1 C 5,18.223 4.777,18 4.5,18 Z m 14,0 C 17.223,18 17,18.223 17,18.5 v 1 c 0,0.277 0.223,0.5 0.5,0.5 h 1 c 0.277,0 0.5,-0.223 0.5,-0.5 v -1 C 19,18.223 18.777,18 18.5,18 Z" />
</svg>
