<?xml version="1.0" encoding="UTF-8" standalone="no"?>
<!-- Created with Inkscape (http://www.inkscape.org/) -->

<svg
   width="32"
   height="32"
   viewBox="0 0 32 31.999998"
   version="1.1"
   id="svg1"
   inkscape:version="1.3.2 (091e20ef0f, 2023-11-25, custom)"
   sodipodi:docname="system-search.svg"
   xmlns:inkscape="http://www.inkscape.org/namespaces/inkscape"
   xmlns:sodipodi="http://sodipodi.sourceforge.net/DTD/sodipodi-0.dtd"
   xmlns="http://www.w3.org/2000/svg"
   xmlns:svg="http://www.w3.org/2000/svg">
  <sodipodi:namedview
     id="namedview1"
     pagecolor="#ffffff"
     bordercolor="#000000"
     borderopacity="0.25"
     inkscape:showpageshadow="2"
     inkscape:pageopacity="0.0"
     inkscape:pagecheckerboard="0"
     inkscape:deskcolor="#d1d1d1"
     inkscape:document-units="px"
     inkscape:zoom="25.125"
     inkscape:cx="16"
     inkscape:cy="16"
     inkscape:window-width="1920"
     inkscape:window-height="1008"
     inkscape:window-x="0"
     inkscape:window-y="0"
     inkscape:window-maximized="1"
     inkscape:current-layer="layer1" />
  <defs
     id="defs1">
     <style
        type="text/css"
        id="current-color-scheme">
        .ColorScheme-Text {
        color:#363636;
        }
     </style>
  </defs>
  <g
     inkscape:label="Layer 1"
     inkscape:groupmode="layer"
     id="layer1">
    <path
       id="path1"
       style="fill:currentColor;stroke-width:1.1"
       class="ColorScheme-Text"
       d="M 14 3 A 11 11 0 0 0 3 14 A 11 11 0 0 0 14 25 A 11 11 0 0 0 20.625 22.746094 L 26.4375 28.558594 C 27.025104 29.146198 27.970989 29.146198 28.558594 28.558594 C 29.146198 27.970989 29.146198 27.025104 28.558594 26.4375 L 22.746094 20.625 A 11 11 0 0 0 25 14 A 11 11 0 0 0 14 3 z M 14 6 A 8 8 0 0 1 22 14 A 8 8 0 0 1 14 22 A 8 8 0 0 1 6 14 A 8 8 0 0 1 14 6 z " />
  </g>
</svg>
