<?xml version="1.0" encoding="UTF-8" standalone="no"?>
<!-- Created with Inkscape (http://www.inkscape.org/) -->

<svg
   width="22"
   height="22"
   viewBox="0 0 22 22"
   version="1.1"
   id="svg423"
   inkscape:version="1.3.2 (091e20ef0f, 2023-11-25, custom)"
   sodipodi:docname="audio-volume-medium.svg"
   xmlns:inkscape="http://www.inkscape.org/namespaces/inkscape"
   xmlns:sodipodi="http://sodipodi.sourceforge.net/DTD/sodipodi-0.dtd"
   xmlns="http://www.w3.org/2000/svg"
   xmlns:svg="http://www.w3.org/2000/svg">
  <sodipodi:namedview
     id="namedview425"
     pagecolor="#ffffff"
     bordercolor="#000000"
     borderopacity="0.25"
     inkscape:showpageshadow="2"
     inkscape:pageopacity="0.0"
     inkscape:pagecheckerboard="0"
     inkscape:deskcolor="#d1d1d1"
     inkscape:document-units="px"
     showgrid="false"
     inkscape:zoom="37.272727"
     inkscape:cx="10.986585"
     inkscape:cy="11"
     inkscape:window-width="1920"
     inkscape:window-height="1017"
     inkscape:window-x="0"
     inkscape:window-y="0"
     inkscape:window-maximized="1"
     inkscape:current-layer="svg423" />
  <defs
     id="defs420">
    <style
       id="current-color-scheme"
       type="text/css">
   .ColorScheme-Text { color:#dedede; } .ColorScheme-Highlight { color:#4285f4; } .ColorScheme-NeutralText { color:#ff9800; } .ColorScheme-PositiveText { color:#4caf50; } .ColorScheme-NegativeText { color:#f44336; }
   </style>
  </defs>
  <path
     id="path1"
     style="fill:currentColor;stroke:none;-inkscape-stroke:none"
     d="M 10,6 6.5,9 H 4 C 3.4460033,9 3,9.446004 3,10 v 3 c 0,0.553996 0.4460033,1 1,1 H 6.5 L 10,17 Z M 9,8.3496094 V 14.75 L 6.9140625,13 H 4 v -3 h 2.9140625 z"
     class="ColorScheme-Text" />
  <path
     id="path2"
     style="color:#dedede;fill:currentColor;stroke-width:1.92898;stroke-linecap:round;stroke-linejoin:round;-inkscape-stroke:none;paint-order:normal"
     d="M 13.949219,6.90115 13.242188,7.5582001 C 14.367578,8.6038527 14.9998,10.021606 15,11.5005 c -2e-4,1.478894 -0.632422,2.896647 -1.757812,3.9423 l 0.707031,0.65705 C 15.261909,14.880233 15.99972,13.225477 16,11.5005 15.99972,9.775524 15.261909,8.1207682 13.949219,6.90115 Z M 11.828125,8.8723001 11.121094,9.52935 C 11.683861,10.052223 11.99988,10.76096 12,11.5005 c -1.2e-4,0.739541 -0.316139,1.448277 -0.878906,1.97115 l 0.707031,0.65705 C 12.578191,13.431816 12.99984,12.486123 13,11.5005 12.99984,10.514878 12.578191,9.569185 11.828125,8.8723001 Z" />
  <path
     d="M 16.070312,4.93 15.363281,5.5870501 C 17.051276,7.1554358 17.9997,9.282252 18,11.5005 c -3e-4,2.218249 -0.948724,4.345063 -2.636719,5.91345 L 16.070312,18.071 C 17.945607,16.328649 18.999599,13.964831 19,11.5005 18.999599,9.03617 17.945607,6.6723513 16.070312,4.93 Z"
     style="opacity:0.2;fill:currentColor;stroke-width:1.92898;stroke-linecap:round;stroke-linejoin:round;-inkscape-stroke:none;paint-order:normal"
     id="path3"
     class="ColorScheme-Text" />
</svg>
