<?xml version="1.0" encoding="UTF-8" standalone="no"?>
<!-- Created with Inkscape (http://www.inkscape.org/) -->

<svg
   width="22"
   height="22"
   viewBox="0 0 22 22"
   version="1.1"
   id="svg423"
   inkscape:version="1.3.2 (091e20ef0f, 2023-11-25, custom)"
   sodipodi:docname="audio-volume-medium.svg"
   xmlns:inkscape="http://www.inkscape.org/namespaces/inkscape"
   xmlns:sodipodi="http://sodipodi.sourceforge.net/DTD/sodipodi-0.dtd"
   xmlns="http://www.w3.org/2000/svg"
   xmlns:svg="http://www.w3.org/2000/svg">
  <sodipodi:namedview
     id="namedview425"
     pagecolor="#ffffff"
     bordercolor="#000000"
     borderopacity="0.25"
     inkscape:showpageshadow="2"
     inkscape:pageopacity="0.0"
     inkscape:pagecheckerboard="0"
     inkscape:deskcolor="#d1d1d1"
     inkscape:document-units="px"
     showgrid="false"
     inkscape:zoom="37.272727"
     inkscape:cx="10.986585"
     inkscape:cy="11"
     inkscape:window-width="1920"
     inkscape:window-height="1017"
     inkscape:window-x="0"
     inkscape:window-y="0"
     inkscape:window-maximized="1"
     inkscape:current-layer="svg423" />
  <defs
     id="defs420">
    <style
       id="current-color-scheme"
       type="text/css">
   .ColorScheme-Text { color:#dedede; } .ColorScheme-Highlight { color:#4285f4; } .ColorScheme-NeutralText { color:#ff9800; } .ColorScheme-PositiveText { color:#4caf50; } .ColorScheme-NegativeText { color:#f44336; }
   </style>
  </defs>
  <path
     id="path1"
     style="fill:currentColor;stroke:none;-inkscape-stroke:none"
     class="ColorScheme-Text"
     d="M 8.2929688,4.9963125 5.2910156,7.9982656 H 3 v 6.0039064 h 2.2910156 l 3.0019532,3.001953 H 9.003906 V 4.9963125 Z M 8.0019531,6.7092031 V 15.291235 L 5.7128906,13.000219 H 4 V 9.0002187 h 1.7128906 z" />
  <path
     id="path2"
     style="fill:currentColor;stroke:none;-inkscape-stroke:none"
     class="ColorScheme-Text"
     d="m 13.958984,6.0451406 -0.710937,0.7109375 c 0.562765,0.5627988 0.994642,1.2105806 1.296875,1.9453125 0.30744,0.7347321 0.460937,1.5015634 0.460937,2.2988284 0,0.797265 -0.153497,1.564097 -0.460937,2.298828 -0.302227,0.734758 -0.734104,1.38254 -1.296875,1.945313 l 0.710937,0.710937 c 0.328287,-0.328273 0.617068,-0.682107 0.867188,-1.0625 0.255333,-0.385585 0.468665,-0.788859 0.640625,-1.210937 0.177167,-0.422067 0.309847,-0.858509 0.398437,-1.306641 0.09379,-0.453366 0.140625,-0.911234 0.140625,-1.375 0,-0.458586 -0.04683,-0.913842 -0.140625,-1.3671873 C 15.776654,9.1797127 15.64397,8.7406573 15.466797,8.3185781 15.294837,7.8965056 15.081505,7.4958456 14.826172,7.1154531 14.576052,6.7298739 14.287271,6.3734265 13.958984,6.0451406 Z m -2.126953,2.125 -0.703125,0.703125 c 0.281386,0.2813861 0.497325,0.6085431 0.648438,0.9785161 0.151112,0.3647583 0.226562,0.7471983 0.226562,1.1484373 0,0.401226 -0.07545,0.786278 -0.226562,1.15625 -0.151113,0.364759 -0.367052,0.687364 -0.648438,0.96875 l 0.703125,0.705078 c 0.375179,-0.375177 0.665915,-0.809008 0.869141,-1.298828 0.203226,-0.489825 0.304687,-0.999745 0.304687,-1.53125 0,-0.531512 -0.101461,-1.0414313 -0.304687,-1.5312503 C 12.497946,8.9791502 12.20721,8.5453194 11.832031,8.1701406 Z" />
  <path
     id="path3"
     style="opacity:0.2;fill:currentColor;stroke:none;-inkscape-stroke:none"
     class="ColorScheme-Text"
     d="m 16.076172,3.926 -0.703125,0.7031249 c 0.422058,0.4220992 0.796068,0.8819209 1.119141,1.3769532 0.328285,0.489799 0.604059,1.0049427 0.828124,1.546875 0.224067,0.5419121 0.393173,1.1058343 0.507813,1.6894536 0.11985,0.578425 0.179688,1.1637733 0.179687,1.7578123 0,0.594046 -0.05983,1.182006 -0.179687,1.765625 -0.11464,0.578431 -0.283746,1.139741 -0.507813,1.681641 -0.224065,0.541898 -0.499839,1.059656 -0.828124,1.554687 -0.323053,0.489853 -0.697063,0.947061 -1.119141,1.369141 l 0.703125,0.703125 c 0.468985,-0.468993 0.884595,-0.978251 1.24414,-1.525391 0.36476,-0.547145 0.671756,-1.119497 0.921876,-1.71875 0.250118,-0.604458 0.43744,-1.226249 0.5625,-1.867187 C 18.934956,12.316958 19,11.661998 19,11.000219 19,10.338427 18.934959,9.6880327 18.804688,9.0470937 18.679628,8.4009482 18.492306,7.7772052 18.242188,7.1779531 17.992068,6.5734943 17.685072,5.9985294 17.320312,5.4513906 16.960761,4.9042383 16.54515,4.394979 16.076172,3.926 Z" />
</svg>
