<?xml version="1.0" encoding="UTF-8" standalone="no"?>
<!-- Created with Inkscape (http://www.inkscape.org/) -->

<svg
   width="22"
   height="22"
   viewBox="0 0 22 22"
   version="1.1"
   id="svg423"
   inkscape:version="1.3.2 (091e20ef0f, 2023-11-25, custom)"
   sodipodi:docname="audio-volume-low.svg"
   xmlns:inkscape="http://www.inkscape.org/namespaces/inkscape"
   xmlns:sodipodi="http://sodipodi.sourceforge.net/DTD/sodipodi-0.dtd"
   xmlns="http://www.w3.org/2000/svg"
   xmlns:svg="http://www.w3.org/2000/svg">
  <sodipodi:namedview
     id="namedview425"
     pagecolor="#ffffff"
     bordercolor="#000000"
     borderopacity="0.25"
     inkscape:showpageshadow="2"
     inkscape:pageopacity="0.0"
     inkscape:pagecheckerboard="0"
     inkscape:deskcolor="#d1d1d1"
     inkscape:document-units="px"
     showgrid="false"
     inkscape:zoom="37.272727"
     inkscape:cx="10.986585"
     inkscape:cy="11"
     inkscape:window-width="1920"
     inkscape:window-height="1017"
     inkscape:window-x="0"
     inkscape:window-y="0"
     inkscape:window-maximized="1"
     inkscape:current-layer="svg423" />
  <defs
     id="defs420">
    <style
       id="current-color-scheme"
       type="text/css">
   .ColorScheme-Text { color:#dedede; } .ColorScheme-Highlight { color:#4285f4; } .ColorScheme-NeutralText { color:#ff9800; } .ColorScheme-PositiveText { color:#4caf50; } .ColorScheme-NegativeText { color:#f44336; }
   </style>
  </defs>
  <path
     id="path1"
     style="fill:currentColor;stroke:none;-inkscape-stroke:none"
     d="M 10,6 6.5,9 H 4 C 3.4460033,9 3,9.446004 3,10 v 3 c 0,0.553996 0.4460033,1 1,1 H 6.5 L 10,17 Z M 9,8.3496094 V 14.75 L 6.9140625,13 H 4 v -3 h 2.9140625 z"
     class="ColorScheme-Text" />
  <path
     id="path2"
     style="color:#dedede;fill:currentColor;stroke-width:1.92898;stroke-linecap:round;stroke-linejoin:round;-inkscape-stroke:none;paint-order:normal"
     d="M 11.828125 8.8730469 L 11.121094 9.5292969 C 11.68386 10.052169 11.99988 10.760461 12 11.5 C 11.99988 12.23954 11.68386 12.947831 11.121094 13.470703 L 11.828125 14.128906 C 12.57819 13.432023 12.99984 12.485622 13 11.5 C 12.99984 10.514379 12.57819 9.5699311 11.828125 8.8730469 z " />
  <path
     id="path3"
     style="opacity:0.2;fill:currentColor;stroke-width:1.92898;stroke-linecap:round;stroke-linejoin:round;-inkscape-stroke:none;paint-order:normal"
     class="ColorScheme-Text"
     d="M 16.070312 4.9296875 L 15.363281 5.5878906 C 17.051275 7.1562748 17.9997 9.2817542 18 11.5 C 17.9997 13.718247 17.051275 15.845677 15.363281 17.414062 L 16.070312 18.070312 C 17.945606 16.327963 18.999599 13.964329 19 11.5 C 18.999599 9.0356725 17.945606 6.6720371 16.070312 4.9296875 z M 13.949219 6.9003906 L 13.242188 7.5585938 C 14.367576 8.6042453 14.9998 10.021107 15 11.5 C 14.9998 12.978893 14.367576 14.397707 13.242188 15.443359 L 13.949219 16.099609 C 15.261907 14.879994 15.99972 13.224975 16 11.5 C 15.99972 9.7750257 15.261907 8.1200076 13.949219 6.9003906 z " />
</svg>
