<?xml version="1.0" encoding="UTF-8" standalone="no"?>
<!-- Created with Inkscape (http://www.inkscape.org/) -->

<svg
   width="22"
   height="22"
   viewBox="0 0 22 22"
   version="1.1"
   id="svg1"
   inkscape:version="1.3.2 (091e20ef0f, 2023-11-25, custom)"
   sodipodi:docname="network-wireless-secure-signal-excellent.svg"
   xmlns:inkscape="http://www.inkscape.org/namespaces/inkscape"
   xmlns:sodipodi="http://sodipodi.sourceforge.net/DTD/sodipodi-0.dtd"
   xmlns="http://www.w3.org/2000/svg"
   xmlns:svg="http://www.w3.org/2000/svg">
  <sodipodi:namedview
     id="namedview1"
     pagecolor="#ffffff"
     bordercolor="#000000"
     borderopacity="0.25"
     inkscape:showpageshadow="2"
     inkscape:pageopacity="0.0"
     inkscape:pagecheckerboard="0"
     inkscape:deskcolor="#d1d1d1"
     inkscape:document-units="px"
     inkscape:zoom="37.272727"
     inkscape:cx="10.986585"
     inkscape:cy="11"
     inkscape:window-width="1920"
     inkscape:window-height="1017"
     inkscape:window-x="0"
     inkscape:window-y="0"
     inkscape:window-maximized="1"
     inkscape:current-layer="svg1" />
  <defs
     id="defs1">
    <style
       id="current-color-scheme"
       type="text/css">
   .ColorScheme-Text { color:#dedede; } .ColorScheme-Highlight { color:#3daee9; } .ColorScheme-NeutralText { color:#ff9800; } .ColorScheme-PositiveText { color:#4caf50; } .ColorScheme-NegativeText { color:#f44336; }
    </style>
  </defs>
  <path
     id="path1"
     style="opacity:1;fill:currentColor;fill-opacity:1;stroke-width:9.33333"
     class="ColorScheme-Text"
     d="M 18,4 C 12.595611,4.0058574 7.6771842,7.1218752 5.3632812,12.005859 5.4088331,12.003414 5.4538181,12 5.5,12 5.8177875,12 6.1211798,12.060855 6.4003906,12.167969 8.6030544,7.7798707 13.090104,5.0071027 18,5 Z m 0,4 c -3.969428,0.00741 -7.558717,2.361949 -9.1464844,6 H 9 v 4 c 0,-4.970543 4.029457,-9 9,-9 z m 0,4 c -3.313696,0 -6,2.686304 -6,6 h 1 c 0,-2.761412 2.238588,-5 5,-5 z m -1,4 c -0.552281,0 -1,0.447719 -1,1 0,0.552281 0.447719,1 1,1 0.552281,0 1,-0.447719 1,-1 0,-0.552281 -0.447719,-1 -1,-1 z" />
  <path
     id="path3"
     style="fill:currentColor;fill-opacity:1;stroke-linejoin:round"
     class="ColorScheme-Text"
     d="M 5.5,13 C 4.671574,13 4,13.671574 4,14.5 V 15 H 3 v 4 H 8 V 15 H 7 V 14.5 C 7,13.671574 6.328426,13 5.5,13 Z m 0,1 C 5.776142,14 6,14.223858 6,14.5 V 15 H 5 V 14.5 C 5,14.223858 5.223858,14 5.5,14 Z M 4,16 h 3 v 2 H 4 Z" />
</svg>
