<?xml version="1.0" encoding="UTF-8" standalone="no"?>
<!-- Created with Inkscape (http://www.inkscape.org/) -->

<svg
   width="22"
   height="22"
   viewBox="0 0 22 22"
   version="1.1"
   id="svg5"
   inkscape:version="1.3.2 (091e20ef0f, 2023-11-25, custom)"
   sodipodi:docname="redshift-status-on.svg"
   xmlns:inkscape="http://www.inkscape.org/namespaces/inkscape"
   xmlns:sodipodi="http://sodipodi.sourceforge.net/DTD/sodipodi-0.dtd"
   xmlns="http://www.w3.org/2000/svg"
   xmlns:svg="http://www.w3.org/2000/svg">
  <sodipodi:namedview
     id="namedview7"
     pagecolor="#ffffff"
     bordercolor="#000000"
     borderopacity="0.25"
     inkscape:showpageshadow="2"
     inkscape:pageopacity="0.0"
     inkscape:pagecheckerboard="0"
     inkscape:deskcolor="#d1d1d1"
     inkscape:document-units="px"
     showgrid="false"
     inkscape:zoom="37.272727"
     inkscape:cx="10.986585"
     inkscape:cy="11"
     inkscape:window-width="1920"
     inkscape:window-height="1017"
     inkscape:window-x="0"
     inkscape:window-y="0"
     inkscape:window-maximized="1"
     inkscape:current-layer="svg5" />
  <defs
     id="defs2">
    <style
       id="current-color-scheme"
       type="text/css">
         .ColorScheme-Text { color:#dedede; }
     </style>
  </defs>
  <path
     id="path234"
     style="fill:currentColor;stroke-width:1.2;stroke-linecap:round;stroke-linejoin:round"
     class="ColorScheme-Text"
     d="M 11,3 C 7.6863146,3 5,5.6863146 5,9 c 0.00408,3.353636 3,4.347548 3,7 v 3 h 6 v -3 c 0,-2.652452 2.9959,-3.646364 3,-7 0,-3.3136854 -2.686313,-6 -6,-6 z m 0,1 c 2.761406,0 5,2.2385928 5,5 -0.0034,2.7947 -3.000613,4.394107 -3,6 H 9 C 9.000613,13.394107 6.0034,11.7947 6,9 6,6.2385928 8.238593,4 11,4 Z M 9,16 h 4 v 2 H 9 Z" />
</svg>
