<?xml version="1.0" encoding="UTF-8" standalone="no"?>
<!-- Created with Inkscape (http://www.inkscape.org/) -->

<svg
   width="64"
   height="64"
   viewBox="0 0 64 64"
   version="1.1"
   id="svg5"
   inkscape:version="1.2.1 (9c6d41e410, 2022-07-14, custom)"
   sodipodi:docname="application-vnd.ms-word.template.macroenabled.12.svg"
   xmlns:inkscape="http://www.inkscape.org/namespaces/inkscape"
   xmlns:sodipodi="http://sodipodi.sourceforge.net/DTD/sodipodi-0.dtd"
   xmlns="http://www.w3.org/2000/svg"
   xmlns:svg="http://www.w3.org/2000/svg">
  <sodipodi:namedview
     id="namedview7"
     pagecolor="#ffffff"
     bordercolor="#000000"
     borderopacity="0.25"
     inkscape:showpageshadow="2"
     inkscape:pageopacity="0.0"
     inkscape:pagecheckerboard="0"
     inkscape:deskcolor="#d1d1d1"
     inkscape:document-units="px"
     showgrid="false"
     inkscape:zoom="12.921875"
     inkscape:cx="29.91052"
     inkscape:cy="32.077388"
     inkscape:window-width="1920"
     inkscape:window-height="1029"
     inkscape:window-x="0"
     inkscape:window-y="0"
     inkscape:window-maximized="1"
     inkscape:current-layer="svg5"
     showguides="false" />
  <defs
     id="defs2" />
  <path
     id="rect1054"
     style="fill:#7d7d7b;stroke-width:3;stroke-linecap:round;stroke-linejoin:round"
     d="m 11,4 h 36.000007 l 5.999992,2 4e-6,54.000005 H 14.999998 V 55.999999 H 11 Z"
     sodipodi:nodetypes="cccccccc" />
  <path
     id="rect1308"
     style="fill:#fafafa;fill-opacity:1;stroke-width:3.99999;stroke-linecap:round;stroke-linejoin:round"
     d="M 12,17 V 55 H 48.000001 V 17 Z M 49,6 V 55.999999 H 16.000001 v 3 H 52 V 6.5 Z"
     sodipodi:nodetypes="cccccccccccc" />
  <path
     id="rect6964"
     style="fill:#4a7fe7;fill-opacity:1;stroke-width:2.78796;stroke-linecap:round;stroke-linejoin:round"
     d="M 11.000002,4.000001 47.999998,4 V 18 H 11.000002 Z"
     sodipodi:nodetypes="ccccc" />
  <path
     id="rect13579"
     style="fill:#1859bb;fill-opacity:1;stroke-width:2.82019;stroke-linecap:round;stroke-linejoin:round"
     d="m 47.999998,4 v 2 l 5.000001,2 V 6 Z M 11,17 v 1 h 36.999998 v -1 z"
     sodipodi:nodetypes="cccccccccc" />
  <path
     id="rect1305"
     style="fill:#c0c5cb;stroke-width:3;stroke-linecap:round;stroke-linejoin:round"
     d="M 33.000001,23.999999 C 32.446001,23.999999 32,24.446 32,25 c 0,0.553999 0.446001,1 1.000001,1 h 12 C 45.554001,26 46,25.553999 46,25 46,24.446 45.554001,23.999999 45.000001,23.999999 Z m 0,5 c -0.554,0 -1.000001,0.445999 -1.000001,1 0,0.554 0.446001,0.999999 1.000001,0.999999 h 12 c 0.554,0 0.999999,-0.445999 0.999999,-0.999999 0,-0.554001 -0.445999,-1 -0.999999,-1 z m 0,5 c -0.554,0 -1.000001,0.446 -1.000001,1 0,0.554 0.446001,1 1.000001,1 h 12 c 0.554,0 0.999999,-0.446 0.999999,-1 0,-0.554 -0.445999,-1 -0.999999,-1 z m 0,5.000001 C 32.446001,39 32,39.446 32,39.999999 c 0,0.553999 0.446001,0.999999 1.000001,0.999999 h 12 c 0.554,0 0.999999,-0.446 0.999999,-0.999999 C 46,39.446 45.554001,39 45.000001,39 Z m 0,4.999998 C 32.446001,43.999998 32,44.445997 32,45 c 0,0.554 0.446001,0.999999 1.000001,0.999999 h 12 C 45.554001,45.999999 46,45.554 46,45 46,44.445997 45.554001,43.999998 45.000001,43.999998 Z"
     sodipodi:nodetypes="sssssssssssssssssssssssssssssssssss" />
  <path
     id="rect1973"
     style="fill:#1859bb;fill-opacity:1;stroke-width:3;stroke-linecap:round;stroke-linejoin:round"
     d="m 7,22 h 19.999999 c 1.662002,0 3,1.338 3,3 v 20 c 0,1.661998 -1.337998,3 -3,3 H 7 C 5.338,48 4,46.661998 4,45 V 25 c 0,-1.662 1.338,-3 3,-3 z" />
  <path
     id="rect8731"
     style="fill:#ffffff;fill-opacity:1;stroke-width:1.41673;stroke-linecap:round;stroke-linejoin:round"
     d="m 9.0000001,28 2.8150119,13.921949 h 2.662823 l 1.832709,-7.726521 c 0.226677,-1.095606 0.453537,-2.134435 0.661327,-3.192253 h 0.07563 c 0.188897,1.057818 0.415277,2.096647 0.641955,3.192253 l 1.869602,7.726521 H 22.26062 L 25,28 h -2.097423 l -1.321727,7.234916 c -0.226677,1.473391 -0.453577,2.965911 -0.699141,4.477083 h -0.09408 C 20.466505,38.200827 20.164267,36.708307 19.843143,35.234916 L 18.048251,28 h -1.945236 l -1.776445,7.234916 c -0.321122,1.473391 -0.661139,2.965911 -0.944487,4.477083 h -0.07471 C 13.042918,38.200827 12.796612,36.727194 12.551046,35.234916 L 11.247766,28 Z" />
</svg>
