<?xml version="1.0" encoding="UTF-8" standalone="no"?>
<!-- Created with Inkscape (http://www.inkscape.org/) -->

<svg
   width="64"
   height="64"
   viewBox="0 0 64 64"
   version="1.1"
   id="svg5"
   inkscape:version="1.2.1 (9c6d41e410, 2022-07-14, custom)"
   sodipodi:docname="x-office-document-template.svg"
   xmlns:inkscape="http://www.inkscape.org/namespaces/inkscape"
   xmlns:sodipodi="http://sodipodi.sourceforge.net/DTD/sodipodi-0.dtd"
   xmlns="http://www.w3.org/2000/svg"
   xmlns:svg="http://www.w3.org/2000/svg">
  <sodipodi:namedview
     id="namedview7"
     pagecolor="#ffffff"
     bordercolor="#000000"
     borderopacity="0.25"
     inkscape:showpageshadow="2"
     inkscape:pageopacity="0.0"
     inkscape:pagecheckerboard="0"
     inkscape:deskcolor="#d1d1d1"
     inkscape:document-units="px"
     showgrid="false"
     inkscape:zoom="12.921875"
     inkscape:cx="32"
     inkscape:cy="32"
     inkscape:window-width="1920"
     inkscape:window-height="1029"
     inkscape:window-x="0"
     inkscape:window-y="0"
     inkscape:window-maximized="1"
     inkscape:current-layer="svg5"
     showguides="false" />
  <defs
     id="defs2" />
  <path
     id="rect1054"
     style="fill:#7d7d7b;stroke-width:3;stroke-linecap:round;stroke-linejoin:round"
     d="m 10,4 h 38.000007 l 5.999992,2 4e-6,54.000005 H 13.999998 V 55.999999 H 10 Z"
     sodipodi:nodetypes="cccccccc" />
  <path
     id="rect1308"
     style="fill:#fafafa;fill-opacity:1;stroke-width:3.99999;stroke-linecap:round;stroke-linejoin:round"
     d="M 11,17 V 55 H 49.000001 V 17 Z M 50,6 V 55.999999 H 15.000001 v 3 H 53 V 6.5 Z"
     sodipodi:nodetypes="cccccccccccc" />
  <path
     id="rect6964"
     style="fill:#69b0ec;fill-opacity:1;stroke-width:2.78796;stroke-linecap:round;stroke-linejoin:round"
     d="M 10.000002,4.000001 48.999998,4 V 18 H 10.000002 Z"
     sodipodi:nodetypes="ccccc" />
  <path
     id="rect13579"
     style="fill:#2784bd;fill-opacity:1;stroke-width:2.82019;stroke-linecap:round;stroke-linejoin:round"
     d="m 48.999998,4 v 2 l 5.000001,2 V 6 Z M 10,17 v 1 h 38.999998 v -1 z"
     sodipodi:nodetypes="cccccccccc" />
  <path
     id="rect4164"
     style="fill:#69b0ec;fill-opacity:1;stroke-width:3;stroke-linecap:round;stroke-linejoin:round"
     d="m 31,26 c -0.553999,0 -0.999999,0.446 -0.999999,1 0,0.554 0.446,1 0.999999,1 h 14 c 0.553999,0 1.000002,-0.446 1.000002,-1 0,-0.554 -0.446003,-1 -1.000002,-1 z m 0,5 c -0.553999,0 -0.999999,0.446 -0.999999,1 0,0.554 0.446,1 0.999999,1 h 14 c 0.553999,0 1.000002,-0.446 1.000002,-1 0,-0.554 -0.446003,-1 -1.000002,-1 z"
     sodipodi:nodetypes="ssssssssssssss" />
  <path
     id="path7787"
     style="font-weight:500;font-size:5.02601px;line-height:1.25;font-family:'Noto Sans CJK KR';-inkscape-font-specification:'Noto Sans CJK KR Medium';fill:#2784bd;fill-opacity:1;stroke-width:0.474898"
     d="M 20,19 15.357422,32 H 14.5 c -0.277,0 -0.5,0.223 -0.5,0.5 0,0.277 0.223,0.5 0.5,0.5 h 0.5 1 2.5 C 18.777,33 19,32.777 19,32.5 19,32.223 18.777,32 18.5,32 H 16.375 L 17.5,29 h 6 l 1.125,3 H 23.5 c -0.277,0 -0.5,0.223 -0.5,0.5 0,0.277 0.223,0.5 0.5,0.5 h 4 C 27.777,33 28,32.777 28,32.5 28,32.223 27.777,32 27.5,32 H 26.642578 L 22,19 Z M 20.5,20.667969 23.25,28 H 17.875 Z M 15,36 c -0.553998,0 -1,0.446 -1,1 0,0.553997 0.446002,1 1,1 h 30 c 0.554001,0 1,-0.446003 1,-1 0,-0.554 -0.445999,-1 -1,-1 z"
     sodipodi:nodetypes="ccsssccsssccccsssssscccccccsssssss" />
  <path
     id="rect8443"
     style="fill:#c0c5cb;fill-opacity:1;stroke-width:3;stroke-linecap:round;stroke-linejoin:round"
     d="m 15,41 c -0.554,0 -0.999999,0.445999 -0.999999,0.999998 0,0.554 0.445999,1.000003 0.999999,1.000003 H 27.000001 C 27.554001,43.000001 28,42.553998 28,41.999998 28,41.445999 27.554001,41 27.000001,41 Z m 18.000001,0 C 31.892001,41 31,41.891998 31,43.000001 v 7.999997 c 0,1.108003 0.892001,2.000001 2.000001,2.000001 h 11 c 1.107999,0 2.000001,-0.891998 2.000001,-2.000001 V 43.000001 C 46.000002,41.891998 45.108,41 44.000001,41 Z M 15,46.000001 c -0.554,0 -0.999999,0.445999 -0.999999,0.999998 0,0.554 0.445999,0.999999 0.999999,0.999999 H 27.000001 C 27.554001,47.999998 28,47.553999 28,46.999999 28,46.446 27.554001,46.000001 27.000001,46.000001 Z m 0,4.999997 c -0.553999,0 -0.999999,0.446003 -0.999999,1.000003 0,0.553999 0.446,0.999998 0.999999,0.999998 H 27.000001 C 27.554,52.999999 28,52.554 28,52.000001 c 0,-0.554 -0.446,-1.000003 -0.999999,-1.000003 z" />
  <rect
     style="fill:#88c0f0;fill-opacity:1;stroke-width:3;stroke-linecap:round;stroke-linejoin:round"
     id="rect9115"
     width="13"
     height="10"
     x="32"
     y="42"
     ry="1" />
</svg>
