<?xml version="1.0" encoding="UTF-8" standalone="no"?>
<!-- Created with Inkscape (http://www.inkscape.org/) -->

<svg
   width="64"
   height="64"
   viewBox="0 0 64 64"
   version="1.1"
   id="svg5"
   inkscape:version="1.2.1 (9c6d41e410, 2022-07-14, custom)"
   sodipodi:docname="x-office-spreadsheet.svg"
   xmlns:inkscape="http://www.inkscape.org/namespaces/inkscape"
   xmlns:sodipodi="http://sodipodi.sourceforge.net/DTD/sodipodi-0.dtd"
   xmlns="http://www.w3.org/2000/svg"
   xmlns:svg="http://www.w3.org/2000/svg">
  <sodipodi:namedview
     id="namedview7"
     pagecolor="#ffffff"
     bordercolor="#000000"
     borderopacity="0.25"
     inkscape:showpageshadow="2"
     inkscape:pageopacity="0.0"
     inkscape:pagecheckerboard="0"
     inkscape:deskcolor="#d1d1d1"
     inkscape:document-units="px"
     showgrid="false"
     inkscape:zoom="12.921875"
     inkscape:cx="31.961306"
     inkscape:cy="32"
     inkscape:window-width="1920"
     inkscape:window-height="1029"
     inkscape:window-x="0"
     inkscape:window-y="0"
     inkscape:window-maximized="1"
     inkscape:current-layer="svg5"
     showguides="false" />
  <defs
     id="defs2" />
  <path
     id="rect846"
     style="fill:#7d7d7b;stroke-width:2;stroke-linecap:round;stroke-linejoin:round"
     d="M 11,4 H 41.5 L 52.999999,15.5 V 60.000002 H 11 Z"
     sodipodi:nodetypes="cccccc" />
  <path
     id="rect1454"
     style="fill:#fafafa;stroke-width:2;stroke-linecap:round;stroke-linejoin:round"
     d="M 12,5 V 59 H 52 V 17 H 41 c -0.554003,0 -1,-0.446 -1,-1 V 5 Z m 29,0 v 11 h 11 z"
     sodipodi:nodetypes="ccccsscccccc" />
  <path
     id="rect5723"
     style="fill:#67c451;fill-opacity:1;stroke-width:3.16973;stroke-linecap:round;stroke-linejoin:round"
     d="m 27,18 v 6 h 10 v -6 z m 12,0 v 6 h 10 v -6 z m -24,8 v 6 h 10 v -6 z m 12,0 v 6 h 10 v -6 z m 12,0 v 6 h 10 v -6 z m -24,8 v 6 h 10 v -6 z m 12,0 v 6 h 10 v -6 z m 12,0 v 6 h 10 v -6 z m -24,8 v 6 h 10 v -6 z m 12,0 v 6 h 10 v -6 z m 12,0 v 6 h 10 v -6 z m -12,8 v 6 h 10 v -6 z m 12,0 v 6 h 10 v -6 z" />
  <path
     id="rect5959"
     style="fill:#c0c5cb;fill-opacity:1;stroke-width:3;stroke-linecap:round;stroke-linejoin:round"
     d="m 15,10 v 6 h 10 v -6 z m 12,0 v 6 h 10 v -6 z m -12,8 v 6 h 10 v -6 z m 0,32 v 6 h 10 v -6 z"
     sodipodi:nodetypes="cccccccccccccccccccc" />
</svg>
