<?xml version="1.0" encoding="UTF-8" standalone="no"?>
<!-- Created with Inkscape (http://www.inkscape.org/) -->

<svg
   width="16"
   height="16"
   viewBox="0 0 16 16"
   version="1.1"
   id="svg423"
   inkscape:version="1.3.2 (091e20ef0f, 2023-11-25, custom)"
   sodipodi:docname="audio-volume-low.svg"
   xmlns:inkscape="http://www.inkscape.org/namespaces/inkscape"
   xmlns:sodipodi="http://sodipodi.sourceforge.net/DTD/sodipodi-0.dtd"
   xmlns="http://www.w3.org/2000/svg"
   xmlns:svg="http://www.w3.org/2000/svg">
  <sodipodi:namedview
     id="namedview425"
     pagecolor="#ffffff"
     bordercolor="#000000"
     borderopacity="0.25"
     inkscape:showpageshadow="2"
     inkscape:pageopacity="0.0"
     inkscape:pagecheckerboard="0"
     inkscape:deskcolor="#d1d1d1"
     inkscape:document-units="px"
     showgrid="false"
     inkscape:zoom="51.25"
     inkscape:cx="7.9902439"
     inkscape:cy="8"
     inkscape:window-width="1920"
     inkscape:window-height="1017"
     inkscape:window-x="0"
     inkscape:window-y="0"
     inkscape:window-maximized="1"
     inkscape:current-layer="svg423" />
  <defs
     id="defs420">
    <style
       id="current-color-scheme"
       type="text/css">
   .ColorScheme-Text { color:#dedede; } .ColorScheme-Highlight { color:#4285f4; } .ColorScheme-NeutralText { color:#ff9800; } .ColorScheme-PositiveText { color:#4caf50; } .ColorScheme-NegativeText { color:#f44336; }
   </style>
  </defs>
  <path
     id="path1"
     style="fill:currentColor;stroke:none;-inkscape-stroke:none"
     d="M 7,3.0003125 3.5,6.000313 H 1 c -0.5539967,0 -1,0.446004 -1,1 v 3 c 0,0.553995 0.4460033,1 1,1 H 3.5 L 7,14.000312 Z M 6,5.3499219 v 6.4003911 l -2.0859375,-1.75 H 1 v -3 h 2.9140625 z"
     class="ColorScheme-Text" />
  <path
     id="path2"
     style="color:#dedede;fill:currentColor;stroke-width:1.92898;stroke-linecap:round;stroke-linejoin:round;-inkscape-stroke:none;paint-order:normal"
     d="M 8.828125,5.8733594 8.121094,6.529609 C 8.68386,7.052481 8.99988,7.760773 9,8.500313 8.99988,9.239853 8.68386,9.948144 8.121094,10.471016 l 0.707031,0.658203 C 9.57819,10.432335 9.99984,9.485934 10,8.500313 9.99984,7.514692 9.57819,6.570244 8.828125,5.8733594 Z" />
  <path
     id="path3"
     style="opacity:0.2;fill:currentColor;stroke-width:1.92898;stroke-linecap:round;stroke-linejoin:round;-inkscape-stroke:none;paint-order:normal"
     class="ColorScheme-Text"
     d="M 13.070312,1.93 12.363281,2.5882031 C 14.051275,4.1565873 14.9997,6.282067 15,8.500313 c -3e-4,2.218247 -0.948725,4.345677 -2.636719,5.914061 l 0.707031,0.65625 C 14.945606,13.328275 15.999599,10.964641 16,8.500313 15.999599,6.035985 14.945606,3.6723496 13.070312,1.93 Z M 10.949219,3.9007031 10.242188,4.5589063 C 11.367576,5.6045578 11.9998,7.02142 12,8.500313 c -2e-4,1.478892 -0.632424,2.897707 -1.757812,3.943358 l 0.707031,0.65625 C 12.261907,11.880307 12.99972,10.225288 13,8.500313 12.99972,6.775338 12.261907,5.1203201 10.949219,3.9007031 Z" />
</svg>
