<?xml version="1.0" encoding="UTF-8" standalone="no"?>
<!-- Created with Inkscape (http://www.inkscape.org/) -->

<svg
   width="16"
   height="16"
   viewBox="0 0 16 16"
   version="1.1"
   id="svg423"
   inkscape:version="1.3.2 (091e20ef0f, 2023-11-25, custom)"
   sodipodi:docname="audio-volume-muted.svg"
   xmlns:inkscape="http://www.inkscape.org/namespaces/inkscape"
   xmlns:sodipodi="http://sodipodi.sourceforge.net/DTD/sodipodi-0.dtd"
   xmlns="http://www.w3.org/2000/svg"
   xmlns:svg="http://www.w3.org/2000/svg">
  <sodipodi:namedview
     id="namedview425"
     pagecolor="#ffffff"
     bordercolor="#000000"
     borderopacity="0.25"
     inkscape:showpageshadow="2"
     inkscape:pageopacity="0.0"
     inkscape:pagecheckerboard="0"
     inkscape:deskcolor="#d1d1d1"
     inkscape:document-units="px"
     showgrid="false"
     inkscape:zoom="51.25"
     inkscape:cx="7.9902439"
     inkscape:cy="8"
     inkscape:window-width="1920"
     inkscape:window-height="1017"
     inkscape:window-x="0"
     inkscape:window-y="0"
     inkscape:window-maximized="1"
     inkscape:current-layer="svg423" />
  <defs
     id="defs420">
    <style
       id="current-color-scheme"
       type="text/css">
   .ColorScheme-Text { color:#dedede; } .ColorScheme-Highlight { color:#4285f4; } .ColorScheme-NeutralText { color:#ff9800; } .ColorScheme-PositiveText { color:#4caf50; } .ColorScheme-NegativeText { color:#f44336; }
   </style>
  </defs>
  <path
     id="path1-3"
     style="fill:currentColor;stroke:none;-inkscape-stroke:none"
     d="M 7 3 L 3.5 6 L 1 6 C 0.44600325 6 0 6.4460036 0 7 L 0 10 C 0 10.553996 0.44600325 11 1 11 L 3.5 11 L 7 14 L 7 3 z M 6 5.3496094 L 6 11.75 L 3.9140625 10 L 1 10 L 1 7 L 3.9140625 7 L 6 5.3496094 z "
     class="ColorScheme-Text" />
  <path
     d="M 8.525,6.9433594 10.585547,9.0039062 8.525,11.064453 9.2320314,11.771484 11.292578,9.7109375 13.353125,11.771484 14.060156,11.064453 11.999609,9.0039062 14.060156,6.9433594 13.353125,6.2363281 11.292578,8.296875 9.2320314,6.2363281 Z"
     style="color:#dedede;fill:currentColor;fill-opacity:1;stroke-width:2.001;stroke-linecap:round;stroke-linejoin:round;-inkscape-stroke:none;paint-order:normal"
     id="path1-5"
     sodipodi:nodetypes="ccccccccccccc" />
</svg>
