<?xml version="1.0" encoding="UTF-8" standalone="no"?>
<!-- Created with Inkscape (http://www.inkscape.org/) -->

<svg
   width="16"
   height="16"
   viewBox="0 0 16 16"
   version="1.1"
   id="svg423"
   inkscape:version="1.3.2 (091e20ef0f, 2023-11-25, custom)"
   sodipodi:docname="audio-volume-high.svg"
   xmlns:inkscape="http://www.inkscape.org/namespaces/inkscape"
   xmlns:sodipodi="http://sodipodi.sourceforge.net/DTD/sodipodi-0.dtd"
   xmlns="http://www.w3.org/2000/svg"
   xmlns:svg="http://www.w3.org/2000/svg">
  <sodipodi:namedview
     id="namedview425"
     pagecolor="#ffffff"
     bordercolor="#000000"
     borderopacity="0.25"
     inkscape:showpageshadow="2"
     inkscape:pageopacity="0.0"
     inkscape:pagecheckerboard="0"
     inkscape:deskcolor="#d1d1d1"
     inkscape:document-units="px"
     showgrid="false"
     inkscape:zoom="51.25"
     inkscape:cx="7.9902439"
     inkscape:cy="8"
     inkscape:window-width="1920"
     inkscape:window-height="1017"
     inkscape:window-x="0"
     inkscape:window-y="0"
     inkscape:window-maximized="1"
     inkscape:current-layer="svg423" />
  <defs
     id="defs420">
    <style
       id="current-color-scheme"
       type="text/css">
   .ColorScheme-Text { color:#dedede; } .ColorScheme-Highlight { color:#4285f4; } .ColorScheme-NeutralText { color:#ff9800; } .ColorScheme-PositiveText { color:#4caf50; } .ColorScheme-NegativeText { color:#f44336; }
   </style>
  </defs>
  <path
     id="path1-3"
     style="fill:currentColor;stroke:none;-inkscape-stroke:none"
     d="M 7 3 L 3.5 6 L 1 6 C 0.44600325 6 0 6.4460036 0 7 L 0 10 C 0 10.553996 0.44600325 11 1 11 L 3.5 11 L 7 14 L 7 3 z M 6 5.3496094 L 6 11.75 L 3.9140625 10 L 1 10 L 1 7 L 3.9140625 7 L 6 5.3496094 z "
     class="ColorScheme-Text" />
  <path
     id="path1"
     style="color:#dedede;fill:currentColor;stroke-width:1.92898;stroke-linecap:round;stroke-linejoin:round;-inkscape-stroke:none;paint-order:normal"
     d="M 13.070312,1.93 12.363281,2.5870501 C 14.051276,4.1554358 14.9997,6.2822524 15,8.5005002 14.9997,10.718749 14.051276,12.845563 12.363281,14.41395 L 13.070312,15.071 C 14.945607,13.328649 15.999599,10.964831 16,8.5005002 15.999599,6.0361701 14.945607,3.6723513 13.070312,1.93 Z M 10.949219,3.90115 10.242188,4.5582001 C 11.367578,5.6038527 11.9998,7.0216064 12,8.5005002 11.9998,9.9793944 11.367578,11.397147 10.242188,12.4428 l 0.707031,0.65705 C 12.261909,11.880233 12.99972,10.225477 13,8.5005002 12.99972,6.7755241 12.261909,5.1207682 10.949219,3.90115 Z M 8.828125,5.8723001 8.1210938,6.5293501 C 8.6838608,7.0522231 8.99988,7.76096 9,8.5005002 8.99988,9.2400412 8.6838612,9.9487773 8.1210938,10.47165 L 8.828125,11.1287 C 9.5781912,10.431816 9.99984,9.4861227 10,8.5005002 9.9998398,7.5148781 9.578191,6.5691852 8.828125,5.8723001 Z" />
</svg>
