<?xml version="1.0" encoding="UTF-8" standalone="no"?>
<!-- Created with Inkscape (http://www.inkscape.org/) -->

<svg
   width="16"
   height="16"
   viewBox="0 0 16 16"
   version="1.1"
   id="svg5"
   inkscape:version="1.3.2 (091e20ef0f, 2023-11-25, custom)"
   sodipodi:docname="bluetooth-paired.svg"
   xmlns:inkscape="http://www.inkscape.org/namespaces/inkscape"
   xmlns:sodipodi="http://sodipodi.sourceforge.net/DTD/sodipodi-0.dtd"
   xmlns="http://www.w3.org/2000/svg"
   xmlns:svg="http://www.w3.org/2000/svg">
  <sodipodi:namedview
     id="namedview7"
     pagecolor="#ffffff"
     bordercolor="#666666"
     borderopacity="1.0"
     inkscape:showpageshadow="2"
     inkscape:pageopacity="0.0"
     inkscape:pagecheckerboard="0"
     inkscape:deskcolor="#d1d1d1"
     inkscape:document-units="px"
     showgrid="false"
     showguides="false"
     inkscape:zoom="51.25"
     inkscape:cx="7.9902439"
     inkscape:cy="8"
     inkscape:window-width="1920"
     inkscape:window-height="1017"
     inkscape:window-x="0"
     inkscape:window-y="0"
     inkscape:window-maximized="1"
     inkscape:current-layer="svg5" />
  <defs
     id="defs2">
    <style
       id="current-color-scheme"
       type="text/css">
   .ColorScheme-Text { color:#dedede; } .ColorScheme-Highlight { color:#4285f4; } .ColorScheme-NeutralText { color:#ff9800; } .ColorScheme-PositiveText { color:#4caf50; } .ColorScheme-NegativeText { color:#f44336; }
   </style>
  </defs>
  <path
     id="path346"
     style="opacity:1;fill:currentColor;fill-opacity:1"
     class="ColorScheme-Text"
     d="M 7.46875,1 C 7.420167,1.00146 7.370776,1.010854 7.322266,1.029297 7.128226,1.1030698 7,1.288504 7,1.4960938 V 6.824219 L 3.8085938,4.1035156 C 3.591454,3.9329158 3.2780317,3.9703602 3.1074219,4.1875 2.936812,4.4046398 2.9742665,4.7200152 3.1914062,4.890625 L 6.873047,7.996094 3.1914062,11.103516 c -0.2171397,0.170599 -0.2545942,0.484072 -0.083984,0.701172 0.1706098,0.217199 0.4840321,0.256537 0.7011719,0.08594 L 7,9.167969 v 5.328125 c 0,0.2076 0.128226,0.39495 0.322266,0.46875 0.194039,0.0738 0.412861,0.01848 0.550781,-0.136719 l 4,-3.5 c 0.09159,-0.103 0.13727,-0.239553 0.125,-0.376953 -0.01227,-0.1373 -0.08104,-0.262556 -0.189453,-0.347656 l -3.31836,-2.607422 3.31836,-2.605469 c 0.10841,-0.08518 0.177183,-0.2122895 0.189453,-0.3496094 0.01227,-0.1373298 -0.03341,-0.2739032 -0.125,-0.3769531 l -4,-3.5 C 7.75587,1.0615381 7.6145,0.9956066 7.46875,1 Z M 8,2.8125 10.572266,4.9316406 8,7.111328 Z M 3,7 A 1,1 0 0 0 2,8 1,1 0 0 0 3,9 1,1 0 0 0 4,8 1,1 0 0 0 3,7 Z M 13,7 A 1,1 0 0 0 12,8 1,1 0 0 0 13,9 1,1 0 0 0 14,8 1,1 0 0 0 13,7 Z M 8,8.882813 10.572266,11.060547 8,13.181641 Z" />
</svg>
