<?xml version="1.0" encoding="UTF-8" standalone="no"?>
<!-- Created with Inkscape (http://www.inkscape.org/) -->

<svg
   width="16"
   height="16"
   viewBox="0 0 16 16"
   version="1.1"
   id="svg5"
   inkscape:version="1.3.2 (091e20ef0f, 2023-11-25, custom)"
   sodipodi:docname="input-keyboard-virtual-on.svg"
   xmlns:inkscape="http://www.inkscape.org/namespaces/inkscape"
   xmlns:sodipodi="http://sodipodi.sourceforge.net/DTD/sodipodi-0.dtd"
   xmlns="http://www.w3.org/2000/svg"
   xmlns:svg="http://www.w3.org/2000/svg">
  <sodipodi:namedview
     id="namedview7"
     pagecolor="#ffffff"
     bordercolor="#000000"
     borderopacity="0.25"
     inkscape:showpageshadow="2"
     inkscape:pageopacity="0.0"
     inkscape:pagecheckerboard="0"
     inkscape:deskcolor="#d1d1d1"
     inkscape:document-units="px"
     showgrid="false"
     inkscape:zoom="53.3125"
     inkscape:cx="8"
     inkscape:cy="7.9906213"
     inkscape:window-width="1920"
     inkscape:window-height="1017"
     inkscape:window-x="0"
     inkscape:window-y="0"
     inkscape:window-maximized="1"
     inkscape:current-layer="svg5" />
  <defs
     id="defs2">
    <style
       id="current-color-scheme"
       type="text/css">
   .ColorScheme-Text { color:#dedede; } .ColorScheme-Highlight { color:#3daee9; } .ColorScheme-NeutralText { color:#ff9800; } .ColorScheme-PositiveText { color:#4caf50; } .ColorScheme-NegativeText { color:#f44336; }
    </style>
  </defs>
  <path
     d="M 1,4 C 0.4460011,4 0,4.4460012 0,5 v 7 c 0,0.553998 0.4460011,1 1,1 h 13 c 0.553998,0 1,-0.446002 1,-1 V 5 C 15,4.4460012 14.553998,4 14,4 Z m 0,1 h 13 v 7 H 1 Z M 2,6 V 7 H 3 V 6 Z M 4,6 V 7 H 5 V 6 Z M 6,6 V 7 H 7 V 6 Z M 8,6 V 7 H 9 V 6 Z m 2,0 v 1 h 1 V 6 Z m 2,0 v 1 h 1 V 6 Z M 2,8 V 9 H 4 V 8 Z M 5,8 V 9 H 6 V 8 Z M 7,8 V 9 H 8 V 8 Z m 2,0 v 1 h 1 V 8 Z m 2,0 v 1 h 2 V 8 Z M 2,9.9999999 V 11 H 4 V 9.9999999 Z m 3,0 V 11 h 5 V 9.9999999 Z m 6,0 V 11 h 2 V 9.9999999 Z"
     style="fill:currentColor;stroke-linecap:round"
     id="path560"
     class="ColorScheme-Text" />
</svg>
