<?xml version="1.0" encoding="UTF-8" standalone="no"?>
<!-- Created with Inkscape (http://www.inkscape.org/) -->

<svg
   width="16"
   height="16"
   viewBox="0 0 16 16"
   version="1.1"
   id="svg5"
   inkscape:version="1.2.1 (9c6d41e410, 2022-07-14, custom)"
   sodipodi:docname="network-wired.svg"
   xmlns:inkscape="http://www.inkscape.org/namespaces/inkscape"
   xmlns:sodipodi="http://sodipodi.sourceforge.net/DTD/sodipodi-0.dtd"
   xmlns="http://www.w3.org/2000/svg"
   xmlns:svg="http://www.w3.org/2000/svg">
  <sodipodi:namedview
     id="namedview7"
     pagecolor="#ffffff"
     bordercolor="#000000"
     borderopacity="0.25"
     inkscape:showpageshadow="2"
     inkscape:pageopacity="0.0"
     inkscape:pagecheckerboard="0"
     inkscape:deskcolor="#d1d1d1"
     inkscape:document-units="px"
     showgrid="false"
     inkscape:zoom="53.3125"
     inkscape:cx="7.9906213"
     inkscape:cy="8"
     inkscape:window-width="1920"
     inkscape:window-height="1029"
     inkscape:window-x="0"
     inkscape:window-y="0"
     inkscape:window-maximized="1"
     inkscape:current-layer="svg5" />
  <defs
     id="defs2">
    <style
       id="current-color-scheme"
       type="text/css">
         .ColorScheme-Text { color:#dedede; }
    </style>
  </defs>
  <path
     id="rect340"
     style="fill:currentColor;stroke-width:0.968246;stroke-linecap:round"
     d="M 0 2 L 0 8 L 2 8 L 2 14 L 3 14 L 3 11 L 9 11 L 9 13 L 6 13 L 6 14 L 13 14 L 13 13 L 10 13 L 10 11 L 16 11 L 16 2 L 0 2 z M 1 3 L 4 3 L 4 4 L 1 4 L 1 3 z M 5 3 L 15 3 L 15 10 L 3 10 L 3 8 L 5 8 L 5 3 z M 1 5 L 2 5 L 2 6 L 3 6 L 3 5 L 4 5 L 4 7 L 1 7 L 1 5 z "
     class="ColorScheme-Text" />
</svg>
