<?xml version="1.0" encoding="UTF-8" standalone="no"?>
<!-- Created with Inkscape (http://www.inkscape.org/) -->

<svg
   width="16"
   height="16"
   viewBox="0 0 16 16.000001"
   version="1.1"
   id="svg1"
   inkscape:version="1.3.2 (091e20ef0f, 2023-11-25, custom)"
   sodipodi:docname="notification-disabled.svg"
   xmlns:inkscape="http://www.inkscape.org/namespaces/inkscape"
   xmlns:sodipodi="http://sodipodi.sourceforge.net/DTD/sodipodi-0.dtd"
   xmlns="http://www.w3.org/2000/svg"
   xmlns:svg="http://www.w3.org/2000/svg">
  <sodipodi:namedview
     id="namedview1"
     pagecolor="#ffffff"
     bordercolor="#000000"
     borderopacity="0.25"
     inkscape:showpageshadow="2"
     inkscape:pageopacity="0.0"
     inkscape:pagecheckerboard="0"
     inkscape:deskcolor="#d1d1d1"
     inkscape:document-units="px"
     inkscape:zoom="25.625"
     inkscape:cx="8.9756098"
     inkscape:cy="12.8"
     inkscape:window-width="1920"
     inkscape:window-height="1012"
     inkscape:window-x="0"
     inkscape:window-y="0"
     inkscape:window-maximized="1"
     inkscape:current-layer="svg1" />
  <defs
     id="defs1">
    <style
       id="current-color-scheme"
       type="text/css">
        .ColorScheme-Text { color:#dedede; } .ColorScheme-Highlight { color:#3daee9; } .ColorScheme-NeutralText { color:#ff9800; } .ColorScheme-PositiveText { color:#4caf50; } .ColorScheme-NegativeText { color:#f44336; }
     </style>
  </defs>
  <path
     id="path1"
     style="fill:currentColor;stroke-width:3;stroke-linecap:round"
     class="ColorScheme-Text"
     d="M 8 1 C 7.4085737 1.000584 6.9467164 1.5111474 7.0058594 2.0996094 C 6.2873393 2.2438885 5.6325085 2.5393826 5.0683594 2.9472656 L 5.7890625 3.6679688 C 6.4225777 3.2467819 7.1822225 3 8 3 C 10.209137 3 12 4.7908632 12 7 L 12 9.8789062 L 13 10.878906 L 13 7 C 13.004981 4.6200095 11.327635 2.5677766 8.9941406 2.0996094 C 9.0532836 1.5111474 8.5914263 1.000584 8 1 z M 3.2675781 5.3886719 C 3.0948003 5.8972552 2.9989171 6.4383615 3 7 L 3 11.5 L 1 13.5 L 1 14 L 11.878906 14 L 10.878906 13 L 3 13 L 4 11.921875 L 4 7 C 4 6.7266046 4.0278232 6.4591532 4.0800781 6.2011719 L 3.2675781 5.3886719 z M 6.2695312 15 C 6.6264299 15.618167 7.2862023 15.999268 8 16 C 8.7134403 15.9989 9.3717959 15.617858 9.7285156 15 L 6.2695312 15 z " />
  <rect
     style="opacity:1;fill:currentColor;stroke-width:2;fill-opacity:1"
     class="ColorScheme-NegativeText"
     id="rect1"
     width="1"
     height="20"
     x="-0.5"
     y="1.3137085"
     transform="rotate(-45)" />
</svg>
