<?xml version="1.0" encoding="UTF-8" standalone="no"?>
<!-- Created with Inkscape (http://www.inkscape.org/) -->

<svg
   width="16"
   height="16"
   viewBox="0 0 16 16.000001"
   version="1.1"
   id="svg5"
   inkscape:version="1.2 (1:1.2.1+202207142221+cd75a1ee6d)"
   sodipodi:docname="folder-documents.svg"
   xmlns:inkscape="http://www.inkscape.org/namespaces/inkscape"
   xmlns:sodipodi="http://sodipodi.sourceforge.net/DTD/sodipodi-0.dtd"
   xmlns:xlink="http://www.w3.org/1999/xlink"
   xmlns="http://www.w3.org/2000/svg"
   xmlns:svg="http://www.w3.org/2000/svg">
  <sodipodi:namedview
     id="namedview7"
     pagecolor="#ffffff"
     bordercolor="#000000"
     borderopacity="0.25"
     inkscape:showpageshadow="2"
     inkscape:pageopacity="0.0"
     inkscape:pagecheckerboard="0"
     inkscape:deskcolor="#d1d1d1"
     inkscape:document-units="px"
     showgrid="false"
     inkscape:zoom="52.125"
     inkscape:cx="7.9904077"
     inkscape:cy="8"
     inkscape:window-width="1920"
     inkscape:window-height="1012"
     inkscape:window-x="0"
     inkscape:window-y="0"
     inkscape:window-maximized="1"
     inkscape:current-layer="svg5" />
  <defs
     id="defs2">
    <linearGradient
       inkscape:collect="always"
       xlink:href="#linearGradient1758"
       id="linearGradient1760"
       x1="34"
       y1="32"
       x2="58"
       y2="64"
       gradientUnits="userSpaceOnUse"
       gradientTransform="matrix(0.5,0,0,0.5,-15,-16)" />
    <linearGradient
       inkscape:collect="always"
       id="linearGradient1758">
      <stop
         style="stop-color:#f5f5f5;stop-opacity:1;"
         offset="0"
         id="stop1754" />
      <stop
         style="stop-color:#e0e0e0;stop-opacity:1;"
         offset="1"
         id="stop1756" />
    </linearGradient>
    <linearGradient
       inkscape:collect="always"
       xlink:href="#linearGradient1866"
       id="linearGradient1868"
       x1="48"
       y1="42"
       x2="53"
       y2="37"
       gradientUnits="userSpaceOnUse"
       gradientTransform="matrix(0.5,0,0,0.5,-15,-16)" />
    <linearGradient
       inkscape:collect="always"
       id="linearGradient1866">
      <stop
         style="stop-color:#a4a4a4;stop-opacity:1;"
         offset="0"
         id="stop1862" />
      <stop
         style="stop-color:#b9b9b9;stop-opacity:1;"
         offset="1"
         id="stop1864" />
    </linearGradient>
  </defs>
  <path
     id="rect547"
     style="fill:url(#linearGradient1760);stroke-width:0.445941"
     d="m 3,0 h 6 l 2,4 3,1 v 10 c 0,0.554 -0.446,1 -1,1 H 3 C 2.446,16 2,15.554 2,15 V 1 C 2,0.446 2.446,0 3,0 Z"
     sodipodi:nodetypes="scccssssss" />
  <path
     id="rect9178"
     style="opacity:0.2;fill:#000000;fill-opacity:1;stroke:none;stroke-width:0.499999;stroke-linecap:round;stroke-linejoin:round;stroke-miterlimit:4;stroke-dasharray:none;stroke-opacity:1"
     d="M 4.5,7 C 4.223,7 4,7.222999 4,7.5 4,7.777 4.223,8 4.5,8 h 3 C 7.777,8 8,7.777 8,7.5 8,7.222999 7.777,7 7.5,7 Z m 5,0 C 9.223,7 9,7.222999 9,7.5 v 2 C 9,9.777 9.223,10 9.5,10 h 2 C 11.777,10 12,9.777 12,9.5 v -2 C 12,7.222999 11.777,7 11.5,7 Z m -5,2 C 4.223,9 4,9.223 4,9.5 4,9.777 4.223,10 4.5,10 h 3 C 7.777,10 8,9.777 8,9.5 8,9.223 7.777,9 7.5,9 Z m 0,2 C 4.223,11 4,11.222999 4,11.5 4,11.777 4.223,12 4.5,12 h 7 C 11.777,12 12,11.777 12,11.5 12,11.222999 11.777,11 11.5,11 Z m 0,2 C 4.223,13 4,13.223 4,13.5 4,13.777 4.223,14 4.5,14 h 7 C 11.777,14 12,13.777 12,13.5 12,13.223 11.777,13 11.5,13 Z" />
  <path
     id="rect1762"
     style="fill:url(#linearGradient1868);fill-opacity:1;stroke-width:0.5"
     d="M 14,5 H 10 C 9.446,5 9,4.554 9,4 V 0 Z"
     sodipodi:nodetypes="csscc" />
</svg>
