<?xml version="1.0" encoding="UTF-8" standalone="no"?>
<!-- Created with Inkscape (http://www.inkscape.org/) -->

<svg
   width="16"
   height="16"
   viewBox="0 0 16 16.000001"
   version="1.1"
   id="svg5"
   inkscape:version="1.2 (1:1.2.1+202207142221+cd75a1ee6d)"
   sodipodi:docname="folder-download.svg"
   xmlns:inkscape="http://www.inkscape.org/namespaces/inkscape"
   xmlns:sodipodi="http://sodipodi.sourceforge.net/DTD/sodipodi-0.dtd"
   xmlns:xlink="http://www.w3.org/1999/xlink"
   xmlns="http://www.w3.org/2000/svg"
   xmlns:svg="http://www.w3.org/2000/svg">
  <sodipodi:namedview
     id="namedview7"
     pagecolor="#ffffff"
     bordercolor="#000000"
     borderopacity="0.25"
     inkscape:showpageshadow="2"
     inkscape:pageopacity="0.0"
     inkscape:pagecheckerboard="0"
     inkscape:deskcolor="#d1d1d1"
     inkscape:document-units="px"
     showgrid="false"
     inkscape:zoom="52.125"
     inkscape:cx="7.9904077"
     inkscape:cy="8"
     inkscape:window-width="1920"
     inkscape:window-height="1012"
     inkscape:window-x="0"
     inkscape:window-y="0"
     inkscape:window-maximized="1"
     inkscape:current-layer="svg5" />
  <defs
     id="defs2">
    <linearGradient
       inkscape:collect="always"
       xlink:href="#linearGradient8250"
       id="linearGradient1721"
       x1="2"
       y1="1.2283465e-07"
       x2="14"
       y2="16"
       gradientUnits="userSpaceOnUse" />
    <linearGradient
       inkscape:collect="always"
       id="linearGradient8250">
      <stop
         style="stop-color:#3d9ff9;stop-opacity:1;"
         offset="0"
         id="stop8246" />
      <stop
         style="stop-color:#1467c3;stop-opacity:1;"
         offset="1"
         id="stop8248" />
    </linearGradient>
  </defs>
  <path
     id="rect860"
     style="fill:url(#linearGradient1721);fill-opacity:1;stroke-width:3;stroke-linecap:round;stroke-linejoin:round"
     d="M 8,0 C 7.446,0 7,0.446 7,1 V 9.585937 L 4.464844,7.048828 c -0.391738,-0.391737 -1.022326,-0.391737 -1.414063,0 -0.391737,0.391737 -0.391737,1.024279 0,1.416016 l 4.208985,4.208984 c 0.02149,0.02365 0.04275,0.04491 0.06641,0.06641 10e-4,9.44e-4 0.0029,10e-4 0.0039,0.002 0.01083,0.0098 0.02194,0.02001 0.0332,0.0293 0.0018,0.0015 0.0041,0.0024 0.0059,0.0039 0.02639,0.02145 0.0535,0.04184 0.08203,0.06055 0.0098,0.0064 0.01927,0.01345 0.0293,0.01953 0.0038,0.0023 0.0079,0.0036 0.01172,0.0059 0.01015,0.006 0.02087,0.01195 0.03125,0.01758 0.0039,0.0021 0.0078,0.0038 0.01172,0.0059 0.01046,0.0055 0.02057,0.01245 0.03125,0.01758 0.0043,0.0021 0.0093,0.0038 0.01367,0.0059 0.01007,0.0046 0.01905,0.0094 0.0293,0.01367 0.0051,0.0022 0.01051,0.0038 0.01563,0.0059 0.01006,0.004 0.02103,0.008 0.03125,0.01172 0.0045,0.0017 0.0091,0.0023 0.01367,0.0039 0.01083,0.0038 0.02025,0.0083 0.03125,0.01172 0.005,0.0016 0.0106,0.0024 0.01563,0.0039 0.01077,0.0032 0.02228,0.007 0.0332,0.0098 0.01624,0.0042 0.03244,0.0083 0.04883,0.01172 0.0163,0.0033 0.03224,0.0053 0.04883,0.0078 0.0033,5.15e-4 0.0065,0.0015 0.0098,0.002 0.04753,0.0066 0.09464,0.0095 0.142569,0.0095 0.04793,0 0.097,-0.0029 0.144531,-0.0098 0.01858,-0.0027 0.03646,-0.0061 0.05469,-0.0098 6.28e-4,-1.28e-4 0.0013,1.28e-4 0.002,0 0.0163,-0.0033 0.03283,-0.0076 0.04883,-0.01172 0.03694,-0.0095 0.07349,-0.02132 0.109375,-0.03516 0.01014,-0.0039 0.02127,-0.0075 0.03125,-0.01172 0.0013,-5.66e-4 0.0026,-0.0014 0.0039,-0.002 0.01161,-0.005 0.02183,-0.01025 0.0332,-0.01563 0.04548,-0.02156 0.09029,-0.04539 0.132813,-0.07422 0.01089,-0.0073 0.02068,-0.01568 0.03125,-0.02344 0.01339,-0.0098 0.02619,-0.02079 0.03906,-0.03125 0.02623,-0.02142 0.05169,-0.04388 0.07617,-0.06836 0.0113,-0.0113 0.02246,-0.02138 0.0332,-0.0332 L 12.95128,8.464852 c 0.391737,-0.391737 0.391737,-1.024279 0,-1.416016 -0.391738,-0.391737 -1.024279,-0.391737 -1.416016,0 L 9.000108,9.585945 V 1.000008 c 0,-0.554 -0.446,-1 -1,-1 z M 3,14 c -0.554,0 -1,0.446 -1,1 0,0.554 0.446,1 1,1 h 10 c 0.554,0 1,-0.446 1,-1 0,-0.554 -0.446,-1 -1,-1 z" />
</svg>
