<?xml version="1.0" encoding="UTF-8" standalone="no"?>
<!-- Created with Inkscape (http://www.inkscape.org/) -->

<svg
   width="16"
   height="16"
   viewBox="0 0 16 16"
   version="1.1"
   id="svg5"
   inkscape:version="1.2.1 (9c6d41e410, 2022-07-14, custom)"
   sodipodi:docname="network-workgroup.svg"
   xmlns:inkscape="http://www.inkscape.org/namespaces/inkscape"
   xmlns:sodipodi="http://sodipodi.sourceforge.net/DTD/sodipodi-0.dtd"
   xmlns:xlink="http://www.w3.org/1999/xlink"
   xmlns="http://www.w3.org/2000/svg"
   xmlns:svg="http://www.w3.org/2000/svg">
  <sodipodi:namedview
     id="namedview7"
     pagecolor="#ffffff"
     bordercolor="#666666"
     borderopacity="1.0"
     inkscape:pageshadow="2"
     inkscape:pageopacity="0.0"
     inkscape:pagecheckerboard="0"
     inkscape:document-units="px"
     showgrid="false"
     units="px"
     height="32px"
     inkscape:lockguides="false"
     inkscape:zoom="53.3125"
     inkscape:cx="8"
     inkscape:cy="8"
     inkscape:window-width="1920"
     inkscape:window-height="1029"
     inkscape:window-x="0"
     inkscape:window-y="0"
     inkscape:window-maximized="1"
     inkscape:current-layer="svg5"
     showguides="false"
     inkscape:showpageshadow="2"
     inkscape:deskcolor="#d1d1d1" />
  <defs
     id="defs2">
    <linearGradient
       inkscape:collect="always"
       id="linearGradient2986">
      <stop
         style="stop-color:#818990;stop-opacity:1;"
         offset="0"
         id="stop2982" />
      <stop
         style="stop-color:#9fa8b0;stop-opacity:1"
         offset="1"
         id="stop2984" />
    </linearGradient>
    <linearGradient
       inkscape:collect="always"
       xlink:href="#linearGradient2986"
       id="linearGradient1165"
       x1="2.6458335"
       y1="3.8364599"
       x2="1.0583335"
       y2="3.8364599"
       gradientUnits="userSpaceOnUse"
       gradientTransform="matrix(3.7795275,0,0,3.7795275,1.9999997,0)" />
    <radialGradient
       id="radialGradient875"
       cx="20.107"
       cy="28.705"
       r="28"
       gradientTransform="matrix(0.15787661,0.08915274,-0.07024384,0.12439068,1.2840102,-1.9594251)"
       gradientUnits="userSpaceOnUse">
      <stop
         stop-color="#5ab5e2"
         offset="0"
         id="stop2" />
      <stop
         stop-color="#4189ac"
         offset=".45901"
         id="stop4" />
      <stop
         stop-color="#295e76"
         offset="1"
         id="stop6" />
    </radialGradient>
    <linearGradient
       id="linearGradient883"
       x1="4"
       x2="59.861"
       y1="31.360001"
       y2="31.360001"
       gradientTransform="matrix(0.14285027,0,0,0.14285027,-0.57128295,-0.57141406)"
       gradientUnits="userSpaceOnUse">
      <stop
         stop-color="#b0d6df"
         offset="0"
         id="stop9" />
      <stop
         stop-color="#e1f8fc"
         offset=".21709"
         id="stop11" />
      <stop
         stop-color="#96c3ce"
         offset="1"
         id="stop13" />
    </linearGradient>
    <linearGradient
       inkscape:collect="always"
       xlink:href="#linearGradient3238"
       id="linearGradient3240"
       x1="17.902164"
       y1="29.999403"
       x2="60"
       y2="51"
       gradientUnits="userSpaceOnUse"
       gradientTransform="matrix(0.22222223,0,0,0.22222222,1.8888918,-0.11111088)" />
    <linearGradient
       inkscape:collect="always"
       id="linearGradient3238">
      <stop
         style="stop-color:#0082e5;stop-opacity:1;"
         offset="0"
         id="stop3234" />
      <stop
         style="stop-color:#42b7ff;stop-opacity:1;"
         offset="1"
         id="stop3236" />
    </linearGradient>
    <linearGradient
       inkscape:collect="always"
       xlink:href="#linearGradient1116"
       id="linearGradient1908"
       x1="4"
       y1="32"
       x2="60"
       y2="32"
       gradientUnits="userSpaceOnUse"
       gradientTransform="matrix(0.24999999,0,0,0.2631579,1.0000003,-1.4210523)" />
    <linearGradient
       inkscape:collect="always"
       id="linearGradient1116">
      <stop
         style="stop-color:#555a5f;stop-opacity:1;"
         offset="0"
         id="stop1112" />
      <stop
         style="stop-color:#4b4f53;stop-opacity:1"
         offset="1"
         id="stop1114" />
    </linearGradient>
  </defs>
  <rect
     style="fill:#bcc5cf;fill-opacity:1;stroke-width:0.795742;stroke-linecap:round;stroke-linejoin:round"
     id="rect2848"
     width="2"
     height="2"
     x="7.9999995"
     y="12" />
  <rect
     style="fill:url(#linearGradient1908);fill-opacity:1;stroke-width:0.256494;stroke-linecap:round"
     id="rect1537"
     width="14"
     height="10"
     x="2"
     y="2" />
  <rect
     style="fill:url(#linearGradient3240);fill-opacity:1;stroke-width:0.222222;stroke-linecap:round"
     id="rect1910"
     width="12"
     height="8"
     x="3.0000033"
     y="3.0000002" />
  <path
     d="M 3.0000022,3 H 10.000003 L 6.0000025,11 H 3.0000022 Z"
     style="color:#000000;opacity:0.15;fill:#ffffff;stroke-width:0.188561"
     id="path3898"
     sodipodi:nodetypes="ccccc" />
  <rect
     style="fill:url(#linearGradient1165);fill-opacity:1;stroke-width:1.63664;stroke-linecap:round;stroke-linejoin:round"
     id="rect1839"
     width="6"
     height="1"
     x="6"
     y="14.000005" />
  <rect
     x="0.0001706831"
     y="0"
     width="7.9998293"
     height="7.9998293"
     rx="3.9999146"
     ry="3.9999146"
     fill="url(#radialGradient875)"
     id="rect30"
     style="fill:url(#radialGradient875);stroke-width:0.142851" />
  <path
     d="M 4.0207517,0.19999608 C 3.7122667,0.22187198 3.4104847,0.27850291 3.1161846,0.37389856 3.0111894,0.37799557 2.7830042,0.51323009 2.9671087,0.57669403 3.0527868,0.6682236 3.2573311,0.69735166 3.2324883,0.84691512 3.2655213,0.97837881 2.926921,0.97241396 3.0396265,1.0914831 3.1195409,1.1966514 3.1994514,1.3018255 3.2793657,1.4069969 3.4269223,1.3596016 3.4756139,1.208481 3.5574785,1.0921634 3.7853538,0.99164911 4.1078664,0.96128892 4.2584632,0.76786366 4.3056544,0.63104023 4.3528418,0.49422927 4.4000329,0.35740595 4.273604,0.30493553 4.1471712,0.2524651 4.0207479,0.19998221 Z m -1.0968566,0.0351496 c -0.141343,-0.0152466 -0.2317568,0.071616 -0.3372586,0.12856441 -0.129866,0.0159043 -0.2765941,0.0642414 -0.3584322,0.16869014 0.1456766,0.06611 0.2374216,-0.004324 0.3631653,-0.054274 C 2.7081193,0.41831293 3.1052123,0.39335746 2.9238963,0.2351317 Z M 2.0118081,0.65467002 C 1.9391421,0.76559009 2.0628502,0.92613194 1.8966217,0.98434309 1.8145689,1.0882151 1.7428637,1.2587107 1.9479511,1.1968455 1.9981213,1.0429292 2.1539731,0.82702631 2.3313426,0.91717106 2.5099922,0.96517106 2.6753352,1.2653767 2.8211989,1.0275937 2.82114,0.96575008 2.5943101,0.92957396 2.5993785,0.77827872 2.4984432,0.73497591 2.2826786,0.81366643 2.290212,0.65629976 2.1443895,0.5915504 2.1023891,0.91418788 2.0507105,0.73385566 2.0377429,0.70746322 2.0247754,0.68107229 2.0118081,0.65467002 Z M 5.9702565,0.79451103 C 5.7976606,0.82902568 5.627185,0.86844917 5.4909735,0.98707985 5.5305112,1.1451571 5.3265792,1.1717563 5.2358743,1.2595006 c -0.065813,0.037138 0.0012,0.3240068 0.058855,0.2794745 C 5.4173332,1.3772182 5.4807537,1.5167515 5.5947215,1.5966288 5.6973017,1.6919047 5.7624381,1.4196993 5.7079524,1.3429673 5.6759776,1.2192997 5.8315127,1.1278128 5.8874837,1.0265347 6.0585981,0.91677119 5.914016,1.1665723 5.9085357,1.2537837 5.8221622,1.5115108 6.2916608,1.261562 5.9821836,1.4541527 5.89917,1.5370536 5.8687751,1.6598679 5.741216,1.7211329 5.6723417,1.8051998 5.4094756,1.7657967 5.4448746,1.6346573 5.3488822,1.4842068 5.372576,1.8157333 5.3399625,1.8141459 5.1808746,1.7667404 5.1335285,1.9443144 5.0337565,2.0292743 4.9574025,2.1169911 4.6878579,2.0625644 4.8890951,2.1984449 5.0358655,2.3678013 4.8598416,2.3364815 4.7384318,2.3815868 4.5668488,2.4111314 4.5955279,2.5605701 4.5999688,2.6955004 4.6026058,2.7698595 4.7672847,2.8801768 4.8506838,2.8283145 5.0172664,2.8104751 4.9752343,2.6060393 5.0983071,2.5436945 5.200566,2.4561606 5.2723279,2.3754311 5.4258749,2.3733383 5.4967638,2.4409919 5.6400456,2.5426948 5.6981483,2.5979999 5.5377905,2.7727157 5.7718,2.7584771 5.7941861,2.5992958 5.8732841,2.5116426 5.5336444,2.3053813 5.7576381,2.3960068 5.9058863,2.4449139 5.8717949,2.5963629 5.9377552,2.6986003 6.055,2.8967964 6.0675556,2.7488997 6.0784708,2.5955806 6.2732639,2.5343859 6.3260639,2.9347886 6.5886178,2.840884 6.7853876,2.8925879 6.6921429,3.0198261 6.567906,3.1019843 6.4544408,3.1847458 6.2852465,3.1280177 6.1607149,3.0830867 6.0375174,3.0198386 5.8890424,3.0561009 5.8241895,3.1818941 5.6802198,3.0576444 5.578301,2.8602613 5.3691461,2.8493286 5.1711102,2.839071 4.9711808,2.8917239 4.7800652,2.945566 4.5683096,3.1940808 4.3392079,3.4361152 4.2405433,3.7537489 4.1381257,3.8796086 4.3575008,3.9550106 4.190748,4.0695548 4.0746561,4.1779479 4.230286,4.3118301 4.254312,4.4333722 4.3792443,4.5815296 4.5707832,5.0688653 4.7637277,4.8803633 4.8723097,4.7088067 4.9443097,4.99274 5.071986,4.8145543 c 0.107467,-0.098094 0.194502,0.098559 0.3452069,0.028611 0.1340107,0.066799 0.145663,0.1977411 0.07485,0.3230475 C 5.4465675,5.2934316 5.6890506,5.345744 5.6200591,5.4942606 5.5875174,5.6394965 5.6512402,5.7627884 5.7233952,5.8841585 5.5630261,6.0515538 5.5823583,6.2995225 5.6223911,6.5092788 5.7008541,6.7968441 5.813227,7.0852394 5.8020018,7.3880325 5.9425171,7.4248829 6.0461706,7.3318272 6.1623684,7.2829616 6.3841511,7.3143317 6.5048049,7.077688 6.64252,6.9419576 6.539063,6.8028823 6.7275102,6.7428672 6.80541,6.6528955 6.688891,6.5521106 6.6116828,6.4542624 6.7920683,6.3756634 6.8752822,6.2911418 7.0311688,6.2433648 7.0585023,6.12547 6.9868425,5.9119267 7.0276614,5.6850394 7.0171127,5.4642576 7.1054629,5.2861927 7.199267,5.1119187 7.3460148,4.9744278 7.404537,4.7813393 7.5451958,4.6043553 7.5315555,4.397094 7.1895083,4.4994209 7.2927877,4.3536294 7.4823423,4.215019 7.613885,4.1185428 7.8009225,4.028556 7.8409212,3.8640672 7.8696456,3.7017237 7.7427593,3.4496628 7.6323782,3.6881778 7.5787618,3.6121655 7.3898762,3.5416743 7.3924916,3.4223561 7.3520431,3.1817351 7.4575599,3.3262586 7.5513678,3.4398931 7.7695637,3.2781494 8.0543171,3.8862973 7.9622255,3.452358 7.8374746,2.513236 7.3612791,1.6260017 6.6479746,1.002682 6.5827475,1.0721391 6.4738971,1.3311014 6.3949125,1.1816245 6.2830914,1.0630017 6.1953308,0.95590884 6.4231078,0.99994789 6.6463305,0.9393666 6.4239646,0.90414291 6.3069516,0.8903295 6.189601,0.87663249 6.0807847,0.83364717 5.9702637,0.79448068 Z m -4.3691061,0.005828 C 1.4534733,0.85721868 1.6746917,1.0740959 1.4099274,1.0046444 1.1196537,1.1361765 0.92628479,1.455381 0.72452903,1.7039487 0.25391259,2.3690288 -0.00194874,3.1817839 1.1176545e-5,3.9964338 0.07723147,4.1558157 0.26741881,4.209829 0.4097091,4.2978145 0.55431987,4.3472809 0.73643564,4.3398126 0.80840737,4.4995694 0.88890299,4.5838642 0.99691017,4.6968986 1.1119076,4.706045 1.2886236,4.6494164 1.3135431,4.8096457 1.2243897,4.9281716 1.2147293,5.0579984 1.0702338,5.162714 1.0863395,5.2768973 1.1185335,5.4048381 0.92538375,5.5457578 1.0554985,5.6628086 1.1923881,5.9075368 1.3388924,6.1451984 1.5240216,6.356567 1.6391694,6.4574501 1.6255162,6.5963477 1.6123718,6.7350927 1.5666765,6.8817308 1.7052726,6.9665547 1.779662,7.0729144 1.5983853,7.4052785 2.0893882,7.4717052 2.2948904,7.6170356 2.398206,7.5225587 2.4064182,7.3696391 2.5778178,7.3653758 2.6817549,7.2925594 2.7039445,7.1281802 2.7753322,7.0188914 2.7730493,6.9028032 2.698706,6.7943232 2.8193939,6.6678866 2.9103331,6.591132 3.0979867,6.6422992 3.1318399,6.4820775 3.25537,6.3548359 3.1554241,6.1784832 3.1554241,6.0241016 3.2513788,5.8926572 3.4169259,5.7917589 3.3985536,5.6101364 3.419341,5.3392501 2.93163,5.3514239 2.7597806,5.1871857 2.5485465,5.1811384 2.5912628,4.8932858 2.4268276,4.8550484 2.2635777,4.8632499 2.2042191,4.7353507 2.1463534,4.6054937 2.0564385,4.5441671 1.8872124,4.668797 1.7931207,4.5919252 1.6865501,4.5357841 1.5909518,4.3263567 1.4709942,4.4572342 1.3131176,4.5717047 1.1578543,4.6879895 1.0080843,4.4963372 0.91095498,4.4088147 1.0329914,4.1603599 0.8954695,4.1760109 0.60188904,4.2822043 0.98851542,3.7495809 0.7136867,3.820244 0.64859568,3.9222685 0.52374428,4.0796934 0.40234661,3.9589602 0.28043418,3.9015983 0.3405725,3.7150858 0.34600898,3.6033811 0.3512852,3.4727255 0.51663197,3.4075853 0.61165647,3.3479863 0.79595946,3.4304118 0.75813281,3.1847761 0.9121701,3.2668879 1.061593,3.2350643 1.1290587,3.4747634 1.1897242,3.4836971 1.2253765,3.365611 1.1610149,3.1930234 1.2706031,3.1152245 1.3986505,3.007443 1.5676502,2.9307892 1.5992493,2.7496989 1.6018798,2.5562498 1.8366176,2.7192812 1.8948964,2.587542 1.9486246,2.4365986 2.1053318,2.4460263 2.2377026,2.4175468 2.3101062,2.350368 2.4920837,2.1434456 2.2672698,2.2041112 2.1853856,2.1930448 1.8557451,2.2369175 2.0795804,2.1580448 2.1898398,2.0745823 2.323482,2.0861476 2.4472528,2.0697551 2.5447283,1.987231 2.7151268,1.9595845 2.7226197,1.8093343 2.6417151,1.6993024 2.4703449,1.7202451 2.5430922,1.5624317 2.5360622,1.3559962 2.3542432,1.4885253 2.2945107,1.4728237 2.3915191,1.3378265 2.1683698,1.2528283 2.093475,1.2509355 2.0425724,1.3781544 1.8994658,1.4879161 1.9499709,1.6343405 1.8007612,1.6585749 1.7308554,1.7665711 1.6860166,1.9010281 1.6412806,1.9166111 1.6558258,1.6373263 1.4846075,1.6630596 1.3636672,1.6601418 1.21416,1.479677 1.3414904,1.408612 1.51606,1.2981606 1.7331086,1.2117092 1.843493,1.0352865 1.9069724,0.87727622 1.7899053,0.78029165 1.6340172,0.80273109 l -0.021736,-0.001512 z m 2.9371369,0.1819302 C 4.4419396,1.057223 4.2474413,1.0054529 4.206373,1.0777182 4.189101,1.2234753 4.4154224,1.2211959 4.505806,1.1407282 4.6535364,1.0861082 4.6469487,1.0960762 4.538272,0.98226508 Z M 2.3980665,1.0569746 C 2.193311,1.1172203 2.3606379,1.2513297 2.4943001,1.2495435 2.6537761,1.236678 2.5054044,1.0581214 2.3980665,1.0569746 Z M 4.8397477,1.4593129 C 4.8250831,1.5897418 4.9503896,1.6711876 4.8986441,1.8132785 4.817165,1.9922747 4.9325842,2.0460207 5.0718258,1.935999 5.2577937,1.8222118 4.9324671,1.5729508 4.8891235,1.4593133 H 4.8397401 Z M 4.7784211,1.6690642 C 4.6113017,1.6279849 4.6641735,1.9777382 4.7790054,1.8573266 4.902664,1.835738 4.7839188,1.7404568 4.7784211,1.6690642 Z M 2.645666,1.9842972 C 2.6701951,2.1169352 2.6790392,2.3272103 2.7761277,2.101345 2.7759943,2.0574488 2.6801882,2.0231088 2.645666,1.9842972 Z M 6.6811796,3.3480015 C 6.8776017,3.5192647 6.957172,3.7672999 7.067891,3.9948687 7.2326331,4.081367 7.1351137,4.2136505 7.1580592,4.3248064 7.3874387,4.5256353 6.9257695,4.4186747 6.9817972,4.1995755 6.9443799,3.9451037 6.7809229,3.7752383 6.6474299,3.5912023 6.6369229,3.4937876 6.532434,3.3826737 6.6811811,3.3480082 Z"
     fill="url(#linearGradient883)"
     id="path32"
     style="fill:url(#linearGradient883);stroke-width:0.142851" />
</svg>
