<?xml version="1.0" encoding="UTF-8" standalone="no"?>
<!-- Created with Inkscape (http://www.inkscape.org/) -->

<svg
   width="24"
   height="24"
   viewBox="0 0 24 24"
   version="1.1"
   id="svg2112"
   inkscape:version="1.2.1 (9c6d41e410, 2022-07-14, custom)"
   sodipodi:docname="applets-screenshooter.svg"
   xmlns:inkscape="http://www.inkscape.org/namespaces/inkscape"
   xmlns:sodipodi="http://sodipodi.sourceforge.net/DTD/sodipodi-0.dtd"
   xmlns:xlink="http://www.w3.org/1999/xlink"
   xmlns="http://www.w3.org/2000/svg"
   xmlns:svg="http://www.w3.org/2000/svg">
  <sodipodi:namedview
     id="namedview2114"
     pagecolor="#ffffff"
     bordercolor="#000000"
     borderopacity="0.25"
     inkscape:showpageshadow="2"
     inkscape:pageopacity="0.0"
     inkscape:pagecheckerboard="0"
     inkscape:deskcolor="#d1d1d1"
     inkscape:document-units="px"
     showgrid="false"
     inkscape:zoom="33.75"
     inkscape:cx="12"
     inkscape:cy="12"
     inkscape:window-width="1920"
     inkscape:window-height="1012"
     inkscape:window-x="0"
     inkscape:window-y="0"
     inkscape:window-maximized="1"
     inkscape:current-layer="svg2112" />
  <defs
     id="defs2109">
    <linearGradient
       inkscape:collect="always"
       xlink:href="#linearGradient7072"
       id="linearGradient6150"
       x1="11"
       y1="2.9999037"
       x2="11"
       y2="15"
       gradientUnits="userSpaceOnUse"
       gradientTransform="matrix(-1,0,0,1,23.000639,0.99999991)" />
    <linearGradient
       inkscape:collect="always"
       xlink:href="#linearGradient4525"
       id="linearGradient6148"
       x1="5"
       y1="12"
       x2="17"
       y2="12"
       gradientUnits="userSpaceOnUse"
       gradientTransform="matrix(-0.70710678,0.70710678,0.70710678,0.70710678,12.829066,-5.2132038)" />
    <linearGradient
       inkscape:collect="always"
       xlink:href="#linearGradient9982"
       id="linearGradient7609"
       x1="15"
       y1="10.499983"
       x2="21"
       y2="10.499983"
       gradientUnits="userSpaceOnUse"
       gradientTransform="matrix(-0.70710678,0.70710678,0.70710678,0.70710678,11.41485,-3.7989881)" />
    <linearGradient
       inkscape:collect="always"
       id="linearGradient7072">
      <stop
         style="stop-color:#cecece;stop-opacity:1;"
         offset="0"
         id="stop7068" />
      <stop
         style="stop-color:#b3b3b3;stop-opacity:1;"
         offset="1"
         id="stop7070" />
    </linearGradient>
    <linearGradient
       inkscape:collect="always"
       id="linearGradient4525">
      <stop
         style="stop-color:#a2a2a2;stop-opacity:1;"
         offset="0"
         id="stop4521" />
      <stop
         style="stop-color:#b3b3b3;stop-opacity:1;"
         offset="1"
         id="stop4523" />
    </linearGradient>
    <linearGradient
       inkscape:collect="always"
       id="linearGradient9982">
      <stop
         style="stop-color:#0e69b4;stop-opacity:1;"
         offset="0"
         id="stop9978" />
      <stop
         style="stop-color:#1299e4;stop-opacity:1;"
         offset="1"
         id="stop9980" />
    </linearGradient>
    <linearGradient
       inkscape:collect="always"
       xlink:href="#linearGradient1452"
       id="linearGradient3863"
       x1="11"
       y1="16"
       x2="11"
       y2="22.000002"
       gradientUnits="userSpaceOnUse"
       gradientTransform="translate(-0.99956925)" />
    <linearGradient
       inkscape:collect="always"
       id="linearGradient1452">
      <stop
         style="stop-color:#29c3fa;stop-opacity:1;"
         offset="0"
         id="stop1448" />
      <stop
         style="stop-color:#037cd5;stop-opacity:1;"
         offset="1"
         id="stop1450" />
    </linearGradient>
    <linearGradient
       inkscape:collect="always"
       xlink:href="#linearGradient937"
       id="linearGradient939"
       x1="17.278158"
       y1="9.3674898"
       x2="54.623375"
       y2="46.807529"
       gradientUnits="userSpaceOnUse"
       gradientTransform="matrix(0.35040567,0,0,0.35040567,1.2784082,0.59837748)" />
    <linearGradient
       inkscape:collect="always"
       id="linearGradient937">
      <stop
         style="stop-color:#e13c0a;stop-opacity:1;"
         offset="0"
         id="stop933" />
      <stop
         style="stop-color:#b4350e;stop-opacity:1;"
         offset="1"
         id="stop935" />
    </linearGradient>
    <linearGradient
       inkscape:collect="always"
       xlink:href="#linearGradient4525"
       id="linearGradient6123"
       x1="-43.497589"
       y1="23.272188"
       x2="-43.497589"
       y2="-12.72781"
       gradientUnits="userSpaceOnUse"
       gradientTransform="matrix(0.39999998,0,0,0.39999998,15.556846,21.476352)" />
  </defs>
  <path
     id="rect1169"
     style="fill:url(#linearGradient6148);fill-opacity:1;stroke-width:1.51186;stroke-linejoin:round"
     d="m 17.071706,6.1005047 c 0.781049,0.7810493 0.781049,2.0473789 0,2.8284275 L 10.000639,16 8.5864247,14.585786 15.657493,7.5147183 Z"
     sodipodi:nodetypes="cscccc" />
  <path
     d="M 10.453752,5.2504896 C 8.7765393,5.7272184 5.8347954,6.9498191 5.2838476,4.879315 5.0505423,3.7976165 5.8989357,2.9492756 7.001851,2.5037498 13.175646,0.69966047 19.794569,3.8541018 20.32128,10.160468 21.465769,19.364211 12.216918,17.543699 9.0377092,14.65705 5.4532375,11.221042 5.9198216,8.1880479 6.0259055,7.59419 6.0683126,7.2548274 6.8530822,7.021522 7.0439804,7.8487117 6.6454834,12.327547 11.941987,16.335427 15.506725,15.144931 20.283416,13.61817 16.914423,3.7212385 10.453499,5.2506487 Z"
     style="fill:url(#linearGradient939);fill-opacity:1;stroke-width:1.18243"
     id="path421" />
  <rect
     style="fill:url(#linearGradient6123);fill-opacity:1;stroke-width:0.4;stroke-linecap:round;stroke-linejoin:round"
     id="rect5628"
     width="2.4000001"
     height="2"
     x="-4.2421889"
     y="16.385227"
     transform="rotate(-45)" />
  <path
     id="path7431"
     style="fill:url(#linearGradient7609);fill-opacity:1;stroke-width:1.66667;stroke-linejoin:round"
     d="m 4.0358044,14.893767 c 0.9794213,-0.931027 2.5289023,-0.915481 3.489958,0.04557 0.1186935,0.118822 0.2251032,0.249314 0.3176465,0.38946 L 8.5864247,14.585786 10.000639,16 7.57134,18.429299 c -0.014986,0.01538 -0.030196,0.03059 -0.045573,0.04557 -0.9763108,0.97631 -2.5592233,0.97631 -3.5355342,-1e-6 -0.9763108,-0.976311 -0.9763101,-2.559222 7e-7,-3.535533 0.015259,-0.01526 0.030029,-0.0308 0.045573,-0.04557 z m 0.661533,0.752679 a 1.5,1.5 0 0 0 0,2.121321 1.5,1.5 0 0 0 2.1213206,0 1.5,1.5 0 0 0 -3e-7,-2.121321 1.5,1.5 0 0 0 -2.1213203,0 z" />
  <path
     id="rect1065"
     style="fill:url(#linearGradient6150);fill-opacity:1;stroke-width:1.63299;stroke-linejoin:round"
     d="M 12.000639,3.9999999 V 6 16 h -2 V 6 c 0,-1.1045695 0.89543,-2 2,-2.0000001 z"
     sodipodi:nodetypes="ccccsc" />
  <path
     id="path6714"
     style="fill:url(#linearGradient3863);fill-opacity:1;stroke-width:1.66667;stroke-linejoin:round"
     d="m 12.000639,16 v 1.050781 c 0.16454,-0.03368 0.332051,-0.05069 0.5,-0.05078 1.380712,0 2.5,1.119288 2.5,2.5 0,1.380712 -1.119288,2.5 -2.5,2.5 -1.380712,0 -2.5,-1.119288 -2.5,-2.5 -2.77e-4,-0.02147 -2.77e-4,-0.04297 0,-0.06445 v -3.435545 z m 0.5,2 a 1.5,1.5 0 0 0 -1.5,1.5 1.5,1.5 0 0 0 1.5,1.5 1.5,1.5 0 0 0 1.5,-1.5 1.5,1.5 0 0 0 -1.5,-1.5 z" />
  <path
     id="rect1507"
     style="fill:#f9f9f9;fill-opacity:1;stroke-linecap:round;stroke-linejoin:round"
     d="m 12.000431,4 c -0.365058,0 -0.705405,0.1006452 -1,0.2714844 V 11 h 1 V 6 Z" />
</svg>
