<?xml version="1.0" encoding="UTF-8" standalone="no"?>
<!-- Created with Inkscape (http://www.inkscape.org/) -->

<svg
   width="24"
   height="24"
   viewBox="0 0 24 24"
   version="1.1"
   id="svg2535"
   inkscape:version="1.3.2 (091e20ef0f, 2023-11-25, custom)"
   sodipodi:docname="preferences-desktop-locale.svg"
   xmlns:inkscape="http://www.inkscape.org/namespaces/inkscape"
   xmlns:sodipodi="http://sodipodi.sourceforge.net/DTD/sodipodi-0.dtd"
   xmlns:xlink="http://www.w3.org/1999/xlink"
   xmlns="http://www.w3.org/2000/svg"
   xmlns:svg="http://www.w3.org/2000/svg">
  <sodipodi:namedview
     id="namedview2537"
     pagecolor="#ffffff"
     bordercolor="#000000"
     borderopacity="0.25"
     inkscape:showpageshadow="2"
     inkscape:pageopacity="0.0"
     inkscape:pagecheckerboard="0"
     inkscape:deskcolor="#d1d1d1"
     inkscape:document-units="px"
     showgrid="false"
     inkscape:zoom="34.166667"
     inkscape:cx="11.985366"
     inkscape:cy="12"
     inkscape:window-width="1920"
     inkscape:window-height="1017"
     inkscape:window-x="0"
     inkscape:window-y="0"
     inkscape:window-maximized="1"
     inkscape:current-layer="svg2535" />
  <defs
     id="defs2532">
    <radialGradient
       id="radialGradient875"
       cx="20.107"
       cy="28.705"
       r="28"
       gradientTransform="matrix(0.27628409,0.15601732,-0.1229267,0.2176837,4.2470178,-1.4289937)"
       gradientUnits="userSpaceOnUse">
      <stop
         stop-color="#5ab5e2"
         offset="0"
         id="stop2" />
      <stop
         stop-color="#4189ac"
         offset=".45901"
         id="stop4" />
      <stop
         stop-color="#295e76"
         offset="1"
         id="stop6" />
    </radialGradient>
    <linearGradient
       id="linearGradient883"
       x1="4"
       x2="59.861"
       y1="31.360001"
       y2="31.360001"
       gradientTransform="matrix(0.249988,0,0,0.249988,1.0002546,1.0000254)"
       gradientUnits="userSpaceOnUse">
      <stop
         stop-color="#b0d6df"
         offset="0"
         id="stop9" />
      <stop
         stop-color="#e1f8fc"
         offset=".21709"
         id="stop11" />
      <stop
         stop-color="#96c3ce"
         offset="1"
         id="stop13" />
    </linearGradient>
    <linearGradient
       inkscape:collect="always"
       xlink:href="#linearGradient3605"
       id="linearGradient1697"
       x1="12.500001"
       y1="4.0001912"
       x2="16"
       y2="13"
       gradientUnits="userSpaceOnUse"
       gradientTransform="translate(4.9999998,4)" />
    <linearGradient
       inkscape:collect="always"
       id="linearGradient3605">
      <stop
         style="stop-color:#0d6eaa;stop-opacity:1;"
         offset="0"
         id="stop3601" />
      <stop
         style="stop-color:#185086;stop-opacity:1"
         offset="1"
         id="stop3603" />
    </linearGradient>
    <linearGradient
       inkscape:collect="always"
       xlink:href="#linearGradient1014"
       id="linearGradient1705"
       x1="7.2109375"
       y1="7.4824219"
       x2="10.197266"
       y2="15.986328"
       gradientUnits="userSpaceOnUse"
       gradientTransform="translate(4.4732488,5.9831758)" />
    <linearGradient
       inkscape:collect="always"
       id="linearGradient1014">
      <stop
         style="stop-color:#33bff0;stop-opacity:1"
         offset="0"
         id="stop1010" />
      <stop
         style="stop-color:#1c9fe3;stop-opacity:1"
         offset="1"
         id="stop1012" />
    </linearGradient>
  </defs>
  <rect
     x="2.0002985"
     y="2"
     width="13.999701"
     height="13.999701"
     rx="6.9998507"
     ry="6.9998507"
     fill="url(#radialGradient875)"
     id="rect30"
     style="fill:url(#radialGradient875);stroke-width:0.249989" />
  <path
     d="M 9.036316,2.3499931 C 8.4964643,2.3882784 7.9683486,2.48738 7.4533228,2.6543225 7.2695811,2.6614936 6.8702588,2.8981527 7.1924392,3.0092145 7.3423781,3.1693912 7.7003256,3.2203654 7.6568563,3.4821015 7.7146787,3.712163 7.1221141,3.7017244 7.3193464,3.9100953 7.4591934,4.0941397 7.5990379,4.2781945 7.7388932,4.4622443 7.9971186,4.3793026 8.0823295,4.1148415 8.2255931,3.9112858 8.6243745,3.7353858 9.1887729,3.6822555 9.4523166,3.3437612 9.5348987,3.1043202 9.6174809,2.8649009 9.7000653,2.6254601 9.4788132,2.5336369 9.257558,2.4418137 9.0363168,2.3499685 Z M 7.1168166,2.4115052 C 6.8694642,2.384822 6.7112456,2.5368332 6.5266128,2.6364929 6.2993469,2.664328 6.0425729,2.7489154 5.8993561,2.9317007 6.1542899,3.0473932 6.3148437,2.9241337 6.5348958,2.8367211 6.7392091,2.7320479 7.43412,2.6883758 7.1168166,2.4114806 Z M 5.5206641,3.1456729 C 5.3934985,3.3397829 5.6099881,3.6207311 5.3190877,3.7226008 5.1754954,3.9043768 5.0500113,4.2027442 5.4089137,4.0944798 5.4967127,3.8251261 5.769452,3.4472959 6.0798489,3.6050499 6.3924856,3.6890499 6.681836,4.2144098 6.9370972,3.7982895 6.9369943,3.6900629 6.5400428,3.6267546 6.548909,3.361988 6.372271,3.2862081 5.9946843,3.4239153 6.0078674,3.1485248 5.7526779,3.0352135 5.6791776,3.5998287 5.5887398,3.2842477 5.5660458,3.2380622 5.5433518,3.1918768 5.5206547,3.1456701 Z m 6.9272849,0.2447218 c -0.302043,0.060398 -0.600377,0.1293917 -0.838745,0.3369956 0.06919,0.276635 -0.287694,0.3231838 -0.446427,0.4767364 -0.115169,0.064989 0.0021,0.5670121 0.102999,0.4890804 0.214555,-0.2830748 0.32554,-0.038891 0.524989,0.1008941 0.179517,0.166733 0.293504,-0.3096265 0.198152,-0.4439074 -0.05595,-0.2164184 0.21623,-0.3765202 0.314176,-0.5537574 0.299454,-0.1920861 0.04642,0.2450657 0.03683,0.3976858 -0.151155,0.4510222 0.67047,0.01361 0.128883,0.3506455 -0.145268,0.1450768 -0.198461,0.3600018 -0.42169,0.4672155 -0.120531,0.1471168 -0.580544,0.078162 -0.518595,-0.1513323 -0.167985,-0.2632882 -0.126522,0.3168833 -0.183595,0.3141053 -0.278406,-0.082959 -0.361261,0.2277951 -0.535861,0.376475 -0.133618,0.1535046 -0.605324,0.05826 -0.253161,0.2960483 0.256847,0.2963737 -0.05119,0.2415642 -0.263662,0.3204984 -0.3002705,0.051705 -0.250081,0.3132205 -0.242311,0.5493488 0.0046,0.1301287 0.292805,0.3231835 0.43875,0.232425 0.291521,-0.031219 0.217962,-0.3889815 0.433338,-0.4980852 0.178953,-0.1531842 0.30454,-0.2944612 0.573241,-0.2981234 0.124056,0.1183938 0.374796,0.2963735 0.476479,0.3931577 -0.280623,0.3057526 0.128891,0.2808348 0.168065,0.00227 0.138422,-0.153393 -0.455947,-0.5143504 -0.06399,-0.3557558 0.259438,0.085587 0.199778,0.3506232 0.315205,0.5295383 0.20518,0.3468434 0.22715,0.088024 0.246253,-0.1802847 0.340888,-0.1070908 0.433286,0.5936144 0.892756,0.4292807 0.344347,0.090482 0.181167,0.3131487 -0.03625,0.4569259 -0.198566,0.1448338 -0.494655,0.045562 -0.712584,-0.03307 C 12.565598,7.2847177 12.305764,7.3481769 12.192273,7.5683149 11.940326,7.3508776 11.761969,7.0054573 11.395947,6.9863253 11.049384,6.9683719 10.699508,7.0605175 10.365056,7.154741 9.9944837,7.5896419 9.5935556,8.0132021 9.4208929,8.5690612 c -0.1792296,0.220255 0.2046745,0.3522081 -0.08714,0.5526609 -0.203161,0.189686 0.069191,0.4239799 0.1112385,0.6366819 0.2186357,0.259273 0.5538284,1.112113 0.8914776,0.782234 0.190018,-0.300223 0.31602,0.196658 0.539455,-0.115163 0.188066,-0.171666 0.340379,0.17248 0.604111,0.05008 0.234518,0.1169 0.25491,0.34605 0.130991,0.565333 -0.07958,0.222636 0.344764,0.314177 0.224028,0.574081 -0.05692,0.254164 0.05458,0.469922 0.180838,0.682322 -0.280647,0.292943 -0.246814,0.726886 -0.176757,1.093959 0.137313,0.503243 0.333962,1.007933 0.314316,1.53782 0.245904,0.0645 0.427295,-0.09836 0.63064,-0.183873 0.388121,0.0549 0.599261,-0.359233 0.840265,-0.596759 -0.181052,-0.243384 0.148734,-0.348406 0.285056,-0.505857 -0.203909,-0.176372 -0.339024,-0.347611 -0.02333,-0.485159 0.145626,-0.147912 0.418429,-0.231525 0.46626,-0.437842 -0.125404,-0.373699 -0.05399,-0.770753 -0.07243,-1.157121 0.154613,-0.31161 0.318773,-0.616592 0.575575,-0.857202 0.102414,-0.337905 0.348569,-0.647626 0.3247,-1.010334 C 14.581604,9.873998 14.76234,9.618865 15.094057,9.376291 15.324264,9.2074597 15.651575,9.0499799 15.721573,8.7621236 15.771818,8.4780223 15.549788,8.0369153 15.356624,8.4543172 15.262793,8.3212955 14.932246,8.1979358 14.93682,7.989129 14.86603,7.5680425 15.050689,7.8209585 15.214853,8.019819 15.596695,7.7367677 16.095015,8.8010262 15.933854,8.041631 15.715537,6.3981542 14.882198,4.8454942 13.633915,3.7546848 13.519768,3.8762348 13.329281,4.3294185 13.191058,4.0678339 12.995371,3.8602441 12.841788,3.6728316 13.240397,3.7499 13.631035,3.6438827 13.241875,3.5822412 13.037122,3.5580678 12.831762,3.534098 12.641327,3.4588737 12.447921,3.3903324 Z M 4.8020131,3.4005952 C 4.5435782,3.500134 4.9307102,3.8796694 4.4673733,3.7581291 3.9593945,3.9883103 3.6209984,4.5469181 3.2679259,4.9819116 2.444347,6.1458018 1.9965898,7.5681232 2.0000196,8.9937606 c 0.1351355,0.2789181 0.4679633,0.3734422 0.7169713,0.5274165 0.2530689,0.086569 0.5717712,0.073492 0.697722,0.3530722 0.1408672,0.1475137 0.3298797,0.3453237 0.5311251,0.3613317 0.3092529,-0.0991 0.3528623,0.181302 0.1968437,0.388724 -0.016903,0.227199 -0.269773,0.410448 -0.2415878,0.610271 0.056341,0.223897 -0.2816726,0.470506 -0.053968,0.675345 0.2395565,0.428274 0.4959392,0.844182 0.8199156,1.214077 0.2015088,0.176543 0.1776155,0.419618 0.1546128,0.662421 -0.079967,0.256615 0.1625764,0.405057 0.2927581,0.591184 -0.3172343,0.581639 0.5420206,0.697883 0.9016496,0.952212 0.1808024,-0.165336 0.1951737,-0.432941 0.4951229,-0.440407 0.1818898,-0.127427 0.2207203,-0.415091 0.3456525,-0.60635 -0.004,-0.203153 -0.1340984,-0.392995 0.07711,-0.61426 0.1591423,-0.134323 0.4875395,-0.04475 0.5467819,-0.325168 0.2161771,-0.222676 0.041261,-0.531289 0.041261,-0.801458 0.167923,-0.230025 0.4576266,-0.406598 0.4254733,-0.724439 C 7.9838403,11.34368 7.1303466,11.364983 6.8296099,11.077569 6.4599478,11.066986 6.5347062,10.563243 6.2469423,10.496325 5.9612551,10.510692 5.8573773,10.286857 5.7561128,10.059605 5.5987616,9.9522845 5.3026157,10.170382 5.1379558,10.035889 4.9514572,9.9376398 4.7841601,9.5711447 4.5742345,9.8001784 4.2979505,10.000503 4.0262397,10.204001 3.764142,9.8686065 3.5941657,9.7154411 3.8077294,9.2806431 3.5670661,9.3080349 3.0533004,9.4938748 3.7298965,8.5617828 3.2489463,8.6854448 3.135037,8.8639907 2.9165469,9.1394796 2.7041012,8.9282009 2.4907544,8.8278162 2.5959965,8.5014202 2.6055103,8.3059375 2.6147437,8.0772908 2.9041006,7.9632951 3.0703938,7.858997 3.3929238,8.0032414 3.3267274,7.5733802 3.5962925,7.7170753 3.8577826,7.661384 3.9758476,8.0808566 4.0820121,8.0964907 4.1444049,7.8898401 4.0317682,7.5878117 4.2235501,7.4516635 4.447633,7.2630458 4.7433824,7.1289016 4.7986812,6.8119937 4.8032848,6.4734577 5.214076,6.7587601 5.3160637,6.5282192 5.4100881,6.2640679 5.6843255,6.2805663 5.9159742,6.2307272 6.0426805,6.1131642 6.3611412,5.7510503 5.9677182,5.8572152 5.8244208,5.8378488 5.2475499,5.9146261 5.6392615,5.776599 5.8322155,5.6305394 6.0660894,5.6507789 6.282688,5.6220918 6.4532701,5.4776748 6.7514671,5.4292931 6.7645802,5.1663554 6.6229998,4.9737995 6.3230994,5.0104496 6.4504037,4.7342758 6.4381014,4.3730136 6.1199173,4.6049397 6.0153861,4.5774617 6.1851507,4.341217 5.7946394,4.1924698 5.6635738,4.1891572 5.5744941,4.4117902 5.3240577,4.6038734 5.4124415,4.8601159 5.1513246,4.9025234 5.0289897,5.0915194 4.9505215,5.3268193 4.8722335,5.3540888 4.8976902,4.8653411 4.5980558,4.9103742 4.3864102,4.9052681 4.1247726,4.5894545 4.3476009,4.465091 4.6530974,4.2718011 5.0329327,4.1205114 5.2261053,3.8117712 5.3371943,3.5352536 5.1323269,3.36553 4.8595228,3.4047994 L 4.8214872,3.402155 Z M 9.9420032,3.7189733 C 9.7733973,3.8501427 9.4330207,3.7595461 9.3611556,3.8860091 9.3309234,4.141084 9.7269912,4.1370948 9.8851647,3.9962776 10.14369,3.9006925 10.132167,3.9181363 9.9419892,3.7189674 Z M 6.1966165,3.8497073 C 5.8382941,3.9551371 6.1311155,4.1898286 6.365025,4.1867029 6.6441079,4.1641853 6.384456,3.8517141 6.1966165,3.8497073 Z m 4.2729425,0.7040918 c -0.02564,0.2282508 0.193625,0.3707809 0.103072,0.6194397 -0.142589,0.3132434 0.05939,0.407299 0.30307,0.2147607 0.325446,-0.1991278 -0.243874,-0.6353342 -0.319731,-0.8342 h -0.08642 z m -0.10732,0.3670646 c -0.292456,-0.071889 -0.199933,0.5401795 10e-4,0.3294593 0.216401,-0.037777 0.0086,-0.204522 -10e-4,-0.3294593 z M 6.6299165,5.4725213 C 6.672853,5.7046376 6.6882919,6.0726196 6.858226,5.6773549 6.8579929,5.6005364 6.6903318,5.5404415 6.6299165,5.4725213 Z M 13.692066,7.859004 c 0.343739,0.2997105 0.482989,0.7337725 0.676745,1.1320172 0.288302,0.1513711 0.117638,0.3828681 0.157797,0.5773927 0.401416,0.3514513 -0.406506,0.1642698 -0.308461,-0.2191521 -0.0655,-0.4453284 -0.351533,-0.7425896 -0.585142,-1.0646526 -0.01837,-0.1704759 -0.201243,-0.364925 0.05906,-0.4255902 z"
     fill="url(#linearGradient883)"
     id="path32"
     style="fill:url(#linearGradient883);stroke-width:0.249989" />
  <path
     id="rect294"
     style="fill:url(#linearGradient1697);fill-opacity:1;stroke-width:2.64575;stroke-linecap:round;stroke-linejoin:round"
     d="M 17.474609,8.0001913 C 17.209696,8.0135333 17,8.2318481 17,8.5001913 v 0.5 h -3.474305 c -0.0085,-4.304e-4 -0.01673,0 -0.02539,0 -0.276999,0 -0.5,0.2230006 -0.5,0.5 v 0.9999997 c 0,0.277 0.223001,0.5 0.5,0.5 0.277,0 0.5,-0.223 0.5,-0.5 v -0.5 H 21 v 0.5 c 0,0.277 0.223001,0.5 0.5,0.5 0.276998,0 0.5,-0.223 0.5,-0.5 V 9.5001913 c 0,-0.268356 -0.209679,-0.4866768 -0.47461,-0.5 -0.0085,-4.304e-4 -0.01673,0 -0.02539,0 H 18 v -0.5 c 0,-0.2769994 -0.223001,-0.5 -0.5,-0.5 -0.0087,0 -0.01685,-4.304e-4 -0.02539,0 z m -1.974304,2.9999997 c -0.276142,0 -0.5,0.223859 -0.5,0.5 0,0.276142 0.223858,0.5 0.5,0.5 h 2.749609 l -1.050695,1.999904 h -2.673524 -0.02539 c -0.276142,0 -0.5,0.223858 -0.5,0.5 0,0.276142 0.223858,0.499999 0.5,0.499999 h 2.499696 v 1.999809 h -0.47461 c -0.0085,-2.15e-4 -0.01693,-2.15e-4 -0.02539,0 -0.276142,0 -0.5,0.223858 -0.5,0.5 0,0.276142 0.223858,0.5 0.5,0.5 h 0.5 c 0.553997,0 1,-0.446003 1,-1 v -1.999809 h 2.5 C 20.776143,15.000094 21,14.776237 21,14.500095 c 0,-0.276142 -0.223857,-0.5 -0.499999,-0.5 h -2.13672 l 1.212805,-2.454982 c 0.135818,-0.252029 0.08845,-0.544922 -0.326172,-0.544922 h -3.724219 c -0.0085,-2.15e-4 -0.01693,-2.15e-4 -0.02539,0 z"
     sodipodi:nodetypes="ssccsssssccsssssscsssscsscccsssccccsssscsssccscc" />
  <path
     id="rect855"
     style="fill:url(#linearGradient1705);fill-opacity:1;stroke-linecap:round;stroke-linejoin:round"
     d="m 11.684187,13.465596 c -0.19464,0.0097 -0.372306,0.132904 -0.443361,0.328125 l -2.7363275,7.517578 c -0.09474,0.260294 0.03853,0.545886 0.298828,0.640625 0.260295,0.09474 0.545886,-0.03853 0.640625,-0.298828 l 0.9707025,-2.669922 h 2.63672 l 0.978516,2.6875 c 0.09474,0.260295 0.38033,0.393567 0.640625,0.298828 0.260293,-0.09474 0.393567,-0.38033 0.298828,-0.640625 l -2.736328,-7.517578 c -0.05801,-0.159378 -0.188282,-0.271546 -0.339844,-0.3125 -0.0031,-8.49e-4 -0.0066,-0.0012 -0.0098,-0.0019 l -0.002,-0.002 c -0.06507,-0.02369 -0.132385,-0.03254 -0.197264,-0.0293 z m 0.04883,1.896484 0.955078,2.621094 h -1.908206 z" />
</svg>
