<?xml version="1.0" encoding="UTF-8" standalone="no"?>
<!-- Created with Inkscape (http://www.inkscape.org/) -->

<svg
   width="24"
   height="24"
   viewBox="0 0 24 24"
   version="1.1"
   id="svg2535"
   inkscape:version="1.3.2 (091e20ef0f, 2023-11-25, custom)"
   sodipodi:docname="preferences-online-accounts.svg"
   xmlns:inkscape="http://www.inkscape.org/namespaces/inkscape"
   xmlns:sodipodi="http://sodipodi.sourceforge.net/DTD/sodipodi-0.dtd"
   xmlns:xlink="http://www.w3.org/1999/xlink"
   xmlns="http://www.w3.org/2000/svg"
   xmlns:svg="http://www.w3.org/2000/svg">
  <sodipodi:namedview
     id="namedview2537"
     pagecolor="#ffffff"
     bordercolor="#000000"
     borderopacity="0.25"
     inkscape:showpageshadow="2"
     inkscape:pageopacity="0.0"
     inkscape:pagecheckerboard="0"
     inkscape:deskcolor="#d1d1d1"
     inkscape:document-units="px"
     showgrid="false"
     inkscape:zoom="34.166667"
     inkscape:cx="11.985366"
     inkscape:cy="12"
     inkscape:window-width="1920"
     inkscape:window-height="1017"
     inkscape:window-x="0"
     inkscape:window-y="0"
     inkscape:window-maximized="1"
     inkscape:current-layer="svg2535" />
  <defs
     id="defs2532">
    <radialGradient
       id="radialGradient875"
       cx="20.107"
       cy="28.705"
       r="28"
       gradientTransform="matrix(0.35522241,0.2005937,-0.15804861,0.27987904,6.8890228,-2.4087062)"
       gradientUnits="userSpaceOnUse">
      <stop
         stop-color="#5ab5e2"
         offset="0"
         id="stop2" />
      <stop
         stop-color="#4189ac"
         offset=".45901"
         id="stop4" />
      <stop
         stop-color="#295e76"
         offset="1"
         id="stop6" />
    </radialGradient>
    <linearGradient
       id="linearGradient883"
       x1="4"
       x2="59.861"
       y1="31.360001"
       y2="31.360001"
       gradientTransform="matrix(0.32141314,0,0,0.32141314,2.7146129,0.71431835)"
       gradientUnits="userSpaceOnUse">
      <stop
         stop-color="#b0d6df"
         offset="0"
         id="stop9" />
      <stop
         stop-color="#e1f8fc"
         offset=".21709"
         id="stop11" />
      <stop
         stop-color="#96c3ce"
         offset="1"
         id="stop13" />
    </linearGradient>
    <linearGradient
       inkscape:collect="always"
       xlink:href="#linearGradient2131"
       id="linearGradient3853"
       x1="9.9999533"
       y1="12.999999"
       x2="9.9999533"
       y2="19"
       gradientUnits="userSpaceOnUse"
       gradientTransform="translate(-2.9998126,3.0000004)" />
    <linearGradient
       inkscape:collect="always"
       xlink:href="#linearGradient2131"
       id="linearGradient2320"
       x1="8.562398"
       y1="1.3003726"
       x2="8.5805483"
       y2="8.2474289"
       gradientUnits="userSpaceOnUse"
       gradientTransform="matrix(0.87219869,0,0,0.87219869,-0.38454542,7.846154)" />
    <linearGradient
       inkscape:collect="always"
       id="linearGradient2131">
      <stop
         style="stop-color:#2ac9ba;stop-opacity:1;"
         offset="0"
         id="stop2127" />
      <stop
         style="stop-color:#2e988c;stop-opacity:1"
         offset="1"
         id="stop2129" />
    </linearGradient>
  </defs>
  <rect
     x="4.0003834"
     y="2"
     width="17.999617"
     height="17.999617"
     rx="8.9998083"
     ry="8.9998083"
     fill="url(#radialGradient875)"
     id="rect30"
     style="fill:url(#radialGradient875);stroke-width:0.321415" />
  <path
     d="m 13.046692,2.4499911 c -0.694095,0.049224 -1.373101,0.1766404 -2.035277,0.3912807 -0.236239,0.00922 -0.749654,0.313496 -0.335422,0.4562897 0.192779,0.2059415 0.652997,0.2714797 0.597108,0.6079976 0.07434,0.2957934 -0.687526,0.2823723 -0.433941,0.5502777 0.179803,0.2366286 0.359603,0.4732705 0.539417,0.7099059 C 11.710581,5.0591034 11.820138,4.719082 12.004334,4.4573675 12.517053,4.2312104 13.242708,4.1628999 13.58155,3.727693 13.687727,3.4198403 13.793904,3.1120154 13.900084,2.804163 13.615617,2.6861046 13.331146,2.5680462 13.046693,2.4499595 Z m -2.467928,0.079087 C 10.26074,2.4947711 10.057316,2.6902141 9.8199307,2.818348 9.5277317,2.854136 9.1975937,2.9628912 9.0134578,3.1979009 9.3412298,3.3466484 9.5476562,3.1881719 9.8305803,3.0757843 10.093269,2.9412044 10.986726,2.8850546 10.578764,2.5290465 Z M 8.5265681,3.473008 C 8.3630695,3.7225781 8.6414128,4.0837971 8.2673984,4.2147725 8.0827798,4.4484845 7.9214431,4.8320997 8.3828894,4.6929027 8.4957737,4.3465907 8.8464386,3.8608091 9.2455204,4.0636356 c 0.4019615,0.108 0.7739836,0.7834628 1.1021766,0.248451 C 10.347564,4.172938 9.8371979,4.0915417 9.8485973,3.7511275 9.6214912,3.6536962 9.1360226,3.8307483 9.1529723,3.4766748 8.8248715,3.3309888 8.7303712,4.0569227 8.614094,3.6511756 8.584916,3.5917943 8.555738,3.532413 8.526556,3.4730045 Z m 8.9065099,0.3146423 c -0.388341,0.077655 -0.771914,0.1663608 -1.078387,0.4332801 0.08896,0.3556736 -0.369892,0.4155221 -0.573977,0.6129468 -0.148075,0.083558 0.0027,0.7290156 0.132427,0.6288177 0.275856,-0.3639533 0.418551,-0.050003 0.674985,0.129721 0.230808,0.214371 0.377363,-0.3980912 0.254767,-0.5707381 -0.07193,-0.2782522 0.27801,-0.4840974 0.403941,-0.7119738 0.385012,-0.2469679 0.05968,0.3150845 0.04736,0.5113103 -0.194343,0.5798857 0.862032,0.017499 0.165706,0.45083 -0.18678,0.1865272 -0.255171,0.4628594 -0.542179,0.6007056 -0.154968,0.1891502 -0.746414,0.1004939 -0.666765,-0.1945701 -0.215981,-0.3385134 -0.162671,0.4074214 -0.236051,0.4038497 -0.357951,-0.106662 -0.464479,0.2928794 -0.688964,0.4840392 -0.171795,0.1973631 -0.778274,0.074906 -0.325493,0.3806336 0.330232,0.3810519 -0.06581,0.3105826 -0.338994,0.4120694 -0.386062,0.066478 -0.321532,0.402712 -0.311542,0.7063056 0.0059,0.1673083 0.376463,0.4155216 0.564107,0.2988321 0.374812,-0.040139 0.280237,-0.5001191 0.557149,-0.6403952 0.230082,-0.1969512 0.391551,-0.378593 0.737024,-0.3833015 0.1595,0.1522205 0.48188,0.3810516 0.612616,0.5054884 -0.360801,0.3931105 0.165717,0.3610733 0.216083,0.00292 0.177971,-0.1972196 -0.586217,-0.6613077 -0.08227,-0.4574003 0.333563,0.1100409 0.256857,0.4508012 0.405263,0.680835 0.263803,0.4459415 0.292051,0.1131741 0.316611,-0.2317947 0.438285,-0.1376882 0.557083,0.7632185 1.14783,0.5519324 0.442731,0.1163338 0.232929,0.4026198 -0.04661,0.5874761 -0.255299,0.1862135 -0.635985,0.058579 -0.916179,-0.04252 -0.277196,-0.1423125 -0.611268,-0.060722 -0.757185,0.2223125 -0.323932,-0.2795622 -0.553248,-0.723674 -1.023847,-0.7482723 -0.445581,-0.023083 -0.895422,0.09539 -1.325432,0.2165344 -0.47645,0.5591584 -0.991929,1.1037358 -1.213924,1.8184118 -0.230438,0.283185 0.263153,0.452839 -0.112037,0.710564 -0.261207,0.243882 0.08896,0.545117 0.143021,0.818591 0.281103,0.333351 0.712065,1.42986 1.146185,1.00573 0.244309,-0.386001 0.406312,0.252846 0.693586,-0.148067 0.241799,-0.220713 0.43763,0.22176 0.776714,0.06439 0.301523,0.1503 0.327741,0.444921 0.168416,0.726856 -0.102316,0.286246 0.443269,0.403942 0.288037,0.738105 -0.07318,0.326782 0.07017,0.604185 0.232506,0.877271 -0.360832,0.376641 -0.317333,0.934568 -0.22726,1.406519 0.176546,0.647026 0.429381,1.295913 0.404121,1.977197 0.316162,0.08293 0.549379,-0.126467 0.810823,-0.236409 0.499013,0.07058 0.770478,-0.46187 1.080341,-0.767261 -0.232781,-0.312922 0.191229,-0.447951 0.366501,-0.650388 -0.262169,-0.226764 -0.435889,-0.446928 -0.03,-0.623776 0.187233,-0.190172 0.53798,-0.297675 0.599477,-0.562939 -0.161234,-0.48047 -0.06941,-0.990968 -0.09312,-1.487727 0.198788,-0.400642 0.409851,-0.792761 0.740025,-1.102117 0.131675,-0.434449 0.44816,-0.832662 0.417471,-1.299001 -0.769607,0.230238 -0.537232,-0.09779 -0.110734,-0.409671 0.295976,-0.217069 0.716804,-0.419543 0.806802,-0.789644 0.0646,-0.365273 -0.220867,-0.9324106 -0.46922,-0.395751 -0.12064,-0.171028 -0.545629,-0.3296333 -0.539748,-0.5980992 -0.09101,-0.5413969 0.146403,-0.2162192 0.357471,0.039458 0.490939,-0.3639232 1.131636,1.0044092 0.924429,0.028044 C 21.634262,7.6547698 20.562826,5.6584926 18.957891,4.2560233 18.81113,4.4123019 18.566219,4.9949667 18.388503,4.6586436 18.136906,4.3917424 17.939442,4.1507835 18.451939,4.2498714 18.954188,4.1135635 18.453839,4.0343102 18.190586,4.00323 17.926552,3.9724117 17.681706,3.8756948 17.433042,3.7875702 Z M 7.6025882,3.8007653 C 7.2703148,3.9287438 7.7680559,4.4167179 7.172337,4.2604518 6.5192214,4.556399 6.0841407,5.274609 5.6301903,5.8338864 4.5713032,7.3303167 3.9956153,9.1590157 4.0000251,10.991978 c 0.1737456,0.358609 0.6016671,0.48014 0.9218202,0.678107 0.3253743,0.111303 0.7351344,0.09449 0.8970712,0.45395 0.181115,0.18966 0.424131,0.443988 0.6828752,0.46457 0.3976108,-0.127412 0.4536801,0.233102 0.2530847,0.499788 -0.021732,0.292112 -0.346851,0.527718 -0.3106129,0.784634 0.072438,0.287867 -0.3621505,0.604936 -0.069388,0.8683 0.3080012,0.550638 0.6376361,1.085377 1.0541771,1.560956 0.2590828,0.226984 0.2283628,0.539509 0.198788,0.851684 -0.1028145,0.329934 0.2090268,0.520788 0.3764032,0.760094 -0.4078727,0.747822 0.6968836,0.897279 1.1592638,1.224273 0.2324602,-0.212575 0.2509376,-0.556638 0.6365866,-0.566238 0.2338578,-0.163834 0.2837828,-0.533688 0.4444108,-0.779593 -0.0051,-0.261196 -0.172413,-0.505279 0.09914,-0.789763 0.204611,-0.172701 0.626836,-0.05753 0.703005,-0.418073 0.277942,-0.286297 0.05305,-0.683085 0.05305,-1.030446 0.215901,-0.295746 0.588377,-0.522769 0.547037,-0.931421 0.04677,-0.609497 -1.050579,-0.582107 -1.437241,-0.95164 C 9.7342186,13.657554 9.8303365,13.009884 9.4603544,12.923847 9.0930422,12.942318 8.959485,12.65453 8.8292879,12.362349 8.6269792,12.224366 8.2462201,12.504777 8.0345145,12.331857 7.7947306,12.205537 7.5796343,11.734329 7.30973,12.028801 6.9545077,12.286361 6.6051652,12.548001 6.2681825,12.11678 6.0496415,11.919853 6.3242235,11.360827 6.0147992,11.396045 5.3542433,11.634982 6.2241525,10.436578 5.605788,10.595572 5.4593332,10.825131 5.1784173,11.179331 4.9052729,10.907687 4.6309699,10.778621 4.7662811,10.358969 4.7785132,10.107634 4.7903847,9.8136597 5.1624149,9.6670938 5.3762205,9.5329962 5.7909019,9.7184534 5.7057923,9.1657746 6.052376,9.3505255 6.3885775,9.2789224 6.5403754,9.8182443 6.6768726,9.8383453 6.757092,9.5726517 6.6122733,9.1843295 6.8588501,9.0092818 7.1469567,8.7667733 7.5272059,8.5943022 7.5983044,8.1868491 7.6042232,7.7515885 8.1323834,8.118406 8.2635104,7.8219962 8.3843989,7.4823731 8.7369899,7.5035853 9.0348239,7.4395065 9.1977321,7.2883541 9.6071815,6.822779 9.1013519,6.9592767 8.9171124,6.9343771 8.1754213,7.0330908 8.6790505,6.8556273 8.9271342,6.6678365 9.2278292,6.6938586 9.5063131,6.6569753 9.725633,6.4712962 10.109029,6.4090912 10.125889,6.0710284 9.9438569,5.8234565 9.5582706,5.8705781 9.7219476,5.5154975 9.7061303,5.0510175 9.2970365,5.3492082 9.1626392,5.3138794 9.380908,5.0101362 8.878822,4.8188898 8.7103091,4.8146307 8.5957781,5.1008732 8.2737884,5.3478373 8.3874248,5.6772919 8.051703,5.7318158 7.8944153,5.9748107 7.7935276,6.2773392 7.6928716,6.3124 7.7256016,5.68401 7.3403574,5.7419098 7.0682416,5.7353447 6.7318504,5.3292987 7.0183439,5.1694028 7.4111252,4.9208872 7.8994848,4.7263719 8.1478496,4.3294202 8.2906784,3.9738975 8.0272774,3.7556815 7.6765293,3.8061707 l -0.048903,-0.0034 z m 6.6085588,0.4093433 c -0.216779,0.1686463 -0.654406,0.052165 -0.746804,0.2147603 -0.03887,0.3279534 0.47036,0.3228245 0.673726,0.1417738 0.33239,-0.1228951 0.317574,-0.1004674 0.07306,-0.3565417 z M 9.3956497,4.3781951 C 8.9349495,4.5137478 9.3114342,4.8154939 9.612175,4.8114752 9.9709958,4.782524 9.6371577,4.3807753 9.3956497,4.3781951 Z m 5.4937833,0.905261 c -0.03296,0.2934652 0.248946,0.4767182 0.132521,0.7964224 -0.183329,0.4027415 0.07636,0.5236702 0.389662,0.2761209 0.41843,-0.2560214 -0.313553,-0.8168583 -0.411083,-1.0725429 h -0.11111 z M 14.75145,5.7553962 c -0.376014,-0.092428 -0.257057,0.6945166 0.0013,0.4235906 0.27823,-0.048571 0.01104,-0.2629569 -0.0013,-0.4235906 z M 9.9527498,6.4646703 c 0.055204,0.2984353 0.075054,0.771555 0.2935402,0.2633575 -2.99e-4,-0.098767 -0.215863,-0.1760315 -0.2935402,-0.2633575 z m 9.0799072,3.068335 c 0.44195,0.3853421 0.620986,0.9434217 0.8701,1.4554507 0.370674,0.19462 0.151249,0.492259 0.202882,0.742362 0.516107,0.451866 -0.522651,0.211204 -0.396593,-0.281767 -0.08422,-0.572565 -0.451971,-0.954758 -0.752325,-1.368839 -0.02362,-0.2191834 -0.258741,-0.4691894 0.07594,-0.5471875 z"
     fill="url(#linearGradient883)"
     id="path32"
     style="fill:url(#linearGradient883);stroke-width:0.321415" />
  <circle
     style="fill:url(#linearGradient2320);stroke-width:1.01076;stroke-linecap:round;stroke-linejoin:round"
     id="path846"
     cx="7.0000701"
     cy="12"
     r="3" />
  <path
     id="rect1284"
     style="fill:url(#linearGradient3853);stroke-width:0.559019;stroke-linejoin:round"
     d="m 4.5000701,16 c -1.6619966,0 -2.5,0.838004 -2.5,2.5 V 19 c -0.014373,1.571284 2.1839356,3.007922 5,3 2.8160644,0.0079 5.0143699,-1.428716 4.9999999,-3 v -0.5 c 0,-1.661997 -0.838004,-2.5 -2.4999999,-2.5 z"
     sodipodi:nodetypes="cscccscc" />
</svg>
