<?xml version="1.0" encoding="UTF-8" standalone="no"?>
<!-- Created with Inkscape (http://www.inkscape.org/) -->

<svg
   width="24"
   height="24"
   viewBox="0 0 24 24"
   version="1.1"
   id="svg2535"
   inkscape:version="1.3.2 (091e20ef0f, 2023-11-25, custom)"
   sodipodi:docname="preferences-system-time.svg"
   xmlns:inkscape="http://www.inkscape.org/namespaces/inkscape"
   xmlns:sodipodi="http://sodipodi.sourceforge.net/DTD/sodipodi-0.dtd"
   xmlns:xlink="http://www.w3.org/1999/xlink"
   xmlns="http://www.w3.org/2000/svg"
   xmlns:svg="http://www.w3.org/2000/svg">
  <sodipodi:namedview
     id="namedview2537"
     pagecolor="#ffffff"
     bordercolor="#000000"
     borderopacity="0.25"
     inkscape:showpageshadow="2"
     inkscape:pageopacity="0.0"
     inkscape:pagecheckerboard="0"
     inkscape:deskcolor="#d1d1d1"
     inkscape:document-units="px"
     showgrid="false"
     inkscape:zoom="34.166667"
     inkscape:cx="11.985366"
     inkscape:cy="12"
     inkscape:window-width="1920"
     inkscape:window-height="1017"
     inkscape:window-x="0"
     inkscape:window-y="0"
     inkscape:window-maximized="1"
     inkscape:current-layer="svg2535" />
  <defs
     id="defs2532">
    <radialGradient
       id="radialGradient875"
       cx="20.107"
       cy="28.705"
       r="28"
       gradientTransform="matrix(0.35522241,0.2005937,-0.15804861,0.27987904,5.889023,-1.4087062)"
       gradientUnits="userSpaceOnUse">
      <stop
         stop-color="#5ab5e2"
         offset="0"
         id="stop2" />
      <stop
         stop-color="#4189ac"
         offset=".45901"
         id="stop4" />
      <stop
         stop-color="#295e76"
         offset="1"
         id="stop6" />
    </radialGradient>
    <linearGradient
       id="linearGradient883"
       x1="4"
       x2="59.861"
       y1="31.360001"
       y2="31.360001"
       gradientTransform="matrix(0.32141314,0,0,0.32141314,1.714613,1.7143183)"
       gradientUnits="userSpaceOnUse">
      <stop
         stop-color="#b0d6df"
         offset="0"
         id="stop9" />
      <stop
         stop-color="#e1f8fc"
         offset=".21709"
         id="stop11" />
      <stop
         stop-color="#96c3ce"
         offset="1"
         id="stop13" />
    </linearGradient>
    <linearGradient
       inkscape:collect="always"
       xlink:href="#linearGradient1611"
       id="linearGradient1109"
       x1="1.8368058"
       y1="2.3578029"
       x2="1.8673608"
       y2="5.5564623"
       gradientUnits="userSpaceOnUse"
       gradientTransform="matrix(3.464567,0,0,3.464567,1.0833334,2.7499994)" />
    <linearGradient
       inkscape:collect="always"
       id="linearGradient1611">
      <stop
         style="stop-color:#9ca3a8;stop-opacity:1;"
         offset="0"
         id="stop1607" />
      <stop
         style="stop-color:#63737d;stop-opacity:1"
         offset="1"
         id="stop1609" />
    </linearGradient>
    <linearGradient
       inkscape:collect="always"
       xlink:href="#linearGradient3161"
       id="linearGradient3163"
       x1="8.4666662"
       y1="15.345833"
       x2="8.4666662"
       y2="1.5874995"
       gradientUnits="userSpaceOnUse"
       gradientTransform="matrix(0.65414902,0,0,0.65414902,1.9615328,10.961517)" />
    <linearGradient
       inkscape:collect="always"
       id="linearGradient3161">
      <stop
         style="stop-color:#c7ccd1;stop-opacity:1;"
         offset="0"
         id="stop3157" />
      <stop
         style="stop-color:#fdfdfd;stop-opacity:1"
         offset="1"
         id="stop3159" />
    </linearGradient>
  </defs>
  <rect
     x="3.0003839"
     y="3"
     width="17.999617"
     height="17.999617"
     rx="8.9998083"
     ry="8.9998083"
     fill="url(#radialGradient875)"
     id="rect30"
     style="fill:url(#radialGradient875);stroke-width:0.321415" />
  <path
     d="M 12.046692,3.4499911 C 11.352597,3.4992151 10.673591,3.6266315 10.011415,3.8412718 9.7751759,3.8504918 9.2617615,4.1547678 9.6759935,4.2975615 9.8687721,4.503503 10.32899,4.5690412 10.273101,4.9055591 10.347444,5.2013525 9.5855755,5.1879314 9.8391599,5.4558368 10.018963,5.6924654 10.198763,5.9291073 10.378578,6.1657427 10.710581,6.0591034 10.820139,5.719082 11.004334,5.4573675 11.517053,5.2312104 12.242708,5.1628999 12.58155,4.727693 12.687727,4.4198403 12.793904,4.1120154 12.900084,3.804163 12.615617,3.6861046 12.331146,3.5680462 12.046693,3.4499595 Z M 9.5787644,3.5290781 C 9.2607399,3.4947711 9.0573159,3.6902141 8.8199309,3.818348 8.5277319,3.854136 8.1975939,3.9628912 8.013458,4.1979009 8.34123,4.3466484 8.5476564,4.1881719 8.8305805,4.0757843 9.093269,3.9412044 9.9867259,3.8850546 9.5787644,3.5290465 Z M 7.5265683,4.473008 C 7.3630697,4.7225781 7.641413,5.0837971 7.2673986,5.2147725 7.08278,5.4484845 6.9214433,5.8320997 7.3828896,5.6929027 7.4957739,5.3465907 7.8464388,4.8608091 8.2455206,5.0636356 8.6474821,5.1716356 9.019504,5.8470984 9.347697,5.3120866 9.3475643,5.172938 8.8371981,5.0915417 8.8485975,4.7511275 8.6214914,4.6536962 8.1360228,4.8307483 8.1529725,4.4766748 7.8248717,4.3309888 7.7303714,5.0569227 7.6140942,4.6511756 7.5849162,4.5917943 7.5557382,4.532413 7.5265562,4.4730045 Z m 8.9065097,0.3146423 c -0.388341,0.077655 -0.771914,0.1663608 -1.078387,0.4332801 0.08896,0.3556736 -0.369892,0.4155221 -0.573977,0.6129468 -0.148075,0.083558 0.0027,0.7290156 0.132427,0.6288177 0.275856,-0.3639533 0.418551,-0.050003 0.674985,0.129721 0.230808,0.214371 0.377363,-0.3980912 0.254767,-0.5707381 -0.07193,-0.2782522 0.27801,-0.4840974 0.403941,-0.7119738 0.385012,-0.2469679 0.05968,0.3150845 0.04736,0.5113103 -0.194343,0.5798857 0.862032,0.017499 0.165706,0.45083 -0.18678,0.1865272 -0.255171,0.4628594 -0.542179,0.6007056 -0.154968,0.1891502 -0.746414,0.1004939 -0.666765,-0.1945701 -0.215981,-0.3385134 -0.162671,0.4074214 -0.236051,0.4038497 -0.357951,-0.106662 -0.464479,0.2928794 -0.688964,0.4840392 -0.171795,0.1973631 -0.778274,0.074906 -0.325493,0.3806336 0.330232,0.3810519 -0.06581,0.3105826 -0.338994,0.4120694 -0.386062,0.066478 -0.321532,0.402712 -0.311542,0.7063056 0.0059,0.1673083 0.376463,0.4155216 0.564107,0.2988321 0.374812,-0.040139 0.280237,-0.5001191 0.557149,-0.6403952 0.230082,-0.1969512 0.391551,-0.378593 0.737024,-0.3833015 0.1595,0.1522205 0.48188,0.3810516 0.612616,0.5054884 -0.360801,0.3931105 0.165717,0.3610733 0.216083,0.00292 0.177971,-0.1972196 -0.586217,-0.6613077 -0.08227,-0.4574003 0.333563,0.1100409 0.256857,0.4508012 0.405263,0.680835 0.263803,0.4459415 0.292051,0.1131741 0.316611,-0.2317947 0.438285,-0.1376882 0.557083,0.7632185 1.14783,0.5519324 0.442731,0.1163338 0.232929,0.4026198 -0.04661,0.5874761 -0.255299,0.1862134 -0.635985,0.058579 -0.916179,-0.04252 C 16.58434,9.7946371 16.250268,9.8762276 16.104351,10.159262 15.780419,9.8796999 15.551103,9.4355881 15.080504,9.4109898 c -0.445581,-0.023083 -0.895422,0.09539 -1.325432,0.2165344 -0.47645,0.5591588 -0.991929,1.1037358 -1.213924,1.8184118 -0.230438,0.283185 0.263153,0.452839 -0.112037,0.710564 -0.261207,0.243882 0.08896,0.545117 0.143021,0.818591 0.281103,0.333351 0.712065,1.42986 1.146185,1.00573 0.244309,-0.386001 0.406312,0.252846 0.693586,-0.148067 0.241799,-0.220713 0.43763,0.22176 0.776714,0.06439 0.301523,0.1503 0.327741,0.444921 0.168416,0.726856 -0.102316,0.286246 0.443269,0.403942 0.288037,0.738105 -0.07318,0.326782 0.07017,0.604185 0.232506,0.877271 -0.360832,0.376641 -0.317333,0.934568 -0.22726,1.406519 0.176546,0.647026 0.429381,1.295913 0.404121,1.977197 0.316162,0.08293 0.549379,-0.126467 0.810823,-0.236409 0.499013,0.07058 0.770478,-0.46187 1.080341,-0.767261 -0.232781,-0.312922 0.191229,-0.447951 0.366501,-0.650388 -0.262169,-0.226764 -0.435889,-0.446928 -0.03,-0.623776 0.187233,-0.190172 0.53798,-0.297675 0.599477,-0.562939 -0.161234,-0.48047 -0.06941,-0.990968 -0.09312,-1.487727 0.198788,-0.400642 0.409851,-0.792761 0.740025,-1.102117 0.131675,-0.434449 0.44816,-0.832662 0.417471,-1.299001 -0.769607,0.230238 -0.537232,-0.09779 -0.110734,-0.409671 0.295976,-0.217069 0.716804,-0.419543 0.806802,-0.789644 0.0646,-0.365273 -0.220867,-0.932411 -0.46922,-0.395751 -0.12064,-0.171028 -0.545629,-0.329633 -0.539748,-0.598099 -0.09101,-0.541397 0.146403,-0.216219 0.357471,0.03946 0.490939,-0.363923 1.131636,1.004409 0.924429,0.02804 C 20.634262,8.6547698 19.562826,6.6584926 17.957891,5.2560233 17.81113,5.4123019 17.566219,5.9949667 17.388503,5.6586436 17.136906,5.3917424 16.939442,5.1507835 17.451939,5.2498714 17.954188,5.1135635 17.453839,5.0343102 17.190586,5.00323 16.926552,4.9724117 16.681706,4.8756948 16.433042,4.7875702 Z M 6.6025884,4.8007653 C 6.270315,4.9287438 6.7680561,5.4167179 6.1723372,5.2604518 5.5192216,5.556399 5.0841409,6.274609 4.6301905,6.8338864 3.5713034,8.3303167 2.9956155,10.159016 3.0000253,11.991978 c 0.1737456,0.358609 0.6016671,0.48014 0.9218202,0.678107 0.3253743,0.111303 0.7351344,0.09449 0.8970712,0.45395 0.181115,0.18966 0.424131,0.443988 0.6828752,0.46457 0.3976108,-0.127412 0.4536801,0.233102 0.2530847,0.499788 -0.021732,0.292112 -0.346851,0.527718 -0.3106129,0.784634 0.072438,0.287867 -0.3621505,0.604936 -0.069388,0.8683 0.3080012,0.550638 0.6376361,1.085377 1.0541771,1.560956 0.2590828,0.226984 0.2283628,0.539509 0.198788,0.851684 -0.1028145,0.329934 0.2090268,0.520788 0.3764032,0.760094 -0.4078727,0.747822 0.6968836,0.897279 1.1592638,1.224273 C 8.395968,19.925759 8.4144454,19.581696 8.8000944,19.572096 9.0339527,19.408262 9.0838776,19.038408 9.2445048,18.792503 9.2393648,18.531307 9.0720926,18.287224 9.3436468,18.00274 9.5482584,17.830039 9.9704834,17.94521 10.046652,17.584667 10.324595,17.29837 10.0997,16.901582 10.0997,16.554221 10.315601,16.258475 10.688077,16.031452 10.646738,15.6228 10.693509,15.013303 9.5961601,15.040693 9.2094986,14.67116 8.7342188,14.657554 8.8303367,14.009884 8.4603546,13.923847 8.0930424,13.942318 7.9594852,13.65453 7.8292881,13.362349 7.6269794,13.224366 7.2462203,13.504777 7.0345147,13.331857 6.7947308,13.205537 6.5796345,12.734329 6.3097302,13.028801 c -0.3552223,0.25756 -0.7045648,0.5192 -1.0415475,0.08798 -0.218541,-0.196927 0.056041,-0.755953 -0.2533833,-0.720735 -0.6605559,0.238937 0.2093533,-0.959467 -0.4090112,-0.800473 -0.1464548,0.229559 -0.4273707,0.583759 -0.7005151,0.312115 -0.274303,-0.129066 -0.1389918,-0.548718 -0.1267597,-0.800053 0.011871,-0.293974 0.3839017,-0.44054 0.5977073,-0.574638 0.4146814,0.185457 0.3295718,-0.367221 0.6761555,-0.18247 0.3362015,-0.0716 0.4879994,0.467718 0.6244966,0.487819 C 5.7570922,10.572652 5.6122735,10.18433 5.8588503,10.009282 6.1469569,9.7667733 6.5272061,9.5943022 6.5983046,9.1868491 6.6042234,8.7515885 7.1323836,9.118406 7.2635106,8.8219962 7.3843991,8.4823731 7.7369901,8.5035853 8.0348241,8.4395065 8.1977323,8.2883541 8.6071817,7.822779 8.1013521,7.9592767 7.9171126,7.9343771 7.1754215,8.0330908 7.6790507,7.8556273 7.9271344,7.6678365 8.2278294,7.6938586 8.5063133,7.6569753 8.7256332,7.4712962 9.1090293,7.4090912 9.125889,7.0710284 8.9438571,6.8234565 8.5582708,6.8705781 8.7219478,6.5154975 8.7061305,6.0510175 8.2970367,6.3492082 8.1626394,6.3138794 8.3809082,6.0101362 7.8788222,5.8188898 7.7103093,5.8146307 7.5957783,6.1008732 7.2737886,6.3478373 7.387425,6.6772919 7.0517032,6.7318158 6.8944155,6.9748107 6.7935278,7.2773392 6.6928718,7.3124 6.7256018,6.68401 6.3403576,6.7419098 6.0682418,6.7353447 5.7318506,6.3292987 6.0183441,6.1694028 6.4111254,5.9208872 6.899485,5.7263719 7.1478498,5.3294202 7.2906786,4.9738975 7.0272776,4.7556815 6.6765295,4.8061707 l -0.048903,-0.0034 z m 6.6085586,0.4093433 c -0.216779,0.1686463 -0.654406,0.052165 -0.746804,0.2147603 -0.03887,0.3279534 0.47036,0.3228245 0.673726,0.1417738 0.33239,-0.1228951 0.317574,-0.1004674 0.07306,-0.3565417 z M 8.3956499,5.3781951 C 7.9349497,5.5137478 8.3114344,5.8154939 8.6121752,5.8114752 8.970996,5.782524 8.6371579,5.3807753 8.3956499,5.3781951 Z m 5.4937831,0.905261 c -0.03296,0.2934652 0.248946,0.4767182 0.132521,0.7964224 -0.183329,0.4027415 0.07636,0.5236702 0.389662,0.2761209 0.41843,-0.2560214 -0.313553,-0.8168583 -0.411083,-1.0725429 h -0.11111 z M 13.75145,6.7553962 c -0.376014,-0.092428 -0.257057,0.6945166 0.0013,0.4235906 0.27823,-0.048571 0.01104,-0.2629569 -0.0013,-0.4235906 z M 8.95275,7.4646703 C 9.007954,7.7631056 9.027804,8.2362253 9.2462907,7.7280278 9.245991,7.6292612 9.0304268,7.5519963 8.95275,7.4646703 Z m 9.079907,3.0683347 c 0.44195,0.385342 0.620986,0.943422 0.8701,1.455451 0.370674,0.19462 0.151249,0.492259 0.202882,0.742362 0.516107,0.451866 -0.522651,0.211204 -0.396593,-0.281767 -0.08422,-0.572565 -0.451971,-0.954758 -0.752325,-1.368839 -0.02362,-0.219183 -0.258741,-0.469189 0.07594,-0.547187 z"
     fill="url(#linearGradient883)"
     id="path32"
     style="fill:url(#linearGradient883);stroke-width:0.321415" />
  <circle
     style="fill:url(#linearGradient1109);fill-opacity:1;stroke-width:0.343751;stroke-linejoin:round"
     id="path1021"
     cx="7.5"
     cy="16.499998"
     r="5.5" />
  <circle
     style="fill:url(#linearGradient3163);fill-opacity:1;stroke-width:0.173077"
     id="path2899"
     cx="7.5000005"
     cy="16.5"
     r="4.5" />
  <path
     id="rect1636"
     style="fill:#444444;fill-opacity:1;stroke-width:0.500001;stroke-linejoin:round"
     d="m 7.4746095,13 c -0.2649144,0.01334 -0.4746094,0.231656 -0.4746094,0.5 v 2.974609 c -4.304e-4,0.0085 0,0.01674 0,0.02539 0,0.277 0.223,0.5 0.5,0.5 H 7.5253911 10.5 C 10.777001,17 11,16.777 11,16.5 11,16.223 10.777001,16 10.500001,16 H 8.0000005 v -2.5 c 0,-0.277 -0.223,-0.5 -0.5,-0.5 -0.00866,0 -0.016845,-4.3e-4 -0.025391,0 z" />
</svg>
