<?xml version="1.0" encoding="UTF-8" standalone="no"?>
<!-- Created with Inkscape (http://www.inkscape.org/) -->

<svg
   width="16"
   height="16"
   viewBox="0 0 16 16"
   version="1.1"
   id="svg1"
   inkscape:version="1.3.2 (091e20ef0f, 2023-11-25, custom)"
   sodipodi:docname="audio-volume-low-symbolic.svg"
   xmlns:inkscape="http://www.inkscape.org/namespaces/inkscape"
   xmlns:sodipodi="http://sodipodi.sourceforge.net/DTD/sodipodi-0.dtd"
   xmlns="http://www.w3.org/2000/svg"
   xmlns:svg="http://www.w3.org/2000/svg">
  <sodipodi:namedview
     id="namedview1"
     pagecolor="#ffffff"
     bordercolor="#000000"
     borderopacity="0.25"
     inkscape:showpageshadow="2"
     inkscape:pageopacity="0.0"
     inkscape:pagecheckerboard="0"
     inkscape:deskcolor="#d1d1d1"
     inkscape:document-units="px"
     inkscape:zoom="51.25"
     inkscape:cx="7.9902439"
     inkscape:cy="8"
     inkscape:window-width="1920"
     inkscape:window-height="1017"
     inkscape:window-x="0"
     inkscape:window-y="0"
     inkscape:window-maximized="1"
     inkscape:current-layer="svg1" />
  <defs
     id="defs1" />
  <path
     id="path1"
     style="fill:#363636;fill-opacity:1;stroke-width:2.001"
     d="M 5.2929688 1.9960938 L 2.2910156 4.9980469 L 0 4.9980469 L 0 11.001953 L 2.2910156 11.001953 L 5.2929688 14.003906 L 6.0039062 14.003906 L 6.0039062 1.9960938 L 5.2929688 1.9960938 z M 5.0019531 3.7089844 L 5.0019531 12.291016 L 2.7128906 10 L 1 10 L 1 6 L 2.7128906 6 L 5.0019531 3.7089844 z " />
  <path
     id="path2"
     style="fill:#363636;fill-opacity:1;stroke-width:2.001"
     d="m 8.8320312,5.1699219 -0.703125,0.703125 C 8.4102927,6.1544333 8.6262306,6.4815896 8.7773438,6.8515625 8.9284569,7.2163221 9.0039062,7.5987604 9.0039062,8 9.0039063,8.4012263 8.9284569,8.7862771 8.7773438,9.15625 8.6262306,9.5210096 8.4102927,9.8436133 8.1289062,10.125 l 0.703125,0.705078 C 9.2072109,10.454899 9.4979454,10.02107 9.7011719,9.53125 9.9043984,9.0414235 10.005859,8.5315062 10.005859,8 10.005859,7.4684872 9.9043984,6.9585695 9.7011719,6.46875 9.4979454,5.9789305 9.2072109,5.5451015 8.8320312,5.1699219 Z"
     sodipodi:nodetypes="cccscccsssc" />
  <path
     id="path3"
     style="opacity:0.2;fill:#363636;fill-opacity:1;stroke-width:2.001"
     d="M 13.076172 0.92578125 L 12.373047 1.6289062 C 12.795104 2.051005 13.169115 2.5108276 13.492188 3.0058594 C 13.820472 3.4956579 14.096248 4.0108026 14.320312 4.5527344 C 14.544379 5.0946459 14.713485 5.6585693 14.828125 6.2421875 C 14.947975 6.8206124 15.007813 7.4059618 15.007812 8 C 15.007812 8.5940449 14.947982 9.1820068 14.828125 9.765625 C 14.713485 10.344055 14.544379 10.905366 14.320312 11.447266 C 14.096248 11.989163 13.820472 12.506923 13.492188 13.001953 C 13.169135 13.491806 12.795124 13.949014 12.373047 14.371094 L 13.076172 15.074219 C 13.545156 14.605226 13.960768 14.095968 14.320312 13.548828 C 14.685072 13.001684 14.992068 12.429331 15.242188 11.830078 C 15.492305 11.225621 15.679628 10.603828 15.804688 9.9628906 C 15.934955 9.3167397 16 8.6617779 16 8 C 16 7.3382088 15.934958 6.6878132 15.804688 6.046875 C 15.679628 5.4007301 15.492305 4.7769859 15.242188 4.1777344 C 14.992068 3.5732762 14.685072 2.9983101 14.320312 2.4511719 C 13.960762 1.9040201 13.545149 1.3947598 13.076172 0.92578125 z M 10.958984 3.0449219 L 10.248047 3.7558594 C 10.810811 4.3186576 11.242689 4.9664407 11.544922 5.7011719 C 11.852362 6.4359028 12.005859 7.2027357 12.005859 8 C 12.005859 8.7972643 11.852362 9.5640977 11.544922 10.298828 C 11.242695 11.033585 10.810817 11.681368 10.248047 12.244141 L 10.958984 12.955078 C 11.287271 12.626805 11.576052 12.272971 11.826172 11.892578 C 12.081505 11.506994 12.294837 11.103718 12.466797 10.681641 C 12.643964 10.259574 12.776644 9.8231318 12.865234 9.375 C 12.959024 8.9216348 13.005859 8.4637652 13.005859 8 C 13.005859 7.5414148 12.959029 7.0861577 12.865234 6.6328125 C 12.776654 6.179494 12.64397 5.7404382 12.466797 5.3183594 C 12.294837 4.8962873 12.081505 4.4956265 11.826172 4.1152344 C 11.576052 3.7296556 11.287271 3.3732074 10.958984 3.0449219 z " />
</svg>
