<?xml version="1.0" encoding="UTF-8" standalone="no"?>
<!-- Created with Inkscape (http://www.inkscape.org/) -->

<svg
   width="16"
   height="16"
   viewBox="0 0 16 16"
   version="1.1"
   id="svg1"
   inkscape:version="1.3.2 (091e20ef0f, 2023-11-25, custom)"
   sodipodi:docname="audio-volume-high-symbolic.svg"
   xmlns:inkscape="http://www.inkscape.org/namespaces/inkscape"
   xmlns:sodipodi="http://sodipodi.sourceforge.net/DTD/sodipodi-0.dtd"
   xmlns="http://www.w3.org/2000/svg"
   xmlns:svg="http://www.w3.org/2000/svg">
  <sodipodi:namedview
     id="namedview1"
     pagecolor="#ffffff"
     bordercolor="#000000"
     borderopacity="0.25"
     inkscape:showpageshadow="2"
     inkscape:pageopacity="0.0"
     inkscape:pagecheckerboard="0"
     inkscape:deskcolor="#d1d1d1"
     inkscape:document-units="px"
     inkscape:zoom="51.25"
     inkscape:cx="7.9902439"
     inkscape:cy="8"
     inkscape:window-width="1920"
     inkscape:window-height="1017"
     inkscape:window-x="0"
     inkscape:window-y="0"
     inkscape:window-maximized="1"
     inkscape:current-layer="svg1" />
  <defs
     id="defs1" />
  <path
     id="path1"
     style="fill:#363636;fill-opacity:1;stroke-width:2.001"
     d="M 5.2929688 1.9960938 L 2.2910156 4.9980469 L 0 4.9980469 L 0 11.001953 L 2.2910156 11.001953 L 5.2929688 14.003906 L 6.0039062 14.003906 L 6.0039062 1.9960938 L 5.2929688 1.9960938 z M 5.0019531 3.7089844 L 5.0019531 12.291016 L 2.7128906 10 L 1 10 L 1 6 L 2.7128906 6 L 5.0019531 3.7089844 z " />
  <path
     d="m 13.077,0.92624 c 0.46898,0.46898 0.883247,0.9770467 1.2428,1.5242 0.36476,0.54714 0.6722,1.12294 0.92232,1.7274 0.25012,0.5992533 0.43771,1.2219533 0.56277,1.8681 0.130273,0.64094 0.19541,1.2923067 0.19541,1.9541 0,0.66178 -0.06514,1.315747 -0.19541,1.9619 -0.12506,0.64094 -0.31265,1.26364 -0.56277,1.8681 -0.25012,0.599253 -0.55756,1.172453 -0.92232,1.7196 -0.359547,0.54714 -0.773813,1.055207 -1.2428,1.5242 l -0.70347,-0.70347 c 0.42208,-0.42208 0.794647,-0.878047 1.1177,-1.3679 0.328287,-0.495033 0.604463,-1.0135 0.82853,-1.5554 0.224067,-0.5419 0.39342,-1.102067 0.50806,-1.6805 0.119853,-0.58362 0.17978,-1.1724533 0.17978,-1.7665 0,-0.59404 -0.05993,-1.1802733 -0.17978,-1.7587 C 14.71318,5.65775 14.543827,5.0949833 14.31976,4.55307 14.095693,4.0111367 13.819517,3.49527 13.49123,3.00547 13.168157,2.5104367 12.79559,2.05187 12.37353,1.62977 Z m -2.1182,2.1182 c 0.328287,0.3282867 0.61749,0.68522 0.86761,1.0708 0.255333,0.3803933 0.46898,0.7816267 0.64094,1.2037 0.177173,0.42208 0.31005,0.85978 0.39863,1.3131 0.09379,0.4533467 0.14069,0.9093133 0.14069,1.3679 0,0.4637667 -0.0469,0.9223333 -0.14069,1.3757 -0.08859,0.448133 -0.221463,0.883233 -0.39863,1.3053 -0.17196,0.42208 -0.385607,0.825913 -0.64094,1.2115 -0.25012,0.380393 -0.539323,0.734727 -0.86761,1.063 l -0.71128,-0.71128 c 0.562773,-0.562773 0.995273,-1.21154 1.2975,-1.9463 0.30744,-0.734733 0.46116,-1.5007333 0.46116,-2.298 0,-0.7972667 -0.15372,-1.5632667 -0.46116,-2.298 -0.302233,-0.7347333 -0.734733,-1.3835 -1.2975,-1.9463 z m -2.126,2.126 c 0.37518,0.37518 0.6643833,0.80768 0.86761,1.2975 0.2032267,0.48982 0.30484,1.0004867 0.30484,1.532 0,0.5315067 -0.1016133,1.042173 -0.30484,1.532 -0.2032267,0.48982 -0.49243,0.92232 -0.86761,1.2975 L 8.12933,10.12597 C 8.4107167,9.844583 8.6269667,9.52151 8.77808,9.15675 8.9291933,8.7867767 9.00475,8.4011767 9.00475,7.99995 9.00475,7.59871 8.9291933,7.21571 8.77808,6.85095 8.6269667,6.4809767 8.4107167,6.1552967 8.12933,5.87391 Z"
     style="fill:#363636;fill-opacity:1;stroke-width:2.001"
     id="path2" />
</svg>
