<?xml version="1.0" encoding="UTF-8" standalone="no"?>
<!-- Created with Inkscape (http://www.inkscape.org/) -->

<svg
   width="16"
   height="16"
   viewBox="0 0 16 16.000001"
   version="1.1"
   id="svg1"
   inkscape:version="1.3.2 (091e20ef0f, 2023-11-25, custom)"
   sodipodi:docname="battery-level-80-charging-symbolic.svg"
   xmlns:inkscape="http://www.inkscape.org/namespaces/inkscape"
   xmlns:sodipodi="http://sodipodi.sourceforge.net/DTD/sodipodi-0.dtd"
   xmlns="http://www.w3.org/2000/svg"
   xmlns:svg="http://www.w3.org/2000/svg">
  <sodipodi:namedview
     id="namedview1"
     pagecolor="#ffffff"
     bordercolor="#000000"
     borderopacity="0.25"
     inkscape:showpageshadow="2"
     inkscape:pageopacity="0.0"
     inkscape:pagecheckerboard="0"
     inkscape:deskcolor="#d1d1d1"
     inkscape:document-units="px"
     inkscape:zoom="51.25"
     inkscape:cx="7.9902439"
     inkscape:cy="8"
     inkscape:window-width="1920"
     inkscape:window-height="1017"
     inkscape:window-x="0"
     inkscape:window-y="0"
     inkscape:window-maximized="1"
     inkscape:current-layer="svg1" />
  <defs
     id="defs1" />
  <path
     id="path1"
     style="fill:#363636;stroke-width:2"
     d="M 6 3 L 6 4 L 14 4 L 14 12 L 4 12 L 4 13 L 15 13 L 15 10 L 16 10 L 16 6 L 15 6 L 15 3 L 6 3 z " />
  <path
     id="path2"
     style="fill:#363636;stroke-width:2"
     d="M 6 5 L 6 5.5 C 6 6.9013238 5.1839854 8.1027274 4 8.6621094 L 4 11 L 11 11 L 11 5 L 6 5 z " />
  <path
     id="rect1"
     style="fill:#363636;stroke-width:2"
     d="M 1 1 L 1 3 L 0 3 L 0 5.5 C 0 6.7139536 0.8557929 7.7210823 2 7.9511719 L 2 13 L 3 13 L 3 7.9511719 C 4.1442071 7.7210823 5 6.7139536 5 5.5 L 5 3 L 4 3 L 4 1 L 3 1 L 3 3 L 2 3 L 2 1 L 1 1 z M 1 4 L 4 4 L 4 5.5 C 4 6.3309968 3.3309968 7 2.5 7 C 1.6690032 7 1 6.3309968 1 5.5 L 1 4 z " />
</svg>
