<?xml version="1.0" encoding="UTF-8" standalone="no"?>
<!-- Created with Inkscape (http://www.inkscape.org/) -->

<svg
   width="16"
   height="16"
   viewBox="0 0 16 16"
   version="1.1"
   id="svg1"
   inkscape:version="1.3.2 (091e20ef0f, 2023-11-25, custom)"
   sodipodi:docname="network-wired-no-route-symbolic.svg"
   xmlns:inkscape="http://www.inkscape.org/namespaces/inkscape"
   xmlns:sodipodi="http://sodipodi.sourceforge.net/DTD/sodipodi-0.dtd"
   xmlns="http://www.w3.org/2000/svg"
   xmlns:svg="http://www.w3.org/2000/svg">
  <sodipodi:namedview
     id="namedview1"
     pagecolor="#ffffff"
     bordercolor="#000000"
     borderopacity="0.25"
     inkscape:showpageshadow="2"
     inkscape:pageopacity="0.0"
     inkscape:pagecheckerboard="0"
     inkscape:deskcolor="#d1d1d1"
     inkscape:document-units="px"
     inkscape:zoom="51.25"
     inkscape:cx="7.9902439"
     inkscape:cy="8"
     inkscape:window-width="1920"
     inkscape:window-height="1017"
     inkscape:window-x="0"
     inkscape:window-y="0"
     inkscape:window-maximized="1"
     inkscape:current-layer="svg1" />
  <defs
     id="defs1" />
  <path
     d="m 11.00004,13 v -2 h 1 v 2 z m 0,2 v -1 h 1 v 1 z m -4,1 4.5,-9 4.5,9 z m 1.4141,-0.875 h 6.1719 L 11.50014,8.9531 Z M 4e-5,2 h 16 v 9 h -1.1016 l -0.5,-1 H 15 V 3 H 5 V 8 H 3 v 2 h 5.6016 l -0.5,1 H 3 v 3 H 2 V 8 H 0 Z m 4,5 V 5 h -1 v 1 h -1 V 5 h -1 v 2 z m 0,-3 V 3 h -3 v 1 z m 1,9 h 2.1016 l -0.5,1 h -1.6016 z"
     style="fill:#363636;fill-opacity:1;stroke-width:2.6667"
     id="path1" />
</svg>
