<?xml version="1.0" encoding="UTF-8" standalone="no"?>
<!-- Created with Inkscape (http://www.inkscape.org/) -->

<svg
   width="16"
   height="16"
   viewBox="0 0 16 16"
   version="1.1"
   id="svg1"
   inkscape:version="1.3.2 (091e20ef0f, 2023-11-25, custom)"
   sodipodi:docname="network-wireless-signal-weak-secure-symbolic.svg"
   xmlns:inkscape="http://www.inkscape.org/namespaces/inkscape"
   xmlns:sodipodi="http://sodipodi.sourceforge.net/DTD/sodipodi-0.dtd"
   xmlns="http://www.w3.org/2000/svg"
   xmlns:svg="http://www.w3.org/2000/svg">
  <sodipodi:namedview
     id="namedview1"
     pagecolor="#ffffff"
     bordercolor="#000000"
     borderopacity="0.25"
     inkscape:showpageshadow="2"
     inkscape:pageopacity="0.0"
     inkscape:pagecheckerboard="0"
     inkscape:deskcolor="#d1d1d1"
     inkscape:document-units="px"
     inkscape:zoom="51.25"
     inkscape:cx="7.9902439"
     inkscape:cy="8"
     inkscape:window-width="1920"
     inkscape:window-height="1017"
     inkscape:window-x="0"
     inkscape:window-y="0"
     inkscape:window-maximized="1"
     inkscape:current-layer="svg1" />
  <defs
     id="defs1" />
  <path
     id="path1"
     style="fill:#363636;fill-opacity:1;stroke-width:9.33333"
     d="M 14 13 C 13.447718 13 13 13.447718 13 14 C 13 14.552282 13.447718 15 14 15 C 14.552282 15 15 14.552282 15 14 C 15 13.447718 14.552282 13 14 13 z " />
  <path
     id="path2"
     style="fill:#363636;fill-opacity:1;stroke-width:9.33333;opacity:0.2"
     d="M 15 1 C 9.5956058 1.0058574 4.6771865 4.1218703 2.3632812 9.0058594 C 2.4088331 9.0034144 2.4538181 9 2.5 9 C 2.8177878 9 3.1211795 9.060855 3.4003906 9.1679688 C 5.6030566 4.7798664 10.090099 2.0071027 15 2 L 15 1 z M 15 5 C 11.030568 5.00741 7.4412843 7.3619458 5.8535156 11 L 6 11 L 6 15 C 6 10.029452 10.029452 6 15 6 L 15 5 z M 15 9 C 11.686301 9 9 11.686301 9 15 L 10 15 C 10 12.238585 12.238585 10 15 10 L 15 9 z " />
  <path
     id="path3"
     style="fill:#363636;fill-opacity:1;stroke-linejoin:round"
     d="M 2.5,10 C 1.671574,10 1,10.671574 1,11.5 V 12 H 0 v 4 H 5 V 12 H 4 V 11.5 C 4,10.671574 3.328426,10 2.5,10 Z m 0,1 C 2.776142,11 3,11.223858 3,11.5 V 12 H 2 V 11.5 C 2,11.223858 2.223858,11 2.5,11 Z M 1,13 h 3 v 2 H 1 Z" />
</svg>
