<?xml version="1.0" encoding="UTF-8" standalone="no"?>
<!-- Created with Inkscape (http://www.inkscape.org/) -->

<svg
   width="16"
   height="16"
   viewBox="0 0 16 16"
   version="1.1"
   id="svg1"
   inkscape:version="1.3.2 (091e20ef0f, 2023-11-25, custom)"
   sodipodi:docname="security-medium-symbolic.svg"
   xmlns:inkscape="http://www.inkscape.org/namespaces/inkscape"
   xmlns:sodipodi="http://sodipodi.sourceforge.net/DTD/sodipodi-0.dtd"
   xmlns="http://www.w3.org/2000/svg"
   xmlns:svg="http://www.w3.org/2000/svg">
  <sodipodi:namedview
     id="namedview1"
     pagecolor="#ffffff"
     bordercolor="#000000"
     borderopacity="0.25"
     inkscape:showpageshadow="2"
     inkscape:pageopacity="0.0"
     inkscape:pagecheckerboard="0"
     inkscape:deskcolor="#d1d1d1"
     inkscape:document-units="px"
     inkscape:zoom="51.25"
     inkscape:cx="7.9902439"
     inkscape:cy="8"
     inkscape:window-width="1920"
     inkscape:window-height="1017"
     inkscape:window-x="0"
     inkscape:window-y="0"
     inkscape:window-maximized="1"
     inkscape:current-layer="svg1" />
  <defs
     id="defs1" />
  <path
     d="m 2,1 v 8 c 0,2.072 1.575,3.522 2.937,4.469 0.8426618,0.581234 1.7435117,1.073216 2.688,1.468 L 8,15.062 8.375,14.937 c 0,0 1.33,-0.544 2.687,-1.5 C 12.421,12.482 14,11.044 14,9 V 1 Z m 1,1 h 10 v 7 c 0,2.964 -5,5 -5,5 0,0 -5,-1.95 -5,-5 z"
     style="text-indent:0;text-decoration-line:none;text-transform:none;overflow:visible;fill:#363636;fill-opacity:1"
     id="path1" />
  <path
     d="m 4,3 v 6 c 0,0.979 0.925,2.022 2.062,2.812 0.95,0.66 1.646,0.909 1.938,1.032 C 8.292,12.716 8.983,12.453 9.937,11.781 11.08,10.978 12,9.92 12,9 V 3 Z"
     style="text-indent:0;text-decoration-line:none;text-transform:none;overflow:visible;fill:#363636;fill-opacity:1;opacity:0.2"
     id="path2" />
</svg>
