<?xml version="1.0" encoding="UTF-8" standalone="no"?>
<!-- Created with Inkscape (http://www.inkscape.org/) -->

<svg
   width="48"
   height="48"
   viewBox="0 0 48 48.000003"
   version="1.1"
   id="svg5"
   inkscape:version="1.2.1 (9c6d41e410, 2022-07-14, custom)"
   sodipodi:docname="folder-games.svg"
   xmlns:inkscape="http://www.inkscape.org/namespaces/inkscape"
   xmlns:sodipodi="http://sodipodi.sourceforge.net/DTD/sodipodi-0.dtd"
   xmlns:xlink="http://www.w3.org/1999/xlink"
   xmlns="http://www.w3.org/2000/svg"
   xmlns:svg="http://www.w3.org/2000/svg">
  <sodipodi:namedview
     id="namedview7"
     pagecolor="#ffffff"
     bordercolor="#000000"
     borderopacity="0.25"
     inkscape:showpageshadow="2"
     inkscape:pageopacity="0.0"
     inkscape:pagecheckerboard="0"
     inkscape:deskcolor="#d1d1d1"
     inkscape:document-units="px"
     showgrid="false"
     inkscape:zoom="16.770833"
     inkscape:cx="23.970186"
     inkscape:cy="24"
     inkscape:window-width="1920"
     inkscape:window-height="1008"
     inkscape:window-x="0"
     inkscape:window-y="0"
     inkscape:window-maximized="1"
     inkscape:current-layer="svg5"
     showguides="false" />
  <defs
     id="defs2">
    <linearGradient
       inkscape:collect="always"
       id="linearGradient1713">
      <stop
         style="stop-color:#be8b08;stop-opacity:1;"
         offset="0"
         id="stop1709" />
      <stop
         style="stop-color:#fdd164;stop-opacity:1;"
         offset="1"
         id="stop1711" />
    </linearGradient>
    <linearGradient
       inkscape:collect="always"
       id="linearGradient1654">
      <stop
         style="stop-color:#fce798;stop-opacity:1;"
         offset="0"
         id="stop1650" />
      <stop
         style="stop-color:#ffc937;stop-opacity:1;"
         offset="1"
         id="stop1652" />
    </linearGradient>
    <linearGradient
       inkscape:collect="always"
       xlink:href="#linearGradient1654"
       id="linearGradient1499"
       x1="16"
       y1="6.0001335"
       x2="26"
       y2="57.456135"
       gradientUnits="userSpaceOnUse"
       gradientTransform="matrix(0.75,0.27297768,0,0.75,0,-4.6729188)" />
    <linearGradient
       inkscape:collect="always"
       xlink:href="#linearGradient1713"
       id="linearGradient1707"
       x1="12"
       y1="32"
       x2="44"
       y2="32"
       gradientUnits="userSpaceOnUse"
       gradientTransform="matrix(0.75,0,0,0.75,0,-0.5)" />
    <linearGradient
       inkscape:collect="always"
       xlink:href="#linearGradient3309"
       id="linearGradient933"
       x1="7.5"
       y1="2.6498005"
       x2="15"
       y2="10.6498"
       gradientUnits="userSpaceOnUse"
       gradientTransform="matrix(1.3333334,0,0,1.3749999,25,30.356525)" />
    <linearGradient
       inkscape:collect="always"
       id="linearGradient3309">
      <stop
         style="stop-color:#c6d0d7;stop-opacity:1;"
         offset="0"
         id="stop3305" />
      <stop
         style="stop-color:#afb0b4;stop-opacity:1;"
         offset="1"
         id="stop3307" />
    </linearGradient>
    <linearGradient
       inkscape:collect="always"
       xlink:href="#linearGradient3309"
       id="linearGradient3303"
       x1="7"
       y1="10"
       x2="2"
       y2="5"
       gradientUnits="userSpaceOnUse"
       gradientTransform="matrix(1.4,0,0,1.4,24.2,29.000001)" />
    <linearGradient
       inkscape:collect="always"
       xlink:href="#linearGradient6486"
       id="linearGradient6480"
       x1="-12.356682"
       y1="5.2344007"
       x2="-13.70065"
       y2="6.7135053"
       gradientUnits="userSpaceOnUse"
       gradientTransform="matrix(1.5,0,0,1.5,-21,28.500001)" />
    <linearGradient
       inkscape:collect="always"
       id="linearGradient6486">
      <stop
         style="stop-color:#1998df;stop-opacity:1;"
         offset="0"
         id="stop6482" />
      <stop
         style="stop-color:#076cbe;stop-opacity:1;"
         offset="1"
         id="stop6484" />
    </linearGradient>
    <linearGradient
       inkscape:collect="always"
       xlink:href="#linearGradient6486"
       id="linearGradient6590"
       x1="-10.363785"
       y1="8.228488"
       x2="-11.704712"
       y2="9.7094936"
       gradientUnits="userSpaceOnUse"
       gradientTransform="matrix(1.5,0,0,1.5,-22,28.000001)" />
    <linearGradient
       inkscape:collect="always"
       xlink:href="#linearGradient10607"
       id="linearGradient12866"
       x1="3"
       y1="6"
       x2="8"
       y2="11"
       gradientUnits="userSpaceOnUse"
       gradientTransform="translate(25,31.000001)" />
    <linearGradient
       inkscape:collect="always"
       id="linearGradient10607">
      <stop
         style="stop-color:#636364;stop-opacity:1;"
         offset="0"
         id="stop10603" />
      <stop
         style="stop-color:#3a3a3a;stop-opacity:1;"
         offset="1"
         id="stop10605" />
    </linearGradient>
    <linearGradient
       inkscape:collect="always"
       xlink:href="#linearGradient10607"
       id="linearGradient12886"
       x1="8"
       y1="4"
       x2="9"
       y2="5"
       gradientUnits="userSpaceOnUse"
       gradientTransform="translate(25,31.000001)" />
    <linearGradient
       inkscape:collect="always"
       xlink:href="#linearGradient10607"
       id="linearGradient12878"
       x1="11"
       y1="4"
       x2="12"
       y2="5"
       gradientUnits="userSpaceOnUse"
       gradientTransform="translate(25,31.000001)" />
  </defs>
  <path
     id="rect238"
     style="fill:url(#linearGradient1707);fill-opacity:1;stroke-width:0.75"
     d="M 10.875,4.0004344 36,4 c 1.662,-2.88e-5 3,1.338 3,3 v 34 c 0,1.662 -1.338,3 -3,3 H 12 L 9,39.5 V 7 C 9,5.338 10.875,4.0004344 10.875,4.0004344 Z"
     sodipodi:nodetypes="cssssccsc" />
  <rect
     style="fill:url(#linearGradient933);fill-opacity:1;stroke-width:1.35401"
     id="rect371"
     width="20"
     height="11"
     x="25"
     y="34"
     ry="5.5" />
  <circle
     style="fill:url(#linearGradient3303);fill-opacity:1;stroke-width:1"
     id="path3295"
     cx="30.5"
     cy="39.5"
     r="3.5" />
  <circle
     style="fill:url(#linearGradient6480);fill-opacity:1;stroke-width:1.5"
     id="path4072"
     cx="-40.5"
     cy="37.5"
     r="1.5"
     transform="scale(-1,1)" />
  <circle
     style="fill:url(#linearGradient6590);fill-opacity:1;stroke-width:1.5"
     id="path4074"
     cx="-38.5"
     cy="41.5"
     r="1.5"
     transform="scale(-1,1)" />
  <path
     id="rect12825"
     style="fill:url(#linearGradient12866);fill-opacity:1"
     d="m 30.5,37.000001 c -0.277,0 -0.5,0.223 -0.5,0.5 v 1.5 h -1.5 c -0.277,0 -0.5,0.223 -0.5,0.5 0,0.277 0.223,0.5 0.5,0.5 H 30 v 1.5 c 0,0.277 0.223,0.5 0.5,0.5 0.277,0 0.5,-0.223 0.5,-0.5 v -1.5 h 1.5 c 0.277,0 0.5,-0.223 0.5,-0.5 0,-0.277 -0.223,-0.5 -0.5,-0.5 H 31 v -1.5 c 0,-0.277 -0.223,-0.5 -0.5,-0.5 z" />
  <circle
     style="fill:url(#linearGradient12886);fill-opacity:1"
     id="path12868"
     cx="33.5"
     cy="35.5"
     r="0.5" />
  <circle
     style="fill:url(#linearGradient12878);fill-opacity:1"
     id="path12870"
     cx="36.5"
     cy="35.5"
     r="0.5" />
  <path
     id="rect348"
     style="fill:url(#linearGradient1499);fill-opacity:1;stroke-width:0.75"
     d="M 10.829591,4.0043946 C 9.7521225,4.0664472 9,4.8570181 9,6.1035156 V 39.499699 c 0,2.707896 1.565251,4.137701 3,4.694825 l 7,2.321776 c 1.661997,0.604917 3,-0.246693 3,-1.90869 v -12.9997 c 0.896877,-1.086855 3,-1.976118 3,-3.407226 v -16.5 C 25,10.038687 23.661997,8.2128273 22,7.6079103 L 12,4.1948242 C 11.584502,4.0435948 11.188746,3.9837103 10.829591,4.0043946 Z"
     sodipodi:nodetypes="sssccscssccs" />
</svg>
