<?xml version="1.0" encoding="UTF-8" standalone="no"?>
<!-- Created with Inkscape (http://www.inkscape.org/) -->

<svg
   width="48"
   height="48"
   viewBox="0 0 48 48.000003"
   version="1.1"
   id="svg5"
   inkscape:version="1.2 (1:1.2.1+202207142221+cd75a1ee6d)"
   sodipodi:docname="folder-download.svg"
   xmlns:inkscape="http://www.inkscape.org/namespaces/inkscape"
   xmlns:sodipodi="http://sodipodi.sourceforge.net/DTD/sodipodi-0.dtd"
   xmlns:xlink="http://www.w3.org/1999/xlink"
   xmlns="http://www.w3.org/2000/svg"
   xmlns:svg="http://www.w3.org/2000/svg">
  <sodipodi:namedview
     id="namedview7"
     pagecolor="#ffffff"
     bordercolor="#000000"
     borderopacity="0.25"
     inkscape:showpageshadow="2"
     inkscape:pageopacity="0.0"
     inkscape:pagecheckerboard="0"
     inkscape:deskcolor="#d1d1d1"
     inkscape:document-units="px"
     showgrid="false"
     inkscape:zoom="16.875"
     inkscape:cx="24"
     inkscape:cy="24"
     inkscape:window-width="1920"
     inkscape:window-height="1012"
     inkscape:window-x="0"
     inkscape:window-y="0"
     inkscape:window-maximized="1"
     inkscape:current-layer="svg5" />
  <defs
     id="defs2">
    <linearGradient
       inkscape:collect="always"
       id="linearGradient1713">
      <stop
         style="stop-color:#be8b08;stop-opacity:1;"
         offset="0"
         id="stop1709" />
      <stop
         style="stop-color:#fdd164;stop-opacity:1;"
         offset="1"
         id="stop1711" />
    </linearGradient>
    <linearGradient
       inkscape:collect="always"
       id="linearGradient1654">
      <stop
         style="stop-color:#fce798;stop-opacity:1;"
         offset="0"
         id="stop1650" />
      <stop
         style="stop-color:#ffc937;stop-opacity:1;"
         offset="1"
         id="stop1652" />
    </linearGradient>
    <linearGradient
       inkscape:collect="always"
       xlink:href="#linearGradient1654"
       id="linearGradient1499"
       x1="16"
       y1="6.0001335"
       x2="26"
       y2="57.456135"
       gradientUnits="userSpaceOnUse"
       gradientTransform="matrix(0.75,0.27297768,0,0.75,0,-4.6729188)" />
    <linearGradient
       inkscape:collect="always"
       xlink:href="#linearGradient1713"
       id="linearGradient1707"
       x1="12"
       y1="32"
       x2="44"
       y2="32"
       gradientUnits="userSpaceOnUse"
       gradientTransform="matrix(0.75,0,0,0.75,0,-0.5)" />
    <linearGradient
       inkscape:collect="always"
       xlink:href="#linearGradient8250"
       id="linearGradient2648"
       x1="4"
       y1="1.0000001"
       x2="18"
       y2="21"
       gradientUnits="userSpaceOnUse"
       gradientTransform="translate(25,24)" />
    <linearGradient
       inkscape:collect="always"
       id="linearGradient8250">
      <stop
         style="stop-color:#3d9ff9;stop-opacity:1;"
         offset="0"
         id="stop8246" />
      <stop
         style="stop-color:#1467c3;stop-opacity:1;"
         offset="1"
         id="stop8248" />
    </linearGradient>
  </defs>
  <path
     id="rect238"
     style="fill:url(#linearGradient1707);fill-opacity:1;stroke-width:0.75"
     d="M 10.875,4.0004344 36,4 c 1.662,-2.88e-5 3,1.338 3,3 v 34 c 0,1.662 -1.338,3 -3,3 H 12 L 9,39.5 V 7 C 9,5.338 10.875,4.0004344 10.875,4.0004344 Z"
     sodipodi:nodetypes="cssssccsc" />
  <path
     id="rect2106"
     style="fill:url(#linearGradient2648);fill-opacity:1.0;stroke-width:3;stroke-linecap:round;stroke-linejoin:round"
     d="m 36,25 c -0.554,0 -1,0.446 -1,1 v 12.583984 l -3.949219,-3.949218 c -0.391737,-0.391737 -1.022325,-0.391737 -1.414062,0 -0.391737,0.391737 -0.391737,1.022325 0,1.414062 l 5.634765,5.634766 0.02151,0.02147 c 0.0079,0.0079 0.01531,0.01584 0.02343,0.02343 0.01005,0.0094 0.0209,0.01841 0.03126,0.02733 0.0056,0.0048 0.0099,0.01088 0.01565,0.01565 0.0018,0.0015 0.004,0.0024 0.0059,0.0039 0.0065,0.0053 0.01293,0.01051 0.01954,0.01565 0.0086,0.0066 0.01667,0.01323 0.0254,0.01954 0.02154,0.01557 0.04361,0.03111 0.06641,0.04492 0.0089,0.0054 0.01829,0.01047 0.02733,0.01565 0.005,0.0028 0.01051,0.0051 0.01565,0.0078 0.01829,0.01002 0.03594,0.01863 0.05469,0.02733 0.01485,0.0069 0.02971,0.01334 0.04492,0.01954 0.01081,0.0044 0.02222,0.0097 0.03318,0.01368 0.0043,0.0016 0.0094,0.0024 0.01368,0.0039 0.02627,0.0091 0.05285,0.01841 0.08008,0.0254 0.0038,9.84e-4 0.0079,9.53e-4 0.01172,0.002 0.02638,0.0064 0.05292,0.01134 0.08008,0.01565 0.002,3.23e-4 0.0038,0.0016 0.0059,0.002 0.0027,4.08e-4 0.0051,0.0016 0.0078,0.002 0.01402,0.002 0.02876,0.0025 0.04297,0.0039 0.0019,1.93e-4 0.004,-1.83e-4 0.0059,0 0.01493,0.0014 0.02978,0.0031 0.04492,0.0039 0.05586,0.0028 0.112362,7.61e-4 0.16797,-0.0059 0.0116,-0.0014 0.0237,-0.0022 0.03515,-0.0039 0.02925,-0.0044 0.05758,-0.01066 0.08594,-0.01758 0.01501,-0.0037 0.03008,-0.0073 0.04492,-0.01172 0,0 0.002,0 0.002,0 0.01546,-0.0046 0.02967,-0.01024 0.04492,-0.01565 0.03073,-0.0107 0.0606,-0.02358 0.08984,-0.03712 0.02404,-0.01119 0.04898,-0.02196 0.07227,-0.03515 0.0078,-0.0044 0.01572,-0.009 0.02343,-0.01368 0.02566,-0.01542 0.05012,-0.03318 0.07422,-0.05078 0.01387,-0.01013 0.0277,-0.02041 0.04101,-0.03126 0.0074,-0.0061 0.01413,-0.01323 0.0215,-0.01954 0.01055,-0.0091 0.02113,-0.01788 0.03126,-0.02733 0.0079,-0.0074 0.01572,-0.01572 0.02343,-0.02343 l 0.0215,-0.02147 5.634766,-5.634766 c 0.391737,-0.391737 0.391737,-1.022325 0,-1.414062 -0.391738,-0.391737 -1.022326,-0.391737 -1.414063,0 L 37,38.583984 V 26 c 0,-0.554 -0.446,-1 -1,-1 z m -6,18 c -0.554,0 -1,0.446 -1,1 0,0.554 0.446,1 1,1 h 12 c 0.554,0 1,-0.446 1,-1 0,-0.554 -0.446,-1 -1,-1 z" />
  <path
     id="rect348"
     style="fill:url(#linearGradient1499);fill-opacity:1;stroke-width:0.75"
     d="M 10.829591,4.0043946 C 9.7521225,4.0664472 9,4.8570181 9,6.1035156 V 39.499699 c 0,2.707896 1.565251,4.137701 3,4.694825 l 7,2.321776 c 1.661997,0.604917 3,-0.246693 3,-1.90869 v -12.9997 c 0.896877,-1.086855 3,-1.976118 3,-3.407226 v -16.5 C 25,10.038687 23.661997,8.2128273 22,7.6079103 L 12,4.1948242 C 11.584502,4.0435948 11.188746,3.9837103 10.829591,4.0043946 Z"
     sodipodi:nodetypes="sssccscssccs" />
</svg>
