<?xml version="1.0" encoding="UTF-8" standalone="no"?>
<!-- Created with Inkscape (http://www.inkscape.org/) -->

<svg
   width="48"
   height="48"
   viewBox="0 0 48 48.000003"
   version="1.1"
   id="svg5"
   inkscape:version="1.3.2 (091e20ef0f, 2023-11-25, custom)"
   sodipodi:docname="folder-temp.svg"
   xmlns:inkscape="http://www.inkscape.org/namespaces/inkscape"
   xmlns:sodipodi="http://sodipodi.sourceforge.net/DTD/sodipodi-0.dtd"
   xmlns:xlink="http://www.w3.org/1999/xlink"
   xmlns="http://www.w3.org/2000/svg"
   xmlns:svg="http://www.w3.org/2000/svg">
  <sodipodi:namedview
     id="namedview7"
     pagecolor="#ffffff"
     bordercolor="#000000"
     borderopacity="0.25"
     inkscape:showpageshadow="2"
     inkscape:pageopacity="0.0"
     inkscape:pagecheckerboard="0"
     inkscape:deskcolor="#d1d1d1"
     inkscape:document-units="px"
     showgrid="false"
     inkscape:zoom="17.083333"
     inkscape:cx="23.970732"
     inkscape:cy="24"
     inkscape:window-width="1920"
     inkscape:window-height="1017"
     inkscape:window-x="0"
     inkscape:window-y="0"
     inkscape:window-maximized="1"
     inkscape:current-layer="svg5" />
  <defs
     id="defs2">
    <linearGradient
       inkscape:collect="always"
       id="linearGradient1713">
      <stop
         style="stop-color:#be8b08;stop-opacity:1;"
         offset="0"
         id="stop1709" />
      <stop
         style="stop-color:#fdd164;stop-opacity:1;"
         offset="1"
         id="stop1711" />
    </linearGradient>
    <linearGradient
       inkscape:collect="always"
       id="linearGradient1654">
      <stop
         style="stop-color:#fce798;stop-opacity:1;"
         offset="0"
         id="stop1650" />
      <stop
         style="stop-color:#ffc937;stop-opacity:1;"
         offset="1"
         id="stop1652" />
    </linearGradient>
    <linearGradient
       inkscape:collect="always"
       xlink:href="#linearGradient1654"
       id="linearGradient1499"
       x1="16"
       y1="6.0001335"
       x2="26"
       y2="57.456135"
       gradientUnits="userSpaceOnUse"
       gradientTransform="matrix(0.75,0.27297768,0,0.75,0,-4.6729188)" />
    <linearGradient
       inkscape:collect="always"
       xlink:href="#linearGradient1713"
       id="linearGradient1707"
       x1="12"
       y1="32"
       x2="44"
       y2="32"
       gradientUnits="userSpaceOnUse"
       gradientTransform="matrix(0.75,0,0,0.75,0,-0.5)" />
    <linearGradient
       inkscape:collect="always"
       xlink:href="#linearGradient3161"
       id="linearGradient3163"
       x1="8.4666662"
       y1="15.345833"
       x2="8.4666662"
       y2="1.5874995"
       gradientUnits="userSpaceOnUse"
       gradientTransform="matrix(1.3809813,0,0,1.3809813,23.807679,25.807644)" />
    <linearGradient
       inkscape:collect="always"
       id="linearGradient3161">
      <stop
         style="stop-color:#c7ccd1;stop-opacity:1;"
         offset="0"
         id="stop3157" />
      <stop
         style="stop-color:#fdfdfd;stop-opacity:1"
         offset="1"
         id="stop3159" />
    </linearGradient>
  </defs>
  <path
     id="rect238"
     style="fill:url(#linearGradient1707);fill-opacity:1;stroke-width:0.75"
     d="M 10.875,4.0004344 36,4 c 1.662,-2.88e-5 3,1.338 3,3 v 34 c 0,1.662 -1.338,3 -3,3 H 12 L 9,39.5 V 7 C 9,5.338 10.875,4.0004344 10.875,4.0004344 Z"
     sodipodi:nodetypes="cssssccsc" />
  <circle
     style="fill:url(#linearGradient3163);fill-opacity:1;stroke-width:0.365385"
     id="path2899"
     cx="35.5"
     cy="37.5"
     r="9.5" />
  <path
     id="rect1636"
     style="fill:#444444;fill-opacity:1;stroke-width:0.500001;stroke-linejoin:round"
     d="M 35.474609,31 C 35.209695,31.01334 35,31.231656 35,31.5 v 5.974608 c -4.31e-4,0.0085 0,0.01674 0,0.02539 0,0.277 0.223,0.5 0.5,0.5 H 35.525391 41.5 c 0.277,1e-6 0.5,-0.222999 0.5,-0.499999 0,-0.277 -0.223,-0.5 -0.5,-0.5 H 36 V 31.5 C 36,31.223 35.777,31 35.5,31 c -0.0087,0 -0.01685,-4.3e-4 -0.02539,0 z"
     sodipodi:nodetypes="cscssccsscssc" />
  <path
     id="path2120"
     style="opacity:0.2;fill:#000000;stroke-width:2.1111"
     d="M 35.5,28 C 30.2533,28 26,32.2533 26,37.5 26,42.746701 30.2533,47 35.5,47 40.746701,47 45,42.746701 45,37.5 45,32.2533 40.746701,28 35.5,28 Z m 0,1 C 40.194416,29 44,32.805584 44,37.5 44,42.194416 40.194416,46 35.5,46 30.805584,46 27,42.194416 27,37.5 27,32.805584 30.805584,29 35.5,29 Z" />
  <path
     id="rect348"
     style="fill:url(#linearGradient1499);fill-opacity:1;stroke-width:0.75"
     d="M 10.829591,4.0043946 C 9.7521225,4.0664472 9,4.8570181 9,6.1035156 V 39.499699 c 0,2.707896 1.565251,4.137701 3,4.694825 l 7,2.321776 c 1.661997,0.604917 3,-0.246693 3,-1.90869 v -12.9997 c 0.896877,-1.086855 3,-1.976118 3,-3.407226 v -16.5 C 25,10.038687 23.661997,8.2128273 22,7.6079103 L 12,4.1948242 C 11.584502,4.0435948 11.188746,3.9837103 10.829591,4.0043946 Z"
     sodipodi:nodetypes="sssccscssccs" />
</svg>
