<?xml version="1.0" encoding="UTF-8" standalone="no"?>
<!-- Created with Inkscape (http://www.inkscape.org/) -->

<svg
   width="48"
   height="48"
   viewBox="0 0 48 48.000003"
   version="1.1"
   id="svg5"
   inkscape:version="1.3.2 (091e20ef0f, 2023-11-25, custom)"
   sodipodi:docname="folder-publicshare.svg"
   xmlns:inkscape="http://www.inkscape.org/namespaces/inkscape"
   xmlns:sodipodi="http://sodipodi.sourceforge.net/DTD/sodipodi-0.dtd"
   xmlns:xlink="http://www.w3.org/1999/xlink"
   xmlns="http://www.w3.org/2000/svg"
   xmlns:svg="http://www.w3.org/2000/svg">
  <sodipodi:namedview
     id="namedview7"
     pagecolor="#ffffff"
     bordercolor="#000000"
     borderopacity="0.25"
     inkscape:showpageshadow="2"
     inkscape:pageopacity="0.0"
     inkscape:pagecheckerboard="0"
     inkscape:deskcolor="#d1d1d1"
     inkscape:document-units="px"
     showgrid="false"
     inkscape:zoom="17.770833"
     inkscape:cx="24"
     inkscape:cy="23.971864"
     inkscape:window-width="1920"
     inkscape:window-height="1017"
     inkscape:window-x="0"
     inkscape:window-y="0"
     inkscape:window-maximized="1"
     inkscape:current-layer="svg5"
     showguides="false" />
  <defs
     id="defs2">
    <linearGradient
       inkscape:collect="always"
       id="linearGradient1713">
      <stop
         style="stop-color:#be8b08;stop-opacity:1;"
         offset="0"
         id="stop1709" />
      <stop
         style="stop-color:#fdd164;stop-opacity:1;"
         offset="1"
         id="stop1711" />
    </linearGradient>
    <linearGradient
       inkscape:collect="always"
       id="linearGradient1654">
      <stop
         style="stop-color:#fce798;stop-opacity:1;"
         offset="0"
         id="stop1650" />
      <stop
         style="stop-color:#ffc937;stop-opacity:1;"
         offset="1"
         id="stop1652" />
    </linearGradient>
    <linearGradient
       inkscape:collect="always"
       xlink:href="#linearGradient1654"
       id="linearGradient1499"
       x1="16"
       y1="6.0001335"
       x2="26"
       y2="57.456135"
       gradientUnits="userSpaceOnUse"
       gradientTransform="matrix(0.75,0.27297768,0,0.75,0,-4.6729188)" />
    <linearGradient
       inkscape:collect="always"
       xlink:href="#linearGradient1713"
       id="linearGradient1707"
       x1="12"
       y1="32"
       x2="44"
       y2="32"
       gradientUnits="userSpaceOnUse"
       gradientTransform="matrix(0.75,0,0,0.75,0,-0.5)" />
    <linearGradient
       inkscape:collect="always"
       xlink:href="#linearGradient2131"
       id="linearGradient3853"
       x1="10.944883"
       y1="12.005466"
       x2="11"
       y2="20.799999"
       gradientUnits="userSpaceOnUse"
       gradientTransform="matrix(1.25,0,0,1.25,23.25,20)" />
    <linearGradient
       inkscape:collect="always"
       id="linearGradient2131">
      <stop
         style="stop-color:#2ac9ba;stop-opacity:1;"
         offset="0"
         id="stop2127" />
      <stop
         style="stop-color:#2e988c;stop-opacity:1"
         offset="1"
         id="stop2129" />
    </linearGradient>
    <linearGradient
       inkscape:collect="always"
       xlink:href="#linearGradient2131"
       id="linearGradient2320"
       x1="8.562398"
       y1="1.3003726"
       x2="8.5805483"
       y2="8.2474289"
       gradientUnits="userSpaceOnUse"
       gradientTransform="matrix(1.4536645,0,0,1.4536645,24.692306,21.076924)" />
  </defs>
  <path
     id="rect238"
     style="fill:url(#linearGradient1707);fill-opacity:1;stroke-width:0.75"
     d="M 10.875,4.0004344 36,4 c 1.662,-2.88e-5 3,1.338 3,3 v 34 c 0,1.662 -1.338,3 -3,3 H 12 L 9,39.5 V 7 C 9,5.338 10.875,4.0004344 10.875,4.0004344 Z"
     sodipodi:nodetypes="cssssccsc" />
  <path
     id="rect348"
     style="fill:url(#linearGradient1499);fill-opacity:1;stroke-width:0.75"
     d="M 10.829591,4.0043946 C 9.7521225,4.0664472 9,4.8570181 9,6.1035156 V 39.499699 c 0,2.707896 1.565251,4.137701 3,4.694825 l 7,2.321776 c 1.661997,0.604917 3,-0.246693 3,-1.90869 v -12.9997 c 0.896877,-1.086855 3,-1.976118 3,-3.407226 v -16.5 C 25,10.038687 23.661997,8.2128273 22,7.6079103 L 12,4.1948242 C 11.584502,4.0435948 11.188746,3.9837103 10.829591,4.0043946 Z"
     sodipodi:nodetypes="sssccscssccs" />
  <circle
     style="fill:url(#linearGradient2320);fill-opacity:1;stroke-width:1.6846;stroke-linecap:round;stroke-linejoin:round"
     id="path846"
     cx="37"
     cy="28"
     r="5" />
  <path
     id="rect1284"
     style="fill:url(#linearGradient3853);fill-opacity:1;stroke-width:0.698774;stroke-linejoin:round"
     d="m 31,35 c -2.209139,0 -4,1.790861 -4,4 v 1 c 0,2.499998 3.276438,5.992844 10,6 7.075599,0.0075 10,-3.500002 10,-6 v -1 c 0,-2.209139 -1.790861,-4 -4,-4 z"
     sodipodi:nodetypes="ssssssss" />
</svg>
