<?xml version="1.0" encoding="UTF-8" standalone="no"?>
<!-- Created with Inkscape (http://www.inkscape.org/) -->

<svg
   width="48"
   height="48"
   viewBox="0 0 48 48"
   version="1.1"
   id="svg2112"
   inkscape:version="1.2.1 (9c6d41e410, 2022-07-14, custom)"
   sodipodi:docname="network-workgroup.svg"
   xmlns:inkscape="http://www.inkscape.org/namespaces/inkscape"
   xmlns:sodipodi="http://sodipodi.sourceforge.net/DTD/sodipodi-0.dtd"
   xmlns:xlink="http://www.w3.org/1999/xlink"
   xmlns="http://www.w3.org/2000/svg"
   xmlns:svg="http://www.w3.org/2000/svg">
  <sodipodi:namedview
     id="namedview2114"
     pagecolor="#ffffff"
     bordercolor="#000000"
     borderopacity="0.25"
     inkscape:showpageshadow="2"
     inkscape:pageopacity="0.0"
     inkscape:pagecheckerboard="0"
     inkscape:deskcolor="#d1d1d1"
     inkscape:document-units="px"
     showgrid="false"
     inkscape:zoom="17.770833"
     inkscape:cx="22.480657"
     inkscape:cy="24.056272"
     inkscape:window-width="1920"
     inkscape:window-height="1029"
     inkscape:window-x="0"
     inkscape:window-y="0"
     inkscape:window-maximized="1"
     inkscape:current-layer="svg2112" />
  <defs
     id="defs2109">
    <linearGradient
       inkscape:collect="always"
       xlink:href="#linearGradient2986"
       id="linearGradient2988"
       x1="0.092813492"
       y1="10.202362"
       x2="0.092813492"
       y2="13.470933"
       gradientUnits="userSpaceOnUse"
       gradientTransform="matrix(1.7738908,0,0,1.8356647,27.835359,17.271891)" />
    <linearGradient
       inkscape:collect="always"
       id="linearGradient2986">
      <stop
         style="stop-color:#818990;stop-opacity:1;"
         offset="0"
         id="stop2982" />
      <stop
         style="stop-color:#9fa8b0;stop-opacity:1"
         offset="1"
         id="stop2984" />
    </linearGradient>
    <linearGradient
       id="linearGradient883"
       x1="4"
       x2="59.861"
       y1="31.360001"
       y2="31.360001"
       gradientTransform="matrix(0.37498199,0,0,0.37498199,-0.49961886,0.50003786)"
       gradientUnits="userSpaceOnUse">
      <stop
         stop-color="#b0d6df"
         offset="0"
         id="stop9" />
      <stop
         stop-color="#e1f8fc"
         offset=".21709"
         id="stop11" />
      <stop
         stop-color="#96c3ce"
         offset="1"
         id="stop13" />
    </linearGradient>
    <radialGradient
       id="radialGradient875"
       cx="20.107"
       cy="28.705"
       r="28"
       gradientTransform="matrix(0.41442615,0.23402601,-0.18439007,0.32652554,4.370527,-3.1434903)"
       gradientUnits="userSpaceOnUse">
      <stop
         stop-color="#5ab5e2"
         offset="0"
         id="stop2" />
      <stop
         stop-color="#4189ac"
         offset=".45901"
         id="stop4" />
      <stop
         stop-color="#295e76"
         offset="1"
         id="stop6" />
    </radialGradient>
    <linearGradient
       inkscape:collect="always"
       xlink:href="#linearGradient1116"
       id="linearGradient1908"
       x1="4"
       y1="32"
       x2="60"
       y2="32"
       gradientUnits="userSpaceOnUse"
       gradientTransform="matrix(0.75,0,0,0.78947368,0.99999978,-3.2631583)" />
    <linearGradient
       inkscape:collect="always"
       id="linearGradient1116">
      <stop
         style="stop-color:#555a5f;stop-opacity:1;"
         offset="0"
         id="stop1112" />
      <stop
         style="stop-color:#4b4f53;stop-opacity:1"
         offset="1"
         id="stop1114" />
    </linearGradient>
    <linearGradient
       inkscape:collect="always"
       xlink:href="#linearGradient3238"
       id="linearGradient3240"
       x1="17.902164"
       y1="29.999403"
       x2="60"
       y2="51"
       gradientUnits="userSpaceOnUse"
       gradientTransform="matrix(0.74074074,0,0,0.77777777,1.2962961,-2.8888892)" />
    <linearGradient
       inkscape:collect="always"
       id="linearGradient3238">
      <stop
         style="stop-color:#0082e5;stop-opacity:1;"
         offset="0"
         id="stop3234" />
      <stop
         style="stop-color:#42b7ff;stop-opacity:1;"
         offset="1"
         id="stop3236" />
    </linearGradient>
  </defs>
  <path
     id="rect958"
     style="fill:#bcc5cf;stroke-width:2.11289;stroke-linecap:round;stroke-linejoin:round"
     d="m 16.000001,42.000008 h 18 l 1,1 h -20 z"
     sodipodi:nodetypes="ccccc" />
  <rect
     style="fill:url(#linearGradient2988);fill-opacity:1;stroke-width:2.38723;stroke-linecap:round;stroke-linejoin:round"
     id="rect2848"
     width="6"
     height="6"
     x="22.000002"
     y="35.999996" />
  <path
     id="rect1418"
     style="fill:#b8c2cc;stroke-width:5.00001;stroke-linecap:round;stroke-linejoin:round"
     d="M 6.0000002,6 H 44 l 1.999999,1 V 22.999999 H 4.0000002 V 7 Z"
     sodipodi:nodetypes="ccccccc" />
  <rect
     style="fill:url(#linearGradient1908);fill-opacity:1;stroke-width:0.769483;stroke-linecap:round"
     id="rect1537"
     width="42"
     height="30"
     x="4"
     y="6.9999995" />
  <rect
     style="fill:url(#linearGradient3240);fill-opacity:1;stroke-width:0.759033;stroke-linecap:round"
     id="rect1910"
     width="40"
     height="28"
     x="5.0000005"
     y="7.9999995" />
  <path
     d="M 5,7.9999995 H 30 L 13,36 H 5 Z"
     style="color:#000000;opacity:0.15;fill:#ffffff;stroke-width:0.596281"
     id="path3898"
     sodipodi:nodetypes="ccccc" />
  <rect
     style="fill:#44484c;fill-opacity:1;stroke-width:3.77965;stroke-linecap:round;stroke-linejoin:round"
     id="rect1839"
     width="20.000002"
     height="2"
     x="15.000002"
     y="42.999989" />
  <rect
     x="1.0004485"
     y="2"
     width="20.999552"
     height="20.999552"
     rx="10.499775"
     ry="10.499775"
     fill="url(#radialGradient875)"
     id="rect30"
     style="fill:url(#radialGradient875);stroke-width:0.374984" />
  <path
     d="M 11.554475,2.5249893 C 10.744697,2.5824163 9.952523,2.7310683 9.179985,2.9814836 8.9043718,2.9922536 8.305388,3.3472271 8.788658,3.5138215 9.013564,3.7540863 9.550486,3.830548 9.485283,4.223152 9.572018,4.568245 8.6831698,4.5525858 8.9790185,4.865143 9.188791,5.141209 9.398555,5.4172922 9.608341,5.6933665 9.995677,5.5689542 10.123495,5.172262 10.33839,4.8669288 10.936562,4.6030795 11.783159,4.5233838 12.178476,4.015642 12.30235,3.6564813 12.426221,3.2973513 12.550098,2.9381898 12.218221,2.8004546 11.886337,2.6627193 11.554475,2.5249526 Z m -2.87925,0.092268 C 8.3041978,2.5772298 8.0668686,2.8052508 7.7899194,2.9547386 7.4490196,2.9964911 7.0638594,3.1233716 6.8490339,3.3975506 7.2314364,3.571087 7.4722659,3.3862106 7.8023436,3.2550813 8.1088146,3.0980703 9.15118,3.0325616 8.675225,2.6172206 Z M 6.2809959,3.7185085 C 6.0902447,4.009675 6.4149812,4.4310963 5.9786312,4.5839005 5.7632432,4.8565653 5.5750194,5.3041157 6.1133702,5.141719 6.2450679,4.7376888 6.6541786,4.1709438 7.1197734,4.407574 c 0.4689547,0.126 0.9029809,0.91404 1.2858724,0.28986 C 8.4054913,4.5350935 7.8100641,4.440133 7.8233631,4.0429818 7.5584064,3.9293125 6.9920259,4.135873 7.0118011,3.7227858 6.6290139,3.5528208 6.5187662,4.3997418 6.3831092,3.9263703 6.3490667,3.8570928 6.3150317,3.787813 6.2809854,3.7185055 Z M 16.671924,4.0855923 c -0.453064,0.090596 -0.900566,0.194088 -1.258118,0.505494 0.103788,0.4149525 -0.43154,0.4847752 -0.66964,0.7151047 -0.172752,0.097484 0.0031,0.850518 0.154496,0.73362 0.321836,-0.4246095 0.488311,-0.058335 0.787483,0.1513417 0.269275,0.250101 0.440257,-0.4644397 0.297229,-0.6658605 -0.08392,-0.324627 0.324348,-0.5647807 0.471265,-0.8306362 0.44918,-0.2881275 0.06963,0.3675968 0.05525,0.5965282 -0.226734,0.6765338 1.005704,0.020408 0.19332,0.5259683 -0.21791,0.2176162 -0.297699,0.540003 -0.632542,0.700824 -0.180796,0.220677 -0.870816,0.1172407 -0.777893,-0.2269988 -0.25198,-0.3949342 -0.189782,0.4753245 -0.275389,0.4711582 -0.41761,-0.1244414 -0.541893,0.3416933 -0.803792,0.5647118 -0.200426,0.2302582 -0.907985,0.087392 -0.379742,0.4440727 0.385272,0.4445612 -0.07678,0.3623475 -0.395491,0.480748 -0.450406,0.077556 -0.375122,0.4698315 -0.363467,0.8240227 0.007,0.1951942 0.439205,0.484776 0.658125,0.348639 0.437281,-0.04683 0.326946,-0.5834722 0.650007,-0.7471275 0.268429,-0.229776 0.45681,-0.4416915 0.859862,-0.4471852 0.186083,0.177591 0.562192,0.4445602 0.714718,0.589737 -0.420935,0.4586287 0.193338,0.4212509 0.252097,0.00337 0.207632,-0.230088 -0.68392,-0.771526 -0.09598,-0.533634 0.389156,0.1283812 0.299665,0.5259345 0.472805,0.7943077 0.307769,0.5202652 0.340729,0.1320375 0.369382,-0.2704252 0.511338,-0.1606395 0.649935,0.8904194 1.339141,0.6439184 0.516519,0.135723 0.271749,0.4697235 -0.05438,0.6853887 -0.297852,0.217248 -0.741985,0.06834 -1.068879,-0.0496 -0.323396,-0.1660199 -0.713148,-0.07083 -0.883384,0.259376 -0.377921,-0.326157 -0.645457,-0.8442882 -1.194488,-0.8729869 -0.519845,-0.026932 -1.044659,0.1112887 -1.546338,0.252624 -0.555858,0.6523519 -1.15725,1.2876929 -1.416245,2.1214809 -0.268843,0.330381 0.307011,0.528313 -0.130711,0.828992 -0.304742,0.284531 0.103788,0.63597 0.166861,0.955024 0.327954,0.38891 0.830742,1.668169 1.337216,1.17335 0.285027,-0.450334 0.47403,0.294987 0.809184,-0.172744 0.282098,-0.257499 0.510568,0.258719 0.906165,0.07512 0.351778,0.175351 0.382367,0.519074 0.196487,0.847998 -0.11937,0.333955 0.517148,0.471265 0.336046,0.861123 -0.08537,0.381246 0.08187,0.704883 0.271255,1.023483 -0.420971,0.439415 -0.370222,1.090329 -0.265135,1.640939 0.205971,0.754864 0.500943,1.511898 0.471474,2.30673 0.368858,0.09675 0.640942,-0.147543 0.94596,-0.275811 0.582177,0.08235 0.898886,-0.53885 1.260394,-0.895139 -0.271579,-0.365076 0.2231,-0.522609 0.427585,-0.758786 -0.305865,-0.264558 -0.508539,-0.521416 -0.035,-0.727739 0.218438,-0.221867 0.627643,-0.347286 0.69939,-0.656762 -0.188107,-0.560548 -0.08098,-1.15613 -0.108643,-1.735681 0.231919,-0.467416 0.47816,-0.924889 0.863363,-1.285804 0.153621,-0.506857 0.522853,-0.971439 0.487049,-1.515501 -0.897871,0.268611 -0.626767,-0.114094 -0.129186,-0.477949 0.345305,-0.253247 0.836272,-0.489467 0.94127,-0.921251 0.07536,-0.426153 -0.257679,-1.087813 -0.547424,-0.461711 -0.140749,-0.199531 -0.636567,-0.384571 -0.629707,-0.697783 -0.106182,-0.63163 0.170805,-0.252255 0.417052,0.04603 0.572762,-0.424575 1.320242,1.171811 1.078502,0.03271 -0.327477,-2.4652049 -1.577486,-4.794195 -3.44991,-6.4304092 -0.171222,0.1823242 -0.456951,0.8621002 -0.664286,0.4697235 -0.29353,-0.3113858 -0.523904,-0.5925038 0.07401,-0.476901 0.585957,-0.159024 0.0023,-0.25149 -0.304913,-0.287748 C 17.247645,4.3011003 16.961991,4.1882815 16.671883,4.0854685 Z M 5.2030194,4.1008998 C 4.8153677,4.2502008 5.3960642,4.8195055 4.7010602,4.6371948 3.9390917,4.9824663 3.4314977,5.820379 2.9018883,6.4728692 1.6665198,8.2187044 0.99488434,10.352187 1.0000293,12.490644 c 0.2027018,0.418379 0.7019445,0.560163 1.0754572,0.791124 0.3796013,0.129855 0.8576565,0.110239 1.0465823,0.529608 0.2113004,0.221273 0.4948199,0.517986 0.7966882,0.541999 0.4638795,-0.148649 0.5292937,0.271956 0.2952637,0.583087 -0.025343,0.340801 -0.404661,0.61567 -0.362382,0.915406 0.084512,0.335846 -0.422511,0.705759 -0.080952,1.013017 0.3593378,0.64241 0.7439093,1.266273 1.229874,1.821115 0.3022642,0.264813 0.2664195,0.629427 0.2319195,0.993631 -0.1199483,0.384923 0.243864,0.607587 0.4391355,0.886777 -0.4758503,0.872458 0.8130322,1.046826 1.3524757,1.428318 0.2712052,-0.248003 0.2927625,-0.649412 0.7426852,-0.660611 0.272834,-0.19114 0.331082,-0.622636 0.5184784,-0.909525 C 8.279255,20.11986 8.0841081,19.835098 8.4009193,19.5032 8.6396338,19.301714 9.132229,19.43607 9.221092,19.015448 9.54536,18.681434 9.282982,18.218516 9.282982,17.813261 9.534869,17.468222 9.969423,17.203365 9.921194,16.726602 9.975764,16.015524 8.69552,16.047478 8.2444145,15.616357 7.6899196,15.600487 7.8020578,14.844869 7.3704114,14.744491 6.9418809,14.766031 6.7860646,14.430288 6.6341679,14.08941 6.3981407,13.92843 5.9539224,14.255577 5.7069324,14.053837 5.4271839,13.906464 5.1762384,13.356722 4.8613502,13.700272 4.4469242,14.000759 4.0393577,14.306004 3.6462107,13.802915 3.391246,13.573167 3.7115957,12.920968 3.3505967,12.962057 2.5799485,13.240815 3.594841,11.842678 2.8734168,12.028171 2.7025533,12.295989 2.3748183,12.709224 2.0561493,12.392304 1.7361303,12.241728 1.893994,11.752134 1.9082635,11.458909 c 0.01383,-0.342969 0.447885,-0.513964 0.6973253,-0.670411 0.4837942,0.216369 0.3845017,-0.428426 0.7888477,-0.212881 0.3922365,-0.08354 0.5693325,0.545672 0.7285792,0.569123 0.093589,-0.309977 -0.075368,-0.763019 0.212307,-0.967241 0.336126,-0.2829264 0.779748,-0.4841439 0.8626965,-0.9595051 0.0069,-0.507804 0.6230917,-0.079852 0.7760737,-0.4256618 C 6.1151274,8.3961049 6.5264859,8.4208519 6.8739586,8.3460934 7.0640184,8.1697504 7.5417091,7.6265777 6.9515739,7.7858252 6.7366284,7.7567702 5.8713219,7.8719417 6.4588892,7.6648997 6.7483194,7.4458097 7.0991304,7.4761689 7.4240289,7.4331392 7.6799034,7.2165152 8.1271986,7.1439429 8.1468681,6.749536 7.9344996,6.4607027 7.4846476,6.5156777 7.6756036,6.1014167 7.6571461,5.559523 7.1798739,5.9074135 7.0230774,5.866198 7.2777249,5.5118305 6.6919561,5.28871 6.4953587,5.2837405 6.3617394,5.61769 5.9860847,5.9058152 6.1186614,6.290179 5.7269852,6.3537865 5.5434842,6.6372835 5.4257814,6.9902342 5.3083502,7.0311392 5.3465334,6.2980165 4.8970832,6.365566 4.579615,6.357916 4.187158,5.8841867 4.5214007,5.6976415 4.9796462,5.407705 5.5493987,5.1807722 5.8391574,4.7176615 6.0057894,4.3028853 5.6984882,4.0483 5.2892844,4.1072043 l -0.057052,-0.00398 z m 7.7099856,0.477567 c -0.252907,0.1967527 -0.763474,0.060862 -0.871271,0.2505547 -0.04535,0.3826117 0.548753,0.3766252 0.786013,0.1654013 0.387791,-0.143376 0.370502,-0.1172123 0.08524,-0.4159673 z M 7.2949246,4.7745678 C 6.7574409,4.9327128 7.1966736,5.28475 7.5475396,5.2800617 7.9661661,5.2463037 7.5766776,4.7775783 7.2949246,4.7745678 Z m 6.4094134,1.0561379 c -0.03844,0.3423795 0.290441,0.5561715 0.154607,0.92916 -0.213888,0.4698652 0.08909,0.6109485 0.454605,0.322143 C 14.80172,6.7833249 13.947739,6.1290152 13.833955,5.830717 H 13.704328 Z M 13.543356,6.381313 c -0.438681,-0.1078298 -0.299898,0.8102692 0.0015,0.4941892 0.324601,-0.056662 0.0129,-0.3067852 -0.0015,-0.4941892 z M 7.9448751,7.2087999 c 0.064402,0.348174 0.087559,0.9001478 0.3424642,0.3072503 C 8.286989,7.4008217 8.0354983,7.3106799 7.9448751,7.2087999 Z M 18.538099,10.788524 c 0.515609,0.449566 0.724484,1.100659 1.015118,1.698026 0.432452,0.227055 0.176457,0.574302 0.236693,0.86609 0.602127,0.527159 -0.609757,0.246387 -0.46269,-0.328746 -0.09826,-0.667992 -0.5273,-1.113885 -0.877712,-1.596979 -0.02755,-0.255714 -0.301865,-0.547388 0.0886,-0.638385 z"
     fill="url(#linearGradient883)"
     id="path32"
     style="fill:url(#linearGradient883);stroke-width:0.374984" />
</svg>
