<?xml version="1.0" encoding="UTF-8" standalone="no"?>
<!-- Created with Inkscape (http://www.inkscape.org/) -->

<svg
   width="48"
   height="48"
   viewBox="0 0 48 48.000003"
   version="1.1"
   id="svg5"
   inkscape:version="1.3.2 (091e20ef0f, 2023-11-25, custom)"
   sodipodi:docname="user-home.svg"
   xmlns:inkscape="http://www.inkscape.org/namespaces/inkscape"
   xmlns:sodipodi="http://sodipodi.sourceforge.net/DTD/sodipodi-0.dtd"
   xmlns:xlink="http://www.w3.org/1999/xlink"
   xmlns="http://www.w3.org/2000/svg"
   xmlns:svg="http://www.w3.org/2000/svg">
  <sodipodi:namedview
     id="namedview7"
     pagecolor="#ffffff"
     bordercolor="#000000"
     borderopacity="0.25"
     inkscape:showpageshadow="2"
     inkscape:pageopacity="0.0"
     inkscape:pagecheckerboard="0"
     inkscape:deskcolor="#d1d1d1"
     inkscape:document-units="px"
     showgrid="false"
     inkscape:zoom="17.083333"
     inkscape:cx="23.970732"
     inkscape:cy="24"
     inkscape:window-width="1920"
     inkscape:window-height="1017"
     inkscape:window-x="0"
     inkscape:window-y="0"
     inkscape:window-maximized="1"
     inkscape:current-layer="svg5"
     showguides="false" />
  <defs
     id="defs2">
    <linearGradient
       inkscape:collect="always"
       id="linearGradient1713">
      <stop
         style="stop-color:#be8b08;stop-opacity:1;"
         offset="0"
         id="stop1709" />
      <stop
         style="stop-color:#fdd164;stop-opacity:1;"
         offset="1"
         id="stop1711" />
    </linearGradient>
    <linearGradient
       inkscape:collect="always"
       id="linearGradient1654">
      <stop
         style="stop-color:#fce798;stop-opacity:1;"
         offset="0"
         id="stop1650" />
      <stop
         style="stop-color:#ffc937;stop-opacity:1;"
         offset="1"
         id="stop1652" />
    </linearGradient>
    <linearGradient
       inkscape:collect="always"
       xlink:href="#linearGradient1654"
       id="linearGradient1499"
       x1="16"
       y1="6.0001335"
       x2="26"
       y2="57.456135"
       gradientUnits="userSpaceOnUse"
       gradientTransform="matrix(0.75,0.27297768,0,0.75,0,-4.6729188)" />
    <linearGradient
       inkscape:collect="always"
       xlink:href="#linearGradient1713"
       id="linearGradient1707"
       x1="12"
       y1="32"
       x2="44"
       y2="32"
       gradientUnits="userSpaceOnUse"
       gradientTransform="matrix(0.75,0,0,0.75,0,-0.5)" />
    <linearGradient
       inkscape:collect="always"
       xlink:href="#linearGradient1947"
       id="linearGradient890"
       x1="10.357603"
       y1="15.382957"
       x2="-2.8651724"
       y2="2.7773058"
       gradientUnits="userSpaceOnUse"
       gradientTransform="translate(32.642307,30.617167)" />
    <linearGradient
       inkscape:collect="always"
       id="linearGradient1947">
      <stop
         style="stop-color:#8c959d;stop-opacity:1;"
         offset="0"
         id="stop1943" />
      <stop
         style="stop-color:#bbc2cd;stop-opacity:1;"
         offset="1"
         id="stop1945" />
    </linearGradient>
    <radialGradient
       inkscape:collect="always"
       xlink:href="#linearGradient2435"
       id="radialGradient2437"
       cx="8.5933437"
       cy="14.632429"
       fx="8.5933437"
       fy="14.632429"
       r="7"
       gradientUnits="userSpaceOnUse"
       gradientTransform="matrix(-1.5152288,1.5152287,-1.5152285,-1.5152293,70.192263,35.150606)" />
    <linearGradient
       inkscape:collect="always"
       id="linearGradient2435">
      <stop
         style="stop-color:#eb8d1c;stop-opacity:1;"
         offset="0"
         id="stop2431" />
      <stop
         style="stop-color:#d74c30;stop-opacity:1;"
         offset="1"
         id="stop2433" />
    </linearGradient>
  </defs>
  <path
     id="rect238"
     style="fill:url(#linearGradient1707);fill-opacity:1;stroke-width:0.75"
     d="M 10.875,4.0004344 36,4 c 1.662,-2.88e-5 3,1.338 3,3 v 34 c 0,1.662 -1.338,3 -3,3 H 12 L 9,39.5 V 7 C 9,5.338 10.875,4.0004344 10.875,4.0004344 Z"
     sodipodi:nodetypes="cssssccsc" />
  <path
     id="rect857"
     style="fill:url(#linearGradient890)"
     d="m 34.99991,29.000001 -8,7 v 8 c 0,1.107998 0.892002,2 2,2 h 2 a 1,1 0 0 0 1,-1 v -7 c 0,-0.553998 0.446001,-1 1,-1 h 4 c 0.553998,0 1,0.446002 1,1 v 7 a 1,1 0 0 0 1,1 h 2 c 1.107998,0 2,-0.892002 2,-2 v -8 z" />
  <path
     id="rect859"
     style="fill:url(#radialGradient2437);fill-opacity:1"
     d="m 25.393803,35.777894 c -0.391738,0.391738 -0.391735,1.022477 -10e-7,1.414214 0.391737,0.391739 1.022478,0.391739 1.414215,0 l 8.191894,-8.191984 8.191893,8.191983 c 0.391735,0.391736 1.022476,0.391737 1.414212,10e-7 0.391738,-0.391737 0.391738,-1.022478 0,-1.414214 l -8.898998,-8.899091 c -0.391734,-0.391738 -1.022476,-0.391737 -1.414214,10e-7 z"
     sodipodi:nodetypes="cccccscscc" />
  <path
     id="rect348"
     style="fill:url(#linearGradient1499);fill-opacity:1;stroke-width:0.75"
     d="M 10.829591,4.0043946 C 9.7521225,4.0664472 9,4.8570181 9,6.1035156 V 39.499699 c 0,2.707896 1.565251,4.137701 3,4.694825 l 7,2.321776 c 1.661997,0.604917 3,-0.246693 3,-1.90869 v -12.9997 c 0.896877,-1.086855 3,-1.976118 3,-3.407226 v -16.5 C 25,10.038687 23.661997,8.2128273 22,7.6079103 L 12,4.1948242 C 11.584502,4.0435948 11.188746,3.9837103 10.829591,4.0043946 Z"
     sodipodi:nodetypes="sssccscssccs" />
</svg>
