<?xml version="1.0" encoding="UTF-8" standalone="no"?>
<!-- Created with Inkscape (http://www.inkscape.org/) -->

<svg
   width="48"
   height="48"
   viewBox="0 0 48 48"
   version="1.1"
   id="svg2535"
   inkscape:version="1.3.2 (091e20ef0f, 2023-11-25, custom)"
   sodipodi:docname="preferences-security-firewall.svg"
   xmlns:inkscape="http://www.inkscape.org/namespaces/inkscape"
   xmlns:sodipodi="http://sodipodi.sourceforge.net/DTD/sodipodi-0.dtd"
   xmlns:xlink="http://www.w3.org/1999/xlink"
   xmlns="http://www.w3.org/2000/svg"
   xmlns:svg="http://www.w3.org/2000/svg">
  <sodipodi:namedview
     id="namedview2537"
     pagecolor="#ffffff"
     bordercolor="#000000"
     borderopacity="0.25"
     inkscape:showpageshadow="2"
     inkscape:pageopacity="0.0"
     inkscape:pagecheckerboard="0"
     inkscape:deskcolor="#d1d1d1"
     inkscape:document-units="px"
     showgrid="false"
     inkscape:zoom="17.083333"
     inkscape:cx="23.970732"
     inkscape:cy="24"
     inkscape:window-width="1920"
     inkscape:window-height="1017"
     inkscape:window-x="0"
     inkscape:window-y="0"
     inkscape:window-maximized="1"
     inkscape:current-layer="svg2535" />
  <defs
     id="defs2532">
    <radialGradient
       id="radialGradient875"
       cx="20.107"
       cy="28.705"
       r="28"
       gradientTransform="matrix(0.59204994,0.33432996,-0.26341996,0.466475,7.8145012,-4.3480002)"
       gradientUnits="userSpaceOnUse">
      <stop
         stop-color="#5ab5e2"
         offset="0"
         id="stop2" />
      <stop
         stop-color="#4189ac"
         offset=".45901"
         id="stop4" />
      <stop
         stop-color="#295e76"
         offset="1"
         id="stop6" />
    </radialGradient>
    <linearGradient
       id="linearGradient883"
       x1="4"
       x2="59.861"
       y1="31.360001"
       y2="31.360001"
       gradientTransform="matrix(0.53569998,0,0,0.53569998,0.8576424,0.8213144)"
       gradientUnits="userSpaceOnUse">
      <stop
         stop-color="#b0d6df"
         offset="0"
         id="stop9" />
      <stop
         stop-color="#e1f8fc"
         offset=".21709"
         id="stop11" />
      <stop
         stop-color="#96c3ce"
         offset="1"
         id="stop13" />
    </linearGradient>
    <radialGradient
       id="radialGradient875-3"
       cx="20.107"
       cy="28.705"
       r="28"
       gradientTransform="matrix(0.51311877,0.28975761,-0.22830122,0.40428527,6.1726397,-4.3683762)"
       gradientUnits="userSpaceOnUse">
      <stop
         stop-color="#5ab5e2"
         offset="0"
         id="stop2-6" />
      <stop
         stop-color="#4189ac"
         offset=".45901"
         id="stop4-7" />
      <stop
         stop-color="#295e76"
         offset="1"
         id="stop6-5" />
    </radialGradient>
    <linearGradient
       inkscape:collect="always"
       xlink:href="#linearGradient937"
       id="linearGradient939"
       x1="60"
       y1="59.655914"
       x2="20"
       y2="28"
       gradientUnits="userSpaceOnUse"
       gradientTransform="matrix(0.75,0,0,0.7265625,3e-7,1.6562499)" />
    <linearGradient
       inkscape:collect="always"
       id="linearGradient937">
      <stop
         style="stop-color:#8d4735;stop-opacity:1;"
         offset="0"
         id="stop933" />
      <stop
         style="stop-color:#b35b45;stop-opacity:1;"
         offset="1"
         id="stop935" />
    </linearGradient>
  </defs>
  <rect
     x="3"
     y="3"
     width="30"
     height="30"
     rx="14.999998"
     ry="14.999998"
     fill="url(#radialGradient875)"
     id="rect30"
     style="fill:url(#radialGradient875);stroke-width:0.535703" />
  <path
     id="path32"
     style="fill:url(#linearGradient883);stroke-width:0.535703"
     d="m 18.078617,3.7143808 c -1.156849,0.082041 -2.287969,0.2935397 -3.391618,0.6512809 -0.39374,0.015368 -1.251538,0.5237111 -0.561138,0.7617056 0.321305,0.3432428 1.089226,0.4509771 0.996076,1.0118515 0.123907,0.492999 -1.146043,0.470684 -0.723396,0.9172019 0.29968,0.3943886 0.599477,0.7887218 0.899174,1.1831228 0.553353,-0.1777358 0.736402,-0.7424164 1.043401,-1.1786156 0.85455,-0.3769358 2.062913,-0.4915662 2.627661,-1.2169263 C 19.145743,5.3309034 19.323649,4.817913 19.500619,4.3048153 19.026499,4.1080474 18.552716,3.911196 18.078617,3.7143808 Z m -4.304312,0.1261997 c -0.425399,0.026963 -0.728759,0.2999048 -1.074952,0.4867704 -0.487008,0.059648 -1.036227,0.2415615 -1.343127,0.6332524 0.546298,0.2479177 0.889604,-0.015504 1.361156,-0.202821 0.437824,-0.2243045 1.928425,-0.3193357 1.248475,-0.9126947 -0.06625,-0.00715 -0.130781,-0.00836 -0.191552,-0.00452 z M 11.401298,5.3955418 C 11.002157,5.4552138 10.860998,6.307275 10.691424,5.7155483 10.642794,5.6165773 10.593584,5.5193473 10.544943,5.420331 10.27244,5.8362894 10.735628,6.4369889 10.112258,6.6552857 9.804553,7.0448136 9.536972,7.6850483 10.306064,7.4530486 10.494209,6.87585 11.078691,6.0648356 11.743841,6.4028866 12.413789,6.58289 13.033499,7.7092463 13.580498,6.8175428 13.580276,6.5856235 12.729932,6.4496806 12.748931,5.8823122 12.370414,5.7199236 11.560094,6.0149728 11.588345,5.4248381 11.519987,5.3944868 11.458319,5.3870167 11.401298,5.3955418 Z m 13.987891,0.5476165 c -0.64725,0.1294278 -1.287547,0.2785205 -1.798348,0.7233953 0.148271,0.5928014 -0.615364,0.6918178 -0.955511,1.0208654 -0.246799,0.1392667 0.0047,1.2149085 0.220849,1.0479098 0.45977,-0.6066015 0.697132,-0.083205 1.124531,0.216342 0.384688,0.3572922 0.628,-0.6632543 0.423669,-0.951006 -0.119885,-0.4637625 0.46393,-0.8078277 0.673817,-1.1876291 0.6417,-0.4116218 0.0994,0.5247979 0.07888,0.8518481 -0.323911,0.9664957 1.437757,0.030465 0.277188,0.752691 C 25.122953,8.728461 25.008937,9.188411 24.53058,9.41816 24.272294,9.733417 23.286821,9.585428 23.419571,9.093646 c -0.359975,-0.5642012 -0.27207,0.679769 -0.394374,0.673816 -0.596597,-0.177774 -0.77517,0.488171 -1.149319,0.806777 -0.286331,0.328945 -1.295507,0.123696 -0.540857,0.633253 0.550397,0.6351 -0.110325,0.51819 -0.565644,0.687337 -0.64345,0.110803 -0.534971,0.672615 -0.51832,1.178616 0.0099,0.278854 0.626989,0.692524 0.939736,0.498037 0.624699,-0.0669 0.46694,-0.83439 0.92847,-1.068191 0.383478,-0.328258 0.652394,-0.632164 1.228194,-0.640012 0.265838,0.253707 0.80297,0.635435 1.020866,0.842835 -0.601346,0.655198 0.276625,0.601462 0.360571,0.0045 0.296625,-0.328707 -0.977397,-1.10156 -0.137467,-0.761706 0.555949,0.183405 0.428721,0.7524 0.676069,1.135796 0.439682,0.743252 0.486401,0.187347 0.527335,-0.387613 0.73049,-0.229485 0.92868,1.27386 1.913279,0.921711 0.737901,0.193894 0.387034,0.669948 -0.07888,0.978047 -0.425507,0.310361 -1.058665,0.09863 -1.525664,-0.06986 -0.462003,-0.237191 -1.018798,-0.10214 -1.261998,0.369585 -0.539897,-0.465947 -0.921603,-1.205224 -1.70595,-1.246223 -0.742651,-0.03847 -1.494051,0.158659 -2.210749,0.36057 -0.794099,0.93195 -1.653705,1.839897 -2.023705,3.031049 -0.384071,0.471982 0.440537,0.753573 -0.18479,1.183122 -0.435355,0.406479 0.146518,0.909862 0.236623,1.365662 0.468514,0.555596 1.187479,2.381297 1.911024,1.674401 0.407192,-0.643349 0.67728,0.422564 1.15608,-0.245639 0.403007,-0.367862 0.73065,0.368208 1.295802,0.10592 0.502548,0.250506 0.544989,0.742519 0.279442,1.21242 -0.170528,0.477087 0.738737,0.673499 0.480009,1.230448 -0.121968,0.544648 0.117049,1.007412 0.387614,1.462565 -0.601398,0.627747 -0.528722,1.55711 -0.378599,2.34371 0.29425,1.078399 0.715917,2.15922 0.673817,3.294714 0.526946,0.138222 0.916391,-0.211132 1.352141,-0.394374 0.831706,0.117636 1.284151,-0.768777 1.8006,-1.277771 -0.387976,-0.52155 0.318592,-0.746563 0.610716,-1.083967 -0.436955,-0.377947 -0.728332,-0.744141 -0.05183,-1.038894 0.31206,-0.316961 0.898086,-0.497622 1.000582,-0.939738 -0.268727,-0.800799 -0.115978,-1.650975 -0.155495,-2.478924 0.331321,-0.667752 0.6824,-1.321051 1.232702,-1.836657 0.219464,-0.724097 0.747503,-1.38843 0.696352,-2.165677 -1.282703,0.383737 -0.895639,-0.163018 -0.184794,-0.68283 0.493305,-0.36179 1.19538,-0.699236 1.345381,-1.316084 0.107663,-0.608801 -0.368058,-1.554746 -0.781987,-0.660297 -0.201071,-0.285051 -0.908975,-0.548624 -0.899174,-0.996075 -0.151686,-0.902346 0.243155,-0.360777 0.594942,0.06536 0.678669,-0.503084 1.526713,0.973548 1.600032,0.565645 C 32.52009,12.570999 30.670099,9.15707 27.922198,6.7364143 27.676826,7.0081286 27.275699,7.9494 26.98246,7.3944557 26.563124,6.9496114 26.231946,6.5487283 27.086124,6.7138786 27.923222,6.4866944 27.08991,6.3555306 26.651186,6.3037289 26.21112,6.2523624 25.803638,6.0900361 25.389189,5.9431583 Z M 9.339284,5.9634423 c -0.06749,-0.00306 -0.138761,7.214e-4 -0.211836,0.011266 l -0.08113,-0.00676 -0.02254,-0.00222 C 8.9611733,6.0124073 8.900832,6.0623074 8.8389908,6.109948 8.6777333,6.4145302 9.120278,6.9505495 8.286867,6.731933 8.219877,6.76229 8.1266715,6.7825618 8.011932,6.7950328 4.9452984,9.528493 3.0159592,13.505612 3.0022523,17.952442 c 0.2904676,0.595485 1.001931,0.799613 1.5346792,1.129038 0.5423017,0.185509 1.2242149,0.158088 1.494115,0.757198 0.3018644,0.316106 0.706802,0.738671 1.1380513,0.772974 0.6626977,-0.212357 0.7557502,0.389335 0.4214174,0.83382 -0.036225,0.486863 -0.5764646,0.878867 -0.5160667,1.30707 0.1207322,0.479786 -0.6051337,1.00784 -0.1171857,1.44679 0.5133457,0.917748 1.0635327,1.810221 1.7577822,2.60287 0.431813,0.378315 0.380567,0.899443 0.331274,1.419746 -0.1713605,0.549901 0.347526,0.867654 0.626492,1.266505 -0.106443,0.195162 -0.203753,0.478161 -0.297471,0.793255 0.730483,0.512809 1.506658,0.96326 2.325681,1.340874 0.409675,-0.592417 0.772087,-1.031795 0.96678,-1.036641 0.389772,-0.273064 0.471453,-0.890458 0.73917,-1.300308 -0.0086,-0.435336 -0.285835,-0.841935 0.166763,-1.316085 0.341027,-0.287839 1.044907,-0.09543 1.171857,-0.696351 0.463247,-0.477172 0.08789,-1.138272 0.08789,-1.717218 0.359843,-0.492921 0.979343,-0.871609 0.91044,-1.552707 0.07796,-1.01585 -1.751092,-0.970611 -2.395541,-1.586512 -0.792139,-0.02267 -0.631828,-1.102825 -1.248475,-1.246223 -0.612201,0.0308 -0.833165,-0.448252 -1.050164,-0.93523 -0.337188,-0.229976 -0.972248,0.236374 -1.325098,-0.05183 C 9.324998,19.972937 8.9665838,19.187879 8.5167338,19.678676 7.9246845,20.107952 7.3431356,20.543876 6.7814863,19.825159 6.4172423,19.496944 6.8735315,18.565312 6.3578138,18.62401 5.256865,19.022246 6.707865,17.024902 5.6772367,17.289898 5.4331402,17.672504 4.9651388,18.263221 4.5098889,17.810473 4.0527079,17.595358 4.2776662,16.89526 4.2980536,16.476362 c 0.019787,-0.48997 0.6397267,-0.734268 0.9960765,-0.957768 0.6911499,0.309102 0.5491326,-0.612157 1.1267838,-0.304231 0.5603475,-0.119341 0.8136483,0.780036 1.0411475,0.813538 0.1337024,-0.442833 -0.1089907,-1.089685 0.3019776,-1.381437 0.4801882,-0.40419 1.1142022,-0.691067 1.2327015,-1.370167 0.00986,-0.72545 0.8902055,-0.114431 1.1087545,-0.608465 0.201486,-0.56605 0.790388,-0.530958 1.286787,-0.63776 0.271519,-0.251925 0.953491,-1.027516 0.110426,-0.800015 -0.307073,-0.0415 -1.542512,0.122253 -0.703114,-0.173525 0.413483,-0.312991 0.912781,-0.2698 1.37693,-0.331274 0.365539,-0.309472 1.006287,-0.412345 1.034388,-0.975795 C 12.907519,9.336834 12.264294,9.415059 12.537096,8.8232468 12.510733,8.0490975 11.828119,8.5463475 11.604118,8.4874658 11.967907,7.9812165 11.132287,7.6629975 10.851427,7.6558988 10.660537,8.132979 10.123426,8.544573 10.312823,9.093675 9.753277,9.18455 9.491658,9.590033 9.323509,10.094258 9.155745,10.152691 9.208396,9.105344 8.5663102,9.201847 8.1127732,9.190904 7.5524617,8.5128323 8.0299605,8.2463333 8.6846092,7.832133 9.499993,7.5084675 9.913942,6.8468686 10.12224,6.3283844 9.81169,5.9848088 9.339283,5.9634672 Z m 10.679654,0.6850845 c -0.361305,0.2810821 -1.089969,0.085066 -1.243969,0.3560629 -0.06478,0.5466003 0.783327,0.5383818 1.122278,0.2366242 0.553993,-0.2048285 0.529222,-0.1658878 0.121691,-0.5926871 z m -8.024951,0.2794419 c -0.76785,0.2259258 -0.140674,0.7278403 0.36057,0.7211412 0.598047,-0.048248 0.04195,-0.7168404 -0.36057,-0.7211412 z m 9.156242,1.5076355 c -0.05494,0.4891193 0.414894,0.7967538 0.220849,1.3296048 -0.305554,0.67125 0.126847,0.872319 0.649028,0.459728 0.697398,-0.42671 -0.522532,-1.3631828 -0.685085,-1.7893328 z M 20.812194,9.210833 c -0.493028,0.01552 -0.293291,1.142218 0.110425,0.718887 0.463725,-0.08095 0.01835,-0.437638 -0.0023,-0.705366 -0.03917,-0.0096 -0.0753,-0.01456 -0.10817,-0.01352 z m -7.889739,1.19439 c 0.092,0.497401 0.124873,1.286459 0.489026,0.439445 -4.99e-4,-0.164615 -0.359563,-0.2939 -0.489026,-0.439445 z m 15.132703,5.113343 c 0.736599,0.64225 1.033845,1.573692 1.449045,2.427093 0.617802,0.324373 0.251978,0.82036 0.338035,1.237207 0.860195,0.753125 -0.870398,0.35064 -0.660297,-0.470995 -0.14037,-0.954294 -0.752383,-1.590462 -1.252982,-2.280609 -0.03937,-0.365313 -0.431613,-0.782698 0.126199,-0.912696 z" />
  <rect
     style="fill:url(#linearGradient939);fill-opacity:1;stroke-width:0.738189;stroke-linecap:round;stroke-linejoin:round"
     id="rect377"
     width="30"
     height="23"
     x="15"
     y="22" />
  <path
     id="rect993"
     style="opacity:0.5;fill:#ffffff;fill-opacity:1;stroke-width:0.707107;stroke-linecap:round;stroke-linejoin:round"
     d="m 22,22 v 5 h -7 v 1 h 3 v 5 h -3 v 1 h 7 v 5 h -7 v 1 h 3 v 5 h 1 v -5 h 7 v 5 h 1 v -5 h 7 v 5 h 1 v -5 h 6 v 5 h 1 v -5 h 3 v -1 h -6 v -5 h 6 v -1 h -3 v -5 h 3 v -1 h -6 v -5 h -1 v 5 h -7 v -5 h -1 v 5 h -7 v -5 z m -3,6 h 7 v 5 h -7 z m 8,0 h 7 v 5 h -7 z m 8,0 h 6 v 5 h -6 z m -12,6 h 7 v 5 h -7 z m 8,0 h 7 v 5 h -7 z"
     sodipodi:nodetypes="cccccccccccccccccccccccccccccccccccccccccccccccccccccccccccccccccccccccccc" />
</svg>
