<?xml version="1.0" encoding="UTF-8" standalone="no"?>
<!-- Created with Inkscape (http://www.inkscape.org/) -->

<svg
   width="48"
   height="48"
   viewBox="0 0 48 48"
   version="1.1"
   id="svg2535"
   inkscape:version="1.3.2 (091e20ef0f, 2023-11-25, custom)"
   sodipodi:docname="preferences-online-accounts.svg"
   xmlns:inkscape="http://www.inkscape.org/namespaces/inkscape"
   xmlns:sodipodi="http://sodipodi.sourceforge.net/DTD/sodipodi-0.dtd"
   xmlns:xlink="http://www.w3.org/1999/xlink"
   xmlns="http://www.w3.org/2000/svg"
   xmlns:svg="http://www.w3.org/2000/svg">
  <sodipodi:namedview
     id="namedview2537"
     pagecolor="#ffffff"
     bordercolor="#000000"
     borderopacity="0.25"
     inkscape:showpageshadow="2"
     inkscape:pageopacity="0.0"
     inkscape:pagecheckerboard="0"
     inkscape:deskcolor="#d1d1d1"
     inkscape:document-units="px"
     showgrid="false"
     inkscape:zoom="17.375"
     inkscape:cx="23.971223"
     inkscape:cy="24"
     inkscape:window-width="1920"
     inkscape:window-height="1017"
     inkscape:window-x="0"
     inkscape:window-y="0"
     inkscape:window-maximized="1"
     inkscape:current-layer="svg2535" />
  <defs
     id="defs2532">
    <radialGradient
       id="radialGradient875"
       cx="20.107"
       cy="28.705"
       r="28"
       gradientTransform="matrix(0.78939992,0.44577328,-0.35122662,0.62196667,11.419335,-6.7973336)"
       gradientUnits="userSpaceOnUse">
      <stop
         stop-color="#5ab5e2"
         offset="0"
         id="stop2" />
      <stop
         stop-color="#4189ac"
         offset=".45901"
         id="stop4" />
      <stop
         stop-color="#295e76"
         offset="1"
         id="stop6" />
    </radialGradient>
    <linearGradient
       id="linearGradient883"
       x1="4"
       x2="59.861"
       y1="31.360001"
       y2="31.360001"
       gradientTransform="matrix(0.71426664,0,0,0.71426664,2.1435232,0.0950858)"
       gradientUnits="userSpaceOnUse">
      <stop
         stop-color="#b0d6df"
         offset="0"
         id="stop9" />
      <stop
         stop-color="#e1f8fc"
         offset=".21709"
         id="stop11" />
      <stop
         stop-color="#96c3ce"
         offset="1"
         id="stop13" />
    </linearGradient>
    <radialGradient
       id="radialGradient875-3"
       cx="20.107"
       cy="28.705"
       r="28"
       gradientTransform="matrix(0.51311877,0.28975761,-0.22830122,0.40428527,6.1726397,-4.3683762)"
       gradientUnits="userSpaceOnUse">
      <stop
         stop-color="#5ab5e2"
         offset="0"
         id="stop2-6" />
      <stop
         stop-color="#4189ac"
         offset=".45901"
         id="stop4-7" />
      <stop
         stop-color="#295e76"
         offset="1"
         id="stop6-5" />
    </radialGradient>
    <linearGradient
       inkscape:collect="always"
       xlink:href="#linearGradient2131"
       id="linearGradient3853"
       x1="9.9999533"
       y1="12.999999"
       x2="9.9999533"
       y2="19"
       gradientUnits="userSpaceOnUse"
       gradientTransform="matrix(1.999972,0,0,1.999972,-6.9994056,7.000168)" />
    <linearGradient
       inkscape:collect="always"
       xlink:href="#linearGradient2131"
       id="linearGradient2320"
       x1="8.562398"
       y1="1.3003726"
       x2="8.5805483"
       y2="8.2474289"
       gradientUnits="userSpaceOnUse"
       gradientTransform="matrix(1.744373,0,0,1.744373,-1.7689445,16.69234)" />
    <linearGradient
       inkscape:collect="always"
       id="linearGradient2131">
      <stop
         style="stop-color:#2ac9ba;stop-opacity:1;"
         offset="0"
         id="stop2127" />
      <stop
         style="stop-color:#2e988c;stop-opacity:1"
         offset="1"
         id="stop2129" />
    </linearGradient>
  </defs>
  <rect
     x="5"
     y="3"
     width="40"
     height="40"
     rx="19.999998"
     ry="19.999998"
     fill="url(#radialGradient875)"
     id="rect30"
     style="fill:url(#radialGradient875);stroke-width:0.714271" />
  <path
     id="path32"
     style="fill:url(#linearGradient883);stroke-width:0.714271"
     d="m 25.104823,3.9525077 c -1.542466,0.1093886 -3.050626,0.3913863 -4.522158,0.8683746 -0.524987,0.020491 -1.668717,0.6982815 -0.748183,1.0156074 0.428406,0.4576571 1.452301,0.6013028 1.328101,1.3491354 0.165209,0.657332 -1.528057,0.6275787 -0.964528,1.2229359 0.399573,0.5258514 0.799302,1.051629 1.198899,1.577497 0.737803,-0.236981 0.981869,-0.9898885 1.391201,-1.5714875 1.1394,-0.502581 2.75055,-0.6554216 3.503548,-1.6225683 C 26.527657,6.1078712 26.764865,5.423884 27.000825,4.7397538 26.368665,4.4773965 25.736954,4.214928 25.104823,3.9525077 Z M 19.36574,4.120774 c -0.567198,0.035951 -0.971678,0.3998731 -1.43327,0.6490272 -0.649344,0.07953 -1.381636,0.322082 -1.790835,0.8443366 0.728397,0.3305568 1.186139,-0.020672 1.814874,-0.2704281 0.583765,-0.2990726 2.571234,-0.4257809 1.664634,-1.2169262 -0.08834,-0.00953 -0.174375,-0.011143 -0.255403,-0.00602 z M 16.20173,6.1940558 C 15.669543,6.2736189 15.481331,7.4097 15.255232,6.6207311 15.190391,6.48877 15.124773,6.3591297 15.059924,6.227108 14.696586,6.7817192 15.31417,7.5826518 14.48301,7.8737143 14.072738,8.3930848 13.715962,9.246731 14.741419,8.9373981 14.992278,8.1678 15.771588,7.0864474 16.658454,7.5371822 17.551718,7.7771867 18.377998,9.278995 19.10733,8.0900571 19.107035,7.7808314 17.973243,7.5995741 17.998575,6.843083 17.493886,6.6265648 16.413458,7.0199637 16.451126,6.2331175 16.359983,6.192649 16.277758,6.182689 16.20173,6.1940558 Z m 18.650522,0.7301553 c -0.863,0.1725704 -1.716729,0.3713607 -2.397797,0.964527 C 32.65215,8.67914 31.63397,8.8111619 31.18044,9.249892 c -0.329065,0.185689 0.0062,1.619878 0.294466,1.397213 0.613026,-0.808802 0.929509,-0.11094 1.499374,0.288456 0.512917,0.476389 0.837334,-0.884339 0.564892,-1.268008 -0.159846,-0.61835 0.618573,-1.0771035 0.898423,-1.5835054 0.8556,-0.5488291 0.13253,0.6997305 0.105173,1.1357974 -0.431882,1.288661 1.917009,0.04062 0.369584,1.003588 -0.415081,0.414515 -0.567103,1.027781 -1.204912,1.334113 -0.344382,0.420343 -1.658346,0.223025 -1.481345,-0.432685 -0.479967,-0.752268 -0.362761,0.906359 -0.525832,0.898422 -0.795463,-0.237033 -1.03356,0.650894 -1.532426,1.075702 -0.381774,0.438593 -1.727342,0.164928 -0.721142,0.844337 0.733863,0.8468 -0.147101,0.69092 -0.754192,0.91645 -0.857934,0.147737 -0.713295,0.89682 -0.691094,1.571488 0.01314,0.371806 0.835985,0.923365 1.252982,0.66405 0.832932,-0.0892 0.622586,-1.112521 1.237959,-1.424255 0.511304,-0.437678 0.869859,-0.842885 1.637593,-0.853349 0.354451,0.338276 1.070626,0.847246 1.361154,1.123779 -0.801795,0.873598 0.368834,0.801949 0.480761,0.006 0.3955,-0.438276 -1.303196,-1.468747 -0.183289,-1.015608 0.741265,0.24454 0.571628,1.0032 0.901425,1.514395 0.586243,0.991002 0.648535,0.249796 0.703114,-0.516817 0.973987,-0.305981 1.23824,1.69848 2.551038,1.228947 0.983868,0.258526 0.516046,0.893264 -0.105172,1.304063 -0.567343,0.413815 -1.411554,0.131513 -2.03422,-0.09314 -0.616004,-0.316254 -1.358397,-0.136187 -1.682663,0.49278 -0.719863,-0.621262 -1.228805,-1.606965 -2.274601,-1.661631 -0.9902,-0.05129 -1.992068,0.211546 -2.947665,0.480761 -1.058799,1.2426 -2.20494,2.453196 -2.698273,4.041398 -0.512095,0.62931 0.587383,1.004764 -0.246387,1.577496 -0.580473,0.541972 0.195358,1.213149 0.315498,1.820883 0.624685,0.740794 1.583305,3.175063 2.548032,2.232534 0.542922,-0.857798 0.903039,0.563419 1.54144,-0.327518 0.537342,-0.490483 0.974199,0.490944 1.727736,0.141227 0.670063,0.334008 0.726652,0.990025 0.372589,1.61656 -0.227371,0.636116 0.984982,0.897998 0.640012,1.640597 -0.162624,0.726197 0.156065,1.343216 0.516819,1.950086 -0.801865,0.836997 -0.704963,2.076147 -0.504799,3.124947 0.392333,1.437866 0.954556,2.87896 0.898422,4.392953 0.702595,0.184295 1.221855,-0.28151 1.802855,-0.525832 1.108941,0.156848 1.712201,-1.025037 2.4008,-1.703695 -0.517301,-0.6954 0.424789,-0.995418 0.814288,-1.44529 -0.582607,-0.503929 -0.971109,-0.992188 -0.06911,-1.385192 0.41608,-0.422614 1.197448,-0.663495 1.334109,-1.252983 -0.358303,-1.067732 -0.154637,-2.201301 -0.207326,-3.305232 0.44176,-0.890336 0.909866,-1.761402 1.643602,-2.448876 0.292618,-0.965463 0.996671,-1.851241 0.928469,-2.88757 -1.710271,0.511649 -1.194185,-0.217357 -0.246391,-0.91044 0.65774,-0.482387 1.59384,-0.932315 1.79384,-1.754779 0.143551,-0.811734 -0.490743,-2.072994 -1.042649,-0.880395 -0.268094,-0.380068 -1.211966,-0.731499 -1.198898,-1.328101 -0.202248,-1.203128 0.324206,-0.481035 0.793255,0.08714 0.904892,-0.670778 2.035618,1.298065 2.133377,0.754194 C 44.36012,15.761332 41.893466,11.209426 38.229597,7.9818857 37.902435,8.3441714 37.367599,9.5992 36.976614,8.8592743 36.417499,8.2661486 35.975928,7.7316378 37.114832,7.9518381 38.230963,7.6489259 37.11988,7.4740408 36.534915,7.4049718 35.94816,7.3364832 35.404851,7.1200482 34.852252,6.9242111 Z m -21.399874,0.027045 c -0.08998,-0.00408 -0.185014,9.619e-4 -0.282447,0.015022 l -0.10817,-0.00902 -0.03005,-0.00296 c -0.08348,0.062245 -0.163935,0.1287784 -0.24639,0.1922992 -0.21501,0.4061096 0.37505,1.120802 -0.736165,0.8293134 -0.08932,0.040476 -0.213594,0.067505 -0.36658,0.084133 C 7.5937312,11.704657 5.0212789,17.007483 5.0030031,22.93659 c 0.3872901,0.793979 1.335908,1.06615 2.0462389,1.505384 0.7230689,0.247345 1.6322866,0.210783 1.9921533,1.009597 0.4024859,0.421475 0.9424027,0.984895 1.5174017,1.030632 0.883597,-0.283143 1.007667,0.519113 0.56189,1.11176 -0.0483,0.649151 -0.768619,1.171823 -0.688089,1.74276 0.160976,0.639714 -0.8068449,1.343787 -0.156248,1.929053 0.684461,1.223664 1.418044,2.413628 2.34371,3.470493 0.575751,0.50442 0.507422,1.199258 0.441699,1.892995 -0.228481,0.733202 0.463368,1.156872 0.835322,1.688673 -0.141924,0.260216 -0.27167,0.637548 -0.396628,1.057674 0.973978,0.683745 2.008878,1.284346 3.100908,1.787832 0.546233,-0.789889 1.029449,-1.375727 1.28904,-1.382189 0.519696,-0.364085 0.628604,-1.187277 0.98556,-1.733744 -0.01143,-0.580447 -0.381113,-1.122579 0.222351,-1.754779 0.454702,-0.383786 1.393209,-0.127242 1.562476,-0.928469 0.617662,-0.636228 0.117186,-1.517695 0.117186,-2.289623 0.479791,-0.657228 1.305791,-1.162145 1.213921,-2.070277 0.103943,-1.354466 -2.334789,-1.294148 -3.194055,-2.115349 -1.056186,-0.03023 -0.842437,-1.470433 -1.664634,-1.66163 -0.816268,0.04106 -1.110886,-0.59767 -1.400218,-1.246974 -0.449584,-0.306635 -1.296331,0.315165 -1.766797,-0.06911 -0.532861,-0.28072 -1.010746,-1.327465 -1.610546,-0.673068 -0.789399,0.572368 -1.564797,1.153599 -2.313663,0.19531 C 9.556323,24.995925 10.164709,23.75375 9.4770851,23.832013 8.0091534,24.362995 9.94382,21.69987 8.5696489,22.053198 8.244187,22.563339 7.6201851,23.350961 7.0131852,22.747298 6.4036105,22.460478 6.703555,21.527013 6.7307381,20.968482 c 0.026383,-0.653293 0.852969,-0.979023 1.3281021,-1.277023 0.9215331,0.412136 0.7321768,-0.81621 1.5023783,-0.405641 0.7471305,-0.159122 1.0848645,1.040047 1.3881965,1.084717 0.17827,-0.590445 -0.145321,-1.452914 0.402637,-1.841916 0.640251,-0.53892 1.485603,-0.921423 1.643602,-1.82689 0.01315,-0.967267 1.186941,-0.152574 1.47834,-0.811287 0.268648,-0.754733 1.05385,-0.707944 1.715716,-0.850346 0.362025,-0.3359 1.271321,-1.370022 0.147234,-1.066687 -0.409431,-0.05533 -2.056683,0.163004 -0.937485,-0.231367 0.55131,-0.417321 1.217041,-0.359733 1.835907,-0.441698 0.487385,-0.41263 1.341716,-0.549794 1.379183,-1.30106 C 18.210026,11.449112 17.352392,11.553412 17.716128,10.764329 17.680978,9.73213 16.770825,10.39513 16.472157,10.316621 16.957209,9.641622 15.84305,9.21733 15.468569,9.207865 15.21405,9.843972 14.497902,10.392764 14.750431,11.1249 14.004369,11.246067 13.655544,11.786711 13.431345,12.459011 13.20766,12.536921 13.277862,11.140459 12.421747,11.269129 11.817031,11.254539 11.069949,10.350443 11.706614,9.995111 12.579479,9.442844 13.666657,9.01129 14.21859,8.1291581 14.49632,7.4378459 14.082253,6.9797451 13.452378,6.9512896 Z m 14.23954,0.913446 c -0.481741,0.3747762 -1.453292,0.113421 -1.658626,0.4747505 -0.08637,0.7288004 1.044436,0.7178424 1.49637,0.315499 0.738658,-0.2731047 0.70563,-0.2211838 0.162256,-0.7902495 z M 16.991982,8.2372914 c -1.023799,0.3012343 -0.187565,0.9704536 0.480761,0.9615216 0.797395,-0.06433 0.05593,-0.9557873 -0.480761,-0.9615216 z m 12.208324,2.0101806 c -0.07325,0.652159 0.553192,1.062339 0.294465,1.772807 -0.407406,0.894999 0.169129,1.163091 0.865371,0.612971 0.929863,-0.568948 -0.69671,-1.817578 -0.913447,-2.385778 z m -0.450714,1.033638 c -0.65737,0.02069 -0.391054,1.522958 0.147234,0.958517 0.6183,-0.107938 0.02446,-0.583518 -0.003,-0.940489 -0.05223,-0.01285 -0.1004,-0.01941 -0.144227,-0.01803 z M 18.22994,12.87363 c 0.122671,0.663202 0.166497,1.715279 0.652034,0.585927 -6.65e-4,-0.219486 -0.479416,-0.391866 -0.652034,-0.585927 z m 20.176938,6.817792 c 0.982132,0.856333 1.378459,2.098256 1.932059,3.236123 0.823737,0.432498 0.335971,1.093813 0.450713,1.64961 1.146927,1.004167 -1.16053,0.46752 -0.880395,-0.627993 -0.18716,-1.272392 -1.003177,-2.120616 -1.670643,-3.040813 -0.05249,-0.487084 -0.575484,-1.043597 0.168266,-1.216927 z" />
  <circle
     style="fill:url(#linearGradient2320);fill-opacity:1;stroke-width:2.02149;stroke-linecap:round;stroke-linejoin:round"
     id="path846"
     cx="13.000078"
     cy="24.999916"
     r="5.9999161" />
  <path
     id="rect1284"
     style="fill:url(#linearGradient3853);fill-opacity:1;stroke-width:1.11802;stroke-linejoin:round"
     d="m 7.0000443,32.999804 c -2.4494131,0.01304 -4.99993,1.675986 -4.99993,4.99993 v 0.999986 c -0.02874,3.142524 5.367916,6.015762 10.9999647,5.999916 5.632049,0.0158 11.028704,-2.857392 10.999965,-5.999916 v -0.999986 c 0,-2.853296 -2.291295,-4.976659 -4.99993,-4.99993 z"
     sodipodi:nodetypes="cscccscc" />
</svg>
