<?xml version="1.0" encoding="UTF-8" standalone="no"?>
<!-- Created with Inkscape (http://www.inkscape.org/) -->

<svg
   width="16"
   height="16"
   viewBox="0 0 16 16.000001"
   version="1.1"
   id="svg5"
   inkscape:version="1.2.1 (9c6d41e410, 2022-07-14, custom)"
   sodipodi:docname="application-vnd.ms-powerpoint.svg"
   xmlns:inkscape="http://www.inkscape.org/namespaces/inkscape"
   xmlns:sodipodi="http://sodipodi.sourceforge.net/DTD/sodipodi-0.dtd"
   xmlns="http://www.w3.org/2000/svg"
   xmlns:svg="http://www.w3.org/2000/svg">
  <sodipodi:namedview
     id="namedview7"
     pagecolor="#ffffff"
     bordercolor="#000000"
     borderopacity="0.25"
     inkscape:showpageshadow="2"
     inkscape:pageopacity="0.0"
     inkscape:pagecheckerboard="0"
     inkscape:deskcolor="#d1d1d1"
     inkscape:document-units="px"
     showgrid="false"
     inkscape:zoom="53.3125"
     inkscape:cx="7.9906213"
     inkscape:cy="8"
     inkscape:window-width="1920"
     inkscape:window-height="1029"
     inkscape:window-x="0"
     inkscape:window-y="0"
     inkscape:window-maximized="1"
     inkscape:current-layer="svg5" />
  <defs
     id="defs2" />
  <path
     id="rect234"
     style="fill:#7d7d7b"
     d="m 2,0 h 9.5 L 14,2.5 V 16 H 2 Z"
     sodipodi:nodetypes="cccccc" />
  <path
     id="rect1746"
     style="fill:#fafafa"
     d="m 3,1 h 7 v 2 h 3 V 15 H 3 Z"
     sodipodi:nodetypes="ccccccc" />
  <path
     id="rect1800"
     style="fill:#fafafa;stroke-width:0.25"
     d="m 11,1 1,1.0000003 h -1 z"
     sodipodi:nodetypes="cccc" />
  <rect
     style="fill:#cb3a22;stroke-linecap:round;fill-opacity:1"
     id="rect347"
     width="7"
     height="7"
     x="0"
     y="5"
     ry="1" />
  <path
     id="path234"
     style="fill:#df8462;stroke-width:1;stroke-linecap:round;fill-opacity:1"
     d="M 9 7 A 2 2 0 0 0 8 7.2734375 L 8 10.726562 A 2 2 0 0 0 9 11 A 2 2 0 0 0 11 9 L 9 9 L 9 7 z " />
  <path
     id="path344"
     style="fill:#e8ab72;stroke-width:0.666667;stroke-linecap:round;fill-opacity:1"
     d="M 9.9999996,6 V 7.9999997 H 12 A 1.9999997,1.9999997 0 0 0 9.9999996,6 Z" />
  <path
     id="rect1758"
     style="fill:#ffffff;fill-opacity:1;stroke-linecap:round"
     d="m 2,6 v 5 H 3 V 9 H 3.5 C 4.3309984,9 5,8.3309984 5,7.5 5,6.6690016 4.3309984,6 3.5,6 Z M 3,7 H 3.5 C 3.7769994,7 4,7.2230006 4,7.5 4,7.7769994 3.7769994,8 3.5,8 H 3 Z"
     sodipodi:nodetypes="ccccsscccssscc" />
</svg>
