<?xml version="1.0" encoding="UTF-8" standalone="no"?>
<!-- Created with Inkscape (http://www.inkscape.org/) -->

<svg
   width="24"
   height="24"
   viewBox="0 0 24 24"
   version="1.1"
   id="svg423"
   inkscape:version="1.3.2 (091e20ef0f, 2023-11-25, custom)"
   sodipodi:docname="audio-volume-medium.svg"
   xmlns:inkscape="http://www.inkscape.org/namespaces/inkscape"
   xmlns:sodipodi="http://sodipodi.sourceforge.net/DTD/sodipodi-0.dtd"
   xmlns="http://www.w3.org/2000/svg"
   xmlns:svg="http://www.w3.org/2000/svg">
  <sodipodi:namedview
     id="namedview425"
     pagecolor="#ffffff"
     bordercolor="#000000"
     borderopacity="0.25"
     inkscape:showpageshadow="2"
     inkscape:pageopacity="0.0"
     inkscape:pagecheckerboard="0"
     inkscape:deskcolor="#d1d1d1"
     inkscape:document-units="px"
     showgrid="false"
     inkscape:zoom="34.166667"
     inkscape:cx="11.985366"
     inkscape:cy="12"
     inkscape:window-width="1920"
     inkscape:window-height="1017"
     inkscape:window-x="0"
     inkscape:window-y="0"
     inkscape:window-maximized="1"
     inkscape:current-layer="svg423" />
  <defs
     id="defs420">
    <style
       id="current-color-scheme"
       type="text/css">
   .ColorScheme-Text { color:#dedede; } .ColorScheme-Highlight { color:#4285f4; } .ColorScheme-NeutralText { color:#ff9800; } .ColorScheme-PositiveText { color:#4caf50; } .ColorScheme-NegativeText { color:#f44336; }
   </style>
  </defs>
  <path
     id="path1"
     style="fill:currentColor;stroke:none;-inkscape-stroke:none"
     class="ColorScheme-Text"
     d="M 9.2929688,5.9960938 6.2910156,8.9980469 H 4 v 6.0039061 h 2.2910156 l 3.0019532,3.001953 H 10.003906 V 5.9960938 Z M 9.0019531,7.7089844 V 16.291016 L 6.7128906,14 H 5 v -4 h 1.7128906 z" />
  <path
     id="path2"
     style="fill:currentColor;stroke:none;-inkscape-stroke:none"
     class="ColorScheme-Text"
     d="m 14.958984,7.0449219 -0.710937,0.7109375 c 0.562765,0.5627988 0.994642,1.2105806 1.296875,1.9453125 0.30744,0.7347321 0.460937,1.5015631 0.460937,2.2988281 0,0.797265 -0.153497,1.564097 -0.460937,2.298828 -0.302227,0.734758 -0.734104,1.38254 -1.296875,1.945313 l 0.710937,0.710937 c 0.328287,-0.328273 0.617068,-0.682107 0.867188,-1.0625 0.255333,-0.385585 0.468665,-0.788859 0.640625,-1.210937 0.177167,-0.422067 0.309847,-0.858509 0.398437,-1.306641 0.09379,-0.453366 0.140625,-0.911234 0.140625,-1.375 0,-0.458586 -0.04683,-0.913842 -0.140625,-1.367187 C 16.776654,10.179494 16.64397,9.7404386 16.466797,9.3183594 16.294837,8.8962869 16.081505,8.4956269 15.826172,8.1152344 15.576052,7.7296552 15.287271,7.3732078 14.958984,7.0449219 Z m -2.126953,2.125 -0.703125,0.703125 c 0.281386,0.2813861 0.497325,0.6085431 0.648438,0.9785161 0.151112,0.364758 0.226562,0.747198 0.226562,1.148437 0,0.401226 -0.07545,0.786278 -0.226562,1.15625 -0.151113,0.364759 -0.367052,0.687364 -0.648438,0.96875 l 0.703125,0.705078 C 13.20721,14.454901 13.497946,14.02107 13.701172,13.53125 13.904398,13.041425 14.005859,12.531505 14.005859,12 c 0,-0.531512 -0.101461,-1.041431 -0.304687,-1.53125 C 13.497946,9.9789315 13.20721,9.5451007 12.832031,9.1699219 Z" />
  <path
     id="path3"
     style="opacity:0.2;fill:currentColor;stroke:none;-inkscape-stroke:none"
     class="ColorScheme-Text"
     d="m 17.076172,4.9257813 -0.703125,0.7031249 c 0.422058,0.4220992 0.796068,0.8819209 1.119141,1.3769532 0.328285,0.489799 0.604059,1.0049427 0.828124,1.546875 0.224067,0.5419121 0.393173,1.1058343 0.507813,1.6894536 0.11985,0.578425 0.179688,1.163773 0.179687,1.757812 0,0.594046 -0.05983,1.182006 -0.179687,1.765625 -0.11464,0.578431 -0.283746,1.139741 -0.507813,1.681641 -0.224065,0.541898 -0.499839,1.059656 -0.828124,1.554687 -0.323053,0.489853 -0.697063,0.947061 -1.119141,1.369141 l 0.703125,0.703125 c 0.468985,-0.468993 0.884595,-0.978251 1.24414,-1.525391 0.36476,-0.547145 0.671756,-1.119497 0.921876,-1.71875 0.250118,-0.604458 0.43744,-1.226249 0.5625,-1.867187 C 19.934956,13.316739 20,12.661779 20,12 20,11.338208 19.934959,10.687814 19.804688,10.046875 19.679628,9.4007295 19.492306,8.7769865 19.242188,8.1777344 18.992068,7.5732756 18.685072,6.9983107 18.320312,6.4511719 17.960761,5.9040196 17.54515,5.3947603 17.076172,4.9257813 Z" />
</svg>
