<?xml version="1.0" encoding="UTF-8" standalone="no"?>
<!-- Created with Inkscape (http://www.inkscape.org/) -->

<svg
   width="24"
   height="24"
   viewBox="0 0 24 24"
   version="1.1"
   id="svg423"
   inkscape:version="1.3.2 (091e20ef0f, 2023-11-25, custom)"
   sodipodi:docname="audio-volume-low.svg"
   xmlns:inkscape="http://www.inkscape.org/namespaces/inkscape"
   xmlns:sodipodi="http://sodipodi.sourceforge.net/DTD/sodipodi-0.dtd"
   xmlns="http://www.w3.org/2000/svg"
   xmlns:svg="http://www.w3.org/2000/svg">
  <sodipodi:namedview
     id="namedview425"
     pagecolor="#ffffff"
     bordercolor="#000000"
     borderopacity="0.25"
     inkscape:showpageshadow="2"
     inkscape:pageopacity="0.0"
     inkscape:pagecheckerboard="0"
     inkscape:deskcolor="#d1d1d1"
     inkscape:document-units="px"
     showgrid="false"
     inkscape:zoom="34.166667"
     inkscape:cx="11.985366"
     inkscape:cy="12"
     inkscape:window-width="1920"
     inkscape:window-height="1017"
     inkscape:window-x="0"
     inkscape:window-y="0"
     inkscape:window-maximized="1"
     inkscape:current-layer="svg423" />
  <defs
     id="defs420">
    <style
       id="current-color-scheme"
       type="text/css">
   .ColorScheme-Text { color:#dedede; } .ColorScheme-Highlight { color:#4285f4; } .ColorScheme-NeutralText { color:#ff9800; } .ColorScheme-PositiveText { color:#4caf50; } .ColorScheme-NegativeText { color:#f44336; }
   </style>
  </defs>
  <path
     id="path1"
     style="fill:currentColor;stroke:none;-inkscape-stroke:none"
     d="M 11,7.0003125 7.5,10.000313 H 5 c -0.5539967,0 -1,0.446004 -1,1 v 3 c 0,0.553995 0.4460033,1 1,1 h 2.5 l 3.5,2.999999 z m -1,2.3496094 v 6.4003911 l -2.0859375,-1.75 H 5 v -3 h 2.9140625 z"
     class="ColorScheme-Text" />
  <path
     id="path2"
     style="color:#dedede;fill:currentColor;stroke-width:1.92898;stroke-linecap:round;stroke-linejoin:round;-inkscape-stroke:none;paint-order:normal"
     d="M 12.828125,9.8733594 12.121094,10.529609 C 12.68386,11.052481 12.99988,11.760773 13,12.500313 c -1.2e-4,0.73954 -0.31614,1.447831 -0.878906,1.970703 l 0.707031,0.658203 C 13.57819,14.432335 13.99984,13.485934 14,12.500313 13.99984,11.514692 13.57819,10.570244 12.828125,9.8733594 Z" />
  <path
     id="path3"
     style="opacity:0.2;fill:currentColor;stroke-width:1.92898;stroke-linecap:round;stroke-linejoin:round;-inkscape-stroke:none;paint-order:normal"
     class="ColorScheme-Text"
     d="M 17.070312,5.93 16.363281,6.5882031 C 18.051275,8.1565873 18.9997,10.282067 19,12.500313 c -3e-4,2.218247 -0.948725,4.345677 -2.636719,5.914061 l 0.707031,0.65625 C 18.945606,17.328275 19.999599,14.964641 20,12.500313 19.999599,10.035985 18.945606,7.6723496 17.070312,5.93 Z M 14.949219,7.9007031 14.242188,8.5589063 C 15.367576,9.6045578 15.9998,11.02142 16,12.500313 c -2e-4,1.478892 -0.632424,2.897707 -1.757812,3.943358 l 0.707031,0.65625 C 16.261907,15.880307 16.99972,14.225288 17,12.500313 16.99972,10.775338 16.261907,9.1203201 14.949219,7.9007031 Z" />
</svg>
