<?xml version="1.0" encoding="UTF-8" standalone="no"?>
<!-- Created with Inkscape (http://www.inkscape.org/) -->

<svg
   width="24"
   height="24"
   viewBox="0 0 24 24"
   version="1.1"
   id="svg423"
   inkscape:version="1.3.2 (091e20ef0f, 2023-11-25, custom)"
   sodipodi:docname="klipper-symbolic.svg"
   xmlns:inkscape="http://www.inkscape.org/namespaces/inkscape"
   xmlns:sodipodi="http://sodipodi.sourceforge.net/DTD/sodipodi-0.dtd"
   xmlns="http://www.w3.org/2000/svg"
   xmlns:svg="http://www.w3.org/2000/svg">
  <sodipodi:namedview
     id="namedview425"
     pagecolor="#ffffff"
     bordercolor="#000000"
     borderopacity="0.25"
     inkscape:showpageshadow="2"
     inkscape:pageopacity="0.0"
     inkscape:pagecheckerboard="0"
     inkscape:deskcolor="#d1d1d1"
     inkscape:document-units="px"
     showgrid="false"
     inkscape:zoom="34.166667"
     inkscape:cx="11.985366"
     inkscape:cy="12"
     inkscape:window-width="1920"
     inkscape:window-height="1017"
     inkscape:window-x="0"
     inkscape:window-y="0"
     inkscape:window-maximized="1"
     inkscape:current-layer="svg423" />
  <defs
     id="defs2">
    <style
       id="current-color-scheme"
       type="text/css">
        .ColorScheme-Text { color:#dedede; } .ColorScheme-Highlight { color:#4285f4; } .ColorScheme-NeutralText { color:#ff9800; } .ColorScheme-PositiveText { color:#4caf50; } .ColorScheme-NegativeText { color:#f44336; }
     </style>
  </defs>
  <path
     id="path1"
     style="fill:currentColor"
     class="ColorScheme-Text"
     d="m 12,4.0000036 c -1.104598,0 -2,0.8954322 -2,2 H 7 c -0.5539982,0 -1,0.4460018 -1,1 V 18.000004 c 0,0.553997 0.4460018,1 1,1 h 10 c 0.553997,0 1,-0.446003 1,-1 V 7.0000036 c 0,-0.5539982 -0.446003,-1 -1,-1 H 14 C 14,5.8620038 13.99475,5.7237534 13.96875,5.5937536 13.7726,4.6633955 12.950898,3.9982036 12,4.0000036 Z m -0.01172,1 c 0.0039,-2.28e-5 0.0078,-2.28e-5 0.01172,0 0.413999,0 0.75425,0.2660008 0.90625,0.625 0.05689,0.1171598 0.08882,0.2448602 0.09375,0.375 -6.1e-5,0.8881282 -1.071626,1.3351963 -1.703125,0.7109375 -0.631569,-0.6242588 -0.196662,-1.7005375 0.691406,-1.7109375 z m -4.988281,2 h 3 v 1 c 0,0 -1,2e-6 -1,1 h 6 c 0,-0.7499986 -0.56275,-0.953 -0.84375,-1 H 14 v -1 h 3 V 18.000004 H 7 Z"
     sodipodi:nodetypes="ccssssssssccccccccccccccccccccc" />
</svg>
