<?xml version="1.0" encoding="UTF-8" standalone="no"?>
<!-- Created with Inkscape (http://www.inkscape.org/) -->

<svg
   width="24"
   height="24"
   viewBox="0 0 24 24"
   version="1.1"
   id="svg5"
   inkscape:version="1.3.2 (091e20ef0f, 2023-11-25, custom)"
   sodipodi:docname="network-wireless-signal-ok.svg"
   xmlns:inkscape="http://www.inkscape.org/namespaces/inkscape"
   xmlns:sodipodi="http://sodipodi.sourceforge.net/DTD/sodipodi-0.dtd"
   xmlns="http://www.w3.org/2000/svg"
   xmlns:svg="http://www.w3.org/2000/svg">
  <sodipodi:namedview
     id="namedview7"
     pagecolor="#ffffff"
     bordercolor="#000000"
     borderopacity="0.25"
     inkscape:showpageshadow="2"
     inkscape:pageopacity="0.0"
     inkscape:pagecheckerboard="0"
     inkscape:deskcolor="#d1d1d1"
     inkscape:document-units="px"
     showgrid="false"
     inkscape:zoom="34.166667"
     inkscape:cx="11.985366"
     inkscape:cy="12"
     inkscape:window-width="1920"
     inkscape:window-height="1017"
     inkscape:window-x="0"
     inkscape:window-y="0"
     inkscape:window-maximized="1"
     inkscape:current-layer="svg5" />
  <defs
     id="defs2">
    <style
       id="current-color-scheme"
       type="text/css">
   .ColorScheme-Text { color:#dedede; } .ColorScheme-Highlight { color:#3daee9; } .ColorScheme-NeutralText { color:#ff9800; } .ColorScheme-PositiveText { color:#4caf50; } .ColorScheme-NegativeText { color:#f44336; }
    </style>
  </defs>
  <path
     id="path234"
     style="fill:currentColor;fill-opacity:1;stroke-linecap:round;-inkscape-stroke:none"
     d="M 18.5,13 C 15.468362,13 13,15.468362 13,18.5 13,18.776142 13.223858,19 13.5,19 13.776142,19 14,18.776142 14,18.5 14,16.008801 16.008801,14 18.5,14 18.776142,14 19,13.776142 19,13.5 19,13.223858 18.776142,13 18.5,13 Z M 18,17 c -0.552285,0 -1,0.447715 -1,1 0,0.552285 0.447715,1 1,1 0.552285,0 1,-0.447715 1,-1 0,-0.552285 -0.447715,-1 -1,-1 z"
     sodipodi:nodetypes="ssssssssssss"
     class="ColorScheme-Text" />
  <path
     id="path1811"
     style="opacity:0.2;fill:currentColor;fill-opacity:1;stroke-linecap:round;-inkscape-stroke:none"
     class="ColorScheme-Text"
     d="M 18.5,5 C 11.050101,5 5,11.0501 5,18.5 5,18.776142 5.2238579,19 5.5,19 5.7761421,19 6,18.776142 6,18.5 6,11.590539 11.590539,6 18.5,6 18.776142,6 19,5.7761421 19,5.5 19,5.2238579 18.776142,5 18.5,5 Z m 0,4 C 13.259233,9 9,13.259233 9,18.5 9,18.776142 9.2238579,19 9.5,19 9.7761421,19 10,18.776142 10,18.5 10,13.799671 13.799672,10 18.5,10 18.776142,10 19,9.7761421 19,9.5 19,9.2238579 18.776142,9 18.5,9 Z" />
</svg>
