<?xml version="1.0" encoding="UTF-8" standalone="no"?>
<!-- Created with Inkscape (http://www.inkscape.org/) -->

<svg
   width="24"
   height="24"
   viewBox="0 0 24 24"
   version="1.1"
   id="svg1"
   inkscape:version="1.3.2 (091e20ef0f, 2023-11-25, custom)"
   sodipodi:docname="network-wireless-secure-signal-good.svg"
   xmlns:inkscape="http://www.inkscape.org/namespaces/inkscape"
   xmlns:sodipodi="http://sodipodi.sourceforge.net/DTD/sodipodi-0.dtd"
   xmlns="http://www.w3.org/2000/svg"
   xmlns:svg="http://www.w3.org/2000/svg">
  <sodipodi:namedview
     id="namedview1"
     pagecolor="#ffffff"
     bordercolor="#000000"
     borderopacity="0.25"
     inkscape:showpageshadow="2"
     inkscape:pageopacity="0.0"
     inkscape:pagecheckerboard="0"
     inkscape:deskcolor="#d1d1d1"
     inkscape:document-units="px"
     inkscape:zoom="34.166667"
     inkscape:cx="11.985366"
     inkscape:cy="12"
     inkscape:window-width="1920"
     inkscape:window-height="1017"
     inkscape:window-x="0"
     inkscape:window-y="0"
     inkscape:window-maximized="1"
     inkscape:current-layer="svg1" />
  <defs
     id="defs1">
    <style
       id="current-color-scheme"
       type="text/css">
   .ColorScheme-Text { color:#dedede; } .ColorScheme-Highlight { color:#3daee9; } .ColorScheme-NeutralText { color:#ff9800; } .ColorScheme-PositiveText { color:#4caf50; } .ColorScheme-NegativeText { color:#f44336; }
    </style>
  </defs>
  <path
     id="path1"
     style="fill:currentColor;fill-opacity:1;stroke-width:9.33333"
     class="ColorScheme-Text"
     d="m 19,9 c -3.96944,0.00741 -7.558712,2.361939 -9.1464844,6 H 10 v 4 c 0,-4.970558 4.029442,-9 9,-9 z m 0,4 c -3.313705,0 -6,2.686295 -6,6 h 1 c 0,-2.761421 2.238579,-5 5,-5 z m -1,4 c -0.552284,0 -1,0.447716 -1,1 0,0.552284 0.447716,1 1,1 0.552284,0 1,-0.447716 1,-1 0,-0.552284 -0.447716,-1 -1,-1 z" />
  <path
     d="M 19,5 C 13.595595,5.0058574 8.6771911,8.1218601 6.3632812,13.005859 6.4088331,13.003414 6.4538181,13 6.5,13 6.8177884,13 7.1211789,13.060855 7.4003906,13.167969 9.603061,8.779858 14.090089,6.0071027 19,6 Z"
     style="opacity:0.2;fill:currentColor;fill-opacity:1;stroke-width:9.33333"
     class="ColorScheme-Text"
     id="path2" />
  <path
     id="path3"
     style="fill:currentColor;fill-opacity:1;stroke-linejoin:round"
     class="ColorScheme-Text"
     d="M 6.5,14 C 5.671574,14 5,14.671574 5,15.5 V 16 H 4 v 4 H 9 V 16 H 8 V 15.5 C 8,14.671574 7.328426,14 6.5,14 Z m 0,1 C 6.776142,15 7,15.223858 7,15.5 V 16 H 6 V 15.5 C 6,15.223858 6.223858,15 6.5,15 Z M 5,17 h 3 v 2 H 5 Z" />
</svg>
