<?xml version="1.0" encoding="UTF-8" standalone="no"?>
<!-- Created with Inkscape (http://www.inkscape.org/) -->

<svg
   width="24"
   height="24"
   viewBox="0 0 24 24.000002"
   version="1.1"
   id="svg1"
   inkscape:version="1.3.2 (091e20ef0f, 2023-11-25, custom)"
   sodipodi:docname="notification-active.svg"
   xmlns:inkscape="http://www.inkscape.org/namespaces/inkscape"
   xmlns:sodipodi="http://sodipodi.sourceforge.net/DTD/sodipodi-0.dtd"
   xmlns="http://www.w3.org/2000/svg"
   xmlns:svg="http://www.w3.org/2000/svg">
  <sodipodi:namedview
     id="namedview1"
     pagecolor="#ffffff"
     bordercolor="#000000"
     borderopacity="0.25"
     inkscape:showpageshadow="2"
     inkscape:pageopacity="0.0"
     inkscape:pagecheckerboard="0"
     inkscape:deskcolor="#d1d1d1"
     inkscape:document-units="px"
     inkscape:zoom="33.25"
     inkscape:cx="11.984962"
     inkscape:cy="12"
     inkscape:window-width="1920"
     inkscape:window-height="1008"
     inkscape:window-x="0"
     inkscape:window-y="0"
     inkscape:window-maximized="1"
     inkscape:current-layer="svg1" />
  <defs
     id="defs1">
    <style
       id="current-color-scheme"
       type="text/css">
        .ColorScheme-Text { color:#dedede; } .ColorScheme-Highlight { color:#3daee9; } .ColorScheme-NeutralText { color:#ff9800; } .ColorScheme-PositiveText { color:#4caf50; } .ColorScheme-NegativeText { color:#f44336; }
     </style>
  </defs>
  <path
     id="path1"
     style="fill:currentColor;stroke-width:3;stroke-linecap:round"
     class="ColorScheme-Text"
     d="M 12,5 C 11.408574,5.000584 10.946716,5.5111474 11.005859,6.0996094 8.6725789,6.568133 6.9954112,8.6201489 7,11 v 4.5 l -2,2 V 18 h 14 v -0.5 l -2,-2 V 11.865234 A 4,4 0 0 1 16,12 v 3.921875 L 17,17 H 7 L 8,15.921875 V 11 c 0,-2.2091368 1.7908632,-4 4,-4 0.04471,0 0.08846,0.00245 0.132813,0.00391 A 4,4 0 0 1 12.873047,5.5175781 C 12.703588,5.211683 12.379198,5.0003744 12,5 Z m -1.730469,14 c 0.356899,0.618167 1.016671,0.999268 1.730469,1 0.71344,-0.0011 1.371796,-0.382142 1.728516,-1 z" />
  <circle
     style="opacity:1;fill:currentColor;fill-opacity:1;stroke-width:2"
     class="ColorScheme-Highlight"
     id="path2"
     cx="16"
     cy="8"
     r="3" />
</svg>
