<?xml version="1.0" encoding="UTF-8" standalone="no"?>
<!-- Created with Inkscape (http://www.inkscape.org/) -->

<svg
   width="24"
   height="24"
   viewBox="0 0 24 24.000002"
   version="1.1"
   id="svg1"
   inkscape:version="1.3.2 (091e20ef0f, 2023-11-25, custom)"
   sodipodi:docname="notification-disabled.svg"
   xmlns:inkscape="http://www.inkscape.org/namespaces/inkscape"
   xmlns:sodipodi="http://sodipodi.sourceforge.net/DTD/sodipodi-0.dtd"
   xmlns="http://www.w3.org/2000/svg"
   xmlns:svg="http://www.w3.org/2000/svg">
  <sodipodi:namedview
     id="namedview1"
     pagecolor="#ffffff"
     bordercolor="#000000"
     borderopacity="0.25"
     inkscape:showpageshadow="2"
     inkscape:pageopacity="0.0"
     inkscape:pagecheckerboard="0"
     inkscape:deskcolor="#d1d1d1"
     inkscape:document-units="px"
     inkscape:zoom="33.916667"
     inkscape:cx="12"
     inkscape:cy="12"
     inkscape:window-width="1920"
     inkscape:window-height="1012"
     inkscape:window-x="0"
     inkscape:window-y="0"
     inkscape:window-maximized="1"
     inkscape:current-layer="svg1" />
  <defs
     id="defs1">
    <style
       id="current-color-scheme"
       type="text/css">
        .ColorScheme-Text { color:#dedede; } .ColorScheme-Highlight { color:#3daee9; } .ColorScheme-NeutralText { color:#ff9800; } .ColorScheme-PositiveText { color:#4caf50; } .ColorScheme-NegativeText { color:#f44336; }
     </style>
  </defs>
  <path
     id="path1"
     style="fill:currentColor;stroke-width:3;stroke-linecap:round"
     class="ColorScheme-Text"
     d="M 12,5 C 11.408574,5.000584 10.946716,5.5111474 11.005859,6.0996094 10.287339,6.2438885 9.6325085,6.5393826 9.0683594,6.9472656 L 9.7890625,7.6679688 C 10.422578,7.2467819 11.182223,7 12,7 c 2.209137,0 4,1.7908632 4,4 v 2.878906 l 1,1 V 11 C 17.004981,8.6200095 15.327635,6.5677766 12.994141,6.0996094 13.053284,5.5111474 12.591426,5.000584 12,5 Z M 7.2675781,9.3886719 C 7.0948003,9.8972552 6.9989171,10.438361 7,11 v 4.5 l -2,2 V 18 h 10.878906 l -1,-1 H 7 L 8,15.921875 V 11 c 0,-0.273395 0.027823,-0.540847 0.080078,-0.798828 z M 10.269531,19 c 0.356899,0.618167 1.016671,0.999268 1.730469,1 0.71344,-0.0011 1.371796,-0.382142 1.728516,-1 z" />
  <rect
     style="opacity:1;fill:currentColor;fill-opacity:1;stroke-width:2"
     class="ColorScheme-NegativeText"
     id="rect1"
     width="1"
     height="20"
     x="-0.5"
     y="6.9705629"
     transform="rotate(-45)" />
</svg>
