<?xml version="1.0" encoding="UTF-8" standalone="no"?>
<!-- Created with Inkscape (http://www.inkscape.org/) -->

<svg
   width="24"
   height="24"
   viewBox="0 0 24 24.000001"
   version="1.1"
   id="svg1"
   inkscape:version="1.3.2 (091e20ef0f, 2023-11-25, custom)"
   sodipodi:docname="notifications.svg"
   xmlns:inkscape="http://www.inkscape.org/namespaces/inkscape"
   xmlns:sodipodi="http://sodipodi.sourceforge.net/DTD/sodipodi-0.dtd"
   xmlns="http://www.w3.org/2000/svg"
   xmlns:svg="http://www.w3.org/2000/svg">
  <sodipodi:namedview
     id="namedview1"
     pagecolor="#ffffff"
     bordercolor="#000000"
     borderopacity="0.25"
     inkscape:showpageshadow="2"
     inkscape:pageopacity="0.0"
     inkscape:pagecheckerboard="0"
     inkscape:deskcolor="#d1d1d1"
     inkscape:document-units="px"
     inkscape:zoom="28.833333"
     inkscape:cx="11.982659"
     inkscape:cy="12"
     inkscape:window-width="1920"
     inkscape:window-height="899"
     inkscape:window-x="0"
     inkscape:window-y="0"
     inkscape:window-maximized="1"
     inkscape:current-layer="svg1" />
  <defs
     id="defs1">
    <style
       id="current-color-scheme"
       type="text/css">
        .ColorScheme-Text { color:#363636; } .ColorScheme-Highlight { color:#3daee9; } .ColorScheme-NeutralText { color:#ff9800; } .ColorScheme-PositiveText { color:#4caf50; } .ColorScheme-NegativeText { color:#f44336; }
     </style>
  </defs>
  <path
     d="M 12,5 C 11.408573,5.000584 10.946857,5.5115374 11.006,6.1 8.6727172,6.5685241 6.9954112,8.6201465 7,11 v 4.5 l -2,2 V 18 h 14 v -0.5 l -2,-2 V 11 C 17.004981,8.6200071 15.327497,6.5681677 12.994,6.1 13.053143,5.5115374 12.591427,5.000584 12,5 Z m 0,2 c 2.209139,0 4,1.790861 4,4 v 4.922 L 17,17 H 7 L 8,15.922 V 11 C 8,8.790861 9.790861,7 12,7 Z m -1.73,12 c 0.356899,0.618168 1.016202,0.999268 1.73,1 0.713441,-0.0011 1.37228,-0.382141 1.729,-1 z"
     style="fill:currentColor;stroke-width:3;stroke-linecap:round"
     class="ColorScheme-Text"
     id="path1" />
</svg>
