<?xml version="1.0" encoding="UTF-8" standalone="no"?>
<!-- Created with Inkscape (http://www.inkscape.org/) -->

<svg
   width="24"
   height="24"
   viewBox="0 0 24 24"
   version="1.1"
   id="svg5"
   inkscape:version="1.3.2 (091e20ef0f, 2023-11-25, custom)"
   sodipodi:docname="redshift-status-off.svg"
   xmlns:inkscape="http://www.inkscape.org/namespaces/inkscape"
   xmlns:sodipodi="http://sodipodi.sourceforge.net/DTD/sodipodi-0.dtd"
   xmlns="http://www.w3.org/2000/svg"
   xmlns:svg="http://www.w3.org/2000/svg">
  <sodipodi:namedview
     id="namedview7"
     pagecolor="#ffffff"
     bordercolor="#000000"
     borderopacity="0.25"
     inkscape:showpageshadow="2"
     inkscape:pageopacity="0.0"
     inkscape:pagecheckerboard="0"
     inkscape:deskcolor="#d1d1d1"
     inkscape:document-units="px"
     showgrid="false"
     inkscape:zoom="34.166667"
     inkscape:cx="11.985366"
     inkscape:cy="12"
     inkscape:window-width="1920"
     inkscape:window-height="1017"
     inkscape:window-x="0"
     inkscape:window-y="0"
     inkscape:window-maximized="1"
     inkscape:current-layer="svg5" />
  <defs
     id="defs2">
    <style
       id="current-color-scheme"
       type="text/css">
         .ColorScheme-Text { color:#363636; }
     </style>
  </defs>
  <path
     id="path234"
     style="opacity:0.2;fill:currentColor;stroke-width:1.2;stroke-linecap:round;stroke-linejoin:round"
     class="ColorScheme-Text"
     d="m 12,4 c -3.3136854,0 -6,2.6863146 -6,6 0.00408,3.353636 3,4.347548 3,7 v 3 h 6 v -3 c 0,-2.652452 2.9959,-3.646364 3,-7 0,-3.3136854 -2.686313,-6 -6,-6 z m 0,1 c 2.761406,0 5,2.2385928 5,5 -0.0034,2.7947 -3.000613,4.394107 -3,6 H 10 C 10.000613,14.394107 7.0034,12.7947 7,10 7,7.2385928 9.238593,5 12,5 Z m -2,12 h 4 v 2 h -4 z" />
</svg>
