<?xml version="1.0" encoding="UTF-8" standalone="no"?>
<!-- Created with Inkscape (http://www.inkscape.org/) -->

<svg
   width="22"
   height="22"
   viewBox="0 0 22 22.000001"
   version="1.1"
   id="svg1"
   inkscape:version="1.3.2 (091e20ef0f, 2023-11-25, custom)"
   sodipodi:docname="notifications.svg"
   xmlns:inkscape="http://www.inkscape.org/namespaces/inkscape"
   xmlns:sodipodi="http://sodipodi.sourceforge.net/DTD/sodipodi-0.dtd"
   xmlns="http://www.w3.org/2000/svg"
   xmlns:svg="http://www.w3.org/2000/svg">
  <sodipodi:namedview
     id="namedview1"
     pagecolor="#ffffff"
     bordercolor="#000000"
     borderopacity="0.25"
     inkscape:showpageshadow="2"
     inkscape:pageopacity="0.0"
     inkscape:pagecheckerboard="0"
     inkscape:deskcolor="#d1d1d1"
     inkscape:document-units="px"
     inkscape:zoom="36.272727"
     inkscape:cx="11.013785"
     inkscape:cy="11"
     inkscape:window-width="1920"
     inkscape:window-height="899"
     inkscape:window-x="0"
     inkscape:window-y="0"
     inkscape:window-maximized="1"
     inkscape:current-layer="svg1" />
  <defs
     id="defs1">
    <style
       id="current-color-scheme"
       type="text/css">
        .ColorScheme-Text { color:#363636; } .ColorScheme-Highlight { color:#3daee9; } .ColorScheme-NeutralText { color:#ff9800; } .ColorScheme-PositiveText { color:#4caf50; } .ColorScheme-NegativeText { color:#f44336; }
     </style>
  </defs>
  <path
     d="M 11,4 C 10.408573,4.000584 9.946857,4.5115374 10.006,5.1 7.6727172,5.5685241 5.9954112,7.6201465 6,10 v 4.5 l -2,2 V 17 h 14 v -0.5 l -2,-2 V 10 C 16.004981,7.6200071 14.327497,5.5681677 11.994,5.1 12.053143,4.5115374 11.591427,4.000584 11,4 Z m 0,2 c 2.209139,0 4,1.790861 4,4 v 4.922 L 16,16 H 6 L 7,14.922 V 10 C 7,7.790861 8.790861,6 11,6 Z M 9.27,18 c 0.356899,0.618168 1.016202,0.999268 1.73,1 0.713441,-0.0011 1.37228,-0.382141 1.729,-1 z"
     style="fill:currentColor;stroke-width:3;stroke-linecap:round"
     class="ColorScheme-Text"
     id="path1" />
</svg>
