<?xml version="1.0" encoding="UTF-8" standalone="no"?>
<!-- Created with Inkscape (http://www.inkscape.org/) -->

<svg
   width="22"
   height="22"
   viewBox="0 0 22 22.000002"
   version="1.1"
   id="svg1"
   inkscape:version="1.3.2 (091e20ef0f, 2023-11-25, custom)"
   sodipodi:docname="battery-050-charging.svg"
   xmlns:inkscape="http://www.inkscape.org/namespaces/inkscape"
   xmlns:sodipodi="http://sodipodi.sourceforge.net/DTD/sodipodi-0.dtd"
   xmlns="http://www.w3.org/2000/svg"
   xmlns:svg="http://www.w3.org/2000/svg">
  <sodipodi:namedview
     id="namedview1"
     pagecolor="#ffffff"
     bordercolor="#000000"
     borderopacity="0.25"
     inkscape:showpageshadow="2"
     inkscape:pageopacity="0.0"
     inkscape:pagecheckerboard="0"
     inkscape:deskcolor="#d1d1d1"
     inkscape:document-units="px"
     inkscape:zoom="37.272727"
     inkscape:cx="10.986585"
     inkscape:cy="11"
     inkscape:window-width="1920"
     inkscape:window-height="1017"
     inkscape:window-x="0"
     inkscape:window-y="0"
     inkscape:window-maximized="1"
     inkscape:current-layer="svg1" />
  <defs
     id="defs1">
    <style
       id="current-color-scheme"
       type="text/css">
   .ColorScheme-Text { color:#363636; } .ColorScheme-Highlight { color:#4285f4; } .ColorScheme-NeutralText { color:#ff9800; } .ColorScheme-PositiveText { color:#4caf50; } .ColorScheme-NegativeText { color:#f44336; }
   </style>
  </defs>
  <path
     id="path1"
     style="fill:currentColor;stroke-width:2"
     class="ColorScheme-Text"
     d="m 9,6 v 1 h 8 v 8 H 7 v 1 h 11 v -3 h 1 V 9 H 18 V 6 Z" />
  <path
     id="path2"
     style="fill:currentColor;stroke-width:2"
     class="ColorScheme-Text"
     d="M 9 8 L 9 8.5 C 9 9.901313 8.1839758 11.102736 7 11.662109 L 7 14 L 11 14 L 11 8 L 9 8 z " />
  <path
     id="rect1"
     style="fill:currentColor;stroke-width:2"
     class="ColorScheme-Text"
     d="M 4,4 V 6 H 3 v 2.5 c 0,1.213954 0.8557929,2.221082 2,2.451172 V 16 H 6 V 10.951172 C 7.1442071,10.721082 8,9.713954 8,8.5 V 6 H 7 V 4 H 6 V 6 H 5 V 4 Z M 4,7 H 7 V 8.5 C 7,9.330997 6.3309968,10 5.5,10 4.6690032,10 4,9.330997 4,8.5 Z" />
</svg>
