<?xml version="1.0" encoding="UTF-8" standalone="no"?>
<!-- Created with Inkscape (http://www.inkscape.org/) -->

<svg
   width="22"
   height="22"
   viewBox="0 0 22 22"
   version="1.1"
   id="svg1"
   sodipodi:docname="network-wireless-signal-weak.svg"
   inkscape:version="1.3.2 (091e20ef0f, 2023-11-25, custom)"
   xmlns:inkscape="http://www.inkscape.org/namespaces/inkscape"
   xmlns:sodipodi="http://sodipodi.sourceforge.net/DTD/sodipodi-0.dtd"
   xmlns="http://www.w3.org/2000/svg"
   xmlns:svg="http://www.w3.org/2000/svg">
  <sodipodi:namedview
     id="namedview1"
     pagecolor="#ffffff"
     bordercolor="#000000"
     borderopacity="0.25"
     inkscape:showpageshadow="2"
     inkscape:pageopacity="0.0"
     inkscape:pagecheckerboard="0"
     inkscape:deskcolor="#d1d1d1"
     inkscape:document-units="px"
     inkscape:zoom="37.272727"
     inkscape:cx="10.986585"
     inkscape:cy="11"
     inkscape:window-width="1920"
     inkscape:window-height="1017"
     inkscape:window-x="0"
     inkscape:window-y="0"
     inkscape:window-maximized="1"
     inkscape:current-layer="svg1" />
  <defs
     id="defs1">
    <style
       id="current-color-scheme"
       type="text/css">
   .ColorScheme-Text { color:#363636; } .ColorScheme-Highlight { color:#3daee9; } .ColorScheme-NeutralText { color:#ff9800; } .ColorScheme-PositiveText { color:#4caf50; } .ColorScheme-NegativeText { color:#f44336; }
    </style>
  </defs>
  <path
     id="path1"
     style="opacity:0.2;fill:currentColor;fill-opacity:1;stroke-width:9.33333"
     class="ColorScheme-Text"
     d="M 18,4 C 10.268037,4 4,10.268037 4,18 H 5 C 5,10.82032 10.82032,5 18,5 Z m 0,4 C 12.477171,8 8,12.47717 8,18 h 1 c 0,-4.970548 4.029452,-9 9,-9 z m 0,4 c -3.313705,0 -6,2.686295 -6,6 h 1 c 0,-2.761421 2.238579,-5 5,-5 z" />
  <path
     id="path2"
     style="fill:currentColor;fill-opacity:1;stroke-width:2"
     class="ColorScheme-Text"
     d="m 17,16 c -0.552285,0 -1,0.447715 -1,1 0,0.552285 0.447715,1 1,1 0.552285,0 1,-0.447715 1,-1 0,-0.552285 -0.447715,-1 -1,-1 z"
     sodipodi:nodetypes="sssss" />
</svg>
