<?xml version="1.0" encoding="UTF-8" standalone="no"?>
<!-- Created with Inkscape (http://www.inkscape.org/) -->

<svg
   width="22"
   height="22"
   viewBox="0 0 22 22.000002"
   version="1.1"
   id="svg1"
   inkscape:version="1.3.2 (091e20ef0f, 2023-11-25, custom)"
   sodipodi:docname="notification-disabled.svg"
   xmlns:inkscape="http://www.inkscape.org/namespaces/inkscape"
   xmlns:sodipodi="http://sodipodi.sourceforge.net/DTD/sodipodi-0.dtd"
   xmlns="http://www.w3.org/2000/svg"
   xmlns:svg="http://www.w3.org/2000/svg">
  <sodipodi:namedview
     id="namedview1"
     pagecolor="#ffffff"
     bordercolor="#000000"
     borderopacity="0.25"
     inkscape:showpageshadow="2"
     inkscape:pageopacity="0.0"
     inkscape:pagecheckerboard="0"
     inkscape:deskcolor="#d1d1d1"
     inkscape:document-units="px"
     inkscape:zoom="37"
     inkscape:cx="11"
     inkscape:cy="11"
     inkscape:window-width="1920"
     inkscape:window-height="1012"
     inkscape:window-x="0"
     inkscape:window-y="0"
     inkscape:window-maximized="1"
     inkscape:current-layer="svg1" />
  <defs
     id="defs1">
    <style
       id="current-color-scheme"
       type="text/css">
        .ColorScheme-Text { color:#363636; } .ColorScheme-Highlight { color:#3daee9; } .ColorScheme-NeutralText { color:#ff9800; } .ColorScheme-PositiveText { color:#4caf50; } .ColorScheme-NegativeText { color:#f44336; }
     </style>
  </defs>
  <path
     id="path1"
     style="fill:currentColor;stroke-width:3;stroke-linecap:round"
     class="ColorScheme-Text"
     d="M 11,4 C 10.408574,4.000584 9.946716,4.5111474 10.005859,5.0996094 9.287339,5.2438885 8.6325085,5.5393826 8.0683594,5.9472656 L 8.7890625,6.6679688 C 9.422578,6.2467819 10.182223,6 11,6 c 2.209137,0 4,1.7908632 4,4 v 2.878906 l 1,1 V 10 C 16.004981,7.6200095 14.327635,5.5677766 11.994141,5.0996094 12.053284,4.5111474 11.591426,4.000584 11,4 Z M 6.2675781,8.3886719 C 6.0948003,8.8972552 5.9989171,9.438361 6,10 v 4.5 l -2,2 V 17 h 10.878906 l -1,-1 H 6 L 7,14.921875 V 10 C 7,9.726605 7.027823,9.459153 7.080078,9.201172 Z M 9.269531,18 C 9.62643,18.618167 10.286202,18.999268 11,19 c 0.71344,-0.0011 1.371796,-0.382142 1.728516,-1 z" />
  <rect
     style="opacity:1;fill:currentColor;fill-opacity:1;stroke-width:2"
     class="ColorScheme-NegativeText"
     id="rect1"
     width="1"
     height="20"
     x="-0.5"
     y="5.5563493"
     transform="rotate(-45)" />
</svg>
