<?xml version="1.0" encoding="UTF-8" standalone="no"?>
<!-- Created with Inkscape (http://www.inkscape.org/) -->

<svg
   width="16"
   height="16"
   viewBox="0 0 16 16"
   version="1.1"
   id="svg1015"
   inkscape:version="1.2.1 (9c6d41e410, 2022-07-14, custom)"
   sodipodi:docname="applets-screenshooter.svg"
   xmlns:inkscape="http://www.inkscape.org/namespaces/inkscape"
   xmlns:sodipodi="http://sodipodi.sourceforge.net/DTD/sodipodi-0.dtd"
   xmlns:xlink="http://www.w3.org/1999/xlink"
   xmlns="http://www.w3.org/2000/svg"
   xmlns:svg="http://www.w3.org/2000/svg">
  <sodipodi:namedview
     id="namedview1017"
     pagecolor="#ffffff"
     bordercolor="#000000"
     borderopacity="0.25"
     inkscape:showpageshadow="2"
     inkscape:pageopacity="0.0"
     inkscape:pagecheckerboard="0"
     inkscape:deskcolor="#d1d1d1"
     inkscape:document-units="px"
     showgrid="false"
     inkscape:zoom="50.625"
     inkscape:cx="8"
     inkscape:cy="8"
     inkscape:window-width="1920"
     inkscape:window-height="1012"
     inkscape:window-x="0"
     inkscape:window-y="0"
     inkscape:window-maximized="1"
     inkscape:current-layer="svg1015" />
  <defs
     id="defs1012">
    <linearGradient
       inkscape:collect="always"
       xlink:href="#linearGradient7072"
       id="linearGradient6150"
       x1="10.999998"
       y1="-0.99999779"
       x2="10.999999"
       y2="17"
       gradientUnits="userSpaceOnUse"
       gradientTransform="matrix(-0.5,0,0,0.5,13.500432,2.4999989)" />
    <linearGradient
       inkscape:collect="always"
       xlink:href="#linearGradient4525"
       id="linearGradient6148"
       x1="-0.17090353"
       y1="10.999522"
       x2="17.000008"
       y2="11"
       gradientUnits="userSpaceOnUse"
       gradientTransform="matrix(-0.35355339,0.35355339,0.35355339,0.35355339,8.414644,0.39339825)" />
    <linearGradient
       inkscape:collect="always"
       xlink:href="#linearGradient1452"
       id="linearGradient2793"
       x1="2.1166401"
       y1="2.6458001"
       x2="2.1166401"
       y2="3.7041199"
       gradientUnits="userSpaceOnUse"
       gradientTransform="matrix(-3.7795752,0,0,3.7795752,15.000433,0.9999993)" />
    <linearGradient
       inkscape:collect="always"
       xlink:href="#linearGradient937"
       id="linearGradient939"
       x1="17.278158"
       y1="9.3674898"
       x2="54.623375"
       y2="46.807529"
       gradientUnits="userSpaceOnUse"
       gradientTransform="matrix(0.25696416,0,0,0.25696416,-0.03624771,-0.0278565)" />
    <linearGradient
       inkscape:collect="always"
       id="linearGradient937">
      <stop
         style="stop-color:#e13c0a;stop-opacity:1;"
         offset="0"
         id="stop933" />
      <stop
         style="stop-color:#b4350e;stop-opacity:1;"
         offset="1"
         id="stop935" />
    </linearGradient>
    <linearGradient
       inkscape:collect="always"
       xlink:href="#linearGradient4525"
       id="linearGradient6123"
       x1="-43.496151"
       y1="38.784904"
       x2="-43.497589"
       y2="-12.72781"
       gradientUnits="userSpaceOnUse"
       gradientTransform="matrix(0.16666665,0,0,0.16666665,-4.4786293,-0.70682155)" />
    <linearGradient
       inkscape:collect="always"
       id="linearGradient4525">
      <stop
         style="stop-color:#a2a2a2;stop-opacity:1;"
         offset="0"
         id="stop4521" />
      <stop
         style="stop-color:#b3b3b3;stop-opacity:1;"
         offset="1"
         id="stop4523" />
    </linearGradient>
    <linearGradient
       inkscape:collect="always"
       id="linearGradient7072">
      <stop
         style="stop-color:#cecece;stop-opacity:1;"
         offset="0"
         id="stop7068" />
      <stop
         style="stop-color:#b3b3b3;stop-opacity:1;"
         offset="1"
         id="stop7070" />
    </linearGradient>
    <linearGradient
       inkscape:collect="always"
       id="linearGradient1452">
      <stop
         style="stop-color:#29c3fa;stop-opacity:1;"
         offset="0"
         id="stop1448" />
      <stop
         style="stop-color:#037cd5;stop-opacity:1;"
         offset="1"
         id="stop1450" />
    </linearGradient>
    <linearGradient
       inkscape:collect="always"
       id="linearGradient9982">
      <stop
         style="stop-color:#0e69b4;stop-opacity:1;"
         offset="0"
         id="stop9978" />
      <stop
         style="stop-color:#1299e4;stop-opacity:1;"
         offset="1"
         id="stop9980" />
    </linearGradient>
    <linearGradient
       inkscape:collect="always"
       xlink:href="#linearGradient9982"
       id="linearGradient15044"
       x1="6.2933245"
       y1="9.70364"
       x2="3.1113391"
       y2="12.767771"
       gradientUnits="userSpaceOnUse" />
  </defs>
  <path
     d="M 6.6923377,3.3836924 C 5.4623817,3.7332935 3.3051029,4.6298673 2.9010746,3.1114976 2.7299839,2.3182521 3.3521391,1.6961354 4.1609437,1.3694165 8.688394,0.0464177 13.542271,2.3596747 13.928525,6.9843431 14.767817,13.733755 7.9853262,12.398712 5.6539063,10.281837 3.0252938,7.7620973 3.3674554,5.5379017 3.4452502,5.1024059 3.4763488,4.85354 4.0518465,4.6824494 4.1918385,5.2890551 3.8996074,8.5735342 7.7837109,11.512646 10.397852,10.639616 13.900759,9.5199911 11.430163,2.2622415 6.6921525,3.383809 Z"
     style="fill:url(#linearGradient939);fill-opacity:1;stroke-width:0.867115"
     id="path421" />
  <path
     id="rect1169"
     style="fill:url(#linearGradient6148);fill-opacity:1;stroke-width:0.75593;stroke-linejoin:round"
     d="m 12.363986,4.2218932 c 0.390523,0.390524 0.390512,1.0236767 0,1.4142136 L 7.0004307,11.000001 6.2933231,10.292895 11.656879,4.929 Z"
     sodipodi:nodetypes="cscccc" />
  <path
     id="rect1914"
     style="fill:url(#linearGradient15044);fill-opacity:1;stroke-width:1;stroke-linejoin:round"
     d="m 3.1113424,10.646446 c 0.5857864,-0.585786 1.5355341,-0.585786 2.1213212,1e-6 0.1204106,0.120482 0.2194297,0.260583 0.2927847,0.414322 l 0.7678722,-0.767873 0.7071074,0.707108 -1.767767,1.767767 c -0.5857863,0.585786 -1.5355347,0.585787 -2.1213217,0 -0.5857858,-0.585788 -0.5857855,-1.535535 4e-7,-2.121322 z M 4.1720028,11 l -0.7071063,0.707107 0.707107,0.707107 0.7071068,-0.707107 z"
     sodipodi:nodetypes="sccccsssccccc" />
  <rect
     style="fill:url(#linearGradient6123);fill-opacity:1;stroke-width:0.166667;stroke-linecap:round;stroke-linejoin:round"
     id="rect5628"
     width="1"
     height="0.83333331"
     x="-12.728229"
     y="-2.8281238"
     transform="rotate(-135)" />
  <path
     id="rect1065"
     style="fill:url(#linearGradient6150);fill-opacity:1;stroke-width:0.816494;stroke-linejoin:round"
     d="m 8.000432,2 v 1 l 10e-7,8 H 7.0004326 l -1e-6,-8 c -10e-8,-0.5522847 0.447715,-1 1.0000004,-1 z"
     sodipodi:nodetypes="ccccsc" />
  <path
     d="m 10.000433,13.5 c 0,-0.828427 -0.671574,-1.5 -1.5,-1.5 -0.170338,4.9e-5 -0.339421,0.0291 -0.5,0.08594 V 11 H 7.0004326 v 2.5 c 0,0.828427 0.671573,1.5 1.5000004,1.5 0.828426,0 1.5,-0.671573 1.5,-1.5 z m -1,-0.5 v 1 h -1 v -1 z"
     style="fill:url(#linearGradient2793);fill-opacity:1.0;stroke-width:0.26458;stroke-linejoin:round"
     id="path2596" />
</svg>
