<?xml version="1.0" encoding="UTF-8" standalone="no"?>
<!-- Created with Inkscape (http://www.inkscape.org/) -->

<svg
   width="16"
   height="16"
   viewBox="0 0 16 16"
   version="1.1"
   id="svg2535"
   inkscape:version="1.3.2 (091e20ef0f, 2023-11-25, custom)"
   sodipodi:docname="preferences-desktop-locale.svg"
   xmlns:inkscape="http://www.inkscape.org/namespaces/inkscape"
   xmlns:sodipodi="http://sodipodi.sourceforge.net/DTD/sodipodi-0.dtd"
   xmlns:xlink="http://www.w3.org/1999/xlink"
   xmlns="http://www.w3.org/2000/svg"
   xmlns:svg="http://www.w3.org/2000/svg">
  <sodipodi:namedview
     id="namedview2537"
     pagecolor="#ffffff"
     bordercolor="#000000"
     borderopacity="0.25"
     inkscape:showpageshadow="2"
     inkscape:pageopacity="0.0"
     inkscape:pagecheckerboard="0"
     inkscape:deskcolor="#d1d1d1"
     inkscape:document-units="px"
     showgrid="false"
     inkscape:zoom="51.25"
     inkscape:cx="7.9902439"
     inkscape:cy="8"
     inkscape:window-width="1920"
     inkscape:window-height="1017"
     inkscape:window-x="0"
     inkscape:window-y="0"
     inkscape:window-maximized="1"
     inkscape:current-layer="svg2535" />
  <defs
     id="defs2532">
    <radialGradient
       id="radialGradient875"
       cx="20.107"
       cy="28.705"
       r="28"
       gradientTransform="matrix(0.23681495,0.13372913,-0.10536573,0.18658603,1.9260153,-2.9391375)"
       gradientUnits="userSpaceOnUse">
      <stop
         stop-color="#5ab5e2"
         offset="0"
         id="stop2" />
      <stop
         stop-color="#4189ac"
         offset=".45901"
         id="stop4" />
      <stop
         stop-color="#295e76"
         offset="1"
         id="stop6" />
    </radialGradient>
    <linearGradient
       id="linearGradient883"
       x1="4"
       x2="59.861"
       y1="31.360001"
       y2="31.360001"
       gradientTransform="matrix(0.21427543,0,0,0.21427543,-0.85692479,-0.85712112)"
       gradientUnits="userSpaceOnUse">
      <stop
         stop-color="#b0d6df"
         offset="0"
         id="stop9" />
      <stop
         stop-color="#e1f8fc"
         offset=".21709"
         id="stop11" />
      <stop
         stop-color="#96c3ce"
         offset="1"
         id="stop13" />
    </linearGradient>
    <linearGradient
       inkscape:collect="always"
       xlink:href="#linearGradient3605"
       id="linearGradient1697"
       x1="12.500001"
       y1="4.0001912"
       x2="16"
       y2="13"
       gradientUnits="userSpaceOnUse"
       gradientTransform="translate(2.4752542e-4)" />
    <linearGradient
       inkscape:collect="always"
       id="linearGradient3605">
      <stop
         style="stop-color:#0d6eaa;stop-opacity:1;"
         offset="0"
         id="stop3601" />
      <stop
         style="stop-color:#185086;stop-opacity:1"
         offset="1"
         id="stop3603" />
    </linearGradient>
    <linearGradient
       inkscape:collect="always"
       xlink:href="#linearGradient1014"
       id="linearGradient1705"
       x1="7.2109375"
       y1="7.4824219"
       x2="10.197266"
       y2="15.986328"
       gradientUnits="userSpaceOnUse"
       gradientTransform="translate(2.4752542e-4,-0.01677751)" />
    <linearGradient
       inkscape:collect="always"
       id="linearGradient1014">
      <stop
         style="stop-color:#33bff0;stop-opacity:1"
         offset="0"
         id="stop1010" />
      <stop
         style="stop-color:#1c9fe3;stop-opacity:1"
         offset="1"
         id="stop1012" />
    </linearGradient>
  </defs>
  <rect
     x="0.00025565864"
     y="0"
     width="11.999744"
     height="11.999744"
     rx="5.9998722"
     ry="5.9998722"
     fill="url(#radialGradient875)"
     id="rect30"
     style="fill:url(#radialGradient875);stroke-width:0.214277" />
  <path
     d="M 6.0311282,0.29999409 C 5.568398,0.33281004 5.1157274,0.41775437 4.6742769,0.56084785 4.5167839,0.56699454 4.1745077,0.76984518 4.4506624,0.86504108 4.5791814,1.0023354 4.8859932,1.0460275 4.8487338,1.2703727 4.898296,1.4675683 4.3903836,1.458621 4.55944,1.6372246 4.679309,1.7949769 4.7991753,1.9527382 4.9190518,2.1104952 5.1403876,2.0394023 5.2134257,1.8127213 5.3362227,1.6382449 5.6780354,1.4874736 6.1618051,1.4419333 6.3876999,1.1517954 6.4584849,0.94656017 6.5292692,0.7413436 6.6000564,0.53610864 6.4104115,0.45740305 6.2207641,0.37869744 6.0311289,0.29997301 Z M 4.3858429,0.35271871 C 4.1738267,0.32984739 4.0382106,0.46014271 3.8799539,0.54556532 3.6851546,0.56942402 3.4650626,0.6419275 3.3423054,0.79860063 3.56082,0.89776559 3.6984376,0.79211463 3.8870536,0.71718955 4.0621793,0.6274696 4.6578173,0.59003643 4.3858429,0.35269764 Z M 3.0177122,0.98200534 C 2.9087131,1.1483854 3.0942754,1.3891981 2.8449324,1.476515 2.7218534,1.6323229 2.6142955,1.8880665 2.9219267,1.7952685 2.9971828,1.5643939 3.2309596,1.2405395 3.4970142,1.3757571 3.7649884,1.4477571 4.013003,1.8980656 4.2317984,1.5413911 4.2317096,1.4486254 3.8914654,1.3943611 3.899065,1.1674183 3.7476609,1.1024642 3.4240152,1.2204989 3.435315,0.98444983 3.2165812,0.88732585 3.1535809,1.3712819 3.0760628,1.1007838 3.0566108,1.0611962 3.0371588,1.0216087 3.0177042,0.98200294 Z M 8.9553857,1.1917669 C 8.6964925,1.2435375 8.4407759,1.3026741 8.2364613,1.4806202 8.2957756,1.717736 7.9898656,1.7576351 7.8538096,1.8892515 c -0.098716,0.055706 0.0018,0.4860105 0.088284,0.4192118 0.1839051,-0.2426355 0.2790343,-0.033335 0.4499906,0.086481 0.1538717,0.142914 0.2515749,-0.2653941 0.1698446,-0.380492 -0.047949,-0.1855015 0.18534,-0.3227315 0.2692937,-0.4746491 0.2566749,-0.1646454 0.03978,0.2100563 0.031577,0.3408734 -0.1295622,0.3865901 0.5746879,0.011666 0.1104704,0.300553 C 8.8487494,2.3055809 8.8031554,2.4898025 8.6118162,2.5816999 8.5085039,2.7078002 8.1142061,2.6486959 8.1673053,2.4519866 8.0233173,2.226311 8.0588587,2.7236009 8.0099373,2.7212198 7.7713053,2.650112 7.7002858,2.9164727 7.5506287,3.0439126 7.4360981,3.1754879 7.0317795,3.0938497 7.3336335,3.2976683 7.5537881,3.5517028 7.2897649,3.5047233 7.1076375,3.5723812 6.8502632,3.6167006 6.8932832,3.8408559 6.8999432,4.0432516 6.903886,4.1547905 7.1509181,4.320266 7.2760146,4.242473 7.525889,4.2157139 7.4628392,3.9090603 7.6474473,3.8155429 7.8008355,3.684242 7.9084807,3.5631475 8.1387959,3.5600085 8.2451296,3.6614888 8.4600496,3.814043 8.5472073,3.8970009 c -0.240534,0.2620736 0.110478,0.2407153 0.144054,0.00195 0.1186483,-0.1314797 -0.39081,-0.4408717 -0.054849,-0.3049334 0.2223763,0.073361 0.1712383,0.3005341 0.2701748,0.45389 C 9.0824574,4.3452018 9.101288,4.1233565 9.117662,3.8933776 9.4098526,3.8015856 9.4890509,4.40219 9.8828824,4.2613325 10.178036,4.3388885 10.038168,4.5297457 9.8518114,4.6529834 9.6816129,4.7771234 9.4278214,4.6920344 9.2410268,4.6246344 9.0562294,4.5297612 8.8335145,4.5841549 8.7362365,4.7728445 8.5202819,4.5864697 8.3674053,4.2903953 8.0536721,4.2739964 7.7566181,4.2586079 7.4567244,4.3375896 7.1700504,4.4183526 6.8524172,4.791125 6.5087642,5.1541765 6.3607675,5.6306272 c -0.1536248,0.18879 0.1754354,0.3018926 -0.074693,0.4737093 -0.174138,0.1625879 0.059302,0.363411 0.095348,0.5457271 0.1874017,0.2222339 0.4747095,0.9532402 0.7641236,0.6704872 0.1628717,-0.2573341 0.2708743,0.168564 0.46239,-0.098712 0.1611995,-0.1471417 0.2917543,0.14784 0.5178104,0.04293 0.2010154,0.1002 0.2184934,0.2966138 0.1122763,0.4845705 -0.068212,0.1908307 0.2955128,0.2692948 0.1920248,0.49207 -0.04878,0.2178544 0.046774,0.4027889 0.155004,0.5848469 -0.2405537,0.2510932 -0.2115548,0.6230443 -0.151506,0.9376792 0.1176978,0.4313506 0.2862532,0.8639426 0.2694146,1.3181316 0.210774,0.05528 0.3662529,-0.08431 0.5405478,-0.157606 0.3326752,0.04706 0.5136523,-0.307913 0.7202272,-0.511508 C 9.8085472,10.204339 10.091221,10.114319 10.208069,9.979362 10.03329,9.828186 9.9174763,9.6814089 10.188072,9.5635106 10.312894,9.4367288 10.546726,9.3650605 10.587724,9.1882174 10.480231,8.8679048 10.541449,8.5275729 10.525641,8.1964001 10.658166,7.9293058 10.798875,7.6678934 11.018991,7.4616553 11.106774,7.1720234 11.317763,6.9065481 11.297304,6.5956551 10.784233,6.7491471 10.93915,6.5304655 11.22348,6.3225411 11.420798,6.177823 11.70135,6.0428402 11.761349,5.796106 11.804416,5.5525908 11.614104,5.174499 11.448536,5.532272 11.368109,5.4182534 11.084782,5.3125166 11.088704,5.1335393 11.028035,4.7726079 11.186306,4.9893932 11.327018,5.159845 11.65431,4.9172295 12.081442,5.829451 11.943304,5.178541 11.756175,3.7698469 11.041884,2.4389954 9.9719272,1.5040158 9.8740877,1.6082016 9.7108131,1.9966448 9.5923354,1.7724293 9.4246037,1.5944953 9.292962,1.433856 9.6346234,1.4999146 9.9694552,1.4090426 9.6359031,1.356207 9.4603877,1.335487 9.2843683,1.3149412 9.1211374,1.2504632 8.9553617,1.1917135 Z m -6.5536601,0.00874 C 2.1802099,1.2858293 2.5120374,1.6111453 2.1148915,1.5069679 1.6794811,1.704266 1.3894272,2.1830727 1.0867936,2.5559244 0.3808689,3.5535445 -0.00292311,4.7726773 1.6805777e-5,5.9946521 0.11584716,6.233725 0.40112816,6.3147452 0.61456352,6.4467235 0.83147974,6.5209283 1.1046532,6.5097163 1.2126111,6.7493567 1.3333544,6.8757969 1.4953651,7.0453487 1.6678612,7.05907 1.9329351,6.9741287 1.9703146,7.2144715 1.8365844,7.392262 1.8220965,7.5870033 1.6053505,7.7440743 1.629509,7.9153518 1.677801,8.1072625 1.3880754,8.3186417 1.583251,8.4942185 c 0.205334,0.3670923 0.4250907,0.723584 0.7027847,1.0406369 0.1727218,0.1513235 0.1522418,0.3596726 0.1325254,0.5677896 -0.068543,0.219956 0.1393511,0.347192 0.2509354,0.50673 -0.2719151,0.498547 0.4645891,0.598185 0.7728425,0.816181 0.1549735,-0.141717 0.1672917,-0.371092 0.424391,-0.377492 0.1559055,-0.109222 0.1891888,-0.355792 0.2962737,-0.519729 -0.00343,-0.17413 -0.1149415,-0.336852 0.066094,-0.526507 C 4.3655054,9.8866929 4.6469888,9.9634706 4.6977677,9.7231114 4.8830629,9.5322463 4.7331334,9.2677217 4.7331334,9.0361474 4.8770672,8.8389831 5.1253847,8.6876356 5.0978251,8.4152001 5.1290062,8.0088689 4.3974401,8.0271289 4.1396657,7.7807733 3.8228126,7.7717028 3.8868911,7.3399224 3.6402364,7.2825648 3.3953616,7.2948791 3.3063235,7.10302 3.2195254,6.908233 3.0846529,6.816244 2.8308135,7.0031845 2.6896765,6.8879049 2.5298205,6.8036913 2.386423,6.4895529 2.2064868,6.6858678 1.9696719,6.8575743 1.7367769,7.032001 1.5121218,6.74452 1.3664278,6.6132356 1.5494824,6.2405515 1.3431996,6.2640302 0.902829,6.4233212 1.4827684,5.6243854 1.0705255,5.7303814 0.97288886,5.8834207 0.78561162,6.119554 0.60351529,5.9384582 0.42064667,5.8524141 0.51085411,5.572646 0.51900879,5.4050894 0.52692322,5.2091066 0.77494336,5.111396 0.9174804,5.0219976 1.1939347,5.1456357 1.137195,4.7771832 1.3682508,4.9003503 1.5923851,4.852615 1.6935837,5.212163 1.7845819,5.2255636 1.8380615,5.0484346 1.7415157,4.7895531 1.9059002,4.6728546 2.0979712,4.5111823 2.3514708,4.3962016 2.3988697,4.1245661 2.4028156,3.8343924 2.7549224,4.0789374 2.8423404,3.8813308 2.9229327,3.6549154 3.1579934,3.6690569 3.3565494,3.6263377 3.4651549,3.5255695 3.7381211,3.215186 3.4009014,3.3061845 3.2780751,3.2895847 2.7836143,3.3553939 3.1193671,3.2370849 3.2847563,3.111891 3.4852195,3.1292392 3.6708755,3.1046502 3.8170888,2.9808642 4.0726862,2.9393942 4.0839261,2.7140189 3.9625714,2.548971 3.7055139,2.5803854 3.8146318,2.3436651 3.804087,2.0340117 3.5313578,2.2328055 3.4417596,2.209253 3.5872721,2.0067575 3.2525481,1.8792599 3.1402062,1.8764205 3.0638522,2.0672488 2.8491924,2.2318915 2.92495,2.451528 2.7011354,2.4878772 2.596277,2.6498738 2.5290185,2.8515595 2.4619145,2.8749334 2.4837345,2.4560068 2.2269051,2.4946066 2.0454945,2.4902298 1.8212337,2.2195325 2.0122294,2.1129352 2.2740835,1.9472582 2.5996566,1.8175813 2.7652333,1.5529468 2.8604524,1.3159317 2.6848517,1.1704543 2.4510197,1.2041138 l -0.032601,-0.00226 z M 6.8074314,1.4734024 C 6.6629124,1.5858334 6.3711609,1.5081794 6.3095619,1.616576 6.2836489,1.8352116 6.6231355,1.8317923 6.7587129,1.711092 6.9803063,1.629162 6.9704286,1.644114 6.8074179,1.4733976 Z M 3.5971,1.5854635 C 3.2899664,1.6758319 3.5409563,1.8769959 3.7414502,1.8743169 3.980664,1.855016 3.7581052,1.5871837 3.5971,1.5854635 Z M 7.2596226,2.1889708 C 7.2376455,2.3846142 7.4255852,2.5067829 7.3479692,2.719919 7.2257501,2.9884134 7.3988835,3.0690325 7.6077452,2.9039997 7.8866973,2.7333187 7.3987087,2.3594274 7.3336884,2.188971 H 7.2596141 Z M 7.1676332,2.5035975 C 6.9169575,2.4419792 6.9962621,2.9666086 7.1685761,2.7859913 7.3540618,2.753611 7.1759475,2.6106866 7.1676332,2.5035975 Z M 3.9685,2.976447 C 4.0053024,3.1754038 4.018536,3.4908169 4.1641938,3.1520186 4.1639939,3.0861746 4.0202845,3.0346642 3.9685,2.976447 Z m 6.053272,2.0455567 c 0.294633,0.2568947 0.41399,0.6289477 0.580067,0.9703004 0.247116,0.1297466 0.100832,0.3281726 0.135254,0.4949081 0.344071,0.3012443 -0.348434,0.1408027 -0.264396,-0.187845 C 10.416555,5.9176575 10.171383,5.662862 9.9711472,5.3868081 9.9554015,5.2406859 9.798654,5.0740152 10.02177,5.0220165 Z"
     fill="url(#linearGradient883)"
     id="path32"
     style="fill:url(#linearGradient883);stroke-width:0.214277" />
  <path
     id="rect294"
     style="fill:url(#linearGradient1697);fill-opacity:1;stroke-width:2.64575;stroke-linecap:round;stroke-linejoin:round"
     d="m 12.474856,4.0001913 c -0.264913,0.013342 -0.474609,0.2316568 -0.474609,0.5 v 0.5 H 9.5256385 c -0.00855,-4.304e-4 -0.016734,0 -0.025391,0 -0.2769994,0 -0.5,0.2230006 -0.5,0.5 v 1 c 0,0.2769994 0.2230006,0.5 0.5,0.5 0.2769994,0 0.5000005,-0.2230006 0.5000005,-0.5 v -0.5 h 4.999999 v 0.5 c 0,0.2769994 0.223001,0.5 0.5,0.5 0.276999,0 0.5,-0.2230006 0.5,-0.5 v -1 c 0,-0.268356 -0.209678,-0.4866768 -0.474608,-0.5 -0.0085,-4.304e-4 -0.01673,0 -0.02539,0 h -2.5 v -0.5 c 0,-0.2769994 -0.223001,-0.5 -0.5,-0.5 -0.0087,0 -0.01685,-4.304e-4 -0.02539,0 z m -0.974609,3 c -0.276142,0 -0.5,0.2238582 -0.5,0.5 0,0.2761418 0.223858,0.5 0.5,0.5 h 1.25 l -0.550781,1 h -1.673828 -0.02539 c -0.276142,0 -0.499999,0.2238582 -0.499999,0.5 0,0.276142 0.223857,0.4999997 0.499999,0.4999997 h 1.5 V 12 h -0.47461 c -0.0085,-2.15e-4 -0.01693,-2.15e-4 -0.02539,0 -0.276142,0 -0.5,0.223858 -0.5,0.5 0,0.276142 0.223858,0.5 0.5,0.5 h 0.5 c 0.553997,0 1,-0.446003 1,-1 v -1.999809 h 1.5 c 0.276142,0 0.5,-0.2238577 0.5,-0.4999997 0,-0.2761418 -0.223858,-0.5 -0.5,-0.5 h -1.13672 l 0.712891,-1.4550781 c 0.135818,-0.2520287 0.08845,-0.5449219 -0.326172,-0.5449219 h -2.224609 c -0.0085,-2.149e-4 -0.01693,-2.149e-4 -0.02539,0 z"
     sodipodi:nodetypes="ssccsssssccsssssscsssscsscccsssccccsssscsssccscc" />
  <path
     id="rect855"
     style="fill:url(#linearGradient1705);fill-opacity:1;stroke-linecap:round;stroke-linejoin:round"
     d="M 7.211185,7.4656444 C 7.0165451,7.4753627 6.8388803,7.5985488 6.7678256,7.7937694 L 4.0314975,15.311347 c -0.094739,0.260294 0.038534,0.545886 0.2988281,0.640625 0.2602944,0.09474 0.5458856,-0.03853 0.640625,-0.298828 l 0.9707031,-2.669922 h 2.6367188 l 0.9785156,2.6875 c 0.09474,0.260295 0.3803303,0.393567 0.6406249,0.298828 0.260293,-0.09474 0.393567,-0.38033 0.298828,-0.640625 L 7.7600131,7.8113475 c -0.058009,-0.1593782 -0.1882816,-0.2715463 -0.3398437,-0.3125 -0.00314,-8.495e-4 -0.0066,-0.00116 -0.00977,-0.00195 l -0.00195,-0.00195 C 7.3433767,7.4712563 7.2760649,7.4624054 7.211185,7.4656444 Z M 7.260013,9.3621287 8.2150912,11.983222 H 6.3068881 Z" />
</svg>
