<?xml version="1.0" encoding="UTF-8" standalone="no"?>
<!-- Created with Inkscape (http://www.inkscape.org/) -->

<svg
   width="16"
   height="16"
   viewBox="0 0 16 16"
   version="1.1"
   id="svg2535"
   inkscape:version="1.3.2 (091e20ef0f, 2023-11-25, custom)"
   sodipodi:docname="preferences-online-accounts.svg"
   xmlns:inkscape="http://www.inkscape.org/namespaces/inkscape"
   xmlns:sodipodi="http://sodipodi.sourceforge.net/DTD/sodipodi-0.dtd"
   xmlns:xlink="http://www.w3.org/1999/xlink"
   xmlns="http://www.w3.org/2000/svg"
   xmlns:svg="http://www.w3.org/2000/svg">
  <sodipodi:namedview
     id="namedview2537"
     pagecolor="#ffffff"
     bordercolor="#000000"
     borderopacity="0.25"
     inkscape:showpageshadow="2"
     inkscape:pageopacity="0.0"
     inkscape:pagecheckerboard="0"
     inkscape:deskcolor="#d1d1d1"
     inkscape:document-units="px"
     showgrid="false"
     inkscape:zoom="51.25"
     inkscape:cx="7.9902439"
     inkscape:cy="8"
     inkscape:window-width="1920"
     inkscape:window-height="1017"
     inkscape:window-x="0"
     inkscape:window-y="0"
     inkscape:window-maximized="1"
     inkscape:current-layer="svg2535" />
  <defs
     id="defs2532">
    <radialGradient
       id="radialGradient875"
       cx="20.107"
       cy="28.705"
       r="28"
       gradientTransform="matrix(0.27628408,0.15601731,-0.12292668,0.21768368,4.2470177,-3.4289935)"
       gradientUnits="userSpaceOnUse">
      <stop
         stop-color="#5ab5e2"
         offset="0"
         id="stop2" />
      <stop
         stop-color="#4189ac"
         offset=".45901"
         id="stop4" />
      <stop
         stop-color="#295e76"
         offset="1"
         id="stop6" />
    </radialGradient>
    <linearGradient
       id="linearGradient883"
       x1="4"
       x2="59.861"
       y1="31.360001"
       y2="31.360001"
       gradientTransform="matrix(0.24998798,0,0,0.24998798,1.0002545,-0.99997456)"
       gradientUnits="userSpaceOnUse">
      <stop
         stop-color="#b0d6df"
         offset="0"
         id="stop9" />
      <stop
         stop-color="#e1f8fc"
         offset=".21709"
         id="stop11" />
      <stop
         stop-color="#96c3ce"
         offset="1"
         id="stop13" />
    </linearGradient>
    <linearGradient
       inkscape:collect="always"
       xlink:href="#linearGradient2131"
       id="linearGradient3853"
       x1="12.001917"
       y1="12"
       x2="12.001917"
       y2="20.000031"
       gradientUnits="userSpaceOnUse"
       gradientTransform="matrix(0.49999803,0,0,0.49999803,-2.0009349,6.0000238)" />
    <linearGradient
       inkscape:collect="always"
       xlink:href="#linearGradient2131"
       id="linearGradient2320"
       x1="8.562398"
       y1="1.3003726"
       x2="8.5805483"
       y2="8.2474289"
       gradientUnits="userSpaceOnUse"
       gradientTransform="matrix(0.5814658,0,0,0.5814658,-0.92307698,6.2307704)" />
    <linearGradient
       inkscape:collect="always"
       id="linearGradient2131">
      <stop
         style="stop-color:#2ac9ba;stop-opacity:1;"
         offset="0"
         id="stop2127" />
      <stop
         style="stop-color:#2e988c;stop-opacity:1"
         offset="1"
         id="stop2129" />
    </linearGradient>
  </defs>
  <rect
     x="2.0002983"
     y="0"
     width="13.999701"
     height="13.999701"
     rx="6.9998503"
     ry="6.9998503"
     fill="url(#radialGradient875)"
     id="rect30"
     style="fill:url(#radialGradient875);stroke-width:0.24999" />
  <path
     d="M 9.0363156,0.34999307 C 8.4964637,0.38827834 7.9683481,0.48738005 7.4533226,0.65432243 7.2695808,0.66149357 6.8702585,0.89815263 7.192439,1.0092145 7.3423778,1.1693912 7.7003249,1.2203653 7.6568556,1.4821014 7.7146781,1.7121629 7.1221138,1.7017243 7.3193462,1.9100952 7.4591933,2.0941395 7.5990374,2.2781944 7.7388932,2.4622442 7.9971183,2.3793025 8.0823294,2.1148413 8.2255926,1.9112856 8.6243741,1.7353857 9.188772,1.6822554 9.4523159,1.3437612 9.5348984,1.1043201 9.6174801,0.86490079 9.7000651,0.62546003 9.4788127,0.53363684 9.2575575,0.44181364 9.0363164,0.34996848 Z M 7.1168163,0.41150513 C 6.869464,0.38482192 6.7112453,0.53683312 6.5266125,0.63649282 6.2993467,0.66432797 6.0425727,0.74891535 5.8993559,0.93170065 6.1542896,1.0473931 6.3148435,0.92413365 6.5348955,0.83672107 6.7392088,0.7320478 7.4341197,0.68837577 7.1168163,0.41148054 Z M 5.5206639,1.1456728 C 5.3934983,1.3397829 5.6099876,1.620731 5.3190875,1.7226007 5.1754953,1.9043766 5.0500111,2.2027441 5.4089142,2.0944797 5.4967129,1.825126 5.7694525,1.4472959 6.0798495,1.6050498 6.3924861,1.6890498 6.6818364,2.2144097 6.9370977,1.7982895 6.9369941,1.6900628 6.5400426,1.6267545 6.5489088,1.3619879 6.3722707,1.2862081 5.994684,1.4239153 6.0078671,1.1485247 5.7526777,1.0352134 5.6791774,1.5998287 5.5887396,1.2842476 5.5660456,1.2380621 5.5433516,1.1918767 5.5206546,1.14567 Z m 6.9272851,0.2447218 c -0.302042,0.060399 -0.600378,0.1293917 -0.838745,0.3369955 0.0692,0.2766351 -0.287695,0.323184 -0.446427,0.4767364 -0.115169,0.06499 0.0021,0.5670122 0.102998,0.4890805 0.214556,-0.2830748 0.32554,-0.038891 0.524989,0.100894 0.179517,0.166733 0.293504,-0.3096264 0.198152,-0.4439073 -0.05594,-0.2164184 0.21623,-0.3765201 0.314176,-0.5537573 0.299454,-0.1920862 0.04641,0.2450657 0.03684,0.3976856 -0.151156,0.4510223 0.670469,0.013611 0.128882,0.3506456 -0.145274,0.1450766 -0.198467,0.3600017 -0.421696,0.4672154 -0.120531,0.1471169 -0.580545,0.078162 -0.518596,-0.1513322 -0.167986,-0.2632882 -0.126521,0.3168833 -0.183596,0.3141053 -0.278404,-0.082959 -0.36126,0.2277951 -0.53586,0.3764749 -0.133619,0.1535045 -0.605324,0.05826 -0.253161,0.2960483 0.256847,0.2963736 -0.05118,0.2415642 -0.263662,0.3204984 -0.30027,0.051706 -0.25008,0.3132204 -0.24231,0.5493487 0.0046,0.1301287 0.292804,0.3231835 0.43875,0.232425 0.29152,-0.031219 0.217962,-0.3889815 0.433338,-0.4980851 0.178953,-0.1531843 0.304539,-0.2944612 0.57324,-0.2981234 0.124056,0.1183937 0.374796,0.2963735 0.47648,0.3931577 -0.280623,0.3057525 0.128891,0.2808346 0.168063,0.00228 0.138423,-0.153393 -0.455945,-0.5143503 -0.06399,-0.3557557 0.259439,0.085588 0.199778,0.3506231 0.315204,0.5295383 0.205182,0.3468433 0.227151,0.088024 0.246254,-0.1802848 0.340889,-0.1070909 0.433287,0.5936144 0.892757,0.4292807 0.344345,0.090482 0.181167,0.3131487 -0.03625,0.4569259 C 13.295214,5.573315 12.999124,5.474044 12.781197,5.395411 12.5656,5.2847209 12.305766,5.3481803 12.192275,5.5683181 11.940328,5.3508809 11.761972,5.0054607 11.39595,4.9863287 11.049387,4.9683754 10.699511,5.0605207 10.365058,5.1547443 9.994486,5.5896453 9.5935575,6.0132054 9.4208947,6.5690645 c -0.1792289,0.220255 0.2046747,0.352208 -0.087142,0.5526608 -0.203161,0.1896859 0.069186,0.4239795 0.1112388,0.6366815 0.2186353,0.2592729 0.5538277,1.1121135 0.8914775,0.782235 0.190017,-0.300223 0.31602,0.196658 0.539455,-0.115164 0.188066,-0.1716653 0.34038,0.17248 0.604112,0.050085 0.234518,0.1169 0.254909,0.3460494 0.130989,0.5653323 -0.07958,0.2226358 0.344765,0.3141772 0.224029,0.5740816 -0.05691,0.2541634 0.05457,0.4699203 0.180838,0.6823213 -0.280646,0.292942 -0.246814,0.726885 -0.176757,1.093959 0.137314,0.503242 0.333962,1.007933 0.314317,1.53782 0.245903,0.06449 0.427295,-0.09836 0.630639,-0.183874 0.388121,0.0549 0.599261,-0.359232 0.840265,-0.596759 -0.181052,-0.243383 0.148734,-0.348406 0.285057,-0.505856 -0.203909,-0.176372 -0.339025,-0.347612 -0.02333,-0.48516 0.145626,-0.147912 0.41843,-0.231525 0.466261,-0.437842 C 14.226935,10.345888 14.298356,9.9488342 14.279913,9.5624659 14.434526,9.250856 14.598686,8.9458748 14.855488,8.7052638 14.957902,8.3673599 15.204056,8.0576387 15.180187,7.6949303 14.581604,7.8740043 14.76234,7.6188758 15.094059,7.3762973 15.324263,7.2074595 15.651574,7.0499796 15.721573,6.7621231 15.771817,6.478022 15.549787,6.036915 15.356624,6.4543168 15.262793,6.3212951 14.932245,6.1979355 14.93682,5.9891286 c -0.07078,-0.4210865 0.113869,-0.1681704 0.278033,0.03069 0.381841,-0.2830514 0.880161,0.781207 0.719,0.021812 C 15.715536,4.3981543 14.882197,2.8454944 13.633914,1.7546849 13.519768,1.876235 13.329281,2.3294187 13.191057,2.067834 12.99537,1.8602443 12.841788,1.6728318 13.240393,1.7499002 13.63103,1.6438829 13.241886,1.5822414 13.037118,1.558068 12.831762,1.5340979 12.641326,1.4588736 12.447921,1.3903323 Z M 4.802013,1.4005951 C 4.543578,1.500134 4.93071,1.8796693 4.4673732,1.7581291 3.9593944,1.9883102 3.6209983,2.5469179 3.2679258,2.9819115 2.444347,4.1458016 1.9965897,5.568123 2.0000196,6.9937602 2.135155,7.2726785 2.4679828,7.3672021 2.7169907,7.5211768 2.9700596,7.607749 3.288762,7.5946684 3.4147128,7.8742488 3.55558,8.0217624 3.7445925,8.2195728 3.9458379,8.2355809 4.2550907,8.1364828 4.2987002,8.4168827 4.1426816,8.6243049 4.125779,8.8515031 3.8729087,9.0347525 3.9010937,9.2345763 3.9574344,9.4584721 3.6194212,9.7050811 3.8471256,9.9099207 4.086682,10.338195 4.3430647,10.754102 4.6670411,11.123997 c 0.2015087,0.176544 0.1776154,0.419618 0.1546129,0.662421 -0.079967,0.256615 0.1625763,0.405057 0.292758,0.591185 -0.3172343,0.581638 0.5420205,0.697883 0.9016495,0.952211 0.1808023,-0.165336 0.1951736,-0.43294 0.4951228,-0.440407 0.1818897,-0.127426 0.2207202,-0.415091 0.3456526,-0.60635 -0.004,-0.203152 -0.1340984,-0.392995 0.07711,-0.614259 0.1591423,-0.134324 0.4875395,-0.04475 0.5467816,-0.325169 0.2161777,-0.222676 0.04126,-0.531288 0.04126,-0.801458 C 7.6899112,10.312146 7.9796149,10.135574 7.9474621,9.8177326 7.98384,9.3436796 7.1303463,9.3649829 6.8296096,9.077568 6.4599476,9.0669858 6.5347059,8.5632421 6.2469421,8.4963248 5.9612548,8.5106915 5.8573771,8.2868559 5.7561126,8.0596044 5.5987614,7.952284 5.3026155,8.1703812 5.1379556,8.0358884 4.951457,7.9376391 4.7841599,7.5711444 4.5742344,7.8001784 4.2979503,8.0005026 4.0262395,8.2040004 3.7641419,7.868606 3.5941656,7.7154408 3.8077293,7.2806428 3.567066,7.3080346 3.0533004,7.4938741 3.7298963,6.5617824 3.2489463,6.6854444 3.1350369,6.8639902 2.9165468,7.139479 2.7041011,6.9282006 2.4907544,6.8278158 2.5959964,6.5014198 2.6055102,6.3059371 2.6147437,6.0772905 2.9041005,5.9632948 3.0703937,5.8589967 3.3929237,6.0032411 3.3267274,5.5733799 3.5962924,5.7170749 3.8577825,5.6613837 3.9758475,6.0808563 4.082012,6.0964903 4.1444049,5.8898398 4.0317681,5.5878115 4.22355,5.4516632 4.4476329,5.2630455 4.7433823,5.1289014 4.7986811,4.8119934 4.8032846,4.4734574 5.2140758,4.7587599 5.3160635,4.5282189 5.4100879,4.2640676 5.6843253,4.280566 5.915974,4.230727 6.0426803,4.113164 6.3611409,3.75105 5.967718,3.8572149 5.8244206,3.8378485 5.2475497,3.9146259 5.6392613,3.7765987 5.8322153,3.6305392 6.0660891,3.6507787 6.2826877,3.6220916 6.4532699,3.4776746 6.7514668,3.4292929 6.76458,3.1663551 6.6229996,2.9737992 6.3230992,3.0104494 6.4504034,2.7342757 6.4381011,2.3730134 6.1199171,2.6049395 6.0153858,2.5774616 6.1851504,2.3412169 5.7946391,2.1924697 5.6635736,2.1891571 5.5744939,2.4117901 5.3240575,2.6038732 5.4124414,2.8601158 5.1513244,2.9025232 5.0289896,3.0915192 4.9505213,3.3268191 4.8722333,3.3540887 4.89769,2.865341 4.5980557,2.9103741 4.38641,2.9052678 4.1247725,2.5894544 4.3476007,2.4650909 4.6530972,2.271801 5.0329324,2.1205113 5.2261052,1.8117711 5.3371942,1.5352535 5.1323267,1.3655299 4.8595227,1.4047993 l -0.038035,-0.00264 z M 9.9420026,1.7189732 C 9.7733971,1.8501426 9.4330204,1.7595461 9.3611549,1.886009 9.3309237,2.1410839 9.7269907,2.1370947 9.8851643,1.9962775 10.14369,1.9006924 10.132166,1.9181365 9.9419869,1.7189674 Z M 6.1966163,1.8497072 C 5.8382938,1.955137 6.1311153,2.1898284 6.3650248,2.1867028 6.6441076,2.1641852 6.3844557,1.8517141 6.1966163,1.8497072 Z M 10.469559,2.553799 c -0.02564,0.2282506 0.193623,0.3707808 0.103071,0.6194396 -0.142589,0.3132434 0.0594,0.407299 0.303072,0.2147607 0.325444,-0.1991278 -0.243876,-0.6353343 -0.319733,-0.8342 h -0.08642 z m -0.107321,0.3670645 c -0.292455,-0.071888 -0.199933,0.5401796 0.0011,0.3294594 0.2164,-0.037777 0.0086,-0.2045221 -0.0011,-0.3294594 z M 6.6299163,3.4725212 C 6.6728524,3.7046374 6.6882916,4.0726194 6.8582257,3.6773547 6.8579925,3.6005367 6.6903315,3.5404413 6.6299163,3.4725212 Z m 7.0621497,2.3864826 c 0.343739,0.2997104 0.482989,0.7337723 0.676745,1.132017 0.288302,0.1513711 0.117637,0.382868 0.157796,0.5773928 0.401417,0.3514516 -0.406506,0.1642698 -0.308461,-0.2191525 -0.0655,-0.445328 -0.351533,-0.7425893 -0.585142,-1.0646522 -0.01837,-0.1704759 -0.201242,-0.364925 0.05906,-0.4255902 z"
     fill="url(#linearGradient883)"
     id="path32"
     style="fill:url(#linearGradient883);stroke-width:0.24999" />
  <circle
     style="fill:url(#linearGradient2320);fill-opacity:1;stroke-width:0.67384;stroke-linecap:round;stroke-linejoin:round"
     id="path846"
     cx="4"
     cy="9"
     r="2" />
  <path
     id="rect1284"
     style="fill:url(#linearGradient3853);fill-opacity:1;stroke-width:0.279508;stroke-linejoin:round"
     d="m 1,12 c -0.53566538,0 -1,0.381286 -1,1 v 0.5 C 0,14.372057 1.2552319,16 4,16 6.7447681,16 8,14.372057 8,13.5 V 13 C 8,12.381286 7.5356654,12 7,12 Z"
     sodipodi:nodetypes="cssssscc" />
</svg>
