<?xml version="1.0" encoding="UTF-8" standalone="no"?>
<!-- Created with Inkscape (http://www.inkscape.org/) -->

<svg
   width="16"
   height="16"
   viewBox="0 0 16 16"
   version="1.1"
   id="svg2112"
   inkscape:version="1.3.2 (091e20ef0f, 2023-11-25, custom)"
   sodipodi:docname="preferences-system-splash.svg"
   xmlns:inkscape="http://www.inkscape.org/namespaces/inkscape"
   xmlns:sodipodi="http://sodipodi.sourceforge.net/DTD/sodipodi-0.dtd"
   xmlns:xlink="http://www.w3.org/1999/xlink"
   xmlns="http://www.w3.org/2000/svg"
   xmlns:svg="http://www.w3.org/2000/svg">
  <sodipodi:namedview
     id="namedview2114"
     pagecolor="#ffffff"
     bordercolor="#000000"
     borderopacity="0.25"
     inkscape:showpageshadow="2"
     inkscape:pageopacity="0.0"
     inkscape:pagecheckerboard="0"
     inkscape:deskcolor="#d1d1d1"
     inkscape:document-units="px"
     showgrid="false"
     inkscape:zoom="53.3125"
     inkscape:cx="8"
     inkscape:cy="7.9906213"
     inkscape:window-width="1920"
     inkscape:window-height="1017"
     inkscape:window-x="0"
     inkscape:window-y="0"
     inkscape:window-maximized="1"
     inkscape:current-layer="svg2112" />
  <defs
     id="defs2109">
    <linearGradient
       inkscape:collect="always"
       xlink:href="#linearGradient2986"
       id="linearGradient1165"
       x1="2.6458335"
       y1="3.8364599"
       x2="1.0583335"
       y2="3.8364599"
       gradientUnits="userSpaceOnUse"
       gradientTransform="matrix(3.7795275,0,0,3.7795275,1,0)" />
    <linearGradient
       inkscape:collect="always"
       id="linearGradient2986">
      <stop
         style="stop-color:#818990;stop-opacity:1;"
         offset="0"
         id="stop2982" />
      <stop
         style="stop-color:#9fa8b0;stop-opacity:1"
         offset="1"
         id="stop2984" />
    </linearGradient>
    <linearGradient
       inkscape:collect="always"
       xlink:href="#linearGradient3238"
       id="linearGradient3240"
       x1="17.902164"
       y1="29.999403"
       x2="60"
       y2="51"
       gradientUnits="userSpaceOnUse"
       gradientTransform="matrix(0.25925925,0,0,0.25,-0.29629584,-1.4999998)" />
    <linearGradient
       inkscape:collect="always"
       id="linearGradient3238">
      <stop
         style="stop-color:#0082e5;stop-opacity:1;"
         offset="0"
         id="stop3234" />
      <stop
         style="stop-color:#42b7ff;stop-opacity:1;"
         offset="1"
         id="stop3236" />
    </linearGradient>
    <linearGradient
       inkscape:collect="always"
       xlink:href="#linearGradient1116"
       id="linearGradient1908"
       x1="4"
       y1="32"
       x2="60"
       y2="32"
       gradientUnits="userSpaceOnUse"
       gradientTransform="matrix(0.28571428,0,0,0.28947369,-1.142857,-2.7631575)" />
    <linearGradient
       inkscape:collect="always"
       id="linearGradient1116">
      <stop
         style="stop-color:#555a5f;stop-opacity:1;"
         offset="0"
         id="stop1112" />
      <stop
         style="stop-color:#4b4f53;stop-opacity:1"
         offset="1"
         id="stop1114" />
    </linearGradient>
  </defs>
  <rect
     style="fill:#bcc5cf;fill-opacity:1;stroke-width:0.795742;stroke-linecap:round;stroke-linejoin:round"
     id="rect2848"
     width="2"
     height="2"
     x="6.9999995"
     y="11.999999" />
  <rect
     style="fill:url(#linearGradient1165);fill-opacity:1;stroke-width:1.63664;stroke-linecap:round;stroke-linejoin:round"
     id="rect1839"
     width="6"
     height="1"
     x="5.0000005"
     y="14.000005" />
  <rect
     style="fill:url(#linearGradient1908);fill-opacity:1;stroke-width:0.287587;stroke-linecap:round"
     id="rect1537"
     width="16"
     height="11"
     x="0"
     y="1" />
  <rect
     style="fill:url(#linearGradient3240);fill-opacity:1;stroke-width:0.254587;stroke-linecap:round"
     id="rect1910"
     width="13.999999"
     height="9"
     x="1.0000005"
     y="2" />
  <path
     d="M 0.99999971,2 H 9 L 4,11 H 0.99999971 Z"
     style="color:#000000;opacity:0.15;fill:#ffffff;stroke-width:0.199999"
     id="path3898"
     sodipodi:nodetypes="ccccc" />
  <path
     id="path379"
     style="opacity:0.5;fill:#ffffff;stroke-width:1.16667;stroke-linecap:square;stroke-linejoin:bevel"
     d="M 8,4 A 3,3 0 0 0 5,7 3,3 0 0 0 8,10 3,3 0 0 0 11,7 3,3 0 0 0 8,4 Z M 8,5 A 2,2 0 0 1 10,7 2,2 0 0 1 8,9 2,2 0 0 1 6,7 2,2 0 0 1 8,5 Z" />
  <path
     id="path377"
     style="fill:#ffffff;stroke-width:1.16667;stroke-linecap:square;stroke-linejoin:bevel"
     d="M 8,4 V 5 A 2,2 0 0 1 10,7 2,2 0 0 1 9.4101562,8.4101562 L 10.121094,9.1210938 A 3,3 0 0 0 10.771484,5.8515625 3,3 0 0 0 8,4 Z" />
</svg>
