<?xml version="1.0" encoding="UTF-8" standalone="no"?>
<!-- Created with Inkscape (http://www.inkscape.org/) -->

<svg
   width="16"
   height="16"
   viewBox="0 0 16 16"
   version="1.1"
   id="svg2535"
   inkscape:version="1.3.2 (091e20ef0f, 2023-11-25, custom)"
   sodipodi:docname="preferences-security-firewall.svg"
   xmlns:inkscape="http://www.inkscape.org/namespaces/inkscape"
   xmlns:sodipodi="http://sodipodi.sourceforge.net/DTD/sodipodi-0.dtd"
   xmlns:xlink="http://www.w3.org/1999/xlink"
   xmlns="http://www.w3.org/2000/svg"
   xmlns:svg="http://www.w3.org/2000/svg">
  <sodipodi:namedview
     id="namedview2537"
     pagecolor="#ffffff"
     bordercolor="#000000"
     borderopacity="0.25"
     inkscape:showpageshadow="2"
     inkscape:pageopacity="0.0"
     inkscape:pagecheckerboard="0"
     inkscape:deskcolor="#d1d1d1"
     inkscape:document-units="px"
     showgrid="false"
     inkscape:zoom="51.25"
     inkscape:cx="7.9902439"
     inkscape:cy="8"
     inkscape:window-width="1920"
     inkscape:window-height="1017"
     inkscape:window-x="0"
     inkscape:window-y="0"
     inkscape:window-maximized="1"
     inkscape:current-layer="svg2535" />
  <defs
     id="defs2532">
    <radialGradient
       id="radialGradient875"
       cx="20.107"
       cy="28.705"
       r="28"
       gradientTransform="matrix(0.23681493,0.13372913,-0.10536573,0.18658601,1.9260151,-2.9391373)"
       gradientUnits="userSpaceOnUse">
      <stop
         stop-color="#5ab5e2"
         offset="0"
         id="stop2" />
      <stop
         stop-color="#4189ac"
         offset=".45901"
         id="stop4" />
      <stop
         stop-color="#295e76"
         offset="1"
         id="stop6" />
    </radialGradient>
    <linearGradient
       id="linearGradient883"
       x1="4"
       x2="59.861"
       y1="31.360001"
       y2="31.360001"
       gradientTransform="matrix(0.21427541,0,0,0.21427541,-0.85692469,-0.85712106)"
       gradientUnits="userSpaceOnUse">
      <stop
         stop-color="#b0d6df"
         offset="0"
         id="stop9" />
      <stop
         stop-color="#e1f8fc"
         offset=".21709"
         id="stop11" />
      <stop
         stop-color="#96c3ce"
         offset="1"
         id="stop13" />
    </linearGradient>
    <linearGradient
       inkscape:collect="always"
       xlink:href="#linearGradient937"
       id="linearGradient939"
       x1="60"
       y1="55.2043"
       x2="20"
       y2="28"
       gradientUnits="userSpaceOnUse"
       gradientTransform="matrix(0.325,0,0,0.40434784,-3.4999989,-6.3217391)" />
    <linearGradient
       inkscape:collect="always"
       id="linearGradient937">
      <stop
         style="stop-color:#8d4735;stop-opacity:1;"
         offset="0"
         id="stop933" />
      <stop
         style="stop-color:#b35b45;stop-opacity:1;"
         offset="1"
         id="stop935" />
    </linearGradient>
  </defs>
  <rect
     x="0.00025578809"
     y="0"
     width="11.999744"
     height="11.999744"
     rx="5.9998717"
     ry="5.9998717"
     fill="url(#radialGradient875)"
     id="rect30"
     style="fill:url(#radialGradient875);stroke-width:0.214277" />
  <path
     d="M 6.0311276,0.29999406 C 5.5683975,0.33281001 5.115727,0.41775433 4.6742765,0.5608478 4.5167836,0.56699449 4.1745073,0.76984511 4.450662,0.86504097 4.579181,1.0023353 4.8859928,1.0460274 4.8487334,1.2703726 4.8982956,1.4675682 4.3903833,1.4586208 4.5594396,1.6372244 4.6793085,1.7949767 4.7991749,1.9527381 4.9190513,2.110495 5.1403871,2.0394022 5.2134252,1.8127211 5.3362222,1.6382448 5.6780349,1.4874735 6.1618046,1.4419332 6.3876994,1.1517953 6.4584843,0.94656009 6.5292686,0.74134354 6.6000558,0.5361086 6.4104109,0.457403 6.2207636,0.3786974 6.0311283,0.29997299 Z m -1.645285,0.0527246 C 4.1738263,0.32984736 4.0382103,0.46014268 3.8799536,0.54556527 3.6851543,0.56942397 3.4650623,0.64192744 3.342305,0.79860055 3.5608197,0.89776553 3.6984373,0.79211456 3.8870533,0.71718949 4.062179,0.62746954 4.6578169,0.59003637 4.3858426,0.3526976 Z M 3.0177119,0.98200528 C 2.9087128,1.1483854 3.0942751,1.389198 2.8449321,1.4765148 2.7218531,1.6323228 2.6142952,1.8880663 2.9219265,1.7952683 2.9971825,1.5643937 3.2309593,1.2405393 3.4970138,1.3757569 3.7649881,1.4477569 4.0130027,1.8980655 4.231798,1.541391 4.2317092,1.4486252 3.8914651,1.394361 3.8990647,1.1674182 3.7476606,1.1024641 3.4240149,1.2204988 3.4353147,0.98444976 3.2165809,0.88732577 3.1535806,1.3712817 3.0760625,1.1007837 3.0566105,1.0611961 3.0371585,1.0216086 3.0177039,0.98200288 Z M 8.9553849,1.1917668 C 8.6964913,1.2435372 8.4407754,1.302674 8.2364602,1.4806201 8.2957722,1.7177359 7.989865,1.7576349 7.853809,1.8892513 7.7550922,1.9449569 7.855649,2.3752617 7.942093,2.3084631 8.1259978,2.0658276 8.2211274,2.2751279 8.3920834,2.3949437 8.5459554,2.5378577 8.6436585,2.1295497 8.5619282,2.0144518 8.5139762,1.8289503 8.7472681,1.6917202 8.8312217,1.5398026 9.087897,1.3751573 8.8710057,1.7498589 8.8627977,1.880676 8.7332361,2.2672665 9.437486,1.8923424 8.9732681,2.1812294 8.8487489,2.3055808 8.8031545,2.4898023 8.6118153,2.5816997 8.5085034,2.7077999 8.1142058,2.6486957 8.167305,2.4519864 8.023317,2.2263108 8.0588578,2.7236007 8.009937,2.7212195 7.7713042,2.6501115 7.700285,2.9164724 7.5506282,3.0439122 7.4360978,3.1754876 7.0317791,3.0938498 7.333633,3.297668 7.5537874,3.5517025 7.2897611,3.504723 7.1076371,3.5723809 6.8502626,3.6167001 6.8932826,3.8408555 6.8999426,4.0432512 6.9038466,4.1547901 7.1509173,4.3202657 7.2760139,4.2424726 7.5258882,4.2157134 7.4628386,3.9090599 7.6474466,3.8155425 7.8008346,3.6842417 7.9084802,3.5631472 8.1387954,3.5600082 8.245129,3.6614885 8.460049,3.8140426 8.5472066,3.8970005 8.306673,4.1590741 8.6576849,4.1377159 8.6912609,3.8989525 8.8099089,3.7674728 8.3004506,3.4580808 8.6364129,3.594019 8.8587889,3.66738 8.8076513,3.8945531 8.9065881,4.047909 9.082458,4.3452033 9.101289,4.123359 9.117663,3.8933791 c 0.29219,-0.091792 0.371388,0.5088124 0.76522,0.367955 0.295153,0.077556 0.155286,0.2684132 -0.03107,0.3916507 C 9.681614,4.7771272 9.427823,4.6920378 9.241028,4.6246378 9.056229,4.5297608 8.8335137,4.5841545 8.7362361,4.7728441 8.520281,4.5864693 8.3674042,4.2903949 8.0536714,4.273996 7.756617,4.2586075 7.4567234,4.3375892 7.1700498,4.4183522 6.8524166,4.7911245 6.5087636,5.1541761 6.3607669,5.6306267 c -0.1536248,0.18879 0.1754354,0.3018926 -0.074693,0.4737092 -0.174138,0.162588 0.059302,0.363411 0.095347,0.545727 0.1874017,0.222234 0.4747095,0.9532402 0.7641232,0.6704872 0.1628722,-0.257334 0.2708746,0.168564 0.4623906,-0.098712 0.1611992,-0.1471417 0.2917536,0.14784 0.5178096,0.04293 0.2010152,0.1002 0.2184936,0.2966137 0.1122768,0.4845705 -0.068208,0.1908307 0.2955128,0.2692948 0.1920248,0.49207 -0.048784,0.2178544 0.046776,0.4027895 0.155004,0.5848471 C 8.3444955,9.0773493 8.3734947,9.4493005 8.4335435,9.7639349 8.5512411,10.195285 8.719797,10.627877 8.7029578,11.082066 8.9137322,11.137346 9.06921,10.997756 9.243506,10.92446 c 0.332675,0.04706 0.513652,-0.307914 0.720227,-0.511508 -0.155188,-0.208614 0.127486,-0.298634 0.244334,-0.4335908 -0.174779,-0.151176 -0.290593,-0.2979527 -0.02,-0.4158511 0.124822,-0.1267816 0.358654,-0.1984496 0.399652,-0.3752928 -0.10749,-0.3203128 -0.04627,-0.6606448 -0.06208,-0.9918175 0.132525,-0.2670942 0.273234,-0.5285067 0.49335,-0.7347447 0.08778,-0.289632 0.298772,-0.5551072 0.278313,-0.8660002 -0.513071,0.153492 -0.358154,-0.06519 -0.07382,-0.2731139 C 11.4208,6.1778228 11.701353,6.0428401 11.761351,5.796106 11.804421,5.5525907 11.614106,5.174499 11.448538,5.532272 11.368108,5.4182533 11.084785,5.3125166 11.088706,5.1335392 c -0.06067,-0.3609312 0.0976,-0.1441461 0.238314,0.026306 0.327293,-0.2426154 0.754424,0.669606 0.616285,0.018696 C 11.756177,3.7698473 11.041886,2.438996 9.971929,1.5040164 9.874089,1.6082022 9.710815,1.9966454 9.592337,1.7724299 9.424606,1.5944959 9.292964,1.4338566 9.634627,1.4999152 9.969459,1.4090432 9.635927,1.3562077 9.460391,1.3354877 9.284367,1.314941 9.121137,1.2504631 8.9553609,1.1917134 Z m -6.5536595,0.00874 C 2.1802098,1.2858291 2.5120372,1.6111452 2.1148913,1.5069678 1.6794809,1.7042659 1.3894271,2.1830725 1.0867935,2.5559241 0.38086886,3.5535442 -0.00292312,4.7726768 1.6764958e-5,5.9946516 0.11584706,6.2337244 0.40112806,6.3147446 0.61456346,6.4467229 c 0.2169162,0.074205 0.49008964,0.062993 0.59804754,0.3026332 0.1207433,0.1264403 0.282754,0.295992 0.4552501,0.3097133 0.2650738,-0.084941 0.3024534,0.1554015 0.1687232,0.333192 -0.014488,0.1947412 -0.231234,0.3518122 -0.2070754,0.5230897 0.048292,0.1919107 -0.2414336,0.4032899 -0.046258,0.5788666 0.2053341,0.367092 0.4250907,0.723584 0.7027847,1.0406368 0.1727218,0.1513232 0.1522418,0.3596727 0.1325253,0.5677895 -0.068543,0.219956 0.1393512,0.347192 0.2509355,0.50673 -0.2719151,0.498547 0.464589,0.598185 0.7728425,0.816181 0.1549733,-0.141717 0.1672916,-0.371092 0.4243909,-0.377492 0.1559055,-0.109222 0.1891888,-0.355792 0.2962737,-0.519729 -0.00343,-0.17413 -0.1149416,-0.336852 0.066094,-0.526508 C 4.3655052,9.886692 4.6469885,9.963471 4.6977675,9.7231105 4.8830626,9.5322457 4.733133,9.2677209 4.733133,9.0361465 4.8770668,8.8389825 5.1253842,8.6876345 5.0978247,8.4151994 5.1290057,8.0088682 4.3974397,8.0271282 4.1396654,7.7807726 3.8228122,7.7717021 3.8868908,7.3399218 3.6402361,7.2825641 3.3953613,7.2948784 3.3063232,7.1030194 3.2195251,6.9082324 3.0846527,6.8162434 2.8308133,7.0031839 2.6896762,6.8879044 2.5298203,6.8036907 2.3864228,6.4895524 2.2064866,6.6858672 1.9696717,6.8575736 1.7367768,7.0320003 1.5121217,6.7445194 1.3664277,6.6132349 1.5494823,6.240551 1.3431994,6.2640297 0.90282886,6.4233206 1.4827683,5.6243849 1.0705254,5.7303809 0.97288876,5.8834202 0.78561146,6.1195535 0.60351516,5.9384576 0.42064656,5.8524136 0.51085396,5.5726456 0.51900876,5.4050889 0.52692316,5.2091062 0.77494326,5.1113955 0.91748026,5.0219971 1.1939346,5.1456352 1.1371949,4.7771828 1.3682506,4.9003499 1.592385,4.8526146 1.6935836,5.2121626 1.7845817,5.2255631 1.8380613,5.0484341 1.7415156,4.7895527 1.9059,4.6728542 2.097971,4.5111819 2.3514705,4.3962012 2.3988695,4.1245658 2.4028153,3.834392 2.7549221,4.078937 2.8423401,3.8813305 2.9229325,3.6549151 3.1579931,3.6690566 3.3565491,3.6263374 3.4651545,3.5255692 3.7381208,3.2151858 3.4009011,3.3061842 3.2780748,3.2895845 2.783614,3.3553937 3.1193668,3.2370846 3.284756,3.1118907 3.4852193,3.1292389 3.6708752,3.1046499 3.8170885,2.9808639 4.0726859,2.9393939 4.0839257,2.7140187 3.9625711,2.5489708 3.7055136,2.5803852 3.8146315,2.3436649 3.8040867,2.0340115 3.5313575,2.2328053 3.4417593,2.2092528 3.5872718,2.0067574 3.2525478,1.8792598 3.1402059,1.8764203 3.0638519,2.0672486 2.8491921,2.2318913 2.9249498,2.4515278 2.7011352,2.487877 2.5962768,2.6498736 2.5290183,2.8515592 2.4619143,2.8749331 2.4837343,2.4560065 2.2269049,2.4946064 2.0454943,2.4902296 1.8212335,2.2195323 2.0122292,2.112935 2.2740834,1.947258 2.5996564,1.8175811 2.765233,1.5529467 2.8604522,1.3159316 2.6848515,1.1704542 2.4510194,1.2041137 l -0.032602,-0.00226 z M 6.8074308,1.4734056 C 6.6629118,1.5858365 6.3711603,1.5081824 6.3095614,1.6165792 6.2836489,1.8352147 6.6231349,1.8317955 6.7587123,1.711095 6.9803058,1.6291649 6.9704284,1.644117 6.8074173,1.4734006 Z M 3.5970997,1.5854633 C 3.2899662,1.6758317 3.540956,1.8769958 3.7414498,1.8743167 3.9806636,1.8550159 3.7581049,1.5871835 3.5970997,1.5854633 Z M 7.2596219,2.1889706 C 7.2376459,2.384614 7.425585,2.5067827 7.3479682,2.7199188 7.2257491,2.9884131 7.3988802,3.0690322 7.6077442,2.9039994 7.886697,2.7333184 7.3987082,2.3594272 7.3336874,2.1889708 h -0.074072 z m -0.091989,0.3146267 c -0.2506755,-0.061619 -0.1713713,0.463011 9e-4,0.2823938 0.185486,-0.032381 0.00735,-0.1753047 -9e-4,-0.2823938 z M 3.9684997,2.9764467 C 4.0053021,3.1754035 4.0185357,3.4908166 4.1641934,3.1520183 4.1639936,3.0861743 4.0202842,3.034664 3.9684997,2.9764467 Z m 6.0532713,2.0455565 c 0.294633,0.2568947 0.413991,0.6289477 0.580067,0.9703003 0.247116,0.1297467 0.100832,0.3281727 0.135254,0.4949082 C 11.081163,6.7884559 10.388658,6.6280144 10.472697,6.2993666 10.416547,5.9176569 10.171382,5.6628616 9.971146,5.3868076 9.955396,5.2406854 9.798653,5.0740147 10.021776,5.022016 Z"
     fill="url(#linearGradient883)"
     id="path32"
     style="fill:url(#linearGradient883);stroke-width:0.214277" />
  <rect
     style="fill:url(#linearGradient939);fill-opacity:1;stroke-width:0.36251;stroke-linecap:round;stroke-linejoin:round"
     id="rect377"
     width="13"
     height="11"
     x="3.000001"
     y="5.0000005" />
  <path
     id="rect993"
     style="opacity:0.5;fill:#ffffff;fill-opacity:1;stroke-width:0.707107;stroke-linecap:round;stroke-linejoin:round"
     d="M 5,5 V 8 H 3 v 1 h 4 v 3 H 3 v 1 h 2 v 3 h 1 v -3 h 3 v 3 h 1 v -3 h 4 v 3 h 1 v -3 h 1 V 12 H 12 V 9 h 4 V 8 H 15 V 5 H 14 V 8 H 10 V 5 H 9 V 8 H 6 V 5 Z m 3,4 h 3 v 3 H 8 Z" />
</svg>
