<?xml version="1.0" encoding="UTF-8" standalone="no"?>
<!-- Created with Inkscape (http://www.inkscape.org/) -->

<svg
   width="64"
   height="64"
   viewBox="0 0 64 64.000004"
   version="1.1"
   id="svg5"
   inkscape:version="1.3.2 (091e20ef0f, 2023-11-25, custom)"
   sodipodi:docname="folder-music-open.svg"
   xmlns:inkscape="http://www.inkscape.org/namespaces/inkscape"
   xmlns:sodipodi="http://sodipodi.sourceforge.net/DTD/sodipodi-0.dtd"
   xmlns:xlink="http://www.w3.org/1999/xlink"
   xmlns="http://www.w3.org/2000/svg"
   xmlns:svg="http://www.w3.org/2000/svg">
  <sodipodi:namedview
     id="namedview7"
     pagecolor="#ffffff"
     bordercolor="#000000"
     borderopacity="0.25"
     inkscape:showpageshadow="2"
     inkscape:pageopacity="0.0"
     inkscape:pagecheckerboard="0"
     inkscape:deskcolor="#d1d1d1"
     inkscape:document-units="px"
     showgrid="false"
     inkscape:zoom="12.65625"
     inkscape:cx="32.039506"
     inkscape:cy="32"
     inkscape:window-width="1920"
     inkscape:window-height="1017"
     inkscape:window-x="0"
     inkscape:window-y="0"
     inkscape:window-maximized="1"
     inkscape:current-layer="svg5" />
  <defs
     id="defs2">
    <linearGradient
       inkscape:collect="always"
       id="linearGradient1713">
      <stop
         style="stop-color:#be8b08;stop-opacity:1;"
         offset="0"
         id="stop1709" />
      <stop
         style="stop-color:#fdd164;stop-opacity:1;"
         offset="1"
         id="stop1711" />
    </linearGradient>
    <linearGradient
       inkscape:collect="always"
       id="linearGradient1654">
      <stop
         style="stop-color:#fce798;stop-opacity:1;"
         offset="0"
         id="stop1650" />
      <stop
         style="stop-color:#ffc937;stop-opacity:1;"
         offset="1"
         id="stop1652" />
    </linearGradient>
    <linearGradient
       inkscape:collect="always"
       xlink:href="#linearGradient1654"
       id="linearGradient1499"
       x1="16"
       y1="6.0001335"
       x2="22"
       y2="58.912014"
       gradientUnits="userSpaceOnUse"
       gradientTransform="matrix(1,0.36397024,0,1,0,-5.5638918)" />
    <linearGradient
       inkscape:collect="always"
       xlink:href="#linearGradient1713"
       id="linearGradient1707"
       x1="12"
       y1="32"
       x2="44"
       y2="32"
       gradientUnits="userSpaceOnUse" />
    <linearGradient
       inkscape:collect="always"
       xlink:href="#linearGradient8250"
       id="linearGradient888"
       x1="23.335228"
       y1="15.999779"
       x2="29"
       y2="31"
       gradientUnits="userSpaceOnUse"
       gradientTransform="matrix(2,0,0,2,3,-2)" />
    <linearGradient
       inkscape:collect="always"
       id="linearGradient8250">
      <stop
         style="stop-color:#3d9ff9;stop-opacity:1;"
         offset="0"
         id="stop8246" />
      <stop
         style="stop-color:#1467c3;stop-opacity:1;"
         offset="1"
         id="stop8248" />
    </linearGradient>
  </defs>
  <path
     id="rect238"
     style="fill:url(#linearGradient1707);fill-opacity:1;stroke-width:1"
     d="M 14.5,6.0005792 48,6 c 2.216,-3.84e-5 4,1.784 4,4 v 44 c 0,2.216 -1.784,4 -4,4 H 16 L 12,52 V 10 c 0,-2.216 2.5,-3.9994208 2.5,-3.9994208 z"
     sodipodi:nodetypes="cssssccsc" />
  <path
     id="path1056"
     style="fill:url(#linearGradient888);fill-opacity:1;stroke-width:7.49996;stroke-linecap:round;stroke-linejoin:round"
     d="m 51,30 c -1.107997,0 -2,0.892003 -2,2 V 46.675781 C 48.062453,46.230935 47.037729,46.000105 46,46 c -3.865993,0 -7,3.134007 -7,7 0,3.865993 3.134007,7 7,7 3.865993,0 7,-3.134007 7,-7 V 37 l 6.121094,2 C 60.162271,39.378958 61,38.791593 61,37.683594 v -2 C 61,34.575599 60.162271,33.378958 59.121094,33 Z"
     sodipodi:nodetypes="csccsssccsscc" />
  <path
     id="rect348"
     style="fill:url(#linearGradient1499);fill-opacity:1;stroke-width:1"
     d="M 14.439454,6.0058594 C 13.00283,6.0885962 12,7.1426908 12,8.8046874 V 52 c 0,3.610528 2.087002,5.516934 4,6.259766 l 6,3.095702 c 2.215996,0.806556 4,-0.328926 4,-2.544922 v -16 c 1.195836,-1.44914 4,-2.634824 4,-4.542968 v -22 c 0,-2.215996 -1.784004,-4.650475 -4,-5.457031 L 16,6.2597656 C 15.446002,6.0581264 14.918328,5.9782804 14.439454,6.0058594 Z"
     sodipodi:nodetypes="sssccscssccs" />
</svg>
