<?xml version="1.0" encoding="UTF-8" standalone="no"?>
<!-- Created with Inkscape (http://www.inkscape.org/) -->

<svg
   width="64"
   height="64"
   viewBox="0 0 64 64.000004"
   version="1.1"
   id="svg5"
   inkscape:version="1.2.1 (9c6d41e410, 2022-07-14, custom)"
   sodipodi:docname="folder-games.svg"
   xmlns:inkscape="http://www.inkscape.org/namespaces/inkscape"
   xmlns:sodipodi="http://sodipodi.sourceforge.net/DTD/sodipodi-0.dtd"
   xmlns:xlink="http://www.w3.org/1999/xlink"
   xmlns="http://www.w3.org/2000/svg"
   xmlns:svg="http://www.w3.org/2000/svg">
  <sodipodi:namedview
     id="namedview7"
     pagecolor="#ffffff"
     bordercolor="#000000"
     borderopacity="0.25"
     inkscape:showpageshadow="2"
     inkscape:pageopacity="0.0"
     inkscape:pagecheckerboard="0"
     inkscape:deskcolor="#d1d1d1"
     inkscape:document-units="px"
     showgrid="false"
     inkscape:zoom="12.578125"
     inkscape:cx="31.960248"
     inkscape:cy="32"
     inkscape:window-width="1920"
     inkscape:window-height="1008"
     inkscape:window-x="0"
     inkscape:window-y="0"
     inkscape:window-maximized="1"
     inkscape:current-layer="svg5" />
  <defs
     id="defs2">
    <linearGradient
       inkscape:collect="always"
       id="linearGradient1713">
      <stop
         style="stop-color:#be8b08;stop-opacity:1;"
         offset="0"
         id="stop1709" />
      <stop
         style="stop-color:#fdd164;stop-opacity:1;"
         offset="1"
         id="stop1711" />
    </linearGradient>
    <linearGradient
       inkscape:collect="always"
       id="linearGradient1654">
      <stop
         style="stop-color:#fce798;stop-opacity:1;"
         offset="0"
         id="stop1650" />
      <stop
         style="stop-color:#ffc937;stop-opacity:1;"
         offset="1"
         id="stop1652" />
    </linearGradient>
    <linearGradient
       inkscape:collect="always"
       xlink:href="#linearGradient1654"
       id="linearGradient1499"
       x1="16"
       y1="6.0001335"
       x2="26"
       y2="57.456135"
       gradientUnits="userSpaceOnUse"
       gradientTransform="matrix(0.99999999,0.36397024,0,0.99999999,1.6801242e-7,-5.5638918)" />
    <linearGradient
       inkscape:collect="always"
       xlink:href="#linearGradient1713"
       id="linearGradient1707"
       x1="12"
       y1="32"
       x2="44"
       y2="32"
       gradientUnits="userSpaceOnUse" />
    <linearGradient
       inkscape:collect="always"
       xlink:href="#linearGradient3309"
       id="linearGradient933"
       x1="7.5"
       y1="2.6498005"
       x2="15"
       y2="10.6498"
       gradientUnits="userSpaceOnUse"
       gradientTransform="matrix(1.8666668,0,0,1.9999999,32.999999,38.700398)" />
    <linearGradient
       inkscape:collect="always"
       id="linearGradient3309">
      <stop
         style="stop-color:#c6d0d7;stop-opacity:1;"
         offset="0"
         id="stop3305" />
      <stop
         style="stop-color:#afb0b4;stop-opacity:1;"
         offset="1"
         id="stop3307" />
    </linearGradient>
    <linearGradient
       inkscape:collect="always"
       xlink:href="#linearGradient3309"
       id="linearGradient3303"
       x1="7"
       y1="10"
       x2="2"
       y2="5"
       gradientUnits="userSpaceOnUse"
       gradientTransform="matrix(2,0,0,2,31.999999,36.999999)" />
    <linearGradient
       inkscape:collect="always"
       xlink:href="#linearGradient6486"
       id="linearGradient6480"
       x1="-12.356682"
       y1="5.2344007"
       x2="-13.70065"
       y2="6.7135053"
       gradientUnits="userSpaceOnUse"
       gradientTransform="matrix(2,0,0,2,-28.999999,36.999999)" />
    <linearGradient
       inkscape:collect="always"
       id="linearGradient6486">
      <stop
         style="stop-color:#1998df;stop-opacity:1;"
         offset="0"
         id="stop6482" />
      <stop
         style="stop-color:#076cbe;stop-opacity:1;"
         offset="1"
         id="stop6484" />
    </linearGradient>
    <linearGradient
       inkscape:collect="always"
       xlink:href="#linearGradient6486"
       id="linearGradient6590"
       x1="-10.363785"
       y1="8.228488"
       x2="-11.704712"
       y2="9.7094936"
       gradientUnits="userSpaceOnUse"
       gradientTransform="matrix(2,0,0,2,-29.999999,36.999999)" />
    <linearGradient
       inkscape:collect="always"
       xlink:href="#linearGradient10607"
       id="linearGradient12866"
       x1="3.5"
       y1="7"
       x2="7.5"
       y2="11"
       gradientUnits="userSpaceOnUse"
       gradientTransform="matrix(2,0,0,2,29.999999,33.999999)" />
    <linearGradient
       inkscape:collect="always"
       id="linearGradient10607">
      <stop
         style="stop-color:#636364;stop-opacity:1;"
         offset="0"
         id="stop10603" />
      <stop
         style="stop-color:#3a3a3a;stop-opacity:1;"
         offset="1"
         id="stop10605" />
    </linearGradient>
    <linearGradient
       inkscape:collect="always"
       xlink:href="#linearGradient10607"
       id="linearGradient12886"
       x1="8"
       y1="4"
       x2="9"
       y2="5"
       gradientUnits="userSpaceOnUse"
       gradientTransform="matrix(2,0,0,2,27.999999,36.999999)" />
    <linearGradient
       inkscape:collect="always"
       xlink:href="#linearGradient10607"
       id="linearGradient12878"
       x1="11"
       y1="4"
       x2="12"
       y2="5"
       gradientUnits="userSpaceOnUse"
       gradientTransform="matrix(2,0,0,2,25.999999,36.999999)" />
  </defs>
  <path
     id="rect238"
     style="fill:url(#linearGradient1707);fill-opacity:1;stroke-width:0.999999"
     d="M 14.5,6.0005792 48,6 c 2.216,-3.84e-5 4,1.784 4,3.9999998 V 54 c 0,2.216 -1.784,4 -4,4 H 16 L 12,52 V 9.9999998 C 12,7.784 14.5,6.0005792 14.5,6.0005792 Z"
     sodipodi:nodetypes="cssssccsc" />
  <rect
     style="fill:url(#linearGradient933);fill-opacity:1;stroke-width:1.93219"
     id="rect371"
     width="28"
     height="16"
     x="33"
     y="44"
     ry="8" />
  <circle
     style="fill:url(#linearGradient3303);fill-opacity:1;stroke-width:1.42857"
     id="path3295"
     cx="41"
     cy="52"
     r="5" />
  <circle
     style="fill:url(#linearGradient6480);fill-opacity:1;stroke-width:2"
     id="path4072"
     cx="-55"
     cy="49"
     r="2"
     transform="scale(-1,1)" />
  <circle
     style="fill:url(#linearGradient6590);fill-opacity:1;stroke-width:2"
     id="path4074"
     cx="-52"
     cy="55"
     r="2"
     transform="scale(-1,1)" />
  <path
     id="rect12825"
     style="fill:url(#linearGradient12866);fill-opacity:1;stroke-width:2"
     d="m 40.999999,47.999999 c -0.553999,0 -1,0.446001 -1,1 v 2 h -2 c -0.553999,0 -1,0.446 -1,1 0,0.554 0.446001,1 1,1 h 2 v 2 c 0,0.554 0.446001,1 1,1 0.553999,0 1,-0.446 1,-1 v -2 h 2 c 0.553999,0 1,-0.446 1,-1 0,-0.554 -0.446001,-1 -1,-1 h -2 v -2 c 0,-0.553999 -0.446001,-1 -1,-1 z"
     sodipodi:nodetypes="sscssscssscssscss" />
  <circle
     style="fill:url(#linearGradient12886);fill-opacity:1;stroke-width:2"
     id="path12868"
     cx="45"
     cy="46"
     r="1" />
  <circle
     style="fill:url(#linearGradient12878);fill-opacity:1;stroke-width:2"
     id="path12870"
     cx="49"
     cy="46"
     r="1" />
  <path
     id="rect348"
     style="fill:url(#linearGradient1499);fill-opacity:1;stroke-width:0.999999"
     d="M 14.439454,6.0058594 C 13.00283,6.0885962 12,7.1426908 12,8.8046874 V 52 c 0,3.610528 2.087002,5.516934 4,6.259766 l 10,3.095702 c 2.215996,0.806556 4,-0.328926 4,-2.544922 v -16 c 1.195836,-1.44914 4,-2.634824 4,-4.542968 v -22 c 0,-2.215996 -1.784004,-4.650475 -4,-5.457031 L 16,6.2597656 C 15.446002,6.0581264 14.918328,5.9782804 14.439454,6.0058594 Z"
     sodipodi:nodetypes="sssccscssccs" />
</svg>
