<?xml version="1.0" encoding="UTF-8" standalone="no"?>
<!-- Created with Inkscape (http://www.inkscape.org/) -->

<svg
   width="64"
   height="64"
   viewBox="0 0 64 64.000004"
   version="1.1"
   id="svg5"
   inkscape:version="1.3.2 (091e20ef0f, 2023-11-25, custom)"
   sodipodi:docname="folder-template-open.svg"
   xmlns:inkscape="http://www.inkscape.org/namespaces/inkscape"
   xmlns:sodipodi="http://sodipodi.sourceforge.net/DTD/sodipodi-0.dtd"
   xmlns:xlink="http://www.w3.org/1999/xlink"
   xmlns="http://www.w3.org/2000/svg"
   xmlns:svg="http://www.w3.org/2000/svg">
  <sodipodi:namedview
     id="namedview7"
     pagecolor="#ffffff"
     bordercolor="#000000"
     borderopacity="0.25"
     inkscape:showpageshadow="2"
     inkscape:pageopacity="0.0"
     inkscape:pagecheckerboard="0"
     inkscape:deskcolor="#d1d1d1"
     inkscape:document-units="px"
     showgrid="false"
     inkscape:zoom="12.65625"
     inkscape:cx="32.039506"
     inkscape:cy="32"
     inkscape:window-width="1920"
     inkscape:window-height="1017"
     inkscape:window-x="0"
     inkscape:window-y="0"
     inkscape:window-maximized="1"
     inkscape:current-layer="svg5" />
  <defs
     id="defs2">
    <linearGradient
       inkscape:collect="always"
       id="linearGradient1713">
      <stop
         style="stop-color:#be8b08;stop-opacity:1;"
         offset="0"
         id="stop1709" />
      <stop
         style="stop-color:#fdd164;stop-opacity:1;"
         offset="1"
         id="stop1711" />
    </linearGradient>
    <linearGradient
       inkscape:collect="always"
       id="linearGradient1654">
      <stop
         style="stop-color:#fce798;stop-opacity:1;"
         offset="0"
         id="stop1650" />
      <stop
         style="stop-color:#ffc937;stop-opacity:1;"
         offset="1"
         id="stop1652" />
    </linearGradient>
    <linearGradient
       inkscape:collect="always"
       xlink:href="#linearGradient1654"
       id="linearGradient1499"
       x1="16"
       y1="6.0001335"
       x2="22"
       y2="58.912014"
       gradientUnits="userSpaceOnUse"
       gradientTransform="matrix(1,0.36397024,0,1,0,-5.5638918)" />
    <linearGradient
       inkscape:collect="always"
       xlink:href="#linearGradient1713"
       id="linearGradient1707"
       x1="12"
       y1="32"
       x2="44"
       y2="32"
       gradientUnits="userSpaceOnUse" />
    <linearGradient
       inkscape:collect="always"
       xlink:href="#linearGradient11972"
       id="linearGradient939"
       gradientUnits="userSpaceOnUse"
       gradientTransform="matrix(3.4887851,0,0,3.6395472,18.46209,12.888708)"
       x1="5.320261"
       y1="6.4749041"
       x2="11.797989"
       y2="13.101656" />
    <linearGradient
       inkscape:collect="always"
       id="linearGradient11972">
      <stop
         style="stop-color:#4ad2e3;stop-opacity:1"
         offset="0"
         id="stop11968" />
      <stop
         style="stop-color:#8660c5;stop-opacity:1"
         offset="1"
         id="stop11970" />
    </linearGradient>
    <linearGradient
       inkscape:collect="always"
       xlink:href="#linearGradient4263"
       id="linearGradient4265"
       x1="8.4584417"
       y1="6.3224587"
       x2="8.4666672"
       y2="9.5250006"
       gradientUnits="userSpaceOnUse"
       gradientTransform="matrix(3.4887851,0,0,3.6395472,18.461586,12.888874)" />
    <linearGradient
       inkscape:collect="always"
       id="linearGradient4263">
      <stop
         style="stop-color:#ffffff;stop-opacity:1"
         offset="0"
         id="stop4259" />
      <stop
         style="stop-color:#ffffff;stop-opacity:0.50196081"
         offset="1"
         id="stop4261" />
    </linearGradient>
    <linearGradient
       inkscape:collect="always"
       xlink:href="#linearGradient5001"
       id="linearGradient5003"
       x1="19"
       y1="44.711914"
       x2="32"
       y2="36"
       gradientUnits="userSpaceOnUse"
       gradientTransform="matrix(0.92307448,0,0,0.96296357,18.461586,12.888874)" />
    <linearGradient
       inkscape:collect="always"
       id="linearGradient5001">
      <stop
         style="stop-color:#ffffff;stop-opacity:0"
         offset="0"
         id="stop4997" />
      <stop
         style="stop-color:#ffffff;stop-opacity:1"
         offset="1"
         id="stop4999" />
    </linearGradient>
    <linearGradient
       inkscape:collect="always"
       xlink:href="#linearGradient5539"
       id="linearGradient5541"
       x1="11.853752"
       y1="12.168457"
       x2="8.4666672"
       y2="9.5250006"
       gradientUnits="userSpaceOnUse"
       gradientTransform="matrix(3.4887851,0,0,3.6395472,18.461586,12.888874)" />
    <linearGradient
       inkscape:collect="always"
       id="linearGradient5539">
      <stop
         style="stop-color:#ffffff;stop-opacity:0"
         offset="0"
         id="stop5535" />
      <stop
         style="stop-color:#ffffff;stop-opacity:0.33664191"
         offset="1"
         id="stop5537" />
    </linearGradient>
  </defs>
  <path
     id="rect238"
     style="fill:url(#linearGradient1707);fill-opacity:1;stroke-width:1"
     d="M 14.5,6.0005792 48,6 c 2.216,-3.84e-5 4,1.784 4,4 v 44 c 0,2.216 -1.784,4 -4,4 H 16 L 12,52 V 10 c 0,-2.216 2.5,-3.9994208 2.5,-3.9994208 z"
     sodipodi:nodetypes="cssssccsc" />
  <path
     id="path3182-6"
     style="color:#000000;fill:url(#linearGradient939);fill-opacity:1;stroke:none;stroke-width:3.56404;stroke-linecap:round;stroke-linejoin:round;stroke-miterlimit:4;stroke-dasharray:none"
     d="m 47.999942,36 c -0.510958,0 -1.020961,0.10984 -1.498193,0.331018 l -8.30767,3.853735 c -0.86702,0.401628 -1.532381,1.125811 -1.893025,2.001159 -0.02074,0.05024 -0.04082,0.1011 -0.0595,0.15234 -0.0032,0.009 -0.006,0.0174 -0.009,0.0262 -0.02156,0.06056 -0.04082,0.12068 -0.0595,0.18244 -0.0184,0.06094 -0.03674,0.1223 -0.05228,0.1843 -1.44e-4,5.82e-4 1.46e-4,0.0013 0,0.0019 -0.0142,0.05712 -0.02788,0.115041 -0.03966,0.173021 -0.0036,0.0174 -0.0074,0.03496 -0.0108,0.0527 -0.0028,0.0144 -0.0046,0.02874 -0.0072,0.04324 -0.0066,0.03692 -0.0124,0.07372 -0.018,0.11096 -0.0082,0.0554 -0.0156,0.11138 -0.02164,0.16738 -0.0032,0.03024 -0.0064,0.06006 -0.009,0.0903 -0.0024,0.02878 -0.0036,0.05742 -0.0054,0.08652 -0.002,0.03056 -0.0042,0.06128 -0.0054,0.09216 -1.46e-4,0.0038 1.34e-4,0.0076 0,0.0114 -0.0018,0.0474 -0.0036,0.09518 -0.0036,0.1429 v 10.592599 c 1.72e-4,0.332988 0.04246,0.659559 0.1208,0.972367 0.0112,0.04468 0.02336,0.08752 0.03606,0.13166 0.304348,1.059741 1.036543,1.951371 2.037257,2.414932 l 8.305862,3.853692 h 0.0018 c 0.05916,0.02732 0.11834,0.05314 0.17848,0.0771 5.18e-4,2.04e-4 0.0013,-2.08e-4 0.0018,0 0.06014,0.02406 0.12108,0.04718 0.18208,0.0677 5.36e-4,1.82e-4 0.0013,-1.8e-4 0.0018,0 0.12254,0.04108 0.24622,0.076 0.371398,0.10342 5.68e-4,1.22e-4 0.0012,-1.26e-4 0.0018,0 0.250919,0.05484 0.505921,0.08278 0.760813,0.08278 0.06386,0 0.12908,-0.0022 0.1929,-0.0054 0.446624,-0.02406 0.889511,-0.13186 1.307087,-0.32537 l 8.306006,-3.853748 c 1.04185,-0.482619 1.795289,-1.429419 2.075123,-2.546598 0.07834,-0.312818 0.11882,-0.639381 0.11898,-0.972367 V 43.703811 c -3.4e-5,-0.06662 -0.0022,-0.13336 -0.0054,-0.19938 -0.0032,-0.0659 -0.008,-0.1304 -0.0144,-0.19558 -0.0056,-0.05606 -0.012,-0.11192 -0.0198,-0.16738 -0.0013,-0.0094 -0.0024,-0.019 -0.0036,-0.0284 -0.0016,-0.0114 -0.0036,-0.0226 -0.0054,-0.03384 -0.0084,-0.05292 -0.0184,-0.10566 -0.02878,-0.15798 C 59.89744,42.794491 59.866,42.669458 59.829,42.546958 59.515482,41.510604 58.790007,40.640635 57.806001,40.184817 L 49.500223,36.331062 C 49.022991,36.109888 48.51118,36.000044 48.000226,36.000044 Z" />
  <path
     style="color:#000000;opacity:0.4;fill:url(#linearGradient4265);fill-opacity:1;stroke:none;stroke-width:3.56404;stroke-linecap:round;stroke-linejoin:round;stroke-miterlimit:4;stroke-dasharray:none"
     d="m 46.500823,36.331744 -8.306622,3.853085 c -1.333556,0.61774 -2.193417,1.996747 -2.194199,3.518962 v 10.592431 c 7.82e-4,1.522215 0.860643,2.90122 2.194199,3.518965 l 8.306622,3.853084 c 0.954463,0.442328 2.043827,0.442328 2.998288,0 l 8.306622,-3.853084 c 1.333556,-0.617745 2.193417,-1.99675 2.194197,-3.518965 V 43.703791 c -7.8e-4,-1.522213 -0.860641,-2.901222 -2.194197,-3.518962 l -8.306622,-3.853085 c -0.954461,-0.442324 -2.043825,-0.442324 -2.998288,0 z"
     id="path3182"
     sodipodi:nodetypes="ccccccccccccc" />
  <path
     id="rect3501"
     style="opacity:0.4;fill:url(#linearGradient5003);fill-opacity:1;stroke-width:3.56382;stroke-linecap:round;stroke-linejoin:round"
     d="M 36.30108,42.185912 C 36.10698,42.656964 36.000276,43.171121 36,43.703707 v 10.592599 c 7.82e-4,1.522213 0.860547,2.90121 2.194103,3.518957 l 8.305868,3.853734 c 0.477232,0.221166 0.989039,0.33101 1.499995,0.33101 V 47.555564 Z" />
  <path
     id="rect3501-7"
     style="opacity:0.4;fill:url(#linearGradient5541);fill-opacity:1;stroke-width:3.56382;stroke-linecap:round;stroke-linejoin:round"
     d="m 59.698848,42.185912 c 0.19408,0.471054 0.300804,0.985209 0.301086,1.517795 v 10.592601 c -7.9e-4,1.522211 -0.860551,2.901208 -2.194107,3.518955 l -8.305866,3.853734 c -0.477232,0.221178 -0.989039,0.331012 -1.499995,0.331012 V 47.555564 Z" />
  <path
     id="rect348"
     style="fill:url(#linearGradient1499);fill-opacity:1;stroke-width:1"
     d="M 14.439454,6.0058594 C 13.00283,6.0885962 12,7.1426908 12,8.8046874 V 52 c 0,3.610528 2.087002,5.516934 4,6.259766 l 6,3.095702 c 2.215996,0.806556 4,-0.328926 4,-2.544922 v -16 c 1.195836,-1.44914 4,-2.634824 4,-4.542968 v -22 c 0,-2.215996 -1.784004,-4.650475 -4,-5.457031 L 16,6.2597656 C 15.446002,6.0581264 14.918328,5.9782804 14.439454,6.0058594 Z"
     sodipodi:nodetypes="sssccscssccs" />
</svg>
