<?xml version="1.0" encoding="UTF-8" standalone="no"?>
<!-- Created with Inkscape (http://www.inkscape.org/) -->

<svg
   width="64"
   height="64"
   viewBox="0 0 64 64.000003"
   version="1.1"
   id="svg5"
   inkscape:version="1.3.2 (091e20ef0f, 2023-11-25, custom)"
   sodipodi:docname="folder-onedrive.svg"
   xmlns:inkscape="http://www.inkscape.org/namespaces/inkscape"
   xmlns:sodipodi="http://sodipodi.sourceforge.net/DTD/sodipodi-0.dtd"
   xmlns:xlink="http://www.w3.org/1999/xlink"
   xmlns="http://www.w3.org/2000/svg"
   xmlns:svg="http://www.w3.org/2000/svg">
  <sodipodi:namedview
     id="namedview7"
     pagecolor="#ffffff"
     bordercolor="#000000"
     borderopacity="0.25"
     inkscape:showpageshadow="2"
     inkscape:pageopacity="0.0"
     inkscape:pagecheckerboard="0"
     inkscape:deskcolor="#d1d1d1"
     inkscape:document-units="px"
     showgrid="false"
     inkscape:zoom="12.8125"
     inkscape:cx="31.960976"
     inkscape:cy="32"
     inkscape:window-width="1920"
     inkscape:window-height="1017"
     inkscape:window-x="0"
     inkscape:window-y="0"
     inkscape:window-maximized="1"
     inkscape:current-layer="svg5" />
  <defs
     id="defs2">
    <linearGradient
       inkscape:collect="always"
       id="linearGradient1713">
      <stop
         style="stop-color:#be8b08;stop-opacity:1;"
         offset="0"
         id="stop1709" />
      <stop
         style="stop-color:#fdd164;stop-opacity:1;"
         offset="1"
         id="stop1711" />
    </linearGradient>
    <linearGradient
       inkscape:collect="always"
       id="linearGradient1654">
      <stop
         style="stop-color:#fce798;stop-opacity:1;"
         offset="0"
         id="stop1650" />
      <stop
         style="stop-color:#ffc937;stop-opacity:1;"
         offset="1"
         id="stop1652" />
    </linearGradient>
    <linearGradient
       inkscape:collect="always"
       xlink:href="#linearGradient1654"
       id="linearGradient1499"
       x1="16"
       y1="6.0001335"
       x2="26"
       y2="57.456135"
       gradientUnits="userSpaceOnUse"
       gradientTransform="matrix(1,0.36397023,0,1,0,-5.5638918)" />
    <linearGradient
       inkscape:collect="always"
       xlink:href="#linearGradient1713"
       id="linearGradient1707"
       x1="12"
       y1="32"
       x2="44"
       y2="32"
       gradientUnits="userSpaceOnUse" />
  </defs>
  <path
     id="rect238"
     style="fill:url(#linearGradient1707);fill-opacity:1"
     d="M 14.5,6.0005792 48,6 c 2.216,-3.83e-5 4,1.784 4,4 v 44 c 0,2.216 -1.784,4 -4,4 H 16 L 12,52 V 10 c 0,-2.216 2.5,-3.9994208 2.5,-3.9994208 z"
     sodipodi:nodetypes="cssssccsc" />
  <ellipse
     style="fill:#056ab6;fill-opacity:1;stroke-width:1.79999;stroke-linecap:round;stroke-linejoin:round"
     id="path396"
     cx="46"
     cy="52.999969"
     rx="9"
     ry="8.9999704" />
  <path
     d="m 39.000002,47.857168 c -2.56511,0.0031 -4.923074,1.423337 -6.145508,3.70143 l -0.01026,0.0034 C 32.306741,52.563059 32,53.709706 32,54.928557 c 0.0017,3.655037 2.7611,6.708038 6.364258,7.040314 v 0.03106 H 39 53.875001 c 2.286513,0 4.255935,-1.280224 5.308105,-3.155884 l -9.679686,-5.828358 -7.054688,-4.246976 -0.02051,0.0034 c -1.046063,-0.597116 -2.226682,-0.912225 -3.42822,-0.914945 z"
     style="fill:#1581d9;stroke-width:1.7589"
     id="path958" />
  <path
     d="m 53.875001,49.625013 c -0.866632,0.04338 -1.619621,0.204562 -2.327637,0.466131 v 0.0034 c -2.268679,0.955738 -4.627379,1.950277 -6.675293,2.814059 l -12.13379,5.117136 c 1.045483,2.150443 3.119643,3.711999 5.625977,3.943128 v 0.03107 H 53.875001 C 57.257743,61.99994 60,59.229718 60,55.812476 60,52.395233 57.257743,49.625012 53.875001,49.625011 Z"
     style="fill:#138fe6;stroke-width:1.7589"
     id="path991" />
  <path
     d="m 47.490234,51.80375 c -0.874808,0.368851 -1.814809,0.766059 -2.618163,1.104904 l -12.13379,5.117087 c 0.0011,0.0022 0.0023,0.0047 0.0034,0.007 0.367653,0.754176 0.867828,1.42919 1.462891,2.006093 0.07717,0.07396 0.155354,0.147138 0.23584,0.217529 0.170544,0.15092 0.345057,0.297773 0.529785,0.431602 0.184154,0.13174 0.377247,0.248851 0.574219,0.362547 0.07319,0.04277 0.140439,0.0945 0.215332,0.134654 0.119932,0.06429 0.248452,0.111934 0.372558,0.169184 0.240196,0.109465 0.484104,0.21139 0.738282,0.293488 0.111841,0.03649 0.22398,0.07274 0.338378,0.10359 0.37427,0.09998 0.757913,0.180884 1.155274,0.217528 v 0.03104 H 53.875 c 0.370074,0 0.728087,-0.0435 1.080078,-0.107049 0.10584,-0.01938 0.210648,-0.04419 0.314452,-0.06905 0.271628,-0.0642 0.536593,-0.149241 0.792968,-0.248602 0.14681,-0.05785 0.289687,-0.12105 0.430666,-0.189908 0.203798,-0.0979 0.400667,-0.205347 0.591306,-0.324564 0.160931,-0.102253 0.317834,-0.211412 0.468263,-0.328021 0.0828,-0.06328 0.159827,-0.132927 0.239257,-0.200262 0.554078,-0.476226 1.029431,-1.043677 1.391115,-1.688432 l -9.679689,-5.82841 z"
     style="fill:#38afec;stroke-width:1.7589"
     id="path1024" />
  <path
     id="rect348"
     style="fill:url(#linearGradient1499);fill-opacity:1"
     d="M 14.439453,6.0058594 C 13.00283,6.0885962 12,7.1426908 12,8.8046875 V 52 c 0,3.610529 2.087001,5.516934 4,6.259766 l 10,3.095703 c 2.215996,0.806556 4,-0.328926 4,-2.544922 v -16 c 1.195837,-1.44914 4,-2.634825 4,-4.542969 v -22 c 0,-2.215996 -1.784004,-4.650475 -4,-5.457031 L 16,6.2597656 C 15.446001,6.0581265 14.918328,5.9782804 14.439453,6.0058594 Z"
     sodipodi:nodetypes="sssccscssccs" />
</svg>
