<?xml version="1.0" encoding="UTF-8" standalone="no"?>
<!-- Created with Inkscape (http://www.inkscape.org/) -->

<svg
   width="64"
   height="64"
   viewBox="0 0 64 64.000004"
   version="1.1"
   id="svg5"
   inkscape:version="1.3.2 (091e20ef0f, 2023-11-25, custom)"
   sodipodi:docname="folder-documents-open.svg"
   xmlns:inkscape="http://www.inkscape.org/namespaces/inkscape"
   xmlns:sodipodi="http://sodipodi.sourceforge.net/DTD/sodipodi-0.dtd"
   xmlns:xlink="http://www.w3.org/1999/xlink"
   xmlns="http://www.w3.org/2000/svg"
   xmlns:svg="http://www.w3.org/2000/svg">
  <sodipodi:namedview
     id="namedview7"
     pagecolor="#ffffff"
     bordercolor="#000000"
     borderopacity="0.25"
     inkscape:showpageshadow="2"
     inkscape:pageopacity="0.0"
     inkscape:pagecheckerboard="0"
     inkscape:deskcolor="#d1d1d1"
     inkscape:document-units="px"
     showgrid="false"
     inkscape:zoom="12.65625"
     inkscape:cx="32.039506"
     inkscape:cy="32"
     inkscape:window-width="1920"
     inkscape:window-height="1017"
     inkscape:window-x="0"
     inkscape:window-y="0"
     inkscape:window-maximized="1"
     inkscape:current-layer="svg5" />
  <defs
     id="defs2">
    <linearGradient
       inkscape:collect="always"
       id="linearGradient1713">
      <stop
         style="stop-color:#be8b08;stop-opacity:1;"
         offset="0"
         id="stop1709" />
      <stop
         style="stop-color:#fdd164;stop-opacity:1;"
         offset="1"
         id="stop1711" />
    </linearGradient>
    <linearGradient
       inkscape:collect="always"
       id="linearGradient1654">
      <stop
         style="stop-color:#fce798;stop-opacity:1;"
         offset="0"
         id="stop1650" />
      <stop
         style="stop-color:#ffc937;stop-opacity:1;"
         offset="1"
         id="stop1652" />
    </linearGradient>
    <linearGradient
       inkscape:collect="always"
       xlink:href="#linearGradient1654"
       id="linearGradient1499"
       x1="16"
       y1="6.0001335"
       x2="22"
       y2="58.912014"
       gradientUnits="userSpaceOnUse"
       gradientTransform="matrix(1,0.36397024,0,1,0,-5.5638918)" />
    <linearGradient
       inkscape:collect="always"
       xlink:href="#linearGradient1713"
       id="linearGradient1707"
       x1="12"
       y1="32"
       x2="44"
       y2="32"
       gradientUnits="userSpaceOnUse" />
    <linearGradient
       inkscape:collect="always"
       xlink:href="#linearGradient1866"
       id="linearGradient1868"
       x1="50"
       y1="40"
       x2="54"
       y2="36"
       gradientUnits="userSpaceOnUse" />
    <linearGradient
       inkscape:collect="always"
       id="linearGradient1866">
      <stop
         style="stop-color:#a4a4a4;stop-opacity:1;"
         offset="0"
         id="stop1862" />
      <stop
         style="stop-color:#b9b9b9;stop-opacity:1;"
         offset="1"
         id="stop1864" />
    </linearGradient>
    <linearGradient
       inkscape:collect="always"
       xlink:href="#linearGradient1758"
       id="linearGradient1760"
       x1="38"
       y1="32"
       x2="58"
       y2="60"
       gradientUnits="userSpaceOnUse" />
    <linearGradient
       inkscape:collect="always"
       id="linearGradient1758">
      <stop
         style="stop-color:#f5f5f5;stop-opacity:1;"
         offset="0"
         id="stop1754" />
      <stop
         style="stop-color:#e0e0e0;stop-opacity:1;"
         offset="1"
         id="stop1756" />
    </linearGradient>
  </defs>
  <path
     id="rect238"
     style="fill:url(#linearGradient1707);fill-opacity:1;stroke-width:1"
     d="M 14.5,6.0005792 48,6 c 2.216,-3.84e-5 4,1.784 4,4 v 44 c 0,2.216 -1.784,4 -4,4 H 16 L 12,52 V 10 c 0,-2.216 2.5,-3.9994208 2.5,-3.9994208 z"
     sodipodi:nodetypes="cssssccsc" />
  <path
     id="rect547"
     style="fill:url(#linearGradient1760);stroke-width:0.891882"
     d="m 40,32 h 10 l 2,6 6,2 v 18 c 0,1.108 -0.892,2 -2,2 H 40 c -1.108,0 -2,-0.892 -2,-2 V 34 c 0,-1.108 0.892,-2 2,-2 z"
     sodipodi:nodetypes="scccssssss" />
  <path
     id="rect9178"
     style="opacity:0.2;fill:#000000;fill-opacity:1;stroke:none;stroke-width:0.999999;stroke-linecap:round;stroke-linejoin:round;stroke-miterlimit:4;stroke-dasharray:none;stroke-opacity:1"
     d="m 41,43 c -0.554,0 -1,0.445999 -1,1 0,0.554 0.446,1 1,1 h 6 c 0.554,0 1,-0.446 1,-1 0,-0.554001 -0.446,-1 -1,-1 z m 10,0 c -0.554,0 -1,0.445999 -1,1 v 4 c 0,0.554 0.446,1 1,1 h 4 c 0.554,0 1,-0.446001 1,-1 v -4 c 0,-0.554001 -0.446,-1 -1,-1 z m -10,4 c -0.554,0 -1,0.446001 -1,1 0,0.554 0.446,1 1,1 h 6 c 0.554,0 1,-0.446001 1,-1 0,-0.553999 -0.446,-1 -1,-1 z m 0,4 c -0.554,0 -1,0.445999 -1,1 0,0.554 0.446,1 1,1 h 14 c 0.554,0 1,-0.446 1,-1 0,-0.554001 -0.446,-1 -1,-1 z m 0,4 c -0.554,0 -1,0.446001 -1,1 0,0.554 0.446,1 1,1 h 14 c 0.554,0 1,-0.446001 1,-1 0,-0.553999 -0.446,-1 -1,-1 z" />
  <path
     id="rect1762"
     style="fill:url(#linearGradient1868);fill-opacity:1"
     d="m 58,40 h -6 c -1.108,0 -2,-0.892 -2,-2 v -6 z"
     sodipodi:nodetypes="csscc" />
  <path
     id="rect348"
     style="fill:url(#linearGradient1499);fill-opacity:1;stroke-width:1"
     d="M 14.439454,6.0058594 C 13.00283,6.0885962 12,7.1426908 12,8.8046874 V 52 c 0,3.610528 2.087002,5.516934 4,6.259766 l 6,3.095702 c 2.215996,0.806556 4,-0.328926 4,-2.544922 v -16 c 1.195836,-1.44914 4,-2.634824 4,-4.542968 v -22 c 0,-2.215996 -1.784004,-4.650475 -4,-5.457031 L 16,6.2597656 C 15.446002,6.0581264 14.918328,5.9782804 14.439454,6.0058594 Z"
     sodipodi:nodetypes="sssccscssccs" />
</svg>
