<?xml version="1.0" encoding="UTF-8" standalone="no"?>
<!-- Created with Inkscape (http://www.inkscape.org/) -->

<svg
   width="64"
   height="64"
   viewBox="0 0 64 64"
   version="1.1"
   id="svg5"
   inkscape:version="1.2.1 (9c6d41e410, 2022-07-14, custom)"
   sodipodi:docname="network-workgroup.svg"
   xmlns:inkscape="http://www.inkscape.org/namespaces/inkscape"
   xmlns:sodipodi="http://sodipodi.sourceforge.net/DTD/sodipodi-0.dtd"
   xmlns:xlink="http://www.w3.org/1999/xlink"
   xmlns="http://www.w3.org/2000/svg"
   xmlns:svg="http://www.w3.org/2000/svg">
  <sodipodi:namedview
     id="namedview7"
     pagecolor="#ffffff"
     bordercolor="#666666"
     borderopacity="1.0"
     inkscape:pageshadow="2"
     inkscape:pageopacity="0.0"
     inkscape:pagecheckerboard="0"
     inkscape:document-units="px"
     showgrid="false"
     units="px"
     inkscape:zoom="13.328125"
     inkscape:cx="32"
     inkscape:cy="32"
     inkscape:window-width="1920"
     inkscape:window-height="1029"
     inkscape:window-x="0"
     inkscape:window-y="0"
     inkscape:window-maximized="1"
     inkscape:current-layer="svg5"
     inkscape:showpageshadow="2"
     inkscape:deskcolor="#d1d1d1" />
  <defs
     id="defs2">
    <linearGradient
       inkscape:collect="always"
       id="linearGradient3238">
      <stop
         style="stop-color:#0082e5;stop-opacity:1;"
         offset="0"
         id="stop3234" />
      <stop
         style="stop-color:#42b7ff;stop-opacity:1;"
         offset="1"
         id="stop3236" />
    </linearGradient>
    <linearGradient
       inkscape:collect="always"
       id="linearGradient2986">
      <stop
         style="stop-color:#818990;stop-opacity:1;"
         offset="0"
         id="stop2982" />
      <stop
         style="stop-color:#9fa8b0;stop-opacity:1"
         offset="1"
         id="stop2984" />
    </linearGradient>
    <linearGradient
       inkscape:collect="always"
       id="linearGradient1116">
      <stop
         style="stop-color:#555a5f;stop-opacity:1;"
         offset="0"
         id="stop1112" />
      <stop
         style="stop-color:#4b4f53;stop-opacity:1"
         offset="1"
         id="stop1114" />
    </linearGradient>
    <linearGradient
       inkscape:collect="always"
       xlink:href="#linearGradient2986"
       id="linearGradient2988"
       x1="0.092813492"
       y1="10.202362"
       x2="0.092813492"
       y2="13.470933"
       gradientUnits="userSpaceOnUse"
       gradientTransform="matrix(2.3651878,0,0,2.447553,35.780478,23.029177)" />
    <radialGradient
       id="radialGradient875"
       cx="20.107"
       cy="28.705"
       r="28"
       gradientTransform="matrix(0.55256821,0.31203469,-0.24585343,0.4353674,5.4940366,-4.8579874)"
       gradientUnits="userSpaceOnUse">
      <stop
         stop-color="#5ab5e2"
         offset="0"
         id="stop2" />
      <stop
         stop-color="#4189ac"
         offset=".45901"
         id="stop4" />
      <stop
         stop-color="#295e76"
         offset="1"
         id="stop6" />
    </radialGradient>
    <linearGradient
       id="linearGradient883"
       x1="4"
       x2="59.861"
       y1="31.360001"
       y2="31.360001"
       gradientTransform="matrix(0.499976,0,0,0.499976,-0.9994914,5.07e-5)"
       gradientUnits="userSpaceOnUse">
      <stop
         stop-color="#b0d6df"
         offset="0"
         id="stop9" />
      <stop
         stop-color="#e1f8fc"
         offset=".21709"
         id="stop11" />
      <stop
         stop-color="#96c3ce"
         offset="1"
         id="stop13" />
    </linearGradient>
    <linearGradient
       inkscape:collect="always"
       xlink:href="#linearGradient1116"
       id="linearGradient1908"
       x1="4"
       y1="32"
       x2="60"
       y2="32"
       gradientUnits="userSpaceOnUse" />
    <linearGradient
       inkscape:collect="always"
       xlink:href="#linearGradient3238"
       id="linearGradient3240"
       x1="17.902164"
       y1="29.999403"
       x2="60"
       y2="51"
       gradientUnits="userSpaceOnUse" />
  </defs>
  <path
     id="rect958"
     style="fill:#bcc5cf;stroke-width:5.00001;stroke-linecap:round;stroke-linejoin:round"
     d="m 21,55.000004 h 21.999999 l 3,3 h -28 z"
     sodipodi:nodetypes="ccccc" />
  <rect
     style="fill:url(#linearGradient2988);fill-opacity:1;stroke-width:3.18297;stroke-linecap:round;stroke-linejoin:round"
     id="rect2848"
     width="8"
     height="8"
     x="28"
     y="47.999992" />
  <path
     id="rect1418"
     style="fill:#b8c2cc;stroke-width:5.00001;stroke-linecap:round;stroke-linejoin:round"
     d="M 6.0000001,12 H 58.000001 L 60,13 V 28.999999 H 4.0000002 L 4,13 Z"
     sodipodi:nodetypes="ccccccc" />
  <rect
     style="fill:#44484c;fill-opacity:1;stroke-width:5.00001;stroke-linecap:round;stroke-linejoin:round"
     id="rect1839"
     width="28"
     height="2"
     x="18.000002"
     y="58.000004" />
  <rect
     style="fill:url(#linearGradient1908);stroke-linecap:round;fill-opacity:1.0"
     id="rect1537"
     width="56"
     height="38"
     x="4"
     y="13" />
  <rect
     style="fill:url(#linearGradient3240);stroke-linecap:round;fill-opacity:1"
     id="rect1910"
     width="54"
     height="36"
     x="5"
     y="14" />
  <path
     d="M 5,14 H 40 L 15,50 H 5 Z"
     style="color:#000000;opacity:0.15;fill:#ffffff;stroke-width:0.78558;-inkscape-stroke:none"
     id="path3898" />
  <rect
     x="1.0005976"
     y="2"
     width="27.999403"
     height="27.999403"
     rx="13.999701"
     ry="13.999701"
     fill="url(#radialGradient875)"
     id="rect30"
     style="fill:url(#radialGradient875);stroke-width:0.499979" />
  <path
     d="m 15.072633,2.6999864 c -1.079704,0.076573 -2.135935,0.2747717 -3.165986,0.6086589 -0.367484,0.014362 -1.166129,0.4876575 -0.521769,0.7097841 0.299875,0.3203528 1.015771,0.4223018 0.928833,0.9457739 0.115646,0.4601234 -1.069484,0.4392453 -0.675019,0.8559874 0.279697,0.3680881 0.559382,0.736199 0.839096,1.1042985 C 12.994237,6.7586058 13.16466,6.2296836 13.451187,5.8225718 14.24875,5.4707733 15.377546,5.3645119 15.904635,4.687523 16.0698,4.2086417 16.234962,3.7298019 16.400131,3.2509206 15.957628,3.0672734 15.515116,2.8836261 15.072633,2.6999373 Z M 11.233634,2.8230101 C 10.738931,2.7696431 10.422492,3.0736683 10.053226,3.2729855 9.598693,3.3286579 9.0851467,3.4978296 8.7987129,3.8634008 9.3085821,4.0947835 9.6296885,3.8482827 10.069792,3.6734417 10.47842,3.4640937 11.868241,3.3767488 11.233634,2.8229611 Z M 8.0413289,4.2913453 C 7.7869931,4.6795671 8.2199758,5.2414619 7.638175,5.4452011 7.3509914,5.8087538 7.1000262,6.4054883 7.8178273,6.1889592 7.9934241,5.6502518 8.5389052,4.8945919 9.1596986,5.2100993 c 0.6252733,0.168 1.2039744,1.21872 1.7144964,0.3864794 C 10.873989,5.3801252 10.080086,5.253511 10.097818,4.7239765 9.7445423,4.5724175 8.9893689,4.8478316 9.0157353,4.2970486 8.5053528,4.0704282 8.3583556,5.1996565 8.1774795,4.5684943 8.1320912,4.4761227 8.0867066,4.383751 8.0413145,4.2913416 Z M 21.8959,4.7807904 c -0.604086,0.1207937 -1.200755,0.2587842 -1.677491,0.6739918 0.138384,0.5532699 -0.575387,0.6463672 -0.892854,0.9534727 -0.230336,0.1299779 0.0042,1.1340245 0.205995,0.9781606 0.429114,-0.5661468 0.651081,-0.077783 1.049977,0.201789 0.359033,0.3334677 0.587009,-0.6192529 0.396305,-0.8878148 -0.111893,-0.4328353 0.432464,-0.7530406 0.628354,-1.1075149 0.598907,-0.3841701 0.09284,0.4901291 0.07367,0.7953713 -0.302313,0.9020447 1.340938,0.027213 0.25776,0.7012913 -0.290547,0.2901543 -0.396933,0.7200038 -0.84339,0.9344315 C 20.853164,8.3182051 19.933138,8.1802901 20.057035,7.7213043 19.721062,7.1947254 19.803992,8.3550706 19.68985,8.3495147 19.133036,8.1835934 18.967326,8.8051065 18.618127,9.1024646 18.350892,9.4094756 17.40748,9.2189874 18.111805,9.6945616 18.6255,10.287309 18.009429,10.177691 17.584483,10.335558 16.983942,10.438966 17.08432,10.962 17.09986,11.434255 c 0.0093,0.260259 0.585607,0.646368 0.877501,0.464852 0.583041,-0.06244 0.435927,-0.777963 0.866675,-0.99617 0.357906,-0.306368 0.60908,-0.588922 1.146483,-0.596247 0.248111,0.236788 0.74959,0.592747 0.952958,0.786316 -0.561247,0.611505 0.257783,0.561668 0.336129,0.0045 0.276843,-0.306784 -0.911894,-1.028701 -0.127979,-0.711512 0.518875,0.171175 0.399553,0.701246 0.630407,1.059077 0.410359,0.693687 0.454305,0.17605 0.492509,-0.360567 0.681785,-0.214186 0.866581,1.187226 1.785522,0.858558 0.688692,0.180964 0.362332,0.626298 -0.07251,0.913852 -0.397135,0.289663 -0.989313,0.09112 -1.425171,-0.06614 -0.43119,-0.221367 -0.950859,-0.09445 -1.177841,0.345827 -0.503895,-0.434876 -0.860609,-1.125717 -1.592651,-1.163982 -0.693126,-0.03591 -1.392878,0.148385 -2.061784,0.336832 -0.741144,0.869802 -1.543,1.716923 -1.888326,2.82864 -0.358458,0.440508 0.409347,0.704417 -0.174282,1.105323 -0.406323,0.379374 0.138384,0.84796 0.222482,1.273365 0.437271,0.518547 1.107656,2.224225 1.782955,1.564467 0.380036,-0.600446 0.63204,0.393316 1.078911,-0.230325 0.376131,-0.343332 0.680758,0.344958 1.208221,0.100158 0.469037,0.233802 0.509822,0.692099 0.261982,1.130664 -0.15916,0.445274 0.689531,0.628354 0.448061,1.148164 -0.113832,0.508328 0.109156,0.939844 0.361674,1.364644 -0.561295,0.585887 -0.493629,1.453773 -0.353514,2.187919 0.274628,1.006485 0.667925,2.015864 0.628633,3.07564 0.49181,0.128995 0.854589,-0.196724 1.26128,-0.367748 0.776236,0.109795 1.198515,-0.718466 1.680525,-1.193518 -0.362105,-0.486769 0.297467,-0.696813 0.570113,-1.011715 -0.407819,-0.352744 -0.678051,-0.695222 -0.04667,-0.970319 0.29125,-0.295823 0.836857,-0.463048 0.93252,-0.875682 -0.250809,-0.747398 -0.107977,-1.541507 -0.144858,-2.314242 0.309226,-0.623222 0.637547,-1.233185 1.151151,-1.714405 0.204828,-0.67581 0.697138,-1.295252 0.649399,-2.020668 -1.197161,0.358148 -0.835689,-0.152126 -0.172248,-0.637266 0.460407,-0.337663 1.115029,-0.652623 1.255026,-1.228335 0.100482,-0.568203 -0.343571,-1.450417 -0.729898,-0.615614 -0.187665,-0.266041 -0.848756,-0.512761 -0.839609,-0.930376 -0.141577,-0.842173 0.227739,-0.33634 0.556069,0.06138 0.763683,-0.566102 1.760322,1.562415 1.438002,0.04362 -0.436631,-3.286953 -2.10331,-6.3922733 -4.599876,-8.5738921 -0.228295,0.2430992 -0.609267,1.1494677 -0.885714,0.6262979 -0.391373,-0.4151811 -0.698539,-0.7900044 0.09868,-0.6358677 0.781276,-0.2120315 0.003,-0.3353197 -0.406551,-0.3836636 -0.410719,-0.047962 -0.79159,-0.1983874 -1.178401,-0.3354709 z M 6.6040263,4.8011998 C 6.0871574,5.0002675 6.8614197,5.7593403 5.9347472,5.51626 4.9187891,5.9766215 4.2419969,7.0938385 3.5358518,7.9638253 1.8886936,10.291606 0.99317928,13.136248 1.0000391,15.987524 c 0.2702691,0.557839 0.9359266,0.746884 1.4339428,1.054832 0.5061358,0.17314 1.1435422,0.146986 1.3954437,0.706144 0.2817335,0.29503 0.6597596,0.690648 1.0622507,0.722665 0.6185064,-0.198199 0.7057247,0.362608 0.3936854,0.777449 -0.033789,0.454401 -0.5395481,0.820894 -0.4831763,1.220541 0.1126828,0.447795 -0.5633478,0.941012 -0.1079358,1.35069 0.4791164,0.856547 0.9918788,1.688364 1.6398315,2.428154 0.403019,0.353083 0.3552265,0.839236 0.3092259,1.324841 -0.1599307,0.51323 0.3251527,0.810116 0.5855145,1.182369 -0.6344666,1.163278 1.0840434,1.395768 1.8033014,1.904424 0.3616063,-0.330671 0.3903492,-0.865882 0.9902461,-0.880815 0.363779,-0.254853 0.441443,-0.830181 0.691305,-1.212699 -0.008,-0.406307 -0.268196,-0.78599 0.154219,-1.22852 0.318286,-0.268649 0.97508,-0.0895 1.093564,-0.650336 0.432357,-0.445353 0.08252,-1.062576 0.08252,-1.602916 0.335849,-0.460052 0.915254,-0.813196 0.850949,-1.448879 0.07276,-0.948105 -1.634232,-0.905499 -2.235706,-1.480327 C 9.9198939,20.133976 10.069411,19.12649 9.4938829,18.992653 8.9225083,19.021377 8.714753,18.573715 8.512224,18.119211 8.1975216,17.904572 7.60523,18.340767 7.2759103,18.071778 6.9029125,17.875281 6.5683185,17.142291 6.1484674,17.600358 5.5958994,18.001007 5.0524774,18.408001 4.5282819,17.737215 4.1883285,17.430884 4.6154567,16.561286 4.1341297,16.616071 3.1065984,16.987749 4.4597889,15.123566 3.4978899,15.37089 3.2700713,15.72798 2.833091,16.27896 2.4081999,15.856401 1.9815075,15.655632 2.1919921,15.00284 2.2110182,14.611874 c 0.018444,-0.457292 0.5971805,-0.685285 0.9297668,-0.893881 0.6450597,0.288492 0.5126691,-0.571234 1.0517974,-0.283842 0.5229822,-0.111383 0.7591105,0.727563 0.9714394,0.758831 0.1247849,-0.413303 -0.10049,-1.017358 0.2830753,-1.289654 0.4481681,-0.377235 1.0396645,-0.645525 1.1502622,-1.27934 0.00918,-0.677072 0.8307892,-0.10647 1.0347647,-0.567549 C 7.8201706,10.528136 8.3686484,10.561132 8.8319452,10.461454 9.0853587,10.22633 9.7222794,9.5021005 8.9354324,9.7144306 8.6488384,9.6756904 7.4950964,9.8292526 8.2785199,9.5531959 8.6644263,9.2610763 9.1321749,9.301555 9.5653723,9.2441818 9.9065389,8.9553503 10.502932,8.8585868 10.529158,8.3327109 10.246,7.9475997 9.6461971,8.0208999 9.9008054,7.4685522 9.8762006,6.7460275 9.2398325,7.2098813 9.0307702,7.154927 9.3703003,6.6824369 8.5892757,6.3849428 8.3271454,6.3783173 8.1489861,6.8235834 7.6481132,7.2077497 7.8248829,7.7202347 7.3026474,7.8050473 7.057979,8.1830416 6.9010424,8.6536419 6.7444679,8.7081805 6.7953781,7.7306851 6.196111,7.8207512 5.7728202,7.8105465 5.2495442,7.1789119 5.6952015,6.930185 6.306195,6.5436036 7.0658657,6.2410259 7.4522105,5.6235456 7.6743863,5.07051 7.2646515,4.7310631 6.7190461,4.8096017 l -0.076074,-0.00529 z M 16.884007,5.4379557 c -0.337209,0.262337 -1.017965,0.081147 -1.161695,0.3340724 -0.06047,0.5101493 0.731671,0.502167 1.048017,0.2205355 0.517056,-0.1911685 0.494003,-0.1562835 0.113651,-0.554623 z M 9.3932333,5.6994234 C 8.6765888,5.9102833 9.2622311,6.3796666 9.7300535,6.3734152 10.288222,6.328401 9.7689032,5.7034373 9.3932333,5.6994234 Z m 8.5458847,1.4081839 c -0.05125,0.4565065 0.387255,0.7415622 0.206143,1.23888 -0.285184,0.6264869 0.118783,0.8145978 0.60614,0.4295244 0.650893,-0.398245 -0.487749,-1.2706582 -0.63946,-1.6683893 h -0.172837 z m -0.214643,0.734143 c -0.584908,-0.1437732 -0.399864,1.080359 0.002,0.658919 0.432801,-0.075553 0.0172,-0.4090469 -0.002,-0.658919 z m -7.464641,1.1033159 c 0.08587,0.4642318 0.116746,1.2001968 0.456619,0.4096667 -4.67e-4,-0.1536377 -0.335788,-0.2738267 -0.456619,-0.4096667 z m 14.124299,4.7729648 c 0.687479,0.599422 0.965979,1.467545 1.35349,2.264035 0.576603,0.30274 0.235276,0.765736 0.315591,1.154786 0.802836,0.702879 -0.813009,0.328516 -0.61692,-0.438327 -0.13101,-0.890657 -0.703066,-1.485181 -1.170283,-2.129306 -0.03674,-0.340952 -0.402486,-0.72985 0.118136,-0.85118 z"
     fill="url(#linearGradient883)"
     id="path32"
     style="fill:url(#linearGradient883);stroke-width:0.499979" />
</svg>
