<?xml version="1.0" encoding="UTF-8" standalone="no"?>
<!-- Created with Inkscape (http://www.inkscape.org/) -->

<svg
   width="64"
   height="64"
   viewBox="0 0 64 64.000003"
   version="1.1"
   id="svg5"
   inkscape:version="1.3.2 (091e20ef0f, 2023-11-25, custom)"
   sodipodi:docname="user-home.svg"
   xmlns:inkscape="http://www.inkscape.org/namespaces/inkscape"
   xmlns:sodipodi="http://sodipodi.sourceforge.net/DTD/sodipodi-0.dtd"
   xmlns:xlink="http://www.w3.org/1999/xlink"
   xmlns="http://www.w3.org/2000/svg"
   xmlns:svg="http://www.w3.org/2000/svg">
  <sodipodi:namedview
     id="namedview7"
     pagecolor="#ffffff"
     bordercolor="#000000"
     borderopacity="0.25"
     inkscape:showpageshadow="2"
     inkscape:pageopacity="0.0"
     inkscape:pagecheckerboard="0"
     inkscape:deskcolor="#d1d1d1"
     inkscape:document-units="px"
     showgrid="false"
     inkscape:zoom="12.8125"
     inkscape:cx="31.960976"
     inkscape:cy="32"
     inkscape:window-width="1920"
     inkscape:window-height="1017"
     inkscape:window-x="0"
     inkscape:window-y="0"
     inkscape:window-maximized="1"
     inkscape:current-layer="svg5" />
  <defs
     id="defs2">
    <linearGradient
       inkscape:collect="always"
       id="linearGradient1713">
      <stop
         style="stop-color:#be8b08;stop-opacity:1;"
         offset="0"
         id="stop1709" />
      <stop
         style="stop-color:#fdd164;stop-opacity:1;"
         offset="1"
         id="stop1711" />
    </linearGradient>
    <linearGradient
       inkscape:collect="always"
       id="linearGradient1654">
      <stop
         style="stop-color:#fce798;stop-opacity:1;"
         offset="0"
         id="stop1650" />
      <stop
         style="stop-color:#ffc937;stop-opacity:1;"
         offset="1"
         id="stop1652" />
    </linearGradient>
    <linearGradient
       inkscape:collect="always"
       xlink:href="#linearGradient1654"
       id="linearGradient1499"
       x1="16"
       y1="6.0001335"
       x2="26"
       y2="57.456135"
       gradientUnits="userSpaceOnUse"
       gradientTransform="matrix(1,0.36397023,0,1,0,-5.5638918)" />
    <linearGradient
       inkscape:collect="always"
       xlink:href="#linearGradient1713"
       id="linearGradient1707"
       x1="12"
       y1="32"
       x2="44"
       y2="32"
       gradientUnits="userSpaceOnUse" />
    <linearGradient
       inkscape:collect="always"
       xlink:href="#linearGradient1947"
       id="linearGradient890"
       x1="7.3576937"
       y1="11.382834"
       x2="-2.8651724"
       y2="2.7773058"
       gradientUnits="userSpaceOnUse"
       gradientTransform="matrix(2.000023,0,0,2.000023,44.284583,42.234404)" />
    <linearGradient
       inkscape:collect="always"
       id="linearGradient1947">
      <stop
         style="stop-color:#8c959d;stop-opacity:1;"
         offset="0"
         id="stop1943" />
      <stop
         style="stop-color:#bbc2cd;stop-opacity:1;"
         offset="1"
         id="stop1945" />
    </linearGradient>
    <radialGradient
       inkscape:collect="always"
       xlink:href="#linearGradient2435"
       id="radialGradient2437"
       cx="8.5933437"
       cy="14.632429"
       fx="8.5933437"
       fy="14.632429"
       r="7"
       gradientUnits="userSpaceOnUse"
       gradientTransform="matrix(-3.0304925,3.0304923,-3.0304919,-3.0304935,117.38551,53.301409)" />
    <linearGradient
       inkscape:collect="always"
       id="linearGradient2435">
      <stop
         style="stop-color:#eb8d1c;stop-opacity:1;"
         offset="0"
         id="stop2431" />
      <stop
         style="stop-color:#d74c30;stop-opacity:1;"
         offset="1"
         id="stop2433" />
    </linearGradient>
  </defs>
  <path
     id="rect238"
     style="fill:url(#linearGradient1707);fill-opacity:1"
     d="M 14.5,6.0005792 48,6 c 2.216,-3.83e-5 4,1.784 4,4 v 44 c 0,2.216 -1.784,4 -4,4 H 16 L 12,52 V 10 c 0,-2.216 2.5,-3.9994208 2.5,-3.9994208 z"
     sodipodi:nodetypes="cssssccsc" />
  <path
     id="rect857"
     style="fill:url(#linearGradient890);stroke-width:2.00002"
     d="M 47.000002,39.000035 34.999864,49.00015 v 10.000137 c 0,2.216022 1.784025,4.000046 4.000046,4.000046 h 1.999841 c 1.104582,0 2.000023,-0.89544 2.000023,-2.000023 v -8.000115 c 0,-1.108008 0.892013,-2.000022 2.000023,-2.000022 h 4.000045 c 1.108009,0 2.000023,0.892014 2.000023,2.000022 v 8.000115 c 0,1.104583 0.895441,2.000023 2.000023,2.000023 h 2.000205 c 2.216022,0 4.000046,-1.784024 4.000046,-4.000046 V 49.00015 Z"
     sodipodi:nodetypes="ccsssssssssssscc" />
  <path
     id="rect859"
     style="fill:url(#radialGradient2437);fill-opacity:1;stroke-width:2.00002"
     d="m 33.787612,48.555954 c -0.783485,0.783485 -0.78348,2.044977 -1e-6,2.82846 0.783482,0.783487 2.044978,0.783487 2.828462,0 L 47.000002,41.000304 57.38393,51.384412 c 0.783479,0.783481 2.044975,0.783483 2.828456,2e-6 0.783485,-0.783483 0.783485,-2.044979 0,-2.82846 L 48.414232,36.757614 c -0.783474,-0.783487 -2.044976,-0.783484 -2.828461,1e-6 z"
     sodipodi:nodetypes="cccccscscc" />
  <path
     id="rect348"
     style="fill:url(#linearGradient1499);fill-opacity:1"
     d="M 14.439453,6.0058594 C 13.00283,6.0885962 12,7.1426908 12,8.8046875 V 52 c 0,3.610529 2.087001,5.516934 4,6.259766 l 10,3.095703 c 2.215996,0.806556 4,-0.328926 4,-2.544922 v -16 c 1.195837,-1.44914 4,-2.634825 4,-4.542969 v -22 c 0,-2.215996 -1.784004,-4.650475 -4,-5.457031 L 16,6.2597656 C 15.446001,6.0581265 14.918328,5.9782804 14.439453,6.0058594 Z"
     sodipodi:nodetypes="sssccscssccs" />
</svg>
