<?xml version="1.0" encoding="UTF-8" standalone="no"?>
<!-- Created with Inkscape (http://www.inkscape.org/) -->

<svg
   width="16"
   height="16"
   viewBox="0 0 16 16"
   version="1.1"
   id="svg1"
   inkscape:version="1.3.2 (091e20ef0f, 2023-11-25, custom)"
   sodipodi:docname="audio-volume-high-symbolic.svg"
   xmlns:inkscape="http://www.inkscape.org/namespaces/inkscape"
   xmlns:sodipodi="http://sodipodi.sourceforge.net/DTD/sodipodi-0.dtd"
   xmlns="http://www.w3.org/2000/svg"
   xmlns:svg="http://www.w3.org/2000/svg">
  <sodipodi:namedview
     id="namedview1"
     pagecolor="#ffffff"
     bordercolor="#000000"
     borderopacity="0.25"
     inkscape:showpageshadow="2"
     inkscape:pageopacity="0.0"
     inkscape:pagecheckerboard="0"
     inkscape:deskcolor="#d1d1d1"
     inkscape:document-units="px"
     inkscape:zoom="51.25"
     inkscape:cx="7.9902439"
     inkscape:cy="8"
     inkscape:window-width="1920"
     inkscape:window-height="1017"
     inkscape:window-x="0"
     inkscape:window-y="0"
     inkscape:window-maximized="1"
     inkscape:current-layer="svg1" />
  <defs
     id="defs1" />
  <path
     d="M 13.070312,1.93 12.363281,2.5870501 C 14.051276,4.1554358 14.9997,6.2822524 15,8.5005002 14.9997,10.718749 14.051276,12.845563 12.363281,14.41395 L 13.070312,15.071 C 14.945607,13.328649 15.999599,10.964831 16,8.5005002 15.999599,6.0361701 14.945607,3.6723513 13.070312,1.93 Z M 10.949219,3.90115 10.242188,4.5582001 C 11.367578,5.6038527 11.9998,7.0216064 12,8.5005002 11.9998,9.979394 11.367578,11.397147 10.242188,12.4428 l 0.707031,0.65705 C 12.261909,11.880233 12.99972,10.225477 13,8.5005002 12.99972,6.7755241 12.261909,5.1207682 10.949219,3.90115 Z M 8.828125,5.8723001 8.1210938,6.5293501 C 8.6838608,7.0522231 8.99988,7.76096 9,8.5005002 8.99988,9.240041 8.6838612,9.948777 8.1210938,10.47165 L 8.828125,11.1287 C 9.5781912,10.431816 9.99984,9.486123 10,8.5005002 9.9998398,7.5148781 9.578191,6.5691852 8.828125,5.8723001 Z M 7,3 3.5,6 H 1 C 0.44600325,6 0,6.4460036 0,7 v 3 c 0,0.553996 0.44600325,1 1,1 H 3.5 L 7,14 Z M 6,5.3496094 V 11.75 L 3.9140625,10 H 1 V 7 h 2.9140625 z"
     style="fill:#dedede;fill-opacity:1;stroke-width:1.92898;stroke-linecap:round;stroke-linejoin:round;-inkscape-stroke:none;paint-order:normal"
     id="path1" />
</svg>
