<?xml version="1.0" encoding="UTF-8" standalone="no"?>
<!-- Created with Inkscape (http://www.inkscape.org/) -->

<svg
   width="16"
   height="16"
   viewBox="0 0 16 16"
   version="1.1"
   id="svg1"
   inkscape:version="1.3.2 (091e20ef0f, 2023-11-25, custom)"
   sodipodi:docname="audio-volume-overamplified-symbolic.svg"
   xmlns:inkscape="http://www.inkscape.org/namespaces/inkscape"
   xmlns:sodipodi="http://sodipodi.sourceforge.net/DTD/sodipodi-0.dtd"
   xmlns="http://www.w3.org/2000/svg"
   xmlns:svg="http://www.w3.org/2000/svg">
  <sodipodi:namedview
     id="namedview1"
     pagecolor="#ffffff"
     bordercolor="#000000"
     borderopacity="0.25"
     inkscape:showpageshadow="2"
     inkscape:pageopacity="0.0"
     inkscape:pagecheckerboard="0"
     inkscape:deskcolor="#d1d1d1"
     inkscape:document-units="px"
     inkscape:zoom="25.625"
     inkscape:cx="5.8731707"
     inkscape:cy="8.3512195"
     inkscape:window-width="1920"
     inkscape:window-height="1017"
     inkscape:window-x="0"
     inkscape:window-y="0"
     inkscape:window-maximized="1"
     inkscape:current-layer="svg1" />
  <defs
     id="defs1" />
  <path
     id="path1"
     style="fill:#dedede;fill-opacity:1;stroke-width:1.92898;stroke-linecap:round;stroke-linejoin:round;-inkscape-stroke:none;paint-order:normal"
     d="M 15 2 L 15 15 L 16 15 L 16 2 L 15 2 z M 7 3 L 3.5 6 L 1 6 C 0.4460049 6 0 6.4460054 0 7 L 0 10 C 0 10.553993 0.4460049 11 1 11 L 3.5 11 L 7 14 L 7 3 z M 12 4 L 12 13 L 13 13 L 13 4 L 12 4 z M 6 5.3496094 L 6 11.75 L 3.9140625 10 L 1 10 L 1 7 L 3.9140625 7 L 6 5.3496094 z M 9 6 L 9 11 L 10 11 L 10 6 L 9 6 z " />
</svg>
