<?xml version="1.0" encoding="UTF-8" standalone="no"?>
<!-- Created with Inkscape (http://www.inkscape.org/) -->

<svg
   width="16"
   height="16"
   viewBox="0 0 16 16"
   version="1.1"
   id="svg1"
   inkscape:version="1.3.2 (091e20ef0f, 2023-11-25, custom)"
   sodipodi:docname="audio-volume-low-symbolic.svg"
   xmlns:inkscape="http://www.inkscape.org/namespaces/inkscape"
   xmlns:sodipodi="http://sodipodi.sourceforge.net/DTD/sodipodi-0.dtd"
   xmlns="http://www.w3.org/2000/svg"
   xmlns:svg="http://www.w3.org/2000/svg">
  <sodipodi:namedview
     id="namedview1"
     pagecolor="#ffffff"
     bordercolor="#000000"
     borderopacity="0.25"
     inkscape:showpageshadow="2"
     inkscape:pageopacity="0.0"
     inkscape:pagecheckerboard="0"
     inkscape:deskcolor="#d1d1d1"
     inkscape:document-units="px"
     inkscape:zoom="51.25"
     inkscape:cx="7.9902439"
     inkscape:cy="8"
     inkscape:window-width="1920"
     inkscape:window-height="1017"
     inkscape:window-x="0"
     inkscape:window-y="0"
     inkscape:window-maximized="1"
     inkscape:current-layer="svg1" />
  <defs
     id="defs1" />
  <path
     id="path1"
     style="fill:#dedede;fill-opacity:1;stroke-width:2.001"
     d="M 5.2929688 1.9960938 L 2.2910156 4.9980469 L 0 4.9980469 L 0 11.001953 L 2.2910156 11.001953 L 5.2929688 14.003906 L 6.0039062 14.003906 L 6.0039062 1.9960938 L 5.2929688 1.9960938 z M 5.0019531 3.7089844 L 5.0019531 12.291016 L 2.7128906 10 L 1 10 L 1 6 L 2.7128906 6 L 5.0019531 3.7089844 z " />
  <path
     d="m 8.8328,5.17044 c 0.37518,0.37518 0.6643833,0.80768 0.86761,1.2975 0.2032267,0.48982 0.30484,1.0004867 0.30484,1.532 0,0.5315067 -0.1016133,1.042173 -0.30484,1.532 -0.2032267,0.48982 -0.49243,0.92232 -0.86761,1.2975 L 8.12933,10.12597 C 8.4107167,9.844583 8.6269667,9.52151 8.77808,9.15675 8.9291933,8.7867767 9.00475,8.4011767 9.00475,7.99995 9.00475,7.59871 8.9291933,7.21571 8.77808,6.85095 8.6269667,6.4809767 8.4107167,6.1552967 8.12933,5.87391 Z"
     style="fill:#dedede;fill-opacity:1;stroke-width:2.001"
     id="path2"
     sodipodi:nodetypes="cssscccsccc" />
  <path
     id="path3"
     style="fill:#dedede;fill-opacity:1;stroke-width:2.001;opacity:0.2"
     d="M 13.076172 0.92578125 L 12.373047 1.6289062 C 12.795106 2.0510058 13.169115 2.5108266 13.492188 3.0058594 C 13.820474 3.4956589 14.096246 4.0108016 14.320312 4.5527344 C 14.544379 5.0946471 14.713485 5.6585681 14.828125 6.2421875 C 14.947975 6.8206136 15.007812 7.4059606 15.007812 8 C 15.007812 8.5940461 14.947978 9.1820056 14.828125 9.765625 C 14.713485 10.344057 14.544379 10.905366 14.320312 11.447266 C 14.096246 11.989165 13.820474 12.506921 13.492188 13.001953 C 13.169135 13.491806 12.795126 13.949014 12.373047 14.371094 L 13.076172 15.074219 C 13.545158 14.605226 13.960766 14.095968 14.320312 13.548828 C 14.685072 13.001682 14.992068 12.429331 15.242188 11.830078 C 15.492307 11.225619 15.679628 10.60383 15.804688 9.9628906 C 15.934957 9.3167383 16 8.6617793 16 8 C 16 7.3382074 15.93496 6.6878144 15.804688 6.046875 C 15.679628 5.4007289 15.492307 4.7769871 15.242188 4.1777344 C 14.992068 3.573275 14.685072 2.9983113 14.320312 2.4511719 C 13.96076 1.9040191 13.545151 1.3947608 13.076172 0.92578125 z M 10.958984 3.0449219 L 10.248047 3.7558594 C 10.810813 4.3186588 11.242689 4.9664393 11.544922 5.7011719 C 11.852362 6.4359044 12.005859 7.2027341 12.005859 8 C 12.005859 8.7972659 11.852362 9.5640959 11.544922 10.298828 C 11.242695 11.033587 10.810819 11.681368 10.248047 12.244141 L 10.958984 12.955078 C 11.287271 12.626805 11.576052 12.272971 11.826172 11.892578 C 12.081505 11.506992 12.294837 11.10372 12.466797 10.681641 C 12.643964 10.259574 12.776644 9.8231326 12.865234 9.375 C 12.959024 8.9216338 13.005859 8.4637662 13.005859 8 C 13.005859 7.5414138 12.959024 7.0861587 12.865234 6.6328125 C 12.776654 6.179493 12.64397 5.740439 12.466797 5.3183594 C 12.294837 4.8962865 12.081505 4.4956273 11.826172 4.1152344 C 11.576052 3.7296548 11.287271 3.3732082 10.958984 3.0449219 z " />
</svg>
