<?xml version="1.0" encoding="UTF-8" standalone="no"?>
<!-- Created with Inkscape (http://www.inkscape.org/) -->

<svg
   width="16"
   height="16"
   viewBox="0 0 16 16.000001"
   version="1.1"
   id="svg1"
   inkscape:version="1.3.2 (091e20ef0f, 2023-11-25, custom)"
   sodipodi:docname="battery-missing-symbolic.svg"
   xmlns:inkscape="http://www.inkscape.org/namespaces/inkscape"
   xmlns:sodipodi="http://sodipodi.sourceforge.net/DTD/sodipodi-0.dtd"
   xmlns="http://www.w3.org/2000/svg"
   xmlns:svg="http://www.w3.org/2000/svg">
  <sodipodi:namedview
     id="namedview1"
     pagecolor="#ffffff"
     bordercolor="#000000"
     borderopacity="0.25"
     inkscape:showpageshadow="2"
     inkscape:pageopacity="0.0"
     inkscape:pagecheckerboard="0"
     inkscape:deskcolor="#d1d1d1"
     inkscape:document-units="px"
     inkscape:zoom="51.25"
     inkscape:cx="7.9902439"
     inkscape:cy="8"
     inkscape:window-width="1920"
     inkscape:window-height="1017"
     inkscape:window-x="0"
     inkscape:window-y="0"
     inkscape:window-maximized="1"
     inkscape:current-layer="svg1" />
  <defs
     id="defs1" />
  <path
     id="path1"
     style="fill:#dedede;stroke-width:2;fill-opacity:1"
     d="m 1,3 v 10 h 14 v -3 h 1 V 6 H 15 V 3 Z m 1,1 h 12 v 8 H 2 Z" />
  <path
     d="M 7.3342032,5 C 6.9005636,5 6.5437773,5.1237271 6.2619376,5.3730469 5.9855078,5.6169466 5.7898199,5.8941853 5.676,6.203125 l 0.6992188,0.2929688 c 0.1734398,-0.5203295 0.4928648,-0.78125 0.9589844,-0.78125 0.2818397,-10e-8 0.5010233,0.076756 0.6582031,0.2285156 0.1625998,0.1517598 0.2441406,0.3522427 0.2441406,0.6015625 0,0.1300798 -0.032616,0.2581526 -0.097656,0.3828125 -0.05962,0.1192399 -0.1224601,0.2127422 -0.1875,0.2832031 -0.05962,0.06504 -0.1622539,0.1652814 -0.3085938,0.3007813 -0.2601597,0.2384797 -0.441942,0.4480933 -0.5449219,0.6269531 -0.1029798,0.1734398 -0.1542968,0.3811002 -0.1542968,0.625 v 0.3828125 h 0.765625 V 8.8203125 c 0,-0.2981097 0.1654741,-0.5944784 0.4960937,-0.8925781 l 0.039063,-0.041016 C 8.3852793,7.7566389 8.4946514,7.6496603 8.5705313,7.5683594 8.6518312,7.4816395 8.742942,7.3392117 8.8459219,7.1386719 8.9489018,6.9381321 9.0002188,6.7400417 9.0002188,6.5449219 9.0002188,6.0950223 8.8462679,5.7267128 8.5373282,5.4394531 8.2284085,5.1467734 7.8274227,5 7.3342032,5 Z m -0.00781,4.8945312 c -0.1571799,1e-7 -0.2900376,0.05371 -0.3984375,0.1621098 -0.1029799,0.1084 -0.1542969,0.238865 -0.1542969,0.390625 0,0.151759 0.051317,0.282225 0.1542969,0.390625 C 7.0363531,10.946291 7.1692108,11 7.3263907,11 c 0.1571798,0 0.2876451,-0.05371 0.390625,-0.162109 0.1083999,-0.1084 0.1621093,-0.238866 0.1621093,-0.390625 1e-7,-0.15176 -0.053709,-0.282225 -0.1621093,-0.390625 C 7.6140358,9.9482407 7.4835705,9.8945312 7.3263907,9.8945312 Z"
     id="path2"
     class="error"
     style="fill:#d33636;fill-opacity:1" />
</svg>
