<?xml version="1.0" encoding="UTF-8" standalone="no"?>
<!-- Created with Inkscape (http://www.inkscape.org/) -->

<svg
   width="16"
   height="16"
   viewBox="0 0 16 16"
   version="1.1"
   id="svg1"
   sodipodi:docname="network-wireless-signal-weak-symbolic.svg"
   inkscape:version="1.3.2 (091e20ef0f, 2023-11-25, custom)"
   xmlns:inkscape="http://www.inkscape.org/namespaces/inkscape"
   xmlns:sodipodi="http://sodipodi.sourceforge.net/DTD/sodipodi-0.dtd"
   xmlns="http://www.w3.org/2000/svg"
   xmlns:svg="http://www.w3.org/2000/svg">
  <sodipodi:namedview
     id="namedview1"
     pagecolor="#ffffff"
     bordercolor="#000000"
     borderopacity="0.25"
     inkscape:showpageshadow="2"
     inkscape:pageopacity="0.0"
     inkscape:pagecheckerboard="0"
     inkscape:deskcolor="#d1d1d1"
     inkscape:document-units="px"
     inkscape:zoom="51.25"
     inkscape:cx="7.9902439"
     inkscape:cy="8"
     inkscape:window-width="1920"
     inkscape:window-height="1017"
     inkscape:window-x="0"
     inkscape:window-y="0"
     inkscape:window-maximized="1"
     inkscape:current-layer="svg1" />
  <defs
     id="defs1" />
  <path
     id="path1"
     style="fill:#dedede;stroke-width:9.33333;opacity:0.2;fill-opacity:1"
     d="M 15 1 A 14 14 0 0 0 1 15 L 2 15 A 13 13 0 0 1 15 2 L 15 1 z M 15 5 A 10 10 0 0 0 5 15 L 6 15 A 9 9 0 0 1 15 6 L 15 5 z M 15 9 A 6 6 0 0 0 9 15 L 10 15 A 5 5 0 0 1 15 10 L 15 9 z " />
  <circle
     style="fill:#dedede;stroke-width:2;fill-opacity:1"
     id="path2"
     cx="14"
     cy="14"
     r="1" />
</svg>
