<?xml version="1.0" encoding="UTF-8" standalone="no"?>
<!-- Created with Inkscape (http://www.inkscape.org/) -->

<svg
   width="16"
   height="16"
   viewBox="0 0 16 16.000001"
   version="1.1"
   id="svg1"
   inkscape:version="1.3.2 (091e20ef0f, 2023-11-25, custom)"
   sodipodi:docname="notification-new-symbolic.svg"
   xmlns:inkscape="http://www.inkscape.org/namespaces/inkscape"
   xmlns:sodipodi="http://sodipodi.sourceforge.net/DTD/sodipodi-0.dtd"
   xmlns="http://www.w3.org/2000/svg"
   xmlns:svg="http://www.w3.org/2000/svg">
  <sodipodi:namedview
     id="namedview1"
     pagecolor="#ffffff"
     bordercolor="#000000"
     borderopacity="0.25"
     inkscape:showpageshadow="2"
     inkscape:pageopacity="0.0"
     inkscape:pagecheckerboard="0"
     inkscape:deskcolor="#d1d1d1"
     inkscape:document-units="px"
     inkscape:zoom="51.25"
     inkscape:cx="7.9902439"
     inkscape:cy="8"
     inkscape:window-width="1920"
     inkscape:window-height="1017"
     inkscape:window-x="0"
     inkscape:window-y="0"
     inkscape:window-maximized="1"
     inkscape:current-layer="svg1" />
  <defs
     id="defs1" />
  <path
     id="path1"
     style="fill:#dedede;stroke-width:3;stroke-linecap:round;opacity:1;fill-opacity:1"
     d="M 8 1 C 7.4085737 1.000584 6.9467164 1.5111474 7.0058594 2.0996094 C 4.6725789 2.568133 2.9954112 4.6201489 3 7 L 3 11.5 L 1 13.5 L 1 14 L 15 14 L 15 13.5 L 13 11.5 L 13 7.8652344 A 4 4 0 0 1 12 8 L 12 11.921875 L 13 13 L 3 13 L 4 11.921875 L 4 7 C 4 4.7908632 5.7908632 3 8 3 C 8.0447098 3 8.0884567 3.0024506 8.1328125 3.0039062 A 4 4 0 0 1 8.8730469 1.5175781 C 8.7035879 1.211683 8.3791983 1.0003744 8 1 z M 6.2695312 15 C 6.6264299 15.618167 7.2862023 15.999268 8 16 C 8.7134403 15.9989 9.3717959 15.617858 9.7285156 15 L 6.2695312 15 z " />
  <circle
     style="opacity:1;fill:#3daee9;stroke-width:2;fill-opacity:1"
     id="path2"
     cx="12"
     cy="4"
     r="3" />
</svg>
