<?xml version="1.0" encoding="UTF-8" standalone="no"?>
<!-- Created with Inkscape (http://www.inkscape.org/) -->

<svg
   width="64"
   height="64"
   viewBox="0 0 64 64"
   version="1.1"
   id="svg2535"
   inkscape:version="1.2.1 (9c6d41e410, 2022-07-14, custom)"
   sodipodi:docname="applets-screenshooter.svg"
   xmlns:inkscape="http://www.inkscape.org/namespaces/inkscape"
   xmlns:sodipodi="http://sodipodi.sourceforge.net/DTD/sodipodi-0.dtd"
   xmlns:xlink="http://www.w3.org/1999/xlink"
   xmlns="http://www.w3.org/2000/svg"
   xmlns:svg="http://www.w3.org/2000/svg">
  <sodipodi:namedview
     id="namedview2537"
     pagecolor="#ffffff"
     bordercolor="#000000"
     borderopacity="0.25"
     inkscape:showpageshadow="2"
     inkscape:pageopacity="0.0"
     inkscape:pagecheckerboard="0"
     inkscape:deskcolor="#d1d1d1"
     inkscape:document-units="px"
     showgrid="false"
     inkscape:zoom="12.65625"
     inkscape:cx="32"
     inkscape:cy="32"
     inkscape:window-width="1920"
     inkscape:window-height="1012"
     inkscape:window-x="0"
     inkscape:window-y="0"
     inkscape:window-maximized="1"
     inkscape:current-layer="svg2535"
     showguides="false" />
  <defs
     id="defs2532">
    <linearGradient
       inkscape:collect="always"
       id="linearGradient937">
      <stop
         style="stop-color:#e13c0a;stop-opacity:1;"
         offset="0"
         id="stop933" />
      <stop
         style="stop-color:#b4350e;stop-opacity:1;"
         offset="1"
         id="stop935" />
    </linearGradient>
    <linearGradient
       inkscape:collect="always"
       id="linearGradient9982">
      <stop
         style="stop-color:#0e69b4;stop-opacity:1;"
         offset="0"
         id="stop9978" />
      <stop
         style="stop-color:#1299e4;stop-opacity:1;"
         offset="1"
         id="stop9980" />
    </linearGradient>
    <linearGradient
       inkscape:collect="always"
       id="linearGradient7072">
      <stop
         style="stop-color:#cecece;stop-opacity:1;"
         offset="0"
         id="stop7068" />
      <stop
         style="stop-color:#b3b3b3;stop-opacity:1;"
         offset="1"
         id="stop7070" />
    </linearGradient>
    <linearGradient
       inkscape:collect="always"
       id="linearGradient4525">
      <stop
         style="stop-color:#a2a2a2;stop-opacity:1;"
         offset="0"
         id="stop4521" />
      <stop
         style="stop-color:#b3b3b3;stop-opacity:1;"
         offset="1"
         id="stop4523" />
    </linearGradient>
    <linearGradient
       inkscape:collect="always"
       xlink:href="#linearGradient1452"
       id="linearGradient1700"
       x1="40"
       y1="45.999996"
       x2="40.000156"
       y2="62"
       gradientUnits="userSpaceOnUse"
       gradientTransform="matrix(-1,0,0,1,66.000316,-1.999994)" />
    <linearGradient
       inkscape:collect="always"
       id="linearGradient1452">
      <stop
         style="stop-color:#29c3fa;stop-opacity:1;"
         offset="0"
         id="stop1448" />
      <stop
         style="stop-color:#037cd5;stop-opacity:1;"
         offset="1"
         id="stop1450" />
    </linearGradient>
    <linearGradient
       inkscape:collect="always"
       xlink:href="#linearGradient7072"
       id="linearGradient1710"
       x1="9.7895832"
       y1="2.3812497"
       x2="9.7895842"
       y2="12.170834"
       gradientUnits="userSpaceOnUse"
       gradientTransform="matrix(7.559055,0,0,3.7795275,-41.999843,-0.999999)" />
    <linearGradient
       inkscape:collect="always"
       xlink:href="#linearGradient9982"
       id="linearGradient1748"
       gradientUnits="userSpaceOnUse"
       x1="46.000004"
       y1="34"
       x2="62.000004"
       y2="33"
       gradientTransform="matrix(-0.70710678,0.70710678,0.70710678,0.70710678,30.242802,-16.811185)" />
    <linearGradient
       inkscape:collect="always"
       xlink:href="#linearGradient4525"
       id="linearGradient1612"
       x1="2.3812504"
       y1="9.7895842"
       x2="11.90625"
       y2="9.7895842"
       gradientUnits="userSpaceOnUse"
       gradientTransform="matrix(-2.6725295,2.6725295,2.6725295,2.6725295,29.535692,-16.104076)" />
    <linearGradient
       inkscape:collect="always"
       xlink:href="#linearGradient937"
       id="linearGradient939"
       x1="17.278158"
       y1="9.3674898"
       x2="54.623375"
       y2="46.807529"
       gradientUnits="userSpaceOnUse" />
    <linearGradient
       inkscape:collect="always"
       xlink:href="#linearGradient4525"
       id="linearGradient6123"
       x1="-43.497589"
       y1="23.272188"
       x2="-43.497589"
       y2="-12.72781"
       gradientUnits="userSpaceOnUse" />
  </defs>
  <path
     id="rect1603"
     style="fill:url(#linearGradient1612);fill-opacity:1;stroke-width:1.41421"
     d="m 21.757519,39.75736 4.242641,4.242641 21.213202,-21.213202 c 2.350423,-2.350423 2.350423,-6.134858 0,-8.485281 z"
     sodipodi:nodetypes="ccscc" />
  <path
     d="M 26.18492,13.276362 C 21.398432,14.636868 13.003179,18.125969 11.430865,12.217091 10.76505,9.1301011 13.186225,6.709077 16.333764,5.4376189 33.952758,0.28904513 52.842075,9.2913011 54.345222,27.288632 57.611403,53.554598 31.216704,48.359157 22.143769,40.121136 11.914276,30.315337 13.24583,21.65967 13.548576,19.964897 c 0.121023,-0.968485 2.360626,-1.6343 2.905418,0.726364 -1.137245,12.781858 13.978102,24.219689 24.151279,20.822205 13.63189,-4.357125 4.017339,-32.6013346 -14.421072,-28.23665 z"
     style="fill:url(#linearGradient939);stroke-width:3.37447;fill-opacity:1"
     id="path421" />
  <path
     id="rect1718"
     style="fill:url(#linearGradient1748);fill-opacity:1;stroke-width:0.999999"
     d="m 9.8029971,40.398173 c 2.7440129,-2.671478 7.1254569,-2.641942 9.8332039,0.06629 0.23651,0.236733 0.45574,0.49012 0.656005,0.758211 l 1.465313,-1.465314 4.242641,4.242642 -6.36396,6.363961 c -2.733672,2.733671 -7.165827,2.733672 -9.8994978,0 -2.7336713,-2.73367 -2.7336707,-7.165826 3e-7,-9.899496 0.02194,-0.02224 0.044037,-0.04434 0.066277,-0.06628 z m 2.0978019,2.144839 c -0.01426,0.01405 -0.02866,0.02844 -0.04282,0.04282 -1.562095,1.562097 -1.562098,4.09476 -3e-6,5.656855 1.562097,1.562098 4.09476,1.562095 5.656858,0 1.562099,-1.562099 1.562096,-4.094755 -3e-6,-5.656855 -1.545353,-1.545706 -4.045294,-1.56477 -5.614037,-0.04281 z"
     sodipodi:nodetypes="sccccsscssscsscss" />
  <rect
     style="fill:url(#linearGradient6123);stroke-linecap:round;stroke-linejoin:round;fill-opacity:1"
     id="rect5628"
     width="6"
     height="5"
     x="-49.497589"
     y="-12.72781"
     transform="rotate(-135)" />
  <path
     id="path1601"
     style="fill:url(#linearGradient1700);fill-opacity:1;stroke-width:0.999999"
     d="m 32.000316,44.000006 v 2.072266 c 0.331177,-0.04796 0.665368,-0.07211 1,-0.07227 3.865993,0 7,3.134007 7,7 0,3.865993 -3.134007,7 -7,7 -3.865993,0 -7,-3.134007 -7,-7 -2.09e-4,-0.03125 -2.09e-4,-0.0625 0,-0.09375 v -8.90625 z m 1.060547,5 c -0.02018,-1.51e-4 -0.04036,-1.51e-4 -0.06055,0 -2.209138,0 -3.999999,1.790862 -4,4 1e-6,2.209138 1.790862,4 4,4 2.209138,0 3.999999,-1.790862 4,-4 2.49e-4,-2.185708 -1.753996,-3.966914 -3.939453,-4 z"
     sodipodi:nodetypes="cccssccccscsscss" />
  <path
     id="rect1702"
     style="fill:url(#linearGradient1710);fill-opacity:1.0;stroke-width:1.41421"
     d="M 32.000157,8 V 44.000002 H 26.000159 V 14 c 0,-3.324 2.676,-6 5.999998,-6 z"
     sodipodi:nodetypes="cccsc" />
  <circle
     style="fill:#fffffe;fill-opacity:1;stroke-width:0.999998"
     id="path1713"
     cx="29"
     cy="37"
     r="2" />
  <path
     id="rect1109"
     style="opacity:1;fill:#f9f9f9;stroke-linecap:round;stroke-linejoin:round"
     d="m 32.000157,8 c -1.095507,0 -2.117863,0.295954 -3,0.804687 V 30 h 3 z" />
</svg>
