<?xml version="1.0" encoding="UTF-8" standalone="no"?>
<!-- Created with Inkscape (http://www.inkscape.org/) -->

<svg
   width="64"
   height="64"
   viewBox="0 0 64 64"
   version="1.1"
   id="svg2535"
   inkscape:version="1.3.2 (091e20ef0f, 2023-11-25, custom)"
   sodipodi:docname="preferences-security-firewall.svg"
   xmlns:inkscape="http://www.inkscape.org/namespaces/inkscape"
   xmlns:sodipodi="http://sodipodi.sourceforge.net/DTD/sodipodi-0.dtd"
   xmlns:xlink="http://www.w3.org/1999/xlink"
   xmlns="http://www.w3.org/2000/svg"
   xmlns:svg="http://www.w3.org/2000/svg">
  <sodipodi:namedview
     id="namedview2537"
     pagecolor="#ffffff"
     bordercolor="#000000"
     borderopacity="0.25"
     inkscape:showpageshadow="2"
     inkscape:pageopacity="0.0"
     inkscape:pagecheckerboard="0"
     inkscape:deskcolor="#d1d1d1"
     inkscape:document-units="px"
     showgrid="false"
     inkscape:zoom="12.8125"
     inkscape:cx="31.960976"
     inkscape:cy="32"
     inkscape:window-width="1920"
     inkscape:window-height="1017"
     inkscape:window-x="0"
     inkscape:window-y="0"
     inkscape:window-maximized="1"
     inkscape:current-layer="svg2535" />
  <defs
     id="defs2532">
    <radialGradient
       id="radialGradient875"
       cx="20.107"
       cy="28.705"
       r="28"
       gradientTransform="matrix(0.78939993,0.44577328,-0.35122661,0.62196667,10.419335,-5.7973335)"
       gradientUnits="userSpaceOnUse">
      <stop
         stop-color="#5ab5e2"
         offset="0"
         id="stop2" />
      <stop
         stop-color="#4189ac"
         offset=".45901"
         id="stop4" />
      <stop
         stop-color="#295e76"
         offset="1"
         id="stop6" />
    </radialGradient>
    <linearGradient
       id="linearGradient883"
       x1="4"
       x2="59.861"
       y1="31.360001"
       y2="31.360001"
       gradientTransform="matrix(0.71426664,0,0,0.71426664,1.1435233,1.0950858)"
       gradientUnits="userSpaceOnUse">
      <stop
         stop-color="#b0d6df"
         offset="0"
         id="stop9" />
      <stop
         stop-color="#e1f8fc"
         offset=".21709"
         id="stop11" />
      <stop
         stop-color="#96c3ce"
         offset="1"
         id="stop13" />
    </linearGradient>
    <radialGradient
       id="radialGradient875-3"
       cx="20.107"
       cy="28.705"
       r="28"
       gradientTransform="matrix(0.51311877,0.28975761,-0.22830122,0.40428527,6.1726397,-4.3683762)"
       gradientUnits="userSpaceOnUse">
      <stop
         stop-color="#5ab5e2"
         offset="0"
         id="stop2-6" />
      <stop
         stop-color="#4189ac"
         offset=".45901"
         id="stop4-7" />
      <stop
         stop-color="#295e76"
         offset="1"
         id="stop6-5" />
    </radialGradient>
    <linearGradient
       inkscape:collect="always"
       xlink:href="#linearGradient937"
       id="linearGradient939"
       x1="60"
       y1="60"
       x2="20"
       y2="28"
       gradientUnits="userSpaceOnUse"
       gradientTransform="matrix(1,0,0,0.96875,0,1.875)" />
    <linearGradient
       inkscape:collect="always"
       id="linearGradient937">
      <stop
         style="stop-color:#8d4735;stop-opacity:1;"
         offset="0"
         id="stop933" />
      <stop
         style="stop-color:#b35b45;stop-opacity:1;"
         offset="1"
         id="stop935" />
    </linearGradient>
  </defs>
  <rect
     x="4"
     y="4"
     width="40"
     height="40"
     rx="19.999998"
     ry="19.999998"
     fill="url(#radialGradient875)"
     id="rect30"
     style="fill:url(#radialGradient875);stroke-width:0.714271" />
  <path
     id="path32"
     style="fill:url(#linearGradient883);stroke-width:0.714271"
     d="m 24.104823,4.9525077 c -1.542466,0.1093886 -3.050626,0.3913863 -4.522159,0.8683746 -0.524985,0.02049 -1.668717,0.6982816 -0.748183,1.0156074 0.428406,0.457657 1.452302,0.6013027 1.328102,1.3491355 0.16521,0.6573318 -1.528057,0.6275785 -0.964527,1.2229358 0.399571,0.525852 0.799301,1.051629 1.198898,1.577497 0.737803,-0.236981 0.981869,-0.989888 1.391202,-1.571488 1.1394,-0.5025804 2.750548,-0.6554211 3.503547,-1.6225678 C 25.527657,7.1078713 25.764864,6.423884 26.000824,5.7397539 25.368664,5.4773964 24.736954,5.214928 24.104823,4.9525077 Z M 18.36574,5.120774 c -0.567199,0.035951 -0.971679,0.3998731 -1.43327,0.6490273 -0.649344,0.07953 -1.381636,0.322082 -1.790834,0.8443366 0.728397,0.3305567 1.186138,-0.020673 1.814873,-0.2704282 0.583765,-0.2990726 2.571234,-0.425781 1.664634,-1.2169261 -0.08834,-0.00953 -0.174376,-0.011143 -0.255403,-0.00601 z M 15.20173,7.1940559 C 14.669543,7.2736189 14.481331,8.4097 14.255233,7.6207311 14.190391,7.48877 14.124773,7.3591297 14.059924,7.227108 13.696586,7.7817193 14.31417,8.5826519 13.48301,8.8737141 13.072739,9.393085 12.715962,10.246731 13.741419,9.937398 13.992279,9.1678 14.771587,8.0864474 15.658454,8.5371822 16.551719,8.7771867 17.377999,10.278996 18.10733,9.090057 18.107036,8.7808311 16.973243,8.5995741 16.998576,7.843083 16.493886,7.6265647 15.413459,8.0199637 15.451126,7.2331176 15.359984,7.1926487 15.277758,7.1826894 15.20173,7.1940559 Z m 18.650523,0.7301552 c -0.863,0.1725704 -1.71673,0.3713608 -2.397797,0.9645274 C 31.65215,9.67914 30.63397,9.811162 30.18044,10.249893 c -0.329064,0.185688 0.0061,1.619877 0.294466,1.397211 0.613027,-0.808801 0.92951,-0.11094 1.499374,0.288457 0.512917,0.476389 0.837334,-0.88434 0.564893,-1.268008 -0.159847,-0.61835 0.618571,-1.077103 0.898423,-1.583506 0.8556,-0.5488285 0.132528,0.699732 0.105171,1.135798 -0.431881,1.288661 1.91701,0.04062 0.369586,1.003588 -0.415082,0.414514 -0.567104,1.027781 -1.204913,1.334113 -0.344381,0.420342 -1.658346,0.223025 -1.481344,-0.432685 -0.479969,-0.752268 -0.362762,0.906359 -0.525833,0.898422 -0.795463,-0.237033 -1.03356,0.650894 -1.532426,1.075702 -0.381774,0.438594 -1.727341,0.164928 -0.721141,0.844336 0.733863,0.8468 -0.147102,0.69092 -0.754193,0.916452 -0.857934,0.147736 -0.713296,0.89682 -0.691094,1.571487 0.01314,0.371806 0.835985,0.923364 1.252982,0.66405 0.832932,-0.0892 0.622586,-1.112521 1.237959,-1.424254 0.511304,-0.437679 0.869859,-0.842886 1.637593,-0.85335 0.354451,0.338275 1.070626,0.847247 1.361154,1.123778 -0.801796,0.873599 0.368834,0.80195 0.480762,0.006 0.3955,-0.438275 -1.303198,-1.468745 -0.18329,-1.015607 0.741265,0.24454 0.571628,1.0032 0.901425,1.514396 0.586243,0.991001 0.648535,0.249794 0.703113,-0.516817 0.973989,-0.305982 1.23824,1.69848 2.551039,1.228945 0.983868,0.258526 0.516047,0.893265 -0.105172,1.304063 -0.567343,0.413816 -1.411554,0.131515 -2.03422,-0.09314 -0.616004,-0.316254 -1.358397,-0.136185 -1.682663,0.49278 -0.719864,-0.621261 -1.228805,-1.606964 -2.274601,-1.66163 -0.9902,-0.05128 -1.992069,0.211546 -2.947666,0.480762 -1.058798,1.2426 -2.20494,2.453194 -2.698271,4.041397 -0.512096,0.62931 0.587383,1.004764 -0.246389,1.577496 -0.580471,0.541973 0.195359,1.21315 0.315499,1.820883 0.624684,0.740794 1.583304,3.175064 2.548033,2.232534 0.542921,-0.857799 0.903038,0.563418 1.54144,-0.327519 0.537341,-0.490483 0.974198,0.490945 1.727735,0.141229 0.670063,0.334007 0.726652,0.990024 0.372589,1.61656 -0.227371,0.636114 0.984981,0.897997 0.640013,1.640596 -0.162626,0.726197 0.156064,1.343215 0.516818,1.950087 -0.801865,0.836997 -0.704964,2.076145 -0.504798,3.124945 0.392331,1.437866 0.954554,2.87896 0.898421,4.392955 0.702595,0.184294 1.221855,-0.281512 1.802855,-0.525833 1.108941,0.156848 1.712201,-1.025037 2.4008,-1.703696 -0.517302,-0.6954 0.42479,-0.995417 0.814288,-1.445288 -0.582607,-0.50393 -0.97111,-0.992189 -0.06911,-1.385193 0.41608,-0.422613 1.197448,-0.663495 1.33411,-1.252983 -0.358304,-1.067732 -0.154637,-2.201302 -0.207327,-3.305232 0.44176,-0.890335 0.909867,-1.761402 1.643601,-2.448875 0.292619,-0.965463 0.996671,-1.851242 0.92847,-2.887572 -1.710271,0.51165 -1.194184,-0.217357 -0.246391,-0.91044 0.65774,-0.482385 1.59384,-0.932314 1.79384,-1.754778 0.143551,-0.811733 -0.490743,-2.072993 -1.042649,-0.880395 -0.268094,-0.380068 -1.211966,-0.731498 -1.198899,-1.328101 -0.202247,-1.203129 0.324206,-0.481034 0.793256,0.08714 0.904892,-0.670779 2.035619,1.298064 2.133377,0.754193 C 43.360123,16.761333 40.893469,12.209426 37.2296,8.9818859 36.902439,9.344171 36.367601,10.5992 35.976617,9.859274 35.417501,9.266149 34.97593,8.7316378 36.114836,8.9518378 37.230966,8.6489259 36.119873,8.4740407 35.534919,8.4049719 34.948163,8.336483 34.404854,8.1200481 33.852256,7.9242111 Z m -21.399874,0.027044 c -0.08998,-0.00407 -0.185015,9.629e-4 -0.282447,0.015022 L 12.061761,7.957263 12.031709,7.9543 c -0.08347,0.062244 -0.163936,0.1287785 -0.24639,0.1922993 -0.21501,0.4061096 0.375049,1.1208017 -0.736166,0.8293133 -0.08932,0.040474 -0.213594,0.067503 -0.36658,0.084133 -4.0888445,3.6446134 -6.6612969,8.9474394 -6.6795726,14.8765464 0.3872901,0.793978 1.335908,1.06615 2.0462389,1.505384 0.7230688,0.247345 1.6322865,0.210783 1.9921533,1.009597 0.4024859,0.421474 0.942403,0.984894 1.5174014,1.030632 0.883598,-0.283143 1.007667,0.519113 0.56189,1.11176 -0.0483,0.649151 -0.76862,1.171822 -0.688089,1.74276 0.160976,0.639714 -0.8068446,1.343787 -0.156248,1.929053 0.684462,1.223664 1.418044,2.413628 2.34371,3.470492 0.575752,0.50442 0.507422,1.199259 0.441699,1.892996 -0.228481,0.733201 0.463368,1.156872 0.835323,1.688673 -0.141925,0.260216 -0.27167,0.637548 -0.396629,1.057674 0.973979,0.683745 2.008878,1.284346 3.100909,1.787832 0.546232,-0.789889 1.029448,-1.375727 1.28904,-1.382189 0.519695,-0.364086 0.628602,-1.187277 0.98556,-1.733744 -0.01143,-0.580447 -0.381113,-1.122579 0.222351,-1.754779 0.454701,-0.383786 1.393209,-0.127243 1.562476,-0.928469 0.617661,-0.636228 0.117185,-1.517695 0.117185,-2.289623 0.47979,-0.657228 1.30579,-1.162145 1.213922,-2.070277 0.103943,-1.354466 -2.33479,-1.294148 -3.194056,-2.115349 -1.056186,-0.03023 -0.842437,-1.470433 -1.664634,-1.66163 -0.816268,0.04105 -1.110886,-0.59767 -1.400219,-1.246975 -0.449583,-0.306634 -1.29633,0.315166 -1.766796,-0.0691 C 12.433327,26.63059 11.955441,25.583845 11.355641,26.238242 10.566243,26.81061 9.790845,27.391841 9.041979,26.433551 8.556323,25.995925 9.164709,24.75375 8.4770852,24.832013 7.0091534,25.362995 8.94382,22.69987 7.5696488,23.053198 7.244187,23.563339 6.6201851,24.350961 6.0131853,23.747298 5.4036105,23.460478 5.703555,22.527013 5.7307381,21.968482 c 0.026383,-0.653293 0.852969,-0.979023 1.3281021,-1.277023 0.9215331,0.412136 0.7321768,-0.81621 1.5023783,-0.405641 0.7471295,-0.159122 1.0848645,1.040047 1.3881975,1.084717 0.178269,-0.590445 -0.145322,-1.452914 0.402637,-1.841916 0.64025,-0.53892 1.485602,-0.921423 1.643601,-1.826891 0.01316,-0.967266 1.186942,-0.152573 1.47834,-0.811286 0.268647,-0.754734 1.05385,-0.707944 1.715716,-0.850346 0.362026,-0.3359 1.271321,-1.370022 0.147234,-1.066687 -0.409431,-0.05533 -2.056683,0.163004 -0.937485,-0.231367 0.551309,-0.417321 1.217041,-0.359734 1.835907,-0.441698 0.487385,-0.41263 1.341715,-0.549794 1.379183,-1.30106 -0.404523,-0.550171 -1.262156,-0.445871 -0.898422,-1.234955 -0.03515,-1.032199 -0.945303,-0.369199 -1.24397,-0.447708 0.485052,-0.675 -0.629107,-1.099291 -1.003588,-1.108756 -0.254519,0.636108 -0.970668,1.184899 -0.718137,1.917035 -0.746063,0.121167 -1.094888,0.661812 -1.319088,1.334111 -0.223684,0.07791 -0.153482,-1.318552 -1.009597,-1.189883 -0.604715,-0.01459 -1.351798,-0.918685 -0.715133,-1.274017 0.872865,-0.552267 1.960043,-0.983821 2.511976,-1.865953 0.27773,-0.6913121 -0.136337,-1.1494128 -0.766211,-1.1778684 z m 14.23954,0.9134459 c -0.481742,0.374778 -1.453293,0.1134215 -1.658626,0.474752 -0.08637,0.7288 1.044434,0.717843 1.496368,0.315498 0.738659,-0.273104 0.705632,-0.221185 0.162258,-0.79025 z M 15.991981,9.237292 c -1.023798,0.301234 -0.187564,0.970452 0.480762,0.961521 0.797396,-0.06433 0.05593,-0.955787 -0.480762,-0.961521 z m 12.208325,2.010181 c -0.07325,0.652158 0.553193,1.062338 0.294465,1.772806 -0.407407,0.895 0.169129,1.163091 0.86537,0.612971 0.929863,-0.568949 -0.696708,-1.817577 -0.913445,-2.385777 z m -0.450713,1.033637 c -0.657372,0.02068 -0.391054,1.522957 0.147233,0.958517 0.6183,-0.107939 0.02446,-0.583518 -0.003,-0.940489 -0.05223,-0.01284 -0.1004,-0.01941 -0.144227,-0.01803 z M 17.22994,13.87363 c 0.122671,0.663203 0.166497,1.715279 0.652034,0.585927 -6.65e-4,-0.219485 -0.479415,-0.391865 -0.652034,-0.585927 z m 20.176939,6.817791 c 0.982131,0.856335 1.378458,2.098258 1.932058,3.236123 0.823737,0.432499 0.33597,1.093815 0.450713,1.649612 1.146927,1.004165 -1.16053,0.46752 -0.880394,-0.627995 -0.18716,-1.272391 -1.003177,-2.120615 -1.670643,-3.040812 -0.05249,-0.487085 -0.575486,-1.043596 0.168266,-1.216928 z" />
  <rect
     style="fill:url(#linearGradient939);fill-opacity:1;stroke-width:0.984251;stroke-linecap:round;stroke-linejoin:round"
     id="rect377"
     width="40"
     height="31"
     x="20"
     y="29" />
  <path
     id="rect993"
     style="opacity:0.5;fill:#ffffff;fill-opacity:1;stroke-width:0.707107;stroke-linecap:round;stroke-linejoin:round"
     d="m 29,29 v 7 h -9 v 1 h 3 v 7 h -3 v 1 h 9 v 7 h -9 v 1 h 3 v 7 h 1 v -7 h 10 v 7 h 1 v -7 h 10 v 7 h 1 v -7 h 10 v 7 h 1 v -7 h 3 v -1 h -8 v -7 h 8 v -1 h -3 v -7 h 3 v -1 h -8 v -7 h -1 v 7 H 41 v -7 h -1 v 7 H 30 v -7 z m -5,8 h 10 v 7 H 24 Z m 11,0 h 10 v 7 H 35 Z m 11,0 h 10 v 7 H 46 Z m -16,8 h 10 v 7 H 30 Z m 11,0 h 10 v 7 H 41 Z" />
</svg>
